<?xml version="1.0" encoding="utf-8"?>
<!-- Generator: Adobe Illustrator 26.2.1, SVG Export Plug-In . SVG Version: 6.00 Build 0)  -->
<svg version="1.1" id="レイヤー_7" xmlns="http://www.w3.org/2000/svg" xmlns:xlink="http://www.w3.org/1999/xlink" x="0px"
	 y="0px" viewBox="0 0 747 230" style="enable-background:new 0 0 747 230;" xml:space="preserve">
<style type="text/css">
	.st0{fill:#948143;}
</style>
<path class="st0" d="M22.097,193.409c-1.299-0.78-2.858-2.079-3.377-2.079c-1.559,0-3.377,1.558-4.677,2.338
	c-3.897,2.079-4.936,2.858-9.093,4.417c-0.52,0.261-4.936,1.818-4.936,0.261c-0.26-0.52,3.377-1.819,4.157-2.079
	c3.378-1.819,4.677-2.599,7.795-4.417c0.779-0.52,3.377-1.819,3.637-2.338c0-0.781-5.456-5.197-5.976-5.976
	c-3.377-3.898-8.833-13.25-6.235-22.602c0.779-2.858,3.377-7.015,7.015-8.574c0.26-0.26,3.377-1.559,3.897-0.26
	c0.26,1.038-2.079,1.818-2.079,1.818c-4.936,3.118-8.573,7.534-6.755,16.627c0.779,5.196,4.417,10.652,8.054,14.03
	c1.039,1.039,3.377,3.377,3.897,3.377c1.559,0,5.976-4.936,7.794-6.495c17.147-16.367,29.618-36.373,42.868-56.637
	c7.274-11.432,15.328-22.863,22.603-34.294c9.613-15.329,19.485-29.877,33.255-39.231c1.818-1.038,5.196-3.376,8.314-3.636
	c2.078,0,3.117,0,3.117,0.779c0.26,0.779-4.936,2.598-5.976,3.118c-5.975,3.637-11.171,9.093-15.848,15.068
	c-4.417,5.976-9.093,11.692-12.73,17.926l-11.951,18.966c-12.47,19.225-23.122,37.671-37.411,55.338
	c-8.054,9.612-16.627,19.225-26.76,27.538c-1.559,1.04-4.157,3.378-4.157,3.378c0,0.519,2.858,2.079,3.637,2.598
	c8.573,4.936,20.524,8.574,33.774,8.314c13.769-0.52,27.279-5.716,36.372-11.692c9.353-6.495,16.627-15.068,22.083-25.72
	c3.897-7.275,8.054-23.643,3.118-34.295c0-0.519-1.559-3.636-2.079-3.897c-0.78-0.26-3.897,0.78-5.456,0.78
	c-4.676,0.26-9.093,0-12.47-1.819c-1.819-0.779-4.157-2.338-4.157-3.898c-0.26-4.156,8.573-4.417,12.99-3.376
	c3.378,0.779,5.976,2.079,8.833,3.637c1.299,0.52,2.079,1.299,2.858,1.299c2.078,0.26,5.455-1.819,7.794-3.117
	c12.47-5.976,22.083-15.329,28.058-27.54c3.377-6.495,5.716-16.107,4.157-25.46c-2.338-14.809-7.534-23.124-17.667-30.657
	c-9.613-7.014-24.681-12.471-40.789-12.471c-11.691,0-23.122,2.599-32.475,5.716C49.376,34.929,34.307,44.541,23.915,61.17
	c-5.456,8.313-9.873,17.147-10.392,28.058c-0.779,8.573,2.079,19.744,8.314,22.343c0,0,2.598,0,2.339,1.039
	c-0.26,0.779-2.079,0.519-3.118,0.26c-6.235-1.299-9.093-10.652-9.613-17.147c-1.299-14.288,4.417-25.719,10.911-35.332
	c12.99-20.005,32.735-32.215,60.274-37.932c21.304-4.156,41.309-2.079,60.534,9.353c8.574,5.456,14.809,11.432,19.485,20.784
	c2.858,7.274,4.157,11.171,4.157,20.005c-0.26,6.755-1.818,14.549-4.936,19.745c-2.858,5.195-6.495,10.132-9.873,13.769
	c-5.976,7.014-14.549,13.25-24.941,16.627c-1.299,0.52-4.157,1.039-4.417,1.299c-0.26,0.78,2.598,4.157,3.377,5.976
	c2.339,5.195,3.118,10.912,2.598,17.667c-0.779,12.73-7.794,22.343-14.549,29.876c-6.755,7.795-14.809,14.03-25.201,18.707
	c-10.911,4.676-23.382,7.793-37.411,6.495C39.763,201.722,30.41,198.346,22.097,193.409z M115.106,122.742
	c0.26,0-3.377-2.338-4.677-2.858c-2.858-1.558-6.235-2.079-8.833-1.818c-1.818,0.26-3.897,0.26-3.897,1.818
	c-0.52,2.338,5.716,3.898,8.574,4.157C108.611,124.041,115.106,123.782,115.106,122.742z"/>
<path class="st0" d="M149.403,148.203c4.936-9.352,6.235-11.691,11.691-20.264c0.779-1.819,2.338-4.936,3.897-5.456
	c5.715-2.339,1.559,5.456,0.52,7.534l-2.858,5.715c-1.299,2.338,1.299-0.261,1.558-0.78l2.079-1.819
	c2.079-2.079,3.897-3.117,4.417-3.637c4.677-3.118,12.471-7.275,17.667-4.156c2.858,1.558,4.417,6.235,1.299,9.093
	c-1.818,1.558-6.235,2.857-7.014-1.04c0-1.038,0.26-2.078,0.779-2.857c0.52-1.039,1.818-1.299,1.559-2.079
	c-0.779-2.857-8.054,0.78-9.353,1.559c-6.235,3.117-10.132,7.014-14.029,11.431c-2.079,2.079-4.157,4.157-5.716,6.495
	c-3.117,4.417-2.598,4.676-5.715,9.612c-1.039,1.819-3.377,4.676-4.936,2.858C143.947,159.374,148.623,149.762,149.403,148.203z"/>
<path class="st0" d="M194.089,147.684c0.52-4.937,8.054-17.147,12.73-18.446c1.299-0.52,3.637-0.52,4.417,0.78
	c0.779,1.558-6.235,8.313-7.015,9.612c-2.338,3.378-3.897,6.755-4.157,10.133c-0.779,4.936,0.52,8.573,7.794,8.313
	c3.897-0.261,9.873-2.338,13.51-4.677c6.495-4.156,13.77-9.352,21.824-18.186c0.26-0.519,2.858-3.637,4.157-3.117
	c0.52,0.519-1.299,2.598-1.299,2.598c-2.079,2.338-5.196,5.976-7.794,8.314c-3.637,3.376-5.196,4.417-8.314,6.755
	c-6.495,4.676-12.99,10.131-22.603,10.392C198.766,160.414,192.79,157.555,194.089,147.684z M214.613,114.429
	c1.818-0.26,3.637,0.519,4.417,2.079c0,4.936-8.314,6.755-7.794,1.298C211.236,116.767,211.756,114.948,214.613,114.429z"/>
<path class="st0" d="M267.873,146.904c-1.299,5.715,0,10.392,6.755,9.353c7.534-1.04,18.446-11.692,29.618-22.603
	c0.52-0.52,2.858-3.897,4.157-2.599c0.26,0.261,1.039,0-1.039,2.338c-1.559,2.079-4.157,4.677-12.99,12.471
	c-5.456,5.195-12.73,10.652-18.446,12.211c-7.015,1.818-15.068-0.78-14.809-8.313c-0.26-1.3,0.779-3.898-1.039-2.338
	c-1.818,1.557-4.417,4.156-6.495,5.455c-2.598,1.819-5.976,3.898-9.873,3.638c-3.637-0.26-7.274-3.638-7.794-6.236
	c-1.299-5.976,2.078-12.731,6.235-16.627c3.897-3.637,10.392-6.495,16.108-6.235c3.118-0.261,5.976,0,8.314,0.519
	c0.52,0,2.338,0.779,2.598,0.779c0.52,0,2.598-3.117,3.377-4.417c7.274-10.131,20.784-28.318,28.058-36.892
	c6.236-7.014,14.289-17.147,22.603-23.642c2.858-2.338,5.715-4.936,10.132-5.716c10.652-1.818,0.78,9.874-1.039,12.212
	c-14.549,19.486-30.917,35.593-53,59.235c-1.299,1.299-2.858,2.599-4.157,4.157c-1.558,1.558-3.637,2.858-4.417,4.156
	C269.692,139.889,268.653,143.267,267.873,146.904z M267.353,131.576c-0.52-0.52-6.235-0.78-6.235-0.78
	c-6.235,0.26-10.912,3.898-14.809,7.795c-1.558,1.818-2.598,2.857-3.897,5.455c-1.039,1.819-2.598,4.676-2.078,7.534
	c1.558,5.975,11.951-0.78,14.029-2.338c3.118-2.338,6.495-4.417,7.794-6.755c0.779-1.299,2.598-5.196,3.637-7.275
	C266.314,134.434,267.873,132.096,267.353,131.576z M277.226,127.939c2.338-2.079,4.677-4.417,6.495-6.236
	c20.264-21.304,34.294-35.333,47.024-51.96c1.299-1.559,7.274-8.833,4.676-9.614h-0.52c-2.858,1.3-5.716,3.898-8.314,6.236
	c-2.338,2.338-4.676,5.196-6.755,7.534c-12.99,14.03-24.681,28.318-40.789,50.661C278.265,125.601,274.888,130.277,277.226,127.939z
	"/>
<path class="st0" d="M337.5,155.737c4.157-2.339,7.534-5.456,9.872-7.275c5.196-3.897,10.133-9.872,15.328-14.808
	c0.26,0,1.559-2.338,2.598-1.558c1.039,0.779-2.598,4.417-3.118,4.936c-3.637,4.157-9.093,8.833-12.99,12.211
	c-2.598,2.338-5.976,5.196-9.613,7.275c-5.455,3.117-18.965,8.054-20.264-2.338c0-1.559,0.26-4.417,0.779-6.236
	c0.26-0.519,1.039-1.559,0.78-1.819c-0.26-0.519-1.819,1.039-1.819,1.039c-3.637,2.858-9.093,7.794-14.289,9.094
	c-9.093,2.078-11.951-6.236-8.833-13.25c2.078-4.417,5.456-7.535,9.093-10.393c4.677-3.638,9.353-5.976,16.108-6.236
	c3.377,0,7.794,1.04,10.392,3.118c0.52,0.261,1.559,1.299,1.559,1.299c1.299,0,2.598-1.819,3.637-2.598
	c0.78-0.26,3.637-2.079,4.417-0.26c1.039,1.819-4.157,5.975-4.936,6.755c-3.377,3.898-7.274,8.054-9.872,13.51
	c-1.039,2.338-2.858,6.495-1.559,9.093C326.848,160.934,334.642,157.296,337.5,155.737z M309.441,152.36
	c3.118-2.079,5.456-4.157,7.534-5.976c4.157-3.376,7.274-5.715,10.652-9.612c0.779-0.78,3.117-2.858,2.858-3.898
	c-0.26-2.079-7.794-3.117-10.652-2.598c-4.936,0.779-9.093,4.157-11.951,7.274c-1.818,2.079-3.117,3.898-5.196,7.534
	c-1.039,2.079-4.417,7.015-2.858,9.353C301.647,156.777,307.623,153.659,309.441,152.36z"/>
<path class="st0" d="M357.765,149.242c0.52-4.937,2.858-10.392,4.936-14.808c6.495-13.51,15.069-24.942,23.123-35.593
	c9.873-13.25,16.107-21.564,27.539-31.437c3.377-3.118,8.833-7.534,13.51-8.054c7.794-0.78,3.377,8.833,1.039,12.731
	c-2.598,4.156-5.196,7.793-6.495,9.612c-4.936,6.755-10.392,12.471-14.808,17.407c-4.937,5.195-10.393,10.912-16.108,16.107
	c-4.157,3.638-8.574,7.275-13.25,10.912c-1.558,1.3-3.637,2.338-4.676,3.377c-1.299,1.299-2.599,4.157-3.638,6.495
	c-3.117,6.235-10.911,27.28,4.677,24.682c1.039-0.261,2.857-0.781,4.157-1.3c6.235-2.598,12.989-8.314,18.445-13.25
	c3.118-2.857,8.055-7.274,11.432-11.691c0.779-1.04,2.078-3.638,3.897-2.858c0.78,0.52,0,1.558-0.26,2.079
	c-1.559,2.599-3.898,5.196-5.975,7.534c-3.378,3.637-6.495,6.495-9.353,9.093c-4.936,4.417-15.069,12.47-23.902,13.25
	C362.962,164.31,356.986,159.374,357.765,149.242z M405.83,97.282c7.275-8.054,13.25-14.549,18.965-23.642
	c1.559-2.599,4.417-7.015,4.157-10.132c-0.26-1.819-1.039-1.559-1.039-1.559c-0.26,0-0.52,0.26-0.52,0.26
	c-5.975,3.119-10.392,8.314-15.068,13.25c-4.676,4.676-8.833,9.874-12.99,15.329c-7.014,9.613-13.769,18.966-20.524,28.838
	c-0.52,0.78-4.157,5.456-1.819,3.898C387.903,115.988,397.256,106.375,405.83,97.282z"/>
<g>
	<path class="st0" d="M486.643,123.333c-4.42-1.3-8.319-4.42-10.659-7.28c-5.72-5.72-11.18-14.3-11.439-25.479
		c-0.521-11.96,3.38-22.1,7.8-29.899c4.42-8.32,12.479-16.379,20.539-20.02c16.64-8.84,40.299-10.4,65.519-9.36
		c22.62,0.52,44.459,5.46,66.818,8.58c15.08,2.08,34.319,6.5,50.699,1.56c5.46-2.08,12.22-4.68,13.52-9.359
		c0.521-1.3-0.26-3.12,1.04-3.64c3.38-2.08,6.76,1.56,6.76,3.38c0.261,3.12-7.8,7.54-10.659,8.84c-5.2,1.82-11.44,3.9-15.34,4.68
		c-12.22,1.82-25.22,0-35.879-1.56c-23.4-3.12-45.5-8.06-68.639-9.36c-26.26-1.82-51.22-1.04-68.898,7.28
		c-9.36,3.9-16.38,11.7-21.58,20.279c-4.939,7.8-9.1,18.2-7.8,30.939c0.521,6.5,2.86,10.92,5.72,15.08
		c4.68,7.54,11.18,13.78,22.88,14.3c1.04,0.26,3.64-0.52,4.16,0.52c0.26,1.3-2.601,2.08-2.86,2.08
		C494.442,125.672,489.243,124.373,486.643,123.333z M468.443,207.311c0.521-0.78,1.82,0.52,3.38,0c1.561,0,4.68-1.82,7.28-3.12
		c6.5-3.12,12.479-8.06,17.419-13c10.66-10.66,18.72-21.319,27.819-33.539c7.8-11.18,15.86-21.839,23.4-34.839
		c1.3-2.08,0.52-1.82-2.341-2.08c-4.939,0.26-7.279,0.52-12.22,2.08c-2.859,1.04-7.02,2.34-7.02,3.64c0,0.78,1.3,1.56,1.04,1.82
		c-1.56,1.82-4.939-0.26-5.2-1.56c-0.52-3.12,5.46-5.2,8.58-6.5c3.9-1.04,8.84-2.08,12.74-2.08c1.3,0,5.72,0.78,6.76,0.26
		c1.04-0.26,4.68-7.28,5.72-8.84c5.46-8.84,11.699-19.239,17.42-26.52c5.72-7.54,12.479-16.64,21.319-22.619
		c2.859-2.08,5.72-4.42,9.619-5.2c1.82-0.52,8.061,0.26,3.38,1.56c-0.779,0-2.34,0-2.34,0.26c-2.859,1.04-5.979,3.38-8.319,5.72
		c-7.021,5.98-12.74,14.56-17.939,22.1c-6.76,9.36-11.7,19.5-17.68,29.639c-0.78,1.3-2.86,4.42-2.601,4.42
		c0.261,0.78,4.42,1.04,6.76,1.3c5.98,1.3,8.58,1.56,14.3,1.82c2.08,0.52,5.98,1.3,7.28,0.78c1.82-0.52,4.42-6.5,9.88-6.24
		c5.2,0.52,2.08,5.98-1.3,7.28c-1.561,0.78-3.641,0.26-5.2,1.04c-1.04,0.52-2.6,3.64-3.38,4.68s-1.82,4.42-3.64,3.64
		c-2.08-0.52-0.261-2.08,0.779-3.64c0.261-0.78,1.82-3.9,1.82-4.16c-0.26-0.26-5.2-0.52-7.28-1.04
		c-6.499-0.52-8.319-0.52-14.56-1.82c-2.34-0.26-5.72-1.04-7.02-0.78c-1.56,0.52-3.38,4.68-4.42,6.76
		c-7.8,11.44-15.6,22.1-23.399,32.5c-3.38,4.16-7.28,8.84-9.88,12.22c-7.02,8.06-14.56,16.38-22.1,23.14
		c-5.72,5.2-12.479,9.36-21.579,11.959l-4.42,1.3C471.304,209.651,467.403,208.871,468.443,207.311z M594.541,120.473
		c-0.521,0.26-1.561,1.04-1.3,1.04C593.501,122.033,595.061,120.473,594.541,120.473z"/>
	<path class="st0" d="M645.763,155.832c4.16-2.34,7.54-5.46,9.88-7.28c5.199-3.9,10.14-9.88,15.34-14.82c0.26,0,1.56-2.34,2.6-1.56
		s-2.6,4.42-3.12,4.94c-3.64,4.16-9.1,8.84-13,12.22c-2.6,2.34-5.979,5.2-9.619,7.28c-5.46,3.12-18.979,8.06-20.28-2.34
		c0-1.56,0.261-4.42,0.78-6.24c0.26-0.52,1.04-1.56,0.78-1.82c-0.26-0.52-1.82,1.04-1.82,1.04c-3.64,2.86-9.1,7.8-14.3,9.1
		c-9.1,2.08-11.959-6.24-8.84-13.26c2.08-4.42,5.46-7.54,9.101-10.4c4.68-3.64,9.359-5.98,16.119-6.24c3.38,0,7.8,1.04,10.399,3.12
		c0.521,0.26,1.561,1.3,1.561,1.3c1.3,0,2.6-1.82,3.64-2.6c0.78-0.26,3.64-2.08,4.42-0.26c1.04,1.82-4.16,5.979-4.939,6.76
		c-3.38,3.9-7.28,8.06-9.88,13.52c-1.04,2.34-2.86,6.5-1.561,9.1C635.103,161.032,642.902,157.392,645.763,155.832z
		 M617.684,152.452c3.119-2.08,5.459-4.16,7.539-5.98c4.16-3.38,7.28-5.72,10.66-9.62c0.78-0.78,3.12-2.86,2.86-3.9
		c-0.261-2.08-7.801-3.12-10.66-2.6c-4.94,0.78-9.1,4.16-11.96,7.28c-1.82,2.08-3.12,3.9-5.2,7.54c-1.039,2.08-4.42,7.02-2.859,9.36
		C609.884,156.872,615.863,153.752,617.684,152.452z"/>
	<path class="st0" d="M662.663,147.772c0.52-4.94,8.06-17.16,12.739-18.459c1.3-0.52,3.64-0.52,4.42,0.78
		c0.78,1.56-6.24,8.32-7.02,9.62c-2.34,3.38-3.9,6.76-4.16,10.14c-0.78,4.94,0.52,8.58,7.8,8.32c3.9-0.26,9.88-2.34,13.52-4.68
		c6.5-4.16,13.78-9.359,21.84-18.199c0.26-0.52,2.859-3.64,4.16-3.12c0.52,0.52-1.301,2.6-1.301,2.6
		c-2.079,2.34-5.199,5.979-7.8,8.32c-3.64,3.38-5.199,4.42-8.319,6.76c-6.5,4.68-13,10.14-22.619,10.4
		C667.343,160.512,661.362,157.652,662.663,147.772z M683.202,114.493c1.82-0.26,3.64,0.52,4.42,2.08c0,4.94-8.319,6.76-7.8,1.3
		C679.822,116.833,680.343,115.013,683.202,114.493z"/>
	<path class="st0" d="M704.001,148.292c4.94-9.36,6.24-11.7,11.7-20.279c0.78-1.82,2.34-4.94,3.899-5.46
		c5.721-2.34,1.561,5.46,0.521,7.54l-2.86,5.72c-1.3,2.34,1.3-0.26,1.561-0.78l2.08-1.82c2.079-2.08,3.899-3.12,4.42-3.64
		c4.68-3.12,12.479-7.28,17.68-4.16c2.859,1.56,4.419,6.24,1.3,9.1c-1.82,1.56-6.24,2.86-7.021-1.04c0-1.04,0.261-2.08,0.78-2.86
		c0.521-1.04,1.82-1.3,1.56-2.08c-0.779-2.86-8.06,0.78-9.359,1.56c-6.24,3.12-10.14,7.02-14.04,11.44
		c-2.08,2.08-4.159,4.16-5.72,6.5c-3.12,4.42-2.6,4.68-5.72,9.62c-1.04,1.82-3.38,4.68-4.939,2.86
		C698.541,159.472,703.222,149.852,704.001,148.292z"/>
</g>
</svg>
