<?xml version="1.0" encoding="utf-8"?>
<!-- Generator: Adobe Illustrator 26.2.1, SVG Export Plug-In . SVG Version: 6.00 Build 0)  -->
<svg version="1.1" id="レイヤー_3" xmlns="http://www.w3.org/2000/svg" xmlns:xlink="http://www.w3.org/1999/xlink" x="0px"
	 y="0px" viewBox="0 0 582 230" style="enable-background:new 0 0 582 230;" xml:space="preserve">
<style type="text/css">
	.st0{fill:#675952;}
</style>
<g>
	<path class="st0" d="M206.344,30.988c-2.598,19.225-34.813,41.309-58.456,51.961c-27.019,12.73-52.74,16.368-85.735,13.769
		c-2.079-0.26-6.495-1.039-7.535-0.519c-0.779,0.26-1.818,2.598-2.079,3.377c-4.156,9.613-6.494,25.201-3.897,37.931
		c3.118,13.25,13.25,22.343,24.941,27.539c13.77,5.975,31.437,4.936,42.608,0.26c9.353-3.897,18.186-11.171,24.681-18.966
		c0.78-1.039,0.78-1.039,1.559-1.819c0,0,0.519-1.558,1.558-1.039c1.039,0.52,0,3.118-0.78,4.157
		c-1.818,3.118-5.456,6.236-8.313,8.574c-4.417,4.157-8.833,6.755-13.25,9.353c-9.613,4.677-22.863,7.794-38.192,5.456
		c-8.833-1.299-16.887-5.456-23.642-9.612c-11.951-8.055-21.304-21.564-18.966-42.349c0.26-2.598,3.118-19.485,5.196-24.161
		c-1.3,0.519-20.785-7.794-29.877-13.25C8.634,77.233-0.2,68.139,0.06,55.669C0.58,40.081,9.933,32.027,20.845,28.13
		c4.676-1.299,10.652-3.637,17.407-2.078c0.779,0.26,3.377,1.038,2.857,2.857c-0.519,1.559-2.079-0.78-2.598-0.78
		c-5.196-1.299-10.912-0.26-16.108,1.819C12.53,33.846,3.437,41.12,3.178,55.15c-0.519,11.951,7.275,20.524,15.069,24.94
		c8.054,4.676,28.318,13.25,29.098,12.471C55.658,72.296,79.56,41.64,98.526,29.689c30.917-19.226,55.079-24.681,78.201-23.643
		C191.535,6.826,208.682,14.879,206.344,30.988z M203.746,28.129c-0.26-11.171-14.03-17.926-24.422-18.705
		c-15.069-1.3-41.049,5.455-57.936,13.769C90.472,38.522,72.805,58.787,57.996,88.145c-1.039,1.558-2.598,4.936-2.338,5.455
		c0.261,0.261,5.716,0.78,7.275,1.039c35.853,3.898,63.132-3.637,84.176-14.288C172.05,68.139,204.265,46.316,203.746,28.129z"/>
	<path class="st0" d="M172.054,118.801c-0.26-4.157,1.819-9.353,4.677-12.73c4.156-4.937,11.171-9.093,18.966-9.873
		c3.377-0.26,7.274,0.26,7.535,2.857c0.519,2.599-1.819,6.236-3.638,7.794c-3.637,3.638-10.132,5.716-16.107,6.495
		c-0.52,0-2.079,0-2.858,0.261c-1.819,1.038-3.118,6.235-1.819,9.353c1.559,3.377,7.015,4.936,12.99,4.417
		c6.236-0.52,14.03-4.417,20.005-7.794c8.055-4.676,14.03-10.392,18.706-16.108c0.78-0.779,2.338-2.857,3.118-2.338
		c0.78,0.52,1.558-0.519-1.039,2.599c-3.637,4.676-12.47,12.73-17.926,15.848c-7.014,4.676-17.407,10.132-27.02,10.132
		C179.848,129.713,172.833,126.076,172.054,118.801z M187.123,110.488c5.196-1.299,9.613-3.377,11.951-5.976
		c0.779-0.779,2.598-3.377,2.079-4.676c-0.261-1.299-1.819-1.039-2.858-1.039c-3.637,0.26-7.014,2.858-9.613,4.937
		c-1.039,1.039-3.897,3.637-5.195,5.195c0.26-0.26-1.559,2.079-1.299,2.338C182.706,111.787,185.564,110.747,187.123,110.488z"/>
	<path class="st0" d="M222.455,117.243c4.937-9.353,6.236-11.692,11.692-20.264c0.78-1.819,2.338-4.937,3.897-5.456
		c5.716-2.339,1.559,5.456,0.52,7.534l-2.858,5.717c-1.299,2.338,1.299-0.261,1.559-0.78l2.079-1.819
		c2.078-2.079,3.897-3.118,4.417-3.637c4.676-3.118,12.47-7.275,17.666-4.157c2.858,1.559,4.417,6.236,1.3,9.093
		c-1.819,1.559-6.236,2.858-7.015-1.039c0-1.039,0.261-2.078,0.78-2.857c0.52-1.039,1.819-1.299,1.558-2.079
		c-0.779-2.858-8.054,0.78-9.353,1.558c-6.236,3.118-10.132,7.015-14.03,11.432c-2.079,2.079-4.156,4.156-5.716,6.495
		c-3.118,4.417-2.598,4.676-5.716,9.612c-1.039,1.819-3.377,4.676-4.936,2.858C216.999,128.414,221.676,118.801,222.455,117.243z"/>
	<path class="st0" d="M265.842,118.801c-0.26-4.157,1.819-9.353,4.677-12.73c4.156-4.937,11.171-9.093,18.966-9.873
		c3.377-0.26,7.274,0.26,7.534,2.857c0.519,2.599-1.819,6.236-3.638,7.794c-3.637,3.638-10.132,5.716-16.107,6.495
		c-0.52,0-2.079,0-2.858,0.261c-1.819,1.038-3.118,6.235-1.819,9.353c1.559,3.377,7.015,4.936,12.99,4.417
		c6.236-0.52,14.03-4.417,20.005-7.794c8.055-4.676,14.03-10.392,18.706-16.108c0.78-0.779,2.338-2.857,3.118-2.338
		c0.78,0.52,1.558-0.519-1.039,2.599c-3.637,4.676-12.47,12.73-17.926,15.848c-7.014,4.676-17.407,10.132-27.02,10.132
		C273.636,129.713,266.622,126.076,265.842,118.801z M280.911,110.488c5.196-1.299,9.613-3.377,11.951-5.976
		c0.779-0.779,2.598-3.377,2.079-4.676c-0.261-1.299-1.819-1.039-2.858-1.039c-3.637,0.26-7.014,2.858-9.613,4.937
		c-1.039,1.039-3.897,3.637-5.195,5.195c0.26-0.26-1.559,2.079-1.299,2.338C276.495,111.787,279.353,110.747,280.911,110.488z"/>
	<path class="st0" d="M364.827,114.905c0.78-1.819,2.338-4.677,3.637-7.015c0.78-1.299,4.937-7.014,3.638-8.573
		c-1.559-1.819-7.535,1.039-10.652,3.637c-3.377,2.857-5.456,4.676-7.535,6.755c-3.377,3.898-5.716,6.495-9.093,11.431
		c-0.78,0.78-2.857,2.858-4.157,1.299c-1.039-1.558,3.898-9.353,4.677-11.171c0.26-1.039,5.456-9.612,3.377-12.211
		c-2.079-3.117-10.912,2.338-12.211,3.118c-3.377,2.338-6.236,4.676-9.353,7.535c-4.157,4.157-4.417,4.417-8.833,11.171
		c-0.519,0.78-2.857,4.937-3.637,5.456c-1.039,0.26-5.456,0.26-4.937-0.78c0.261-2.079,3.898-7.794,5.196-9.612
		c4.157-6.236,6.755-11.171,11.171-16.888c1.299-1.818,5.456-8.313,7.275-8.313c1.039,0,4.157,0.26,3.377,1.558l-4.157,6.495
		c-0.26,0.52-3.637,5.456-3.377,5.976c0.26,0.26,1.039-0.261,1.819-0.78c3.897-3.118,9.093-7.014,14.549-7.535
		c5.456-0.78,9.352,2.079,8.313,8.054c-0.26,1.559-1.558,3.377-1.299,3.638c3.377-3.118,4.417-4.417,6.755-6.495
		c3.638-3.377,8.833-5.976,12.731-5.456c2.598,0.26,4.417,1.818,4.936,4.936c1.299,8.055-9.873,15.069-8.313,21.824
		c0.519,2.338,3.118,2.858,5.975,2.338c5.975-1.558,9.353-4.417,14.549-9.353c3.377-3.377,7.534-8.574,11.171-12.731
		c0.261-0.26,2.599-3.637,4.157-2.598c0.78,0.779-2.338,4.157-2.858,4.676c-6.235,7.014-13.25,16.368-18.966,18.966
		c-2.857,2.079-7.014,3.637-10.911,3.637C365.607,127.894,362.229,122.699,364.827,114.905z"/>
	<path class="st0" d="M391.589,118.801c-0.261-5.716,3.637-11.431,6.755-14.808c3.377-3.637,8.054-6.236,14.289-7.014
		c5.716-0.52,12.211,1.038,13.25,4.156c0-0.26,0.779,2.599-0.261,5.716c-0.26,1.559-1.299,2.858-1.039,3.638
		c0.52,1.299,6.236,2.079,8.055,2.338c8.573,0.78,19.225-7.794,25.72-11.692c0.78-0.519,1.819-1.818,2.598-1.299
		c1.039,0.78-2.079,3.377-2.338,3.637c-7.014,4.677-18.966,13.511-30.397,11.171c-1.559-0.26-3.118-1.299-4.417-1.038
		c-1.299,1.038-2.338,2.598-3.638,4.156c-3.377,3.638-7.014,6.495-11.431,8.314C401.98,128.933,391.848,128.414,391.589,118.801z
		 M418.089,116.723c1.038-1.299,3.897-4.156,3.897-5.456c-0.26-1.558-3.377-1.558-2.598-5.975c0.26-2.079,2.598-3.377,2.338-3.898
		c-0.52-0.779-6.495-1.038-6.755-1.038c-9.353,0.779-16.108,9.872-17.926,18.186c-2.339,8.833,5.455,8.574,10.651,6.236
		C412.113,122.699,414.971,120.1,418.089,116.723z M423.025,109.188c0.519-0.26,1.299-5.716-0.26-5.455
		C420.427,104.252,421.726,109.708,423.025,109.188L423.025,109.188z"/>
	<path class="st0" d="M479.143,116.983c1.039-2.339,3.897-6.756,5.456-9.353c1.818-2.598,5.716-7.274,3.897-9.613
		c-2.079-2.598-9.612,1.3-12.73,3.118c-3.898,2.338-7.015,5.196-9.613,7.535c-4.676,4.417-8.833,7.535-12.47,13.25
		c-1.039,1.819-2.338,5.196-3.118,5.456c-0.519,0.26-5.196,0.26-5.196,0.26c-0.519-0.78,1.819-4.417,1.819-4.676
		c3.637-7.535,7.534-14.03,11.431-21.044c1.559-2.598,3.377-6.755,5.196-7.535c0.78-0.26,3.897-0.26,4.417,0
		c0.26,0,0.26,0.26,0.26,0.26c-0.26,1.559-1.558,5.456-3.897,9.094c-1.039,2.078-5.196,7.014-4.937,7.794
		c0.26,0.519,1.299-0.52,1.559-0.78c2.598-2.079,8.054-7.275,10.392-9.093c2.858-2.079,11.692-6.495,15.848-6.236
		c11.951,1.039,5.196,11.692,2.599,15.848l-2.858,5.456c-0.78,1.559-2.079,5.196-1.558,7.275c1.039,4.157,7.534,1.299,10.132,0
		c4.157-1.819,13.769-10.912,17.147-15.069c1.559-1.818,3.377-4.676,5.196-6.755c0.519-0.519,1.299-2.079,2.338-1.558
		c0.26,0,1.299-0.26-0.26,2.598c-1.559,2.338-3.118,4.157-5.196,6.495c-3.118,3.637-4.936,5.716-7.535,8.054
		c-4.417,4.157-11.431,10.912-20.264,10.652C481.481,128.414,476.544,123.477,479.143,116.983z"/>
	<path class="st0" d="M430.819,194.924c0.779-11.951,7.534-20.785,14.549-26.76c7.014-5.976,16.368-10.912,25.201-14.809
		c15.588-7.274,33.255-12.73,51.441-18.966c2.079-0.779,5.975-1.818,7.275-2.598c1.039-1.039,2.598-3.898,3.637-5.716
		c3.377-6.755,6.236-12.47,10.132-19.745c1.039-2.079-1.558,0.78-2.338,1.558c-4.676,3.898-9.613,8.574-14.549,11.951
		c-2.079,1.299-4.937,3.118-7.275,3.377c-4.936,0.78-9.353-1.299-9.873-4.676c-1.039-4.936,4.937-12.731,7.275-15.329
		c1.039-1.558,3.118-3.897,5.456-5.716c1.818-1.558,6.755-3.898,7.794-1.299c0.519,1.558-3.377,4.417-4.157,5.456
		c-3.377,4.156-5.716,6.495-8.054,11.171c-1.039,2.079-3.118,4.936-1.819,7.014c1.819,3.637,9.093-1.039,10.912-2.338
		c8.054-5.716,14.289-11.692,20.525-18.706c1.299-1.558,2.078-3.897,4.156-4.417c5.716-1.299,0,7.535-1.039,9.353
		c-3.897,7.274-8.054,15.588-11.95,23.901c-0.261,0.52-1.559,1.559-1.039,2.079c0.26,0.52,5.456-2.338,6.495-2.858
		c12.99-5.975,23.122-13.249,33.255-22.343c0.519-0.519,2.338-2.598,3.637-3.377c0.26-0.26,0.78-1.039,1.299-0.26
		c0.519,0.78-2.858,3.637-4.417,5.196l-5.196,4.417c-3.897,3.118-6.495,5.975-10.392,8.573c-5.456,3.638-11.951,7.015-18.706,9.873
		c-2.338,1.039-5.716,1.559-6.755,2.599c-1.299,1.039-2.598,4.936-3.637,7.274c-3.898,7.275-7.275,14.809-10.652,21.824
		c-4.936,9.873-10.652,18.186-16.368,26.76c-11.171,16.887-24.681,35.073-49.622,36.632
		C439.392,225.061,429.52,210.772,430.819,194.924z M475.764,214.409c12.471-8.573,20.785-22.862,29.618-36.632
		c7.014-11.431,13.25-25.461,20.264-37.931c1.039-2.079,2.599-4.157,2.858-5.456c0-0.519-5.716,1.819-7.014,2.338
		c-14.55,4.937-28.059,9.613-41.049,14.809c-14.03,5.456-31.437,13.769-39.231,24.162c-4.676,5.975-8.313,11.691-8.313,23.382
		c0,10.392,5.975,20.264,16.107,22.603C458.618,224.022,469.529,218.566,475.764,214.409z"/>
</g>
</svg>
