<?xml version="1.0" encoding="utf-8"?>
<!-- Generator: Adobe Illustrator 26.2.1, SVG Export Plug-In . SVG Version: 6.00 Build 0)  -->
<svg version="1.1" id="レイヤー_8" xmlns="http://www.w3.org/2000/svg" xmlns:xlink="http://www.w3.org/1999/xlink" x="0px"
	 y="0px" viewBox="0 0 532 230" style="enable-background:new 0 0 532 230;" xml:space="preserve">
<style type="text/css">
	.st0{fill:#675952;}
</style>
<g>
	<path class="st0" d="M206.441,41.737c-2.6,19.24-34.839,41.339-58.499,51.999c-27.039,12.74-52.778,16.38-85.798,13.78
		c-2.08-0.26-6.5-1.04-7.54-0.52c-0.779,0.26-1.819,2.6-2.08,3.38c-4.159,9.62-6.499,25.22-3.899,37.959
		c3.12,13.26,13.26,22.359,24.959,27.559c13.78,5.98,31.46,4.94,42.64,0.26c9.359-3.9,18.199-11.18,24.699-18.979
		c0.78-1.04,0.78-1.04,1.561-1.82c0,0,0.52-1.56,1.56-1.04s0,3.12-0.78,4.16c-1.819,3.12-5.46,6.24-8.319,8.58
		c-4.42,4.16-8.84,6.76-13.26,9.36c-9.62,4.68-22.88,7.8-38.22,5.46c-8.84-1.3-16.899-5.46-23.659-9.62
		c-11.96-8.06-21.319-21.58-18.979-42.379c0.26-2.6,3.12-19.5,5.2-24.179c-1.301,0.52-20.8-7.8-29.899-13.26
		c-7.54-4.42-16.38-13.52-16.12-26c0.52-15.6,9.88-23.66,20.8-27.56c4.68-1.3,10.66-3.64,17.42-2.08
		c0.779,0.26,3.38,1.04,2.859,2.86c-0.52,1.56-2.08-0.78-2.6-0.78c-5.2-1.3-10.92-0.26-16.12,1.82
		c-9.88,3.9-18.979,11.18-19.239,25.219c-0.52,11.96,7.28,20.54,15.08,24.959c8.06,4.68,28.339,13.26,29.119,12.48
		c8.319-20.28,32.239-50.959,51.219-62.919c30.939-19.24,55.119-24.699,78.259-23.66C191.622,17.557,208.781,25.617,206.441,41.737z
		 M203.842,38.877c-0.26-11.18-14.04-17.939-24.439-18.719c-15.08-1.3-41.079,5.459-57.979,13.779
		c-30.939,15.34-48.619,35.62-63.439,64.999c-1.04,1.56-2.6,4.94-2.34,5.459c0.261,0.26,5.72,0.78,7.28,1.04
		c35.879,3.9,63.179-3.64,84.238-14.299C172.122,78.916,204.361,57.076,203.842,38.877z"/>
	<path class="st0" d="M172.386,129.615c-0.261-5.72,3.64-11.44,6.76-14.82c3.38-3.64,8.06-6.24,14.3-7.02
		c5.72-0.52,12.22,1.04,13.26,4.16c0-0.26,0.779,2.6-0.261,5.72c-0.26,1.56-1.3,2.86-1.04,3.64c0.521,1.3,6.24,2.08,8.061,2.34
		c8.579,0.78,19.239-7.8,25.739-11.7c0.78-0.52,1.82-1.82,2.6-1.3c1.04,0.78-2.08,3.38-2.34,3.64
		c-7.02,4.68-18.979,13.52-30.419,11.18c-1.561-0.26-3.12-1.3-4.42-1.04c-1.3,1.04-2.34,2.6-3.641,4.16
		c-3.38,3.64-7.02,6.5-11.439,8.32C182.786,139.755,172.646,139.235,172.386,129.615z M198.906,127.535
		c1.039-1.3,3.899-4.16,3.899-5.46c-0.26-1.56-3.38-1.56-2.6-5.979c0.26-2.08,2.6-3.38,2.34-3.9c-0.521-0.78-6.5-1.04-6.76-1.04
		c-9.36,0.78-16.12,9.879-17.939,18.199c-2.341,8.84,5.459,8.58,10.659,6.24C192.926,133.515,195.786,130.915,198.906,127.535z
		 M203.845,119.995c0.52-0.26,1.3-5.72-0.26-5.459C201.246,115.055,202.546,120.515,203.845,119.995L203.845,119.995z"/>
	<path class="st0" d="M260.005,127.795c1.04-2.34,3.899-6.76,5.46-9.36c1.819-2.6,5.72-7.28,3.899-9.62
		c-2.08-2.6-9.619,1.3-12.739,3.12c-3.9,2.34-7.021,5.2-9.62,7.54c-4.68,4.42-8.84,7.54-12.479,13.26
		c-1.04,1.82-2.34,5.2-3.12,5.459c-0.52,0.26-5.2,0.26-5.2,0.26c-0.52-0.78,1.82-4.42,1.82-4.68c3.64-7.54,7.54-14.04,11.439-21.06
		c1.561-2.6,3.38-6.76,5.2-7.54c0.78-0.26,3.899-0.26,4.42,0c0.26,0,0.26,0.26,0.26,0.26c-0.26,1.56-1.56,5.46-3.899,9.1
		c-1.04,2.08-5.2,7.02-4.94,7.8c0.26,0.52,1.3-0.52,1.561-0.78c2.6-2.08,8.06-7.28,10.399-9.1c2.86-2.08,11.7-6.5,15.859-6.24
		c11.96,1.04,5.2,11.7,2.601,15.859l-2.86,5.46c-0.78,1.56-2.08,5.2-1.56,7.28c1.04,4.16,7.539,1.3,10.14,0
		c4.16-1.82,13.779-10.919,17.159-15.08c1.561-1.82,3.38-4.68,5.2-6.76c0.52-0.52,1.3-2.08,2.34-1.56c0.26,0,1.3-0.26-0.26,2.6
		c-1.561,2.34-3.12,4.16-5.2,6.5c-3.12,3.64-4.939,5.72-7.54,8.06c-4.42,4.16-11.439,10.92-20.279,10.66
		C262.344,139.235,257.404,134.295,260.005,127.795z"/>
	<path class="st0" d="M290.164,125.455c1.3-3.9,6.76-10.66,9.359-13.26c2.86-2.86,6.24-5.2,12.22-6.76
		c6.759-1.04,14.559,2.08,10.139,9.62c0,0.26-3.899,4.68-4.68,3.12c-0.26-0.52,2.08-2.86,2.34-3.12c0.78-1.04,1.56-2.08,1.3-3.12
		c-0.779-5.98-11.179-1.3-13.519,0.52c-3.64,2.86-14.819,14.04-11.699,21.319c1.3,2.86,3.64,4.68,7.8,4.94
		c9.879,1.3,19.239-5.46,27.558-10.14c5.98-3.9,12.22-8.58,15.6-12.22c1.04-1.04,1.301-1.04,3.12-3.12
		c0.26-0.26,1.561-2.08,2.601-1.04s-3.12,4.16-3.641,4.68c-4.159,4.16-10.659,9.62-15.859,13c-7.8,4.94-18.719,11.96-29.378,11.44
		C296.143,141.055,286.263,137.155,290.164,125.455z"/>
	<path class="st0" d="M339.563,129.615c-0.26-4.16,1.82-9.36,4.681-12.74c4.159-4.94,11.18-9.1,18.979-9.88
		c3.38-0.26,7.279,0.26,7.54,2.86c0.52,2.6-1.82,6.24-3.641,7.8c-3.64,3.64-10.14,5.72-16.119,6.5c-0.521,0-2.08,0-2.86,0.26
		c-1.82,1.04-3.12,6.24-1.82,9.359c1.561,3.38,7.021,4.94,13,4.42c6.24-0.52,14.04-4.42,20.02-7.8
		c8.061-4.68,14.04-10.399,18.72-16.12c0.78-0.78,2.34-2.86,3.12-2.34s1.56-0.52-1.04,2.6c-3.64,4.68-12.479,12.74-17.939,15.859
		c-7.02,4.68-17.42,10.14-27.04,10.14C347.363,140.535,340.343,136.895,339.563,129.615z M354.643,121.295
		c5.2-1.3,9.62-3.38,11.96-5.98c0.779-0.78,2.6-3.38,2.08-4.68c-0.261-1.3-1.82-1.04-2.86-1.04c-3.64,0.26-7.02,2.86-9.62,4.94
		c-1.04,1.04-3.899,3.64-5.199,5.2c0.26-0.26-1.561,2.08-1.3,2.34C350.223,122.595,353.083,121.555,354.643,121.295z"/>
	<path class="st0" d="M448.5,117.915c-3.64,3.12-21.84,15.08-28.079,17.68c-3.12,1.3-8.32,2.86-12.74,3.12
		c-4.42,1.56-9.1,1.56-13.52-0.78c0,0-3.38-3.12-3.12-3.12c-0.779,0-2.6,3.64-3.12,4.94l-9.1,14.04
		c-4.159,6.76-7.54,13.52-11.18,19.5c-5.979,9.879-11.699,18.979-18.979,27.299c-3.64,4.42-6.5,8.06-11.439,11.439
		c-0.78,0.52-4.42,2.34-5.2,0.52c-0.26-1.04,2.6-2.34,3.12-2.86c7.8-5.979,16.38-20.02,26.779-37.179
		c20.8-33.279,16.64-33.539,40.299-63.699c1.04-1.3,4.16-6.76,5.721-7.8c0,0,3.38,0.26,3.64,0.78c0.52,1.04-2.86,5.2-3.64,6.24
		l-2.86,4.42c-1.3,1.56,2.6-1.3,2.6-1.3c2.86-1.82,8.061-4.42,11.44-4.94c5.72-0.52,11.18,3.38,9.619,10.14
		c-1.04,5.72-5.199,10.66-9.88,15.08c-2.08,1.82-4.42,3.9-7.02,5.2c2.34-0.52,4.939-1.56,6.24-2.08
		c6.76-2.6,24.959-14.3,34.059-22.36c1.04-0.52,2.08-2.08,3.12-1.3C456.56,111.676,451.88,115.055,448.5,117.915z M407.942,135.595
		c5.979-2.86,13.52-12.48,15.339-19.24c1.561-5.46-0.26-8.58-5.199-7.8c-3.9,0.52-6.5,2.34-9.36,4.16c-2.6,1.82-5.979,4.16-7.8,5.98
		c-0.78,1.04-7.8,11.7-7.8,12.48c0,1.04,1.561,3.38,2.34,4.16C398.581,137.935,404.561,137.155,407.942,135.595z"/>
	<path class="st0" d="M446.42,129.355c0.521-5.459,2.08-9.879,4.16-14.299c4.42-8.84,5.72-10.4,11.18-18.72
		c0-0.26,9.36-13.78,9.36-13.78c-0.261-0.26-4.42-0.78-5.46-0.78c-9.1-0.26-12.74,0.52-20.02,3.38c-1.82,0.78-7.021,4.16-6.76,5.46
		c0.26,0.26,2.6-0.26,1.819,1.3c-1.819,2.08-4.16,0.26-4.42-0.52c-0.779-2.6,4.94-5.98,6.5-6.76c7.54-3.64,11.7-5.2,23.14-4.68
		c2.34,0.26,5.2,0.78,6.24,0.52c1.3-0.26,1.04,0,2.6-2.08c8.84-11.96,19.76-24.959,25.739-29.899c0.78-0.78,5.2-1.56,5.72-0.78
		c0.521,0.52-7.02,8.84-8.06,9.88c-10.66,13-14.3,16.9-18.199,22.62c-1.04,1.56,0.779,1.3,4.159,1.82
		c11.18,1.04,31.46,3.9,40.3-2.08c0,0,3.64-2.86,4.159-4.94c1.04-0.26,2.601,0.52,2.601,0.52c2.08,1.82-4.16,5.46-5.98,6.24
		c-11.439,5.72-29.379,3.12-42.119,1.82c-1.04-0.26-3.899-0.52-4.68-0.26c-1.819,0.52-7.54,10.4-8.84,12.22
		c-5.979,8.58-10.92,16.12-14.819,25.22c-2.34,5.72-5.72,19.5,3.899,20.02c5.2,0.26,10.92-2.34,15.08-4.42
		c10.14-5.2,18.46-12.479,26.52-21.06c0.26-0.26,2.34-3.12,3.38-3.64c0.52-0.26,1.82-0.52,2.08-0.26c0.78,0.78-1.3,2.6-1.82,3.12
		c-2.34,2.6-4.939,5.72-7.279,8.06c-3.641,3.64-7.021,6.24-10.66,8.84c-3.38,2.6-7.54,5.46-11.96,7.54
		c-4.16,2.08-9.359,4.68-14.819,4.68C450.321,143.655,445.901,138.455,446.42,129.355z"/>
</g>
</svg>
