<?xml version="1.0" encoding="utf-8"?>
<!-- Generator: Adobe Illustrator 26.2.1, SVG Export Plug-In . SVG Version: 6.00 Build 0)  -->
<svg version="1.1" id="レイヤー_5" xmlns="http://www.w3.org/2000/svg" xmlns:xlink="http://www.w3.org/1999/xlink" x="0px"
	 y="0px" viewBox="0 0 482 230" style="enable-background:new 0 0 482 230;" xml:space="preserve">
<style type="text/css">
	.st0{fill:#948143;}
</style>
<g>
	<path class="st0" d="M206.398,57.116c-2.598,19.226-34.813,41.309-58.456,51.962c-27.019,12.73-52.74,16.367-85.735,13.769
		c-2.079-0.26-6.495-1.039-7.535-0.519c-0.779,0.26-1.818,2.598-2.079,3.376c-4.156,9.614-6.494,25.202-3.897,37.932
		c3.118,13.25,13.25,22.343,24.941,27.539c13.77,5.975,31.437,4.936,42.608,0.26c9.353-3.898,18.186-11.171,24.681-18.966
		c0.78-1.039,0.78-1.039,1.559-1.819c0,0,0.519-1.558,1.558-1.039s0,3.118-0.78,4.157c-1.818,3.118-5.456,6.236-8.313,8.574
		c-4.417,4.157-8.833,6.755-13.25,9.353c-9.613,4.676-22.863,7.794-38.192,5.456c-8.833-1.299-16.887-5.456-23.642-9.613
		c-11.951-8.054-21.304-21.563-18.966-42.348c0.26-2.598,3.118-19.486,5.196-24.162c-1.3,0.52-20.785-7.793-29.877-13.25
		c-7.535-4.417-16.368-13.51-16.108-25.98c0.52-15.588,9.873-23.642,20.785-27.539c4.676-1.299,10.652-3.637,17.407-2.079
		c0.779,0.26,3.377,1.039,2.857,2.858c-0.519,1.558-2.079-0.78-2.598-0.78c-5.196-1.299-10.912-0.26-16.108,1.819
		c-9.873,3.898-18.966,11.171-19.225,25.2c-0.519,11.952,7.275,20.525,15.069,24.942c8.054,4.676,28.318,13.25,29.098,12.47
		c8.313-20.264,32.216-50.922,51.181-62.872c30.917-19.226,55.079-24.681,78.201-23.643
		C191.59,32.955,208.736,41.009,206.398,57.116z M203.801,54.259c-0.26-11.171-14.03-17.926-24.422-18.705
		c-15.069-1.3-41.049,5.455-57.936,13.769C90.526,64.651,72.86,84.916,58.05,114.273c-1.039,1.559-2.598,4.937-2.338,5.456
		c0.261,0.261,5.716,0.78,7.275,1.039c35.853,3.898,63.132-3.637,84.176-14.288C172.104,94.268,204.32,72.444,203.801,54.259z"/>
	<path class="st0" d="M200.687,146.229l0.52-2.079c-11.432,6.756-13.77,8.574-18.966,8.054c-2.079,0-4.157-0.779-5.717-2.338
		c-5.195-4.936,0.261-14.548,3.118-18.705c4.676-6.495,6.755-9.093,9.093-9.613c0.52,0,5.196-0.78,5.717-0.261
		c0.519,1.04,0,1.04-4.417,5.717c-3.377,4.417-6.236,7.534-8.574,12.99c-1.559,3.117-3.377,9.353,1.558,10.131
		c4.157,0.781,8.314-2.598,11.432-4.417c4.156-2.857,8.573-5.974,9.093-6.755c1.039-1.038,9.873-15.848,13.25-16.626
		c0.26,0,4.676-0.26,5.195,0.26c0.261,0.519-2.598,3.898-2.857,4.157c-4.417,5.975-7.794,9.353-10.652,16.107
		c-1.039,2.079-2.857,6.495-1.299,8.314c2.338,2.857,9.352-0.78,12.47-2.599c8.574-4.676,14.549-10.911,22.343-18.186
		c0-0.261,3.638-4.677,4.937-3.897c0,0,1.299-0.52-0.78,2.598c-2.598,3.897-10.132,10.132-13.51,12.99
		c-6.236,5.195-13.51,11.691-22.343,12.21C204.064,154.542,200.168,152.204,200.687,146.229z"/>
	<path class="st0" d="M235.242,142.852c0.519-4.936,8.054-17.148,12.73-18.445c1.299-0.52,3.637-0.52,4.417,0.779
		c0.78,1.559-6.236,8.314-7.014,9.613c-2.338,3.377-3.898,6.755-4.157,10.132c-0.78,4.936,0.519,8.574,7.794,8.314
		c3.898-0.261,9.873-2.338,13.51-4.677c6.495-4.156,13.77-9.353,21.824-18.186c0.26-0.52,2.857-3.637,4.157-3.118
		c0.519,0.519-1.3,2.598-1.3,2.598c-2.078,2.338-5.195,5.976-7.794,8.314c-3.637,3.377-5.195,4.417-8.313,6.755
		c-6.495,4.676-12.99,10.132-22.603,10.393C239.919,155.583,233.943,152.724,235.242,142.852z M255.766,109.597
		c1.819-0.26,3.637,0.519,4.417,2.079c0,4.936-8.313,6.755-7.794,1.299C252.389,111.935,252.909,110.116,255.766,109.597z"/>
	<path class="st0" d="M267.717,159.479c-0.519-3.637,2.599-6.755,4.417-8.313c3.118-2.338,7.534-3.638,12.211-4.676
		c2.079-0.52,4.157-0.52,4.417-1.04c0.52-0.779-1.039-8.574-1.299-9.612c-1.039-5.456-2.857-10.133-0.519-15.069
		c1.558-2.857,4.156-4.936,8.573-5.195c6.236-0.52,10.393,3.637,7.794,10.131c-0.519,1.559-1.558,3.638-3.117,2.599
		c-0.52-0.261,2.079-4.677,1.558-7.015c-0.26-1.298-1.819-4.156-5.196-3.636c-2.857,0.519-5.716,5.974-5.716,9.093
		c0.26,3.117,2.079,7.793,2.599,11.691c0.26,1.039,0.519,5.976,0.779,6.236c0.52,0.26,11.692-2.079,19.745-5.976
		c4.676-2.079,8.574-5.716,10.392-7.274c1.559-1.3,4.677-5.196,5.716-4.676c1.558,0.519-0.78,2.598-1.3,3.117
		c-3.377,3.378-9.093,7.795-14.029,10.393c-7.275,3.637-21.044,6.495-20.264,6.495c-0.261,0.519-0.261,3.376-0.78,4.417
		c-1.819,6.235-4.157,10.131-10.393,12.47C278.369,165.974,268.756,165.714,267.717,159.479z M283.825,160.518
		c2.079-1.819,3.377-3.638,4.157-6.236c0.779-2.598,1.039-6.495,0.779-6.495h-1.039c-4.676,1.04-12.211,1.819-15.328,5.196
		c-2.079,2.079-2.858,3.897-2.858,5.716c0,2.079,1.819,4.157,4.936,4.676C279.668,164.156,281.227,162.078,283.825,160.518z"/>
	<path class="st0" d="M318.899,142.852c0.519-4.936,8.054-17.148,12.73-18.445c1.299-0.52,3.637-0.52,4.417,0.779
		c0.78,1.559-6.236,8.314-7.014,9.613c-2.338,3.377-3.898,6.755-4.157,10.132c-0.78,4.936,0.519,8.574,7.794,8.314
		c3.898-0.261,9.873-2.338,13.51-4.677c6.495-4.156,13.77-9.353,21.824-18.186c0.26-0.52,2.857-3.637,4.157-3.118
		c0.519,0.519-1.3,2.598-1.3,2.598c-2.078,2.338-5.195,5.976-7.794,8.314c-3.637,3.377-5.195,4.417-8.313,6.755
		c-6.495,4.676-12.99,10.132-22.603,10.393C323.575,155.583,317.599,152.724,318.899,142.852z M339.423,109.597
		c1.819-0.26,3.637,0.519,4.417,2.079c0,4.936-8.313,6.755-7.794,1.299C336.045,111.935,336.565,110.116,339.423,109.597z"/>
	<path class="st0" d="M390.604,143.111c1.039-2.338,3.897-6.755,5.456-9.352c1.818-2.598,5.716-7.274,3.897-9.613
		c-2.079-2.598-9.612,1.299-12.73,3.118c-3.898,2.338-7.015,5.195-9.613,7.535c-4.676,4.417-8.833,7.535-12.47,13.25
		c-1.039,1.818-2.338,5.196-3.118,5.456c-0.519,0.26-5.196,0.26-5.196,0.26c-0.519-0.78,1.819-4.417,1.819-4.676
		c3.637-7.535,7.534-14.03,11.431-21.045c1.559-2.598,3.377-6.755,5.196-7.534c0.78-0.26,3.897-0.26,4.417,0
		c0.26,0,0.26,0.26,0.26,0.26c-0.26,1.559-1.558,5.456-3.897,9.093c-1.039,2.079-5.196,7.014-4.937,7.795
		c0.26,0.519,1.299-0.52,1.559-0.781c2.598-2.078,8.054-7.274,10.392-9.093c2.858-2.079,11.692-6.495,15.848-6.235
		c11.951,1.039,5.196,11.692,2.599,15.848l-2.858,5.456c-0.78,1.559-2.079,5.196-1.558,7.274c1.039,4.157,7.534,1.3,10.132,0
		c4.157-1.818,13.769-10.911,17.147-15.068c1.559-1.818,3.377-4.676,5.196-6.755c0.519-0.52,1.299-2.079,2.338-1.558
		c0.26,0,1.299-0.26-0.26,2.598c-1.559,2.338-3.118,4.157-5.196,6.495c-3.118,3.637-4.936,5.716-7.534,8.054
		c-4.417,4.157-11.431,10.912-20.264,10.651C392.942,154.542,388.005,149.607,390.604,143.111z"/>
	<path class="st0" d="M419.441,144.93c-0.26-4.157,1.819-9.353,4.677-12.731c4.156-4.936,11.171-9.093,18.966-9.872
		c3.377-0.26,7.274,0.26,7.534,2.857c0.519,2.598-1.819,6.236-3.638,7.794c-3.637,3.637-10.132,5.716-16.107,6.495
		c-0.52,0-2.079,0-2.858,0.261c-1.818,1.038-3.118,6.235-1.818,9.353c1.558,3.377,7.014,4.936,12.99,4.417
		c6.236-0.52,14.03-4.417,20.005-7.795c8.055-4.676,14.03-10.391,18.706-16.107c0.78-0.779,2.338-2.857,3.118-2.338
		c0.78,0.519,1.558-0.519-1.039,2.598c-3.637,4.676-12.47,12.731-17.926,15.848c-7.014,4.677-17.407,10.133-27.02,10.133
		C427.235,155.842,420.221,152.204,419.441,144.93z M434.51,136.616c5.196-1.298,9.613-3.376,11.951-5.975
		c0.779-0.78,2.598-3.377,2.079-4.676c-0.261-1.299-1.819-1.039-2.858-1.039c-3.637,0.26-7.014,2.857-9.613,4.936
		c-1.039,1.04-3.897,3.638-5.195,5.196c0.26-0.26-1.559,2.079-1.299,2.338C430.093,137.916,432.952,136.876,434.51,136.616z"/>
</g>
</svg>
