<?xml version="1.0" encoding="utf-8"?>
<!-- Generator: Adobe Illustrator 26.2.1, SVG Export Plug-In . SVG Version: 6.00 Build 0)  -->
<svg version="1.1" id="レイヤー_7" xmlns="http://www.w3.org/2000/svg" xmlns:xlink="http://www.w3.org/1999/xlink" x="0px"
	 y="0px" viewBox="0 0 131 27" style="enable-background:new 0 0 131 27;" xml:space="preserve">
<style type="text/css">
	.st0{fill:#675952;}
</style>
<g>
	<path class="st0" d="M3.267,18.247C0.647,15.898,0,12.821,0,10.257C0,8.448,0.621,5.29,3.023,2.888C4.643,1.269,7.099,0,11.256,0
		c1.08,0,2.592,0.081,3.914,0.323c1.025,0.189,1.89,0.352,2.753,0.405c0.297,0.027,0.352,0.135,0.352,0.297
		c0,0.216-0.081,0.54-0.135,1.512c-0.055,0.891-0.055,2.375-0.081,2.78c-0.027,0.404-0.081,0.566-0.243,0.566
		c-0.189,0-0.216-0.188-0.216-0.566c0-1.053-0.433-2.159-1.134-2.753c-0.945-0.811-3.023-1.539-5.398-1.539
		c-3.591,0-5.264,1.053-6.209,1.971c-1.97,1.89-2.429,4.292-2.429,7.045c0,5.155,3.968,9.879,9.744,9.879
		c2.024,0,3.617-0.242,4.696-1.35c0.567-0.594,0.918-1.781,0.999-2.267c0.054-0.297,0.108-0.405,0.271-0.405
		c0.135,0,0.188,0.188,0.188,0.405c0,0.188-0.324,2.537-0.594,3.455c-0.162,0.513-0.216,0.566-0.702,0.782
		c-1.079,0.432-3.131,0.621-4.858,0.621C8.125,21.162,5.398,20.163,3.267,18.247z"/>
	<path class="st0" d="M25.53,8.205c0-4.211,0-4.966-0.054-5.83c-0.055-0.918-0.271-1.35-1.161-1.539
		c-0.216-0.054-0.675-0.08-0.918-0.08c-0.107,0-0.216-0.055-0.216-0.162c0-0.162,0.135-0.216,0.432-0.216
		c1.215,0,2.861,0.081,3.104,0.081s1.862-0.081,2.672-0.081c0.298,0,0.433,0.054,0.433,0.216c0,0.107-0.108,0.162-0.216,0.162
		c-0.189,0-0.352,0.026-0.675,0.08c-0.729,0.108-0.945,0.595-0.999,1.539c-0.054,0.864-0.054,1.619-0.054,5.83v3.779
		c0,3.887,0.863,5.561,2.024,6.667c1.322,1.242,2.537,1.485,4.075,1.485c1.646,0,3.267-0.783,4.238-1.944
		c1.241-1.538,1.565-3.833,1.565-6.613V8.205c0-4.211,0-4.966-0.054-5.83c-0.054-0.918-0.271-1.35-1.161-1.539
		c-0.216-0.054-0.675-0.08-0.917-0.08c-0.108,0-0.217-0.055-0.217-0.162c0-0.162,0.136-0.216,0.433-0.216
		c1.214,0,2.699,0.081,2.861,0.081c0.188,0,1.457-0.081,2.267-0.081c0.297,0,0.433,0.054,0.433,0.216
		c0,0.107-0.108,0.162-0.217,0.162c-0.188,0-0.351,0.026-0.675,0.08c-0.729,0.162-0.944,0.595-0.998,1.539
		c-0.055,0.864-0.055,1.619-0.055,5.83v2.889c0,2.915-0.323,6.154-2.482,8.07c-1.944,1.728-3.969,1.998-5.561,1.998
		c-0.918,0-3.645-0.108-5.561-1.917c-1.323-1.269-2.349-3.158-2.349-7.099V8.205H25.53z"/>
	<path class="st0" d="M53.322,12.956c0,2.592,0,4.724,0.135,5.857c0.081,0.783,0.243,1.377,1.053,1.484
		c0.378,0.055,0.972,0.108,1.215,0.108c0.162,0,0.216,0.081,0.216,0.162c0,0.135-0.135,0.216-0.432,0.216
		c-1.484,0-3.186-0.081-3.32-0.081s-1.836,0.081-2.646,0.081c-0.297,0-0.432-0.054-0.432-0.216c0-0.081,0.054-0.162,0.216-0.162
		c0.243,0,0.566-0.054,0.81-0.108c0.54-0.107,0.675-0.701,0.783-1.484c0.135-1.134,0.135-3.266,0.135-5.857V8.205
		c0-4.211,0-4.966-0.054-5.83c-0.055-0.918-0.324-1.377-0.918-1.512c-0.297-0.081-0.647-0.107-0.837-0.107
		c-0.107,0-0.216-0.055-0.216-0.162c0-0.162,0.135-0.216,0.432-0.216c0.891,0,2.592,0.081,2.727,0.081s1.836-0.081,2.646-0.081
		c0.297,0,0.432,0.054,0.432,0.216c0,0.107-0.108,0.162-0.216,0.162c-0.189,0-0.351,0.026-0.675,0.08
		c-0.729,0.136-0.945,0.595-0.999,1.539c-0.054,0.864-0.054,1.619-0.054,5.83L53.322,12.956L53.322,12.956z"/>
	<path class="st0" d="M62.26,20.434c-0.378-0.189-0.405-0.297-0.405-1.026c0-1.35,0.108-2.429,0.136-2.861
		c0.026-0.297,0.081-0.432,0.216-0.432c0.162,0,0.188,0.081,0.188,0.297c0,0.243,0,0.621,0.081,0.999
		c0.405,1.997,2.187,2.753,3.995,2.753c2.591,0,3.86-1.862,3.86-3.59c0-1.862-0.783-2.942-3.104-4.858l-1.215-0.999
		c-2.861-2.349-3.509-4.021-3.509-5.857c0-2.89,2.159-4.86,5.587-4.86c1.053,0,1.836,0.107,2.511,0.27
		c0.513,0.108,0.729,0.135,0.944,0.135c0.217,0,0.271,0.055,0.271,0.189s-0.108,1.025-0.108,2.861c0,0.432-0.054,0.62-0.188,0.62
		c-0.162,0-0.189-0.135-0.216-0.351c-0.027-0.324-0.189-1.053-0.352-1.35s-0.891-1.431-3.374-1.431c-1.862,0-3.32,1.161-3.32,3.131
		c0,1.539,0.702,2.511,3.294,4.535l0.756,0.594c3.185,2.511,3.94,4.184,3.94,6.344c0,1.106-0.432,3.158-2.294,4.48
		c-1.161,0.81-2.619,1.134-4.076,1.134C64.608,21.162,63.366,20.973,62.26,20.434z"/>
	<path class="st0" d="M82.406,12.956c0,2.592,0,4.724,0.135,5.857c0.081,0.783,0.243,1.377,1.053,1.484
		c0.378,0.055,0.972,0.108,1.215,0.108c0.162,0,0.216,0.081,0.216,0.162c0,0.135-0.135,0.216-0.432,0.216
		c-1.484,0-3.186-0.081-3.32-0.081s-1.836,0.081-2.646,0.081c-0.297,0-0.432-0.054-0.432-0.216c0-0.081,0.054-0.162,0.216-0.162
		c0.243,0,0.566-0.054,0.81-0.108c0.54-0.107,0.675-0.701,0.783-1.484c0.135-1.134,0.135-3.266,0.135-5.857V8.205
		c0-4.211,0-4.966-0.054-5.83c-0.055-0.918-0.324-1.377-0.918-1.512C78.87,0.782,78.52,0.756,78.33,0.756
		c-0.107,0-0.216-0.055-0.216-0.162c0-0.162,0.135-0.216,0.432-0.216c0.891,0,2.592,0.081,2.727,0.081s1.836-0.081,2.646-0.081
		c0.297,0,0.432,0.054,0.432,0.216c0,0.107-0.108,0.162-0.216,0.162c-0.189,0-0.351,0.026-0.675,0.08
		c-0.729,0.136-0.945,0.595-0.999,1.539c-0.054,0.864-0.054,1.619-0.054,5.83L82.406,12.956L82.406,12.956z"/>
	<path class="st0" d="M94.297,17.113c0.055,2.213,0.324,2.915,1.053,3.131c0.513,0.135,1.107,0.162,1.35,0.162
		c0.136,0,0.216,0.054,0.216,0.162c0,0.162-0.161,0.216-0.485,0.216c-1.539,0-2.618-0.081-2.861-0.081s-1.377,0.081-2.591,0.081
		c-0.271,0-0.433-0.027-0.433-0.216c0-0.108,0.081-0.162,0.216-0.162c0.217,0,0.702-0.027,1.107-0.162
		c0.675-0.188,0.81-0.972,0.81-3.428L92.705,1.35c0-1.053,0.08-1.35,0.297-1.35c0.216,0,0.675,0.594,0.944,0.863
		c0.405,0.459,4.427,4.805,8.584,9.259c2.672,2.861,5.614,6.154,6.478,7.045l-0.297-13.712c-0.026-1.755-0.216-2.349-1.053-2.564
		c-0.485-0.108-1.106-0.135-1.322-0.135c-0.188,0-0.216-0.081-0.216-0.189c0-0.162,0.216-0.188,0.54-0.188
		c1.215,0,2.51,0.081,2.807,0.081s1.188-0.081,2.295-0.081c0.297,0,0.485,0.026,0.485,0.188c0,0.108-0.107,0.189-0.297,0.189
		c-0.135,0-0.323,0-0.647,0.08c-0.891,0.189-0.999,0.783-0.999,2.403l-0.054,15.817c0,1.781-0.054,1.916-0.243,1.916
		c-0.216,0-0.54-0.297-1.971-1.728c-0.297-0.27-4.184-4.237-7.045-7.314c-3.131-3.374-6.182-6.775-7.045-7.747L94.297,17.113z"/>
	<path class="st0" d="M120.451,8.205c0-4.211,0-4.966-0.054-5.83c-0.055-0.918-0.271-1.35-1.161-1.539
		c-0.216-0.054-0.675-0.08-0.918-0.08c-0.107,0-0.216-0.055-0.216-0.162c0-0.162,0.135-0.216,0.433-0.216c0.62,0,1.35,0,1.943,0.026
		l1.106,0.055c0.188,0,5.561,0,6.182-0.027c0.513-0.027,0.944-0.081,1.16-0.135c0.135-0.027,0.243-0.136,0.378-0.136
		c0.081,0,0.108,0.108,0.108,0.243c0,0.189-0.135,0.513-0.216,1.269c-0.027,0.271-0.081,1.458-0.136,1.782
		c-0.026,0.135-0.081,0.297-0.188,0.297c-0.162,0-0.216-0.136-0.216-0.352c0-0.188-0.027-0.647-0.162-0.972
		c-0.189-0.432-0.459-0.756-1.917-0.917c-0.458-0.055-3.4-0.081-3.697-0.081c-0.108,0-0.162,0.081-0.162,0.27v7.45
		c0,0.188,0.026,0.27,0.162,0.27c0.351,0,3.671,0,4.292-0.054c0.647-0.054,1.025-0.108,1.269-0.378
		c0.188-0.216,0.297-0.351,0.404-0.351c0.081,0,0.135,0.054,0.135,0.216s-0.135,0.621-0.216,1.512
		c-0.054,0.539-0.107,1.538-0.107,1.728c0,0.216,0,0.513-0.189,0.513c-0.135,0-0.188-0.108-0.188-0.243c0-0.27,0-0.54-0.108-0.891
		c-0.107-0.378-0.351-0.837-1.403-0.945c-0.729-0.08-3.401-0.135-3.86-0.135c-0.135,0-0.188,0.081-0.188,0.189v2.375
		c0,0.918-0.027,4.049,0,4.616c0.081,1.862,0.485,2.213,3.131,2.213c0.702,0,1.89,0,2.592-0.297
		c0.701-0.297,1.025-0.837,1.214-1.943c0.055-0.297,0.108-0.405,0.243-0.405c0.162,0,0.162,0.217,0.162,0.405
		c0,0.216-0.216,2.052-0.351,2.618c-0.189,0.702-0.405,0.702-1.458,0.702c-2.024,0-3.509-0.054-4.562-0.081
		c-1.053-0.054-1.7-0.081-2.105-0.081c-0.054,0-0.513,0-1.08,0.027c-0.539,0-1.16,0.054-1.565,0.054
		c-0.297,0-0.432-0.054-0.432-0.216c0-0.081,0.054-0.162,0.216-0.162c0.243,0,0.566-0.054,0.81-0.108
		c0.54-0.107,0.675-0.701,0.783-1.484c0.135-1.134,0.135-3.266,0.135-5.857V8.205H120.451z"/>
</g>
</svg>
