<?xml version="1.0" encoding="utf-8"?>
<!-- Generator: Adobe Illustrator 26.2.1, SVG Export Plug-In . SVG Version: 6.00 Build 0)  -->
<svg version="1.1" id="レイヤー_7" xmlns="http://www.w3.org/2000/svg" xmlns:xlink="http://www.w3.org/1999/xlink" x="0px"
	 y="0px" viewBox="0 0 224 27" style="enable-background:new 0 0 224 27;" xml:space="preserve">
<style type="text/css">
	.st0{fill:#675952;}
</style>
<g>
	<path class="st0" d="M2.349,8.205c0-4.211,0-4.966-0.054-5.83C2.24,1.457,2.024,1.025,1.134,0.836
		c-0.216-0.054-0.675-0.08-0.918-0.08C0.108,0.756,0,0.701,0,0.594c0-0.162,0.136-0.216,0.433-0.216c0.62,0,1.35,0,1.943,0.026
		l1.106,0.055c0.188,0,5.561,0,6.182-0.027c0.513-0.027,0.944-0.081,1.16-0.135c0.135-0.027,0.243-0.136,0.378-0.136
		c0.081,0,0.108,0.108,0.108,0.243c0,0.189-0.135,0.513-0.216,1.269c-0.027,0.271-0.081,1.458-0.136,1.782
		c-0.026,0.135-0.081,0.297-0.188,0.297c-0.162,0-0.216-0.136-0.216-0.352c0-0.188-0.027-0.647-0.162-0.972
		c-0.189-0.432-0.459-0.756-1.917-0.917C8.017,1.456,5.075,1.43,4.778,1.43c-0.108,0-0.162,0.081-0.162,0.27v7.45
		c0,0.188,0.026,0.27,0.162,0.27c0.351,0,3.671,0,4.292-0.054c0.647-0.054,1.025-0.108,1.269-0.378
		c0.188-0.216,0.297-0.351,0.404-0.351c0.081,0,0.135,0.054,0.135,0.216s-0.135,0.621-0.216,1.512
		c-0.054,0.539-0.107,1.538-0.107,1.728c0,0.216,0,0.513-0.189,0.513c-0.135,0-0.188-0.108-0.188-0.243c0-0.27,0-0.54-0.108-0.891
		c-0.107-0.378-0.351-0.837-1.403-0.945c-0.729-0.08-3.401-0.135-3.86-0.135c-0.135,0-0.188,0.081-0.188,0.189v2.375
		c0,0.918-0.027,4.049,0,4.616c0.081,1.862,0.485,2.213,3.131,2.213c0.702,0,1.89,0,2.592-0.297
		c0.701-0.297,1.025-0.837,1.214-1.943c0.055-0.297,0.108-0.405,0.243-0.405c0.162,0,0.162,0.217,0.162,0.405
		c0,0.216-0.216,2.052-0.351,2.618c-0.189,0.702-0.405,0.702-1.458,0.702c-2.024,0-3.509-0.054-4.562-0.081
		c-1.053-0.054-1.7-0.081-2.105-0.081c-0.054,0-0.513,0-1.08,0.027c-0.54,0-1.16,0.054-1.565,0.054
		c-0.297,0-0.432-0.054-0.432-0.216c0-0.081,0.054-0.162,0.216-0.162c0.243,0,0.566-0.054,0.81-0.108
		c0.54-0.107,0.675-0.701,0.783-1.484c0.135-1.134,0.135-3.266,0.135-5.857V8.205H2.349z"/>
	<path class="st0" d="M20.997,17.113c0.055,2.213,0.324,2.915,1.053,3.131c0.513,0.135,1.107,0.162,1.35,0.162
		c0.136,0,0.216,0.054,0.216,0.162c0,0.162-0.161,0.216-0.485,0.216c-1.539,0-2.618-0.081-2.861-0.081s-1.377,0.081-2.591,0.081
		c-0.271,0-0.433-0.027-0.433-0.216c0-0.108,0.081-0.162,0.216-0.162c0.217,0,0.702-0.027,1.107-0.162
		c0.675-0.188,0.81-0.972,0.81-3.428L19.405,1.35c0-1.053,0.08-1.35,0.297-1.35c0.216,0,0.675,0.594,0.944,0.863
		c0.405,0.459,4.427,4.805,8.584,9.259c2.672,2.861,5.614,6.154,6.478,7.045L35.411,3.455c-0.026-1.755-0.216-2.349-1.053-2.564
		c-0.485-0.108-1.106-0.135-1.322-0.135c-0.188,0-0.216-0.081-0.216-0.189c0-0.162,0.216-0.188,0.54-0.188
		c1.215,0,2.51,0.081,2.807,0.081s1.188-0.081,2.295-0.081c0.297,0,0.485,0.026,0.485,0.188c0,0.108-0.107,0.189-0.297,0.189
		c-0.135,0-0.323,0-0.647,0.08c-0.891,0.189-0.999,0.783-0.999,2.403L36.95,19.057c0,1.781-0.054,1.916-0.243,1.916
		c-0.216,0-0.54-0.297-1.971-1.728c-0.297-0.27-4.184-4.237-7.045-7.314c-3.131-3.374-6.181-6.775-7.045-7.747L20.997,17.113z"/>
	<path class="st0" d="M59.732,13.901c0-2.187-0.135-2.483-1.214-2.78c-0.217-0.055-0.676-0.081-0.918-0.081
		c-0.108,0-0.216-0.055-0.216-0.162c0-0.162,0.135-0.216,0.432-0.216c1.215,0,2.915,0.081,3.05,0.081s1.836-0.081,2.646-0.081
		c0.297,0,0.432,0.054,0.432,0.216c0,0.107-0.107,0.162-0.216,0.162c-0.188,0-0.351,0.026-0.675,0.081
		c-0.729,0.135-0.944,0.594-0.999,1.538C62,13.523,62,14.333,62,15.467v3.022c0,1.215-0.026,1.27-0.351,1.458
		c-1.728,0.918-4.157,1.215-5.723,1.215c-2.052,0-5.885-0.271-8.881-2.889c-1.646-1.431-3.212-4.318-3.212-7.692
		c0-4.319,2.105-7.369,4.508-8.881c2.43-1.512,5.102-1.7,7.18-1.7c1.701,0,3.617,0.351,4.13,0.459
		c0.567,0.135,1.512,0.242,2.187,0.27c0.271,0.027,0.324,0.135,0.324,0.243c0,0.378-0.188,1.134-0.188,3.833
		c0,0.432-0.055,0.566-0.243,0.566c-0.135,0-0.162-0.162-0.189-0.404c-0.026-0.378-0.162-1.134-0.566-1.782
		c-0.675-1.025-2.861-2.187-6.344-2.187c-1.7,0-3.725,0.162-5.776,1.782c-1.565,1.241-2.672,3.697-2.672,6.855
		c0,3.807,1.916,6.56,2.861,7.478c2.132,2.078,4.589,2.888,7.071,2.888c0.973,0,2.376-0.161,3.078-0.566
		c0.351-0.189,0.539-0.486,0.539-0.945v-4.589H59.732z"/>
	<path class="st0" d="M76.159,1.053C76.483,0.161,76.592,0,76.753,0c0.162,0,0.271,0.135,0.594,0.972
		c0.405,1.025,4.644,12.174,6.29,16.276c0.972,2.402,1.754,2.834,2.321,2.996c0.404,0.135,0.81,0.162,1.079,0.162
		c0.162,0,0.271,0.027,0.271,0.162c0,0.162-0.243,0.216-0.54,0.216c-0.405,0-2.375,0-4.238-0.054
		c-0.513-0.027-0.81-0.027-0.81-0.189c0-0.107,0.081-0.162,0.189-0.188c0.162-0.055,0.323-0.297,0.162-0.729l-2.511-6.64
		c-0.054-0.108-0.108-0.162-0.243-0.162h-5.803c-0.136,0-0.217,0.081-0.271,0.216l-1.619,4.777
		c-0.243,0.675-0.378,1.323-0.378,1.809c0,0.54,0.566,0.783,1.025,0.783h0.27c0.189,0,0.271,0.054,0.271,0.162
		c0,0.162-0.162,0.216-0.405,0.216c-0.647,0-1.809-0.081-2.105-0.081s-1.781,0.081-3.05,0.081c-0.351,0-0.513-0.054-0.513-0.216
		c0-0.108,0.107-0.162,0.242-0.162c0.189,0,0.567-0.027,0.783-0.054c1.242-0.162,1.781-1.188,2.268-2.538L76.159,1.053z
		 M78.967,11.85c0.135,0,0.135-0.081,0.107-0.189l-2.563-7.288c-0.136-0.404-0.271-0.404-0.405,0L73.73,11.66
		c-0.055,0.136,0,0.189,0.081,0.189h5.156V11.85z"/>
	<path class="st0" d="M104.796,13.901c0-2.187-0.135-2.483-1.215-2.78c-0.216-0.055-0.675-0.081-0.917-0.081
		c-0.108,0-0.216-0.055-0.216-0.162c0-0.162,0.135-0.216,0.432-0.216c1.215,0,2.915,0.081,3.05,0.081s1.836-0.081,2.646-0.081
		c0.297,0,0.432,0.054,0.432,0.216c0,0.107-0.107,0.162-0.216,0.162c-0.188,0-0.351,0.026-0.675,0.081
		c-0.729,0.135-0.944,0.594-0.999,1.538c-0.054,0.864-0.054,1.674-0.054,2.808v3.022c0,1.215-0.027,1.27-0.351,1.458
		c-1.728,0.918-4.157,1.215-5.723,1.215c-2.052,0-5.885-0.271-8.881-2.889c-1.646-1.431-3.212-4.318-3.212-7.692
		c0-4.319,2.105-7.369,4.508-8.881c2.43-1.512,5.102-1.7,7.18-1.7c1.701,0,3.617,0.351,4.13,0.459
		c0.567,0.135,1.512,0.242,2.187,0.27c0.271,0.027,0.324,0.135,0.324,0.243c0,0.378-0.189,1.134-0.189,3.833
		c0,0.432-0.054,0.566-0.242,0.566c-0.135,0-0.162-0.162-0.189-0.404c-0.026-0.378-0.162-1.134-0.566-1.782
		c-0.675-1.025-2.861-2.187-6.344-2.187c-1.7,0-3.725,0.162-5.776,1.782c-1.565,1.241-2.672,3.697-2.672,6.855
		c0,3.807,1.916,6.56,2.861,7.478c2.132,2.078,4.589,2.888,7.071,2.888c0.973,0,2.376-0.161,3.078-0.566
		c0.351-0.189,0.539-0.486,0.539-0.945L104.796,13.901L104.796,13.901z"/>
	<path class="st0" d="M115.968,8.205c0-4.211,0-4.966-0.054-5.83c-0.055-0.918-0.271-1.35-1.161-1.539
		c-0.216-0.054-0.675-0.08-0.918-0.08c-0.107,0-0.216-0.055-0.216-0.162c0-0.162,0.136-0.216,0.433-0.216c0.62,0,1.35,0,1.943,0.026
		l1.106,0.055c0.188,0,5.561,0,6.182-0.027c0.513-0.027,0.944-0.081,1.16-0.135c0.135-0.027,0.243-0.136,0.378-0.136
		c0.081,0,0.108,0.108,0.108,0.243c0,0.189-0.135,0.513-0.216,1.269c-0.027,0.271-0.081,1.458-0.136,1.782
		c-0.026,0.135-0.081,0.297-0.188,0.297c-0.162,0-0.216-0.136-0.216-0.352c0-0.188-0.027-0.647-0.162-0.972
		c-0.189-0.432-0.459-0.756-1.917-0.917c-0.458-0.055-3.4-0.081-3.697-0.081c-0.108,0-0.162,0.081-0.162,0.27v7.45
		c0,0.188,0.026,0.27,0.162,0.27c0.351,0,3.671,0,4.292-0.054c0.647-0.054,1.025-0.108,1.269-0.378
		c0.188-0.216,0.297-0.351,0.404-0.351c0.081,0,0.135,0.054,0.135,0.216s-0.135,0.621-0.216,1.512
		c-0.054,0.539-0.107,1.538-0.107,1.728c0,0.216,0,0.513-0.189,0.513c-0.135,0-0.188-0.108-0.188-0.243c0-0.27,0-0.54-0.108-0.891
		c-0.107-0.378-0.351-0.837-1.403-0.945c-0.729-0.08-3.401-0.135-3.86-0.135c-0.135,0-0.188,0.081-0.188,0.189v2.375
		c0,0.918-0.027,4.049,0,4.616c0.081,1.862,0.485,2.213,3.131,2.213c0.702,0,1.89,0,2.592-0.297
		c0.701-0.297,1.025-0.837,1.214-1.943c0.055-0.297,0.108-0.405,0.243-0.405c0.162,0,0.162,0.217,0.162,0.405
		c0,0.216-0.216,2.052-0.351,2.618c-0.189,0.702-0.405,0.702-1.458,0.702c-2.024,0-3.509-0.054-4.562-0.081
		c-1.053-0.054-1.7-0.081-2.105-0.081c-0.054,0-0.513,0-1.08,0.027c-0.54,0-1.16,0.054-1.565,0.054
		c-0.297,0-0.432-0.054-0.432-0.216c0-0.081,0.054-0.162,0.216-0.162c0.243,0,0.566-0.054,0.81-0.108
		c0.54-0.107,0.675-0.701,0.783-1.484c0.135-1.134,0.135-3.266,0.135-5.857V8.205H115.968z"/>
	<path class="st0" d="M154.191,17.302c0.107,0.972,0.297,2.483,1.457,2.861c0.783,0.243,1.484,0.243,1.755,0.243
		c0.135,0,0.216,0.027,0.216,0.135c0,0.162-0.243,0.243-0.566,0.243c-0.595,0-3.51-0.081-4.508-0.162
		c-0.621-0.054-0.756-0.135-0.756-0.27c0-0.108,0.054-0.162,0.188-0.189c0.135-0.026,0.162-0.485,0.108-0.972L150.79,5.264h-0.081
		L144.096,19.3c-0.566,1.188-0.647,1.431-0.891,1.431c-0.189,0-0.324-0.271-0.837-1.242c-0.702-1.322-3.023-5.992-3.158-6.262
		c-0.243-0.486-3.266-6.965-3.562-7.693h-0.108l-1.08,12.524c-0.026,0.432-0.026,0.918-0.026,1.377c0,0.405,0.297,0.756,0.701,0.837
		c0.459,0.107,0.864,0.135,1.026,0.135c0.107,0,0.216,0.054,0.216,0.135c0,0.189-0.162,0.243-0.486,0.243
		c-0.998,0-2.294-0.081-2.51-0.081c-0.243,0-1.539,0.081-2.268,0.081c-0.27,0-0.459-0.054-0.459-0.243
		c0-0.081,0.135-0.135,0.27-0.135c0.217,0,0.405,0,0.811-0.081c0.891-0.162,0.972-1.215,1.079-2.24l1.943-17.6
		C134.783,0.188,134.892,0,135.053,0c0.162,0,0.271,0.107,0.405,0.404l8.26,16.979l7.936-16.951C151.762,0.188,151.87,0,152.059,0
		c0.189,0,0.27,0.216,0.324,0.729L154.191,17.302z"/>
	<path class="st0" d="M164.629,8.205c0-4.211,0-4.966-0.054-5.83c-0.055-0.918-0.271-1.35-1.161-1.539
		c-0.216-0.054-0.675-0.08-0.918-0.08c-0.107,0-0.216-0.055-0.216-0.162c0-0.162,0.135-0.216,0.433-0.216c0.62,0,1.35,0,1.943,0.026
		l1.106,0.055c0.188,0,5.561,0,6.182-0.027c0.513-0.027,0.944-0.081,1.16-0.135c0.135-0.027,0.243-0.136,0.378-0.136
		c0.081,0,0.108,0.108,0.108,0.243c0,0.189-0.135,0.513-0.216,1.269c-0.027,0.271-0.081,1.458-0.136,1.782
		c-0.026,0.135-0.081,0.297-0.188,0.297c-0.162,0-0.216-0.136-0.216-0.352c0-0.188-0.027-0.647-0.162-0.972
		c-0.189-0.432-0.459-0.756-1.917-0.917c-0.458-0.055-3.4-0.081-3.697-0.081c-0.108,0-0.162,0.081-0.162,0.27v7.45
		c0,0.188,0.026,0.27,0.162,0.27c0.351,0,3.671,0,4.292-0.054c0.647-0.054,1.025-0.108,1.269-0.378
		c0.188-0.216,0.297-0.351,0.404-0.351c0.081,0,0.135,0.054,0.135,0.216s-0.135,0.621-0.216,1.512
		c-0.054,0.539-0.107,1.538-0.107,1.728c0,0.216,0,0.513-0.189,0.513c-0.135,0-0.188-0.108-0.188-0.243c0-0.27,0-0.54-0.108-0.891
		c-0.107-0.378-0.351-0.837-1.403-0.945c-0.729-0.08-3.401-0.135-3.86-0.135c-0.135,0-0.188,0.081-0.188,0.189v2.375
		c0,0.918-0.027,4.049,0,4.616c0.081,1.862,0.485,2.213,3.131,2.213c0.702,0,1.89,0,2.592-0.297
		c0.701-0.297,1.025-0.837,1.214-1.943c0.055-0.297,0.108-0.405,0.243-0.405c0.162,0,0.162,0.217,0.162,0.405
		c0,0.216-0.216,2.052-0.351,2.618c-0.189,0.702-0.405,0.702-1.458,0.702c-2.024,0-3.509-0.054-4.562-0.081
		c-1.053-0.054-1.7-0.081-2.105-0.081c-0.054,0-0.513,0-1.08,0.027c-0.539,0-1.16,0.054-1.565,0.054
		c-0.297,0-0.432-0.054-0.432-0.216c0-0.081,0.054-0.162,0.216-0.162c0.243,0,0.566-0.054,0.81-0.108
		c0.54-0.107,0.675-0.701,0.783-1.484c0.135-1.134,0.135-3.266,0.135-5.857V8.205H164.629z"/>
	<path class="st0" d="M183.277,17.113c0.055,2.213,0.324,2.915,1.053,3.131c0.513,0.135,1.107,0.162,1.35,0.162
		c0.136,0,0.216,0.054,0.216,0.162c0,0.162-0.161,0.216-0.485,0.216c-1.539,0-2.618-0.081-2.861-0.081s-1.377,0.081-2.591,0.081
		c-0.271,0-0.433-0.027-0.433-0.216c0-0.108,0.081-0.162,0.216-0.162c0.217,0,0.702-0.027,1.107-0.162
		c0.675-0.188,0.81-0.972,0.81-3.428l0.027-15.467c0-1.053,0.08-1.35,0.297-1.35c0.216,0,0.675,0.594,0.944,0.863
		c0.405,0.459,4.427,4.805,8.584,9.259c2.672,2.861,5.614,6.154,6.478,7.045l-0.297-13.712c-0.026-1.755-0.216-2.349-1.053-2.564
		c-0.485-0.108-1.106-0.135-1.322-0.135c-0.188,0-0.216-0.081-0.216-0.189c0-0.162,0.216-0.188,0.54-0.188
		c1.215,0,2.51,0.081,2.807,0.081s1.188-0.081,2.295-0.081c0.297,0,0.485,0.026,0.485,0.188c0,0.108-0.107,0.189-0.297,0.189
		c-0.135,0-0.323,0-0.647,0.08c-0.891,0.189-0.999,0.783-0.999,2.403l-0.054,15.817c0,1.781-0.054,1.916-0.243,1.916
		c-0.216,0-0.54-0.297-1.971-1.728c-0.297-0.27-4.184-4.237-7.045-7.314c-3.131-3.374-6.182-6.775-7.045-7.747L183.277,17.113z"/>
	<path class="st0" d="M215.872,12.956c0,2.592,0,4.724,0.136,5.857c0.081,0.783,0.242,1.377,1.053,1.484
		c0.378,0.055,0.972,0.108,1.214,0.108c0.162,0,0.217,0.081,0.217,0.162c0,0.135-0.136,0.216-0.433,0.216
		c-1.484,0-3.185-0.081-3.319-0.081c-0.136,0-1.836,0.081-2.646,0.081c-0.297,0-0.432-0.054-0.432-0.216
		c0-0.081,0.054-0.162,0.216-0.162c0.242,0,0.566-0.054,0.81-0.108c0.54-0.107,0.675-0.701,0.782-1.484
		c0.136-1.134,0.136-3.266,0.136-5.857V1.538l-3.995,0.054c-1.674,0.027-2.321,0.217-2.753,0.864
		c-0.298,0.459-0.378,0.647-0.459,0.837c-0.081,0.216-0.162,0.27-0.271,0.27c-0.081,0-0.135-0.081-0.135-0.243
		c0-0.27,0.54-2.591,0.594-2.807C206.641,0.351,206.749,0,206.857,0c0.188,0,0.458,0.27,1.188,0.323
		c0.782,0.081,1.809,0.136,2.132,0.136H220.3c0.863,0,1.484-0.055,1.916-0.136c0.405-0.054,0.647-0.135,0.756-0.135
		c0.135,0,0.135,0.162,0.135,0.324c0,0.81-0.081,2.672-0.081,2.969c0,0.243-0.081,0.352-0.188,0.352
		c-0.135,0-0.189-0.081-0.216-0.459l-0.027-0.297c-0.081-0.811-0.729-1.431-3.32-1.485l-3.401-0.054v11.418H215.872z"/>
</g>
</svg>
