<?xml version="1.0" encoding="utf-8"?>
<!-- Generator: Adobe Illustrator 26.2.1, SVG Export Plug-In . SVG Version: 6.00 Build 0)  -->
<svg version="1.1" id="レイヤー_4" xmlns="http://www.w3.org/2000/svg" xmlns:xlink="http://www.w3.org/1999/xlink" x="0px"
	 y="0px" viewBox="0 0 684 230" style="enable-background:new 0 0 684 230;" xml:space="preserve">
<style type="text/css">
	.st0{fill:#675952;}
</style>
<g>
	<path class="st0" d="M10.233,160.575c-7.794-8.574-11.692-20.265-9.613-34.554c3.898-27.28,35.074-58.196,66.25-65.471
		c1.039-0.26,2.598-0.779,4.936-1.038l5.457-0.261c0.519-0.519-1.819-3.117-2.079-6.755c-2.079-11.171,5.716-23.642,12.73-30.137
		c8.054-7.014,18.966-11.692,29.618-12.47c11.691-0.52,22.083,4.417,20.524,16.368c-0.779,6.235-5.975,12.47-9.612,16.107
		c-2.598,2.338-7.014,6.495-11.431,7.794c-0.52,0.26-5.197,1.039-5.197-0.26c-0.26-0.78,5.197-1.819,5.717-2.079
		c6.755-2.858,14.808-11.171,16.887-20.005c2.338-10.392-5.456-16.108-16.627-14.808c-12.731,1.558-26.5,12.211-31.695,23.382
		c-2.599,5.456-4.937,12.211-3.119,18.966c0.261,0.78,0.261,3.118,1.3,3.897c1.039,0.78,4.936,0.78,6.755,1.039
		c4.417,1.039,12.731,2.858,12.211,7.275c-0.52,3.118-5.456,3.897-9.613,3.637c-4.936-0.519-9.353-3.377-11.95-6.236
		c-1.04-1.299-1.04-2.338-2.599-2.857c-1.818-0.52-5.716,0.26-8.313,0.78c-23.905,4.935-43.13,22.083-56.12,44.165
		c-13.25,25.981-9.613,55.599,19.225,65.211c11.951,3.638,27.539,3.118,38.971-1.039c11.431-3.897,22.603-12.989,28.058-22.603
		c2.598-4.676,6.755-14.289,2.858-19.486c-0.52-0.519-2.599-0.779-1.819-2.338c0.519-1.818,4.936-0.519,5.716,0.26
		c5.196,3.898,0.52,14.809-2.338,20.006c-2.599,4.676-5.456,8.054-8.574,11.431c-5.975,6.495-14.549,12.99-23.642,15.848
		c-12.211,3.898-27.8,3.898-40.789,0C23.224,171.746,16.728,166.809,10.233,160.575z M86.875,62.628c-0.26,0-0.26,0.261-0.519,0.261
		l0.519,0.519c0.519,0.52,0.78,1.558,2.338,2.598c1.559,1.559,9.353,4.937,10.393,1.559C100.385,64.706,90.253,62.888,86.875,62.628
		z"/>
	<path class="st0" d="M152.088,109.393c1.039-2.339,3.897-6.756,5.456-9.353c1.819-2.598,5.716-7.274,3.897-9.613
		c-2.078-2.598-9.613,1.3-12.73,3.118c-3.898,2.338-7.014,5.196-9.613,7.535c-4.676,4.417-8.833,7.535-12.47,13.25
		c-1.039,1.819-2.338,5.196-3.118,5.456c-0.52,0.26-5.196,0.26-5.196,0.26c-0.519-0.78,1.819-4.417,1.819-4.676
		c3.637-7.535,7.534-14.03,11.431-21.044c1.559-2.598,3.378-6.755,5.196-7.535c0.78-0.26,3.897-0.26,4.417,0
		c0.26,0,0.26,0.26,0.26,0.26c-0.26,1.559-1.558,5.456-3.897,9.094c-1.04,2.078-5.196,7.014-4.937,7.794
		c0.261,0.519,1.299-0.52,1.558-0.78c2.599-2.079,8.055-7.275,10.393-9.093c2.857-2.079,11.691-6.495,15.848-6.236
		c11.951,1.039,5.196,11.692,2.598,15.848l-2.857,5.456c-0.779,1.559-2.079,5.196-1.559,7.275c1.04,4.157,7.535,1.299,10.133,0
		c4.157-1.819,13.769-10.912,17.147-15.069c1.558-1.818,3.377-4.676,5.196-6.755c0.519-0.519,1.299-2.079,2.338-1.558
		c0.26,0,1.299-0.26-0.26,2.598c-1.559,2.338-3.118,4.157-5.196,6.495c-3.118,3.637-4.937,5.716-7.535,8.054
		c-4.417,4.157-11.431,10.912-20.264,10.652C154.426,120.824,149.489,115.888,152.088,109.393z"/>
	<path class="st0" d="M99.347,186.295c7.275-14.549,22.603-23.123,40.01-30.397c8.833-3.898,18.187-7.795,27.539-11.692
		c5.716-2.598,12.99-5.456,20.005-8.314c2.079-0.779,4.157-1.558,6.495-2.857c1.038-1.039,2.338-4.157,3.376-6.236
		c3.119-5.716,5.716-11.171,9.874-17.406c0.779-1.039-0.26-0.261-0.78,0.26c-3.118,2.338-7.794,5.456-11.692,6.235
		c-7.534,1.559-14.549-2.857-11.691-10.911c1.299-4.157,5.195-8.833,9.093-11.951c5.976-5.716,18.186-7.015,23.902-5.196
		c1.299,0.52,3.376,2.858,4.157,2.858c1.298,0,2.857-2.858,3.636-3.377c1.559-0.78,4.417-1.559,5.197-0.261
		c0.779,1.3-2.599,4.157-3.378,5.196c-3.898,4.676-7.274,10.392-10.392,15.069c-3.377,5.456-8.574,13.51-11.692,20.524
		c-1.299,1.819,1.819-0.519,3.638-1.299c3.897-1.819,8.574-4.417,11.691-6.236c14.03-8.833,21.305-12.989,32.216-24.941
		c0.261-0.26,2.079-3.118,3.118-2.598c1.039,0.519-0.519,2.338-1.819,3.637c-2.338,3.377-5.975,6.495-8.833,9.353
		c-13.769,10.652-21.824,15.588-37.412,23.382c-1.557,0.78-3.636,1.3-4.417,1.819c-1.038,1.299-2.338,5.196-3.376,7.275
		c-3.638,6.755-7.535,14.029-10.652,20.524c-4.676,9.093-10.132,18.446-15.588,26.5c-5.976,8.574-12.471,15.588-20.785,22.083
		c-14.549,10.651-31.176,16.367-43.647,10.392C94.67,212.015,94.151,197.207,99.347,186.295z M147.151,205.78
		c7.274-6.235,12.211-12.73,17.926-20.784c9.093-12.99,16.368-28.319,23.902-42.868c1.038-2.338,2.338-4.676,3.117-6.495
		c-1.038,0.26-3.117,1.559-1.818,0.78c-4.157,2.079-7.535,3.377-11.692,5.196c-13.51,5.195-24.681,10.392-37.151,15.328
		c-8.054,3.638-17.147,7.794-23.642,12.731c-6.495,4.936-13.51,10.652-16.369,17.926c-4.936,12.211-3.897,22.603,7.015,28.318
		C120.132,222.927,139.096,212.275,147.151,205.78z M203.268,108.354c5.457-4.157,8.314-7.015,11.432-11.432
		c1.039-1.039,2.858-2.598,2.338-3.897c-0.26-2.858-7.275-3.118-10.392-2.338c-5.976,1.039-9.874,4.676-13.51,8.833
		c-2.079,2.338-7.535,9.612-4.157,13.25c0.519,0.26,2.338,1.299,3.376,1.299C196.254,114.07,200.151,110.432,203.268,108.354z"/>
	<path class="st0" d="M283.548,117.187c4.156-2.339,7.535-5.456,9.873-7.275c5.195-3.897,10.132-9.873,15.329-14.808
		c0.26,0,1.558-2.338,2.598-1.559c1.039,0.78-2.598,4.417-3.118,4.937c-3.637,4.156-9.093,8.833-12.99,12.211
		c-2.599,2.338-5.976,5.195-9.614,7.274c-5.455,3.118-18.965,8.055-20.264-2.338c0-1.558,0.26-4.417,0.78-6.235
		c0.261-0.52,1.039-1.559,0.78-1.819c-0.26-0.52-1.819,1.039-1.819,1.039c-3.637,2.857-9.093,7.794-14.288,9.093
		c-9.094,2.079-11.952-6.236-8.833-13.25c2.078-4.417,5.455-7.535,9.093-10.392c4.676-3.638,9.353-5.976,16.107-6.236
		c3.377,0,7.794,1.039,10.393,3.118c0.519,0.26,1.558,1.299,1.558,1.299c1.299,0,2.598-1.819,3.637-2.598
		c0.78-0.26,3.638-2.079,4.417-0.26c1.039,1.818-4.157,5.975-4.936,6.755c-3.378,3.897-7.275,8.054-9.873,13.51
		c-1.039,2.338-2.858,6.495-1.558,9.093C272.896,122.383,280.69,118.746,283.548,117.187z M255.489,113.81
		c3.117-2.079,5.455-4.157,7.534-5.976c4.157-3.377,7.275-5.716,10.652-9.613c0.779-0.779,3.118-2.857,2.857-3.897
		c-0.26-2.079-7.793-3.118-10.651-2.598c-4.937,0.779-9.094,4.156-11.951,7.274c-1.819,2.079-3.117,3.898-5.195,7.535
		c-1.04,2.079-4.417,7.014-2.858,9.353C247.694,118.227,253.671,115.109,255.489,113.81z"/>
	<path class="st0" d="M217.558,186.295c7.275-14.549,22.603-23.123,40.01-30.397c8.833-3.898,18.187-7.795,27.539-11.692
		c5.716-2.598,12.99-5.456,20.006-8.314c2.078-0.779,4.156-1.558,6.494-2.857c1.039-1.039,2.339-4.157,3.377-6.236
		c3.118-5.716,5.716-11.171,9.873-17.406c0.78-1.039-0.26-0.261-0.78,0.26c-3.117,2.338-7.793,5.456-11.691,6.235
		c-7.535,1.559-14.55-2.857-11.691-10.911c1.298-4.157,5.195-8.833,9.093-11.951c5.975-5.716,18.186-7.015,23.901-5.196
		c1.299,0.52,3.377,2.858,4.157,2.858c1.299,0,2.858-2.858,3.637-3.377c1.559-0.78,4.417-1.559,5.196-0.261
		c0.78,1.3-2.599,4.157-3.377,5.196c-3.898,4.676-7.275,10.392-10.393,15.069c-3.376,5.456-8.574,13.51-11.691,20.524
		c-1.3,1.819,1.819-0.519,3.637-1.299c3.897-1.819,8.574-4.417,11.692-6.236c14.029-8.833,21.304-12.989,32.215-24.941
		c0.261-0.26,2.079-3.118,3.119-2.598c1.038,0.519-0.52,2.338-1.819,3.637c-2.338,3.377-5.976,6.495-8.833,9.353
		c-13.769,10.652-21.824,15.588-37.412,23.382c-1.558,0.78-3.637,1.3-4.417,1.819c-1.039,1.299-2.338,5.196-3.377,7.275
		c-3.637,6.755-7.535,14.029-10.651,20.524c-4.676,9.093-10.133,18.446-15.588,26.5c-5.976,8.574-12.471,15.588-20.786,22.083
		c-14.548,10.651-31.176,16.367-43.646,10.392C212.882,212.015,212.363,197.207,217.558,186.295z M265.363,205.78
		c7.274-6.235,12.21-12.73,17.926-20.784c9.093-12.99,16.367-28.319,23.901-42.868c1.039-2.338,2.339-4.676,3.118-6.495
		c-1.039,0.26-3.118,1.559-1.819,0.78c-4.157,2.079-7.534,3.377-11.691,5.196c-13.51,5.195-24.681,10.392-37.152,15.328
		c-8.054,3.638-17.147,7.794-23.642,12.731c-6.495,4.936-13.51,10.652-16.368,17.926c-4.936,12.211-3.898,22.603,7.014,28.318
		C238.343,222.927,257.308,212.275,265.363,205.78z M321.48,108.354c5.456-4.157,8.314-7.015,11.431-11.432
		c1.04-1.039,2.858-2.598,2.338-3.897c-0.26-2.858-7.274-3.118-10.392-2.338c-5.975,1.039-9.873,4.676-13.51,8.833
		c-2.079,2.338-7.535,9.612-4.157,13.25c0.52,0.26,2.339,1.299,3.377,1.299C314.466,114.07,318.362,110.432,321.48,108.354z"/>
	<path class="st0" d="M359.152,111.211c-0.26-4.157,1.819-9.353,4.676-12.73c4.157-4.937,11.171-9.093,18.966-9.873
		c3.377-0.26,7.275,0.26,7.535,2.857c0.519,2.599-1.819,6.236-3.637,7.794c-3.637,3.638-10.132,5.716-16.108,6.495
		c-0.519,0-2.079,0-2.857,0.261c-1.819,1.038-3.118,6.235-1.819,9.353c1.559,3.377,7.014,4.936,12.99,4.417
		c6.236-0.52,14.029-4.417,20.005-7.794c8.054-4.676,14.029-10.392,18.705-16.108c0.781-0.779,2.339-2.857,3.119-2.338
		c0.779,0.52,1.558-0.519-1.04,2.599c-3.637,4.676-12.469,12.73-17.926,15.848c-7.014,4.676-17.407,10.132-27.019,10.132
		C366.946,122.123,359.93,118.486,359.152,111.211z M374.221,102.898c5.195-1.299,9.612-3.377,11.95-5.976
		c0.78-0.779,2.598-3.377,2.079-4.676c-0.26-1.299-1.819-1.039-2.857-1.039c-3.638,0.26-7.015,2.858-9.613,4.937
		c-1.039,1.039-3.897,3.637-5.196,5.195c0.26-0.26-1.558,2.079-1.299,2.338C369.804,104.197,372.661,103.158,374.221,102.898z"/>
	<path class="st0" d="M458.135,107.315c0.781-1.819,2.339-4.677,3.638-7.015c0.779-1.299,4.936-7.014,3.637-8.573
		c-1.558-1.819-7.535,1.039-10.651,3.637c-3.378,2.857-5.457,4.676-7.535,6.755c-3.377,3.898-5.716,6.495-9.094,11.431
		c-0.779,0.78-2.857,2.858-4.156,1.299c-1.039-1.558,3.897-9.353,4.676-11.171c0.261-1.039,5.456-9.612,3.377-12.211
		c-2.079-3.117-10.912,2.338-12.211,3.118c-3.377,2.338-6.235,4.676-9.353,7.535c-4.156,4.157-4.417,4.417-8.833,11.171
		c-0.519,0.78-2.857,4.937-3.636,5.456c-1.04,0.26-5.457,0.26-4.937-0.78c0.26-2.079,3.897-7.794,5.196-9.612
		c4.157-6.236,6.755-11.171,11.171-16.888c1.299-1.818,5.455-8.313,7.274-8.313c1.039,0,4.157,0.26,3.378,1.558l-4.157,6.495
		c-0.26,0.52-3.638,5.456-3.378,5.976c0.261,0.26,1.04-0.261,1.819-0.78c3.898-3.118,9.093-7.014,14.55-7.535
		c5.455-0.78,9.353,2.079,8.313,8.054c-0.261,1.559-1.558,3.377-1.299,3.638c3.376-3.118,4.417-4.417,6.755-6.495
		c3.637-3.377,8.833-5.976,12.73-5.456c2.599,0.26,4.417,1.818,4.937,4.936c1.299,8.055-9.873,15.069-8.314,21.824
		c0.519,2.338,3.118,2.858,5.976,2.338c5.975-1.558,9.352-4.417,14.548-9.353c3.378-3.377,7.535-8.574,11.172-12.731
		c0.26-0.26,2.598-3.637,4.156-2.598c0.78,0.779-2.338,4.157-2.857,4.676c-6.236,7.014-13.25,16.368-18.966,18.966
		c-2.858,2.079-7.015,3.637-10.912,3.637C458.916,120.304,455.538,115.109,458.135,107.315z"/>
	<path class="st0" d="M484.638,111.211c-0.26-4.157,1.819-9.353,4.676-12.73c4.157-4.937,11.171-9.093,18.966-9.873
		c3.377-0.26,7.275,0.26,7.535,2.857c0.519,2.599-1.819,6.236-3.637,7.794c-3.637,3.638-10.132,5.716-16.108,6.495
		c-0.519,0-2.079,0-2.857,0.261c-1.819,1.038-3.118,6.235-1.819,9.353c1.559,3.377,7.014,4.936,12.99,4.417
		c6.236-0.52,14.029-4.417,20.005-7.794c8.054-4.676,14.029-10.392,18.705-16.108c0.781-0.779,2.339-2.857,3.119-2.338
		c0.779,0.52,1.558-0.519-1.04,2.599c-3.637,4.676-12.469,12.73-17.926,15.848c-7.014,4.676-17.407,10.132-27.019,10.132
		C492.432,122.123,485.416,118.486,484.638,111.211z M499.707,102.898c5.195-1.299,9.612-3.377,11.95-5.976
		c0.78-0.779,2.598-3.377,2.079-4.676c-0.26-1.299-1.819-1.039-2.857-1.039c-3.638,0.26-7.015,2.858-9.613,4.937
		c-1.039,1.039-3.897,3.637-5.196,5.195c0.26-0.26-1.558,2.079-1.299,2.338C495.29,104.197,498.147,103.158,499.707,102.898z"/>
	<path class="st0" d="M565.436,109.393c1.039-2.339,3.898-6.756,5.456-9.353c1.819-2.598,5.716-7.274,3.897-9.613
		c-2.078-2.598-9.612,1.3-12.73,3.118c-3.897,2.338-7.014,5.196-9.613,7.535c-4.676,4.417-8.833,7.535-12.469,13.25
		c-1.04,1.819-2.339,5.196-3.119,5.456c-0.519,0.26-5.195,0.26-5.195,0.26c-0.519-0.78,1.819-4.417,1.819-4.676
		c3.636-7.535,7.534-14.03,11.431-21.044c1.558-2.598,3.377-6.755,5.195-7.535c0.78-0.26,3.898-0.26,4.417,0
		c0.26,0,0.26,0.26,0.26,0.26c-0.26,1.559-1.558,5.456-3.897,9.094c-1.039,2.078-5.196,7.014-4.937,7.794
		c0.261,0.519,1.3-0.52,1.559-0.78c2.598-2.079,8.055-7.275,10.393-9.093c2.857-2.079,11.691-6.495,15.848-6.236
		c11.95,1.039,5.195,11.692,2.598,15.848l-2.857,5.456c-0.78,1.559-2.079,5.196-1.559,7.275c1.039,4.157,7.534,1.299,10.133,0
		c4.156-1.819,13.769-10.912,17.146-15.069c1.559-1.818,3.378-4.676,5.197-6.755c0.519-0.519,1.298-2.079,2.338-1.558
		c0.26,0,1.298-0.26-0.26,2.598c-1.559,2.338-3.119,4.157-5.197,6.495c-3.117,3.637-4.936,5.716-7.534,8.054
		c-4.417,4.157-11.431,10.912-20.264,10.652C567.774,120.824,562.838,115.888,565.436,109.393z"/>
	<path class="st0" d="M598.69,110.952c0.52-5.456,2.079-9.873,4.157-14.289c4.417-8.833,5.716-10.392,11.171-18.706
		c0-0.26,9.353-13.769,9.353-13.769c-0.26-0.26-4.417-0.78-5.455-0.78c-9.093-0.26-12.731,0.52-20.005,3.377
		c-1.819,0.78-7.014,4.157-6.755,5.456c0.26,0.26,2.598-0.26,1.818,1.299c-1.818,2.079-4.156,0.26-4.417-0.519
		c-0.78-2.599,4.937-5.976,6.495-6.755c7.534-3.638,11.692-5.196,23.123-4.677c2.338,0.261,5.195,0.78,6.236,0.52
		c1.299-0.26,1.038,0,2.598-2.079c8.833-11.951,19.745-24.941,25.72-29.877c0.78-0.78,5.196-1.558,5.716-0.78
		c0.52,0.52-7.014,8.833-8.054,9.873c-10.651,12.99-14.289,16.888-18.187,22.604c-1.038,1.558,0.781,1.299,4.157,1.818
		c11.172,1.039,31.436,3.898,40.27-2.079c0,0,3.637-2.857,4.156-4.936c1.039-0.26,2.599,0.519,2.599,0.519
		c2.079,1.819-4.157,5.456-5.976,6.236c-11.431,5.716-29.357,3.118-42.087,1.819c-1.04-0.261-3.898-0.52-4.677-0.261
		c-1.818,0.52-7.534,10.393-8.833,12.211c-5.975,8.574-10.911,16.108-14.808,25.201c-2.338,5.716-5.716,19.486,3.898,20.005
		c5.195,0.261,10.911-2.338,15.068-4.417c10.132-5.195,18.446-12.47,26.5-21.044c0.26-0.26,2.338-3.118,3.377-3.637
		c0.519-0.26,1.819-0.519,2.079-0.26c0.779,0.779-1.3,2.598-1.819,3.118c-2.338,2.598-4.936,5.716-7.274,8.054
		c-3.638,3.637-7.014,6.235-10.652,8.833c-3.377,2.598-7.535,5.456-11.951,7.535c-4.156,2.079-9.352,4.676-14.808,4.676
		C602.588,125.241,598.171,120.045,598.69,110.952z"/>
</g>
</svg>
