<?xml version="1.0" encoding="utf-8"?>
<!-- Generator: Adobe Illustrator 26.2.1, SVG Export Plug-In . SVG Version: 6.00 Build 0)  -->
<svg version="1.1" id="レイヤー_1" xmlns="http://www.w3.org/2000/svg" xmlns:xlink="http://www.w3.org/1999/xlink" x="0px"
	 y="0px" viewBox="0 0 19 30" style="enable-background:new 0 0 19 30;" xml:space="preserve">
<style type="text/css">
	.st0{fill:#FFFFFF;}
</style>
<path class="st0" d="M17.825,10.858h-1.591V6.743C16.234,3.025,13.213,0,9.5,0S2.766,3.025,2.766,6.743v4.115H1.175
	C0.526,10.858,0,11.385,0,12.035v16.789C0,29.473,0.526,30,1.175,30h16.649C18.474,30,19,29.473,19,28.823V12.035
	C19,11.385,18.474,10.858,17.825,10.858z M5.171,6.743c0-2.39,1.942-4.335,4.329-4.335s4.329,1.944,4.329,4.335v4.115H5.171V6.743z
	 M10.365,21.285l0.25,3.131h-2.23l0.25-3.131c-0.867-0.345-1.481-1.191-1.481-2.182c0-1.297,1.05-2.348,2.345-2.348
	s2.345,1.051,2.345,2.348C11.845,20.094,11.232,20.94,10.365,21.285z"/>
</svg>
