<?xml version="1.0" encoding="utf-8"?>
<!-- Generator: Adobe Illustrator 26.2.1, SVG Export Plug-In . SVG Version: 6.00 Build 0)  -->
<svg version="1.1" id="レイヤー_2_00000108998151085882648160000000310783074757490570_"
	 xmlns="http://www.w3.org/2000/svg" xmlns:xlink="http://www.w3.org/1999/xlink" x="0px" y="0px" viewBox="0 0 334 230"
	 style="enable-background:new 0 0 334 230;" xml:space="preserve">
<style type="text/css">
	.st0{fill:#675952;}
</style>
<g id="レイヤー_1">
</g>
<g>
	<path class="st0" d="M-0.013,205.354c0-0.519,2.858-0.779,3.637-1.039c17.407-4.936,29.357-18.445,39.491-30.656
		c1.819-2.338,12.47-17.407,15.588-21.824c33.774-51.181,36.112-57.417,44.426-67.549c7.794-9.873,15.848-21.304,27.019-29.098
		c2.338-1.819,2.338-2.079,5.976-3.377c0.26,0,6.495-2.599,6.755-0.26c0,0.779-5.717,2.598-6.236,2.857
		c-6.236,3.377-11.691,9.613-16.107,15.588c-4.937,6.236-9.353,11.951-13.51,18.187c-7.795,11.171-13.77,22.603-21.305,34.294
		c-1.039,1.299-3.117,4.417-3.117,4.676c0,1.558,5.974,5.975,7.534,6.495c6.495,2.857,15.848,3.117,23.123,1.039
		c16.887-4.677,36.373-20.525,46.244-35.333c6.495-9.613,12.731-23.902,7.795-38.97c-4.417-12.99-14.55-21.564-27.28-27.28
		c-11.951-5.196-27.539-7.275-44.946-5.716c-16.107,1.558-29.617,5.716-40.529,11.951S34.8,53.368,28.305,65.579
		c-5.975,11.171-10.912,35.854,1.039,44.946c-0.26,0,3.377,1.818,3.118,2.598c-0.779,1.039-3.637,0-3.898-0.26
		c-5.975-2.338-9.093-12.731-9.353-18.966c-1.039-11.432,2.857-23.382,7.014-30.657c11.173-19.744,30.659-31.434,56.64-36.89
		c4.936-1.039,10.651-1.819,16.887-2.338c20.264-1.299,36.632,2.598,50.401,9.353c13.769,7.015,26.24,19.226,25.721,40.789
		c-0.781,11.431-5.457,20.785-10.912,28.579c-5.457,7.274-12.731,14.808-20.264,20.005c-7.276,4.936-15.849,10.392-25.721,13.51
		c-11.171,3.377-27.799,3.898-36.112-3.377c0,0.26-2.079-2.338-2.079-2.338c-0.52,0-3.118,4.676-3.898,5.975
		c-3.898,6.236-8.054,11.951-11.95,17.667c-11.432,15.588-22.083,29.618-37.932,41.049c-5.456,3.898-12.211,7.275-19.744,9.873
		c-1.819,0.52-2.079,0.78-3.898,1.039C3.105,206.134-0.273,206.654-0.013,205.354z"/>
	<path class="st0" d="M162.108,144.82c0.519-4.937,2.857-10.393,4.936-14.809c6.495-13.51,15.069-24.941,23.124-35.593
		c9.872-13.25,16.107-21.563,27.538-31.436c3.378-3.118,8.833-7.535,13.51-8.054c7.795-0.78,3.378,8.833,1.04,12.73
		c-2.599,4.157-5.197,7.794-6.495,9.613c-4.937,6.755-10.393,12.47-14.809,17.406c-4.936,5.196-10.392,10.912-16.107,16.108
		c-4.157,3.637-8.574,7.275-13.25,10.912c-1.559,1.299-3.638,2.338-4.676,3.377c-1.3,1.299-2.599,4.157-3.638,6.495
		c-3.117,6.235-10.912,27.279,4.676,24.681c1.04-0.26,2.858-0.78,4.157-1.299c6.236-2.598,12.99-8.314,18.446-13.25
		c3.118-2.858,8.054-7.275,11.431-11.692c0.78-1.039,2.079-3.637,3.897-2.857c0.781,0.519,0,1.558-0.26,2.079
		c-1.558,2.598-3.897,5.195-5.975,7.534c-3.377,3.638-6.495,6.495-9.353,9.094c-4.936,4.417-15.068,12.47-23.901,13.25
		C167.304,159.888,161.329,154.953,162.108,144.82z M210.172,92.86c7.274-8.054,13.25-14.549,18.965-23.642
		c1.559-2.599,4.417-7.015,4.157-10.133c-0.26-1.818-1.038-1.558-1.038-1.558c-0.261,0-0.52,0.26-0.52,0.26
		c-5.975,3.118-10.392,8.314-15.068,13.25c-4.677,4.676-8.833,9.873-12.99,15.329c-7.014,9.613-13.77,18.966-20.525,28.838
		c-0.52,0.78-4.156,5.456-1.818,3.898C192.246,111.566,201.598,101.953,210.172,92.86z"/>
	<path class="st0" d="M244.985,151.316c4.156-2.339,7.535-5.456,9.873-7.275c5.195-3.897,10.132-9.873,15.329-14.808
		c0.26,0,1.558-2.338,2.598-1.559c1.039,0.78-2.598,4.417-3.118,4.937c-3.637,4.156-9.093,8.833-12.989,12.211
		c-2.599,2.338-5.976,5.195-9.614,7.274c-5.455,3.118-18.965,8.055-20.264-2.338c0-1.558,0.26-4.417,0.78-6.235
		c0.261-0.52,1.039-1.559,0.78-1.819c-0.26-0.52-1.819,1.039-1.819,1.039c-3.637,2.857-9.093,7.794-14.288,9.093
		c-9.094,2.079-11.952-6.236-8.833-13.25c2.078-4.417,5.455-7.535,9.093-10.392c4.676-3.638,9.353-5.976,16.107-6.236
		c3.377,0,7.794,1.039,10.393,3.118c0.519,0.26,1.558,1.299,1.558,1.299c1.299,0,2.598-1.819,3.637-2.598
		c0.78-0.26,3.638-2.079,4.417-0.26c1.039,1.818-4.157,5.975-4.936,6.755c-3.378,3.897-7.275,8.054-9.873,13.51
		c-1.039,2.338-2.858,6.495-1.558,9.093C234.333,156.511,242.127,152.874,244.985,151.316z M216.927,147.938
		c3.117-2.079,5.455-4.157,7.534-5.976c4.157-3.377,7.275-5.716,10.652-9.613c0.779-0.779,3.118-2.857,2.857-3.897
		c-0.26-2.079-7.793-3.118-10.651-2.598c-4.937,0.779-9.094,4.156-11.951,7.274c-1.819,2.079-3.117,3.898-5.195,7.535
		c-1.04,2.079-4.417,7.014-2.858,9.353C209.132,152.355,215.108,149.237,216.927,147.938z"/>
	<path class="st0" d="M292.01,143.522c1.039-2.339,3.898-6.756,5.456-9.353c1.819-2.598,5.716-7.274,3.897-9.613
		c-2.078-2.598-9.612,1.3-12.73,3.118c-3.897,2.338-7.014,5.196-9.613,7.535c-4.676,4.417-8.833,7.535-12.469,13.25
		c-1.04,1.819-2.339,5.196-3.119,5.456c-0.519,0.26-5.195,0.26-5.195,0.26c-0.519-0.78,1.819-4.417,1.819-4.676
		c3.636-7.535,7.534-14.03,11.431-21.044c1.558-2.598,3.377-6.755,5.195-7.535c0.78-0.26,3.898-0.26,4.417,0
		c0.26,0,0.26,0.26,0.26,0.26c-0.26,1.559-1.558,5.456-3.897,9.094c-1.039,2.078-5.196,7.014-4.937,7.794
		c0.261,0.519,1.3-0.52,1.559-0.78c2.598-2.079,8.055-7.275,10.393-9.093c2.857-2.079,11.691-6.495,15.848-6.236
		c11.95,1.039,5.195,11.692,2.598,15.848l-2.857,5.456c-0.78,1.559-2.079,5.196-1.559,7.275c1.039,4.157,7.535,1.299,10.133,0
		c4.156-1.819,13.769-10.912,17.146-15.069c1.559-1.818,3.378-4.676,5.197-6.755c0.519-0.519,1.298-2.079,2.338-1.558
		c0.26,0,1.298-0.26-0.26,2.598c-1.559,2.338-3.119,4.157-5.197,6.495c-3.117,3.637-4.936,5.716-7.534,8.054
		c-4.417,4.157-11.431,10.912-20.264,10.652C294.348,154.953,289.413,150.016,292.01,143.522z"/>
</g>
</svg>
