<?xml version="1.0" encoding="utf-8"?>
<!-- Generator: Adobe Illustrator 26.2.1, SVG Export Plug-In . SVG Version: 6.00 Build 0)  -->
<svg version="1.1" id="レイヤー_7" xmlns="http://www.w3.org/2000/svg" xmlns:xlink="http://www.w3.org/1999/xlink" x="0px"
	 y="0px" viewBox="0 0 81 27" style="enable-background:new 0 0 81 27;" xml:space="preserve">
<style type="text/css">
	.st0{fill:#675952;}
</style>
<g>
	<path class="st0" d="M2.349,8.205c0-4.211,0-4.966-0.054-5.83C2.24,1.457,2.024,1.025,1.134,0.836
		c-0.216-0.054-0.675-0.08-0.918-0.08C0.108,0.756,0,0.701,0,0.594c0-0.162,0.136-0.216,0.433-0.216c1.214,0,2.834,0.081,3.05,0.081
		c0.594,0,2.159-0.081,3.401-0.081c3.374,0,4.589,1.134,5.021,1.538c0.594,0.567,1.35,1.781,1.35,3.212
		c0,3.833-2.808,6.425-6.641,6.425c-0.135,0-0.432,0-0.566-0.027c-0.135,0-0.297-0.054-0.297-0.188c0-0.216,0.162-0.243,0.729-0.243
		c2.618,0,4.67-1.917,4.67-4.399c0-0.892-0.081-2.7-1.512-4.157c-1.431-1.458-3.077-1.35-3.698-1.35
		c-0.459,0-0.918,0.054-1.16,0.162C4.616,1.403,4.562,1.592,4.562,1.862v11.094c0,2.592,0,4.724,0.135,5.857
		c0.081,0.783,0.243,1.377,1.053,1.484c0.378,0.055,0.972,0.108,1.215,0.108c0.161,0,0.216,0.081,0.216,0.162
		c0,0.135-0.135,0.216-0.433,0.216c-1.484,0-3.185-0.081-3.319-0.081c-0.081,0-1.782,0.081-2.592,0.081
		c-0.297,0-0.432-0.054-0.432-0.216c0-0.081,0.054-0.162,0.216-0.162c0.243,0,0.566-0.054,0.81-0.108
		c0.54-0.107,0.675-0.701,0.783-1.484c0.135-1.134,0.135-3.266,0.135-5.857C2.349,12.956,2.349,8.205,2.349,8.205z"/>
	<path class="st0" d="M22.403,13.01c0,3.969,0.107,5.696,0.594,6.182c0.432,0.432,1.134,0.621,3.239,0.621
		c1.431,0,2.618-0.027,3.266-0.81c0.352-0.433,0.621-1.107,0.702-1.62c0.027-0.216,0.081-0.351,0.243-0.351
		c0.135,0,0.162,0.107,0.162,0.404c0,0.298-0.189,1.917-0.405,2.7c-0.189,0.62-0.27,0.729-1.7,0.729
		c-1.944,0-3.348-0.054-4.481-0.081c-1.134-0.054-1.97-0.081-2.753-0.081c-0.108,0-0.567,0.027-1.106,0.027
		c-0.54,0.026-1.134,0.054-1.539,0.054c-0.297,0-0.432-0.054-0.432-0.216c0-0.081,0.054-0.162,0.216-0.162
		c0.243,0,0.566-0.054,0.81-0.108c0.54-0.107,0.675-0.701,0.783-1.484c0.135-1.134,0.135-3.266,0.135-5.857V8.205
		c0-4.211,0-4.966-0.054-5.83c-0.055-0.918-0.271-1.35-1.161-1.539c-0.216-0.054-0.675-0.08-0.918-0.08
		c-0.107,0-0.216-0.055-0.216-0.162c0-0.162,0.136-0.216,0.433-0.216c1.214,0,2.915,0.081,3.05,0.081s2.105-0.081,2.915-0.081
		c0.297,0,0.432,0.054,0.432,0.216c0,0.107-0.107,0.162-0.216,0.162c-0.188,0-0.566,0.026-0.891,0.08
		c-0.782,0.136-0.999,0.595-1.053,1.539c-0.054,0.864-0.054,1.619-0.054,5.83L22.403,13.01L22.403,13.01z"/>
	<path class="st0" d="M43.425,1.053C43.749,0.161,43.857,0,44.019,0c0.162,0,0.271,0.135,0.594,0.972
		c0.405,1.025,4.644,12.174,6.29,16.276c0.972,2.402,1.754,2.834,2.321,2.996c0.404,0.135,0.81,0.162,1.079,0.162
		c0.162,0,0.271,0.027,0.271,0.162c0,0.162-0.243,0.216-0.54,0.216c-0.405,0-2.375,0-4.238-0.054
		c-0.513-0.027-0.81-0.027-0.81-0.189c0-0.107,0.081-0.162,0.189-0.188c0.162-0.055,0.323-0.297,0.162-0.729l-2.511-6.64
		c-0.054-0.108-0.108-0.162-0.243-0.162H40.78c-0.136,0-0.217,0.081-0.271,0.216l-1.619,4.777c-0.243,0.675-0.378,1.323-0.378,1.809
		c0,0.54,0.566,0.783,1.025,0.783h0.27c0.189,0,0.271,0.054,0.271,0.162c0,0.162-0.162,0.216-0.405,0.216
		c-0.647,0-1.809-0.081-2.105-0.081s-1.781,0.081-3.05,0.081c-0.351,0-0.513-0.054-0.513-0.216c0-0.108,0.107-0.162,0.242-0.162
		c0.189,0,0.567-0.027,0.783-0.054c1.242-0.162,1.781-1.188,2.268-2.538L43.425,1.053z M46.232,11.85
		c0.135,0,0.135-0.081,0.107-0.189l-2.563-7.288c-0.136-0.404-0.271-0.404-0.405,0l-2.375,7.288c-0.055,0.136,0,0.189,0.081,0.189
		H46.232z"/>
	<path class="st0" d="M62.363,17.113c0.055,2.213,0.324,2.915,1.053,3.131c0.513,0.135,1.107,0.162,1.35,0.162
		c0.136,0,0.216,0.054,0.216,0.162c0,0.162-0.161,0.216-0.485,0.216c-1.539,0-2.618-0.081-2.861-0.081s-1.377,0.081-2.591,0.081
		c-0.271,0-0.433-0.027-0.433-0.216c0-0.108,0.081-0.162,0.216-0.162c0.217,0,0.702-0.027,1.107-0.162
		c0.675-0.188,0.81-0.972,0.81-3.428L60.771,1.35c0-1.053,0.08-1.35,0.297-1.35c0.216,0,0.675,0.594,0.944,0.863
		c0.405,0.459,4.427,4.805,8.584,9.259c2.672,2.861,5.614,6.154,6.478,7.045L76.777,3.455c-0.026-1.755-0.216-2.349-1.053-2.564
		c-0.485-0.108-1.106-0.135-1.322-0.135c-0.188,0-0.216-0.081-0.216-0.189c0-0.162,0.216-0.188,0.54-0.188
		c1.215,0,2.51,0.081,2.807,0.081s1.188-0.081,2.295-0.081c0.297,0,0.485,0.026,0.485,0.188c0,0.108-0.107,0.189-0.297,0.189
		c-0.135,0-0.323,0-0.647,0.08c-0.891,0.189-0.999,0.783-0.999,2.403l-0.054,15.817c0,1.781-0.054,1.916-0.243,1.916
		c-0.216,0-0.54-0.297-1.971-1.728c-0.297-0.27-4.184-4.237-7.045-7.314c-3.131-3.374-6.182-6.775-7.045-7.747L62.363,17.113z"/>
</g>
</svg>
