<?xml version="1.0" encoding="utf-8"?>
<!-- Generator: Adobe Illustrator 26.2.1, SVG Export Plug-In . SVG Version: 6.00 Build 0)  -->
<svg version="1.1" id="レイヤー_3" xmlns="http://www.w3.org/2000/svg" xmlns:xlink="http://www.w3.org/1999/xlink" x="0px"
	 y="0px" viewBox="0 0 516 167" style="enable-background:new 0 0 516 167;" xml:space="preserve">
<style type="text/css">
	.st0{fill:#948143;}
</style>
<g>
	<path class="st0" d="M11.161,50.904c0.16,6.584,0.963,8.671,3.132,9.314c1.525,0.402,3.292,0.482,4.014,0.482
		c0.402,0,0.643,0.161,0.643,0.482c0,0.482-0.482,0.642-1.445,0.642c-4.577,0-7.789-0.241-8.512-0.241
		c-0.722,0-4.094,0.241-7.707,0.241C0.482,61.824,0,61.744,0,61.182C0,60.861,0.241,60.7,0.642,60.7c0.643,0,2.088-0.08,3.293-0.482
		c2.007-0.562,2.409-2.89,2.409-10.197l0.08-46.007C6.424,0.883,6.664,0,7.307,0c0.642,0,2.007,1.767,2.81,2.569
		c1.204,1.365,13.168,14.292,25.532,27.54c7.949,8.511,16.701,18.307,19.271,20.956l-0.883-40.788
		c-0.08-5.219-0.643-6.985-3.132-7.627c-1.445-0.321-3.292-0.402-3.934-0.402c-0.563,0-0.643-0.241-0.643-0.562
		c0-0.482,0.643-0.562,1.606-0.562c3.612,0,7.467,0.241,8.35,0.241c0.882,0,3.532-0.241,6.824-0.241c0.883,0,1.445,0.08,1.445,0.562
		c0,0.321-0.32,0.562-0.883,0.562c-0.401,0-0.963,0-1.927,0.241c-2.649,0.562-2.97,2.328-2.97,7.146l-0.16,47.05
		c0,5.299-0.161,5.7-0.723,5.7c-0.642,0-1.605-0.883-5.862-5.139c-0.882-0.803-12.444-12.606-20.955-21.759
		c-9.314-10.036-18.387-20.153-20.956-23.043L11.161,50.904z"/>
	<path class="st0" d="M85.479,24.409c0-12.526,0-14.773-0.16-17.343c-0.16-2.73-0.803-4.015-3.452-4.577
		c-0.643-0.161-2.008-0.241-2.73-0.241c-0.321,0-0.643-0.161-0.643-0.482c0-0.482,0.402-0.642,1.285-0.642
		c1.847,0,4.015,0,5.782,0.08l3.292,0.161c0.562,0,16.54,0,18.386-0.08c1.525-0.081,2.81-0.241,3.452-0.402
		c0.402-0.08,0.723-0.402,1.125-0.402c0.24,0,0.32,0.321,0.32,0.723c0,0.562-0.401,1.526-0.642,3.774
		c-0.08,0.803-0.24,4.335-0.402,5.299c-0.08,0.402-0.24,0.883-0.562,0.883c-0.482,0-0.642-0.402-0.642-1.044
		c0-0.562-0.081-1.927-0.482-2.891c-0.563-1.284-1.365-2.248-5.701-2.73c-1.365-0.161-10.116-0.241-10.999-0.241
		c-0.321,0-0.482,0.241-0.482,0.803v22.16c0,0.562,0.08,0.803,0.482,0.803c1.044,0,10.919,0,12.766-0.16
		c1.927-0.161,3.052-0.321,3.774-1.124c0.562-0.642,0.883-1.044,1.205-1.044c0.24,0,0.402,0.161,0.402,0.642
		s-0.402,1.847-0.643,4.496c-0.16,1.606-0.32,4.577-0.32,5.139c0,0.642,0,1.526-0.563,1.526c-0.401,0-0.562-0.321-0.562-0.723
		c0-0.803,0-1.606-0.321-2.65c-0.32-1.124-1.044-2.489-4.174-2.81c-2.168-0.241-10.117-0.401-11.482-0.401
		c-0.402,0-0.562,0.241-0.562,0.562v7.065c0,2.73-0.08,12.044,0,13.73c0.24,5.54,1.445,6.584,9.314,6.584
		c2.087,0,5.62,0,7.707-0.883c2.088-0.883,3.052-2.489,3.613-5.781c0.16-0.883,0.321-1.204,0.722-1.204
		c0.483,0,0.483,0.642,0.483,1.204c0,0.642-0.643,6.102-1.045,7.788c-0.562,2.088-1.204,2.088-4.335,2.088
		c-6.022,0-10.437-0.161-13.569-0.241c-3.132-0.161-5.058-0.241-6.262-0.241c-0.161,0-1.526,0-3.212,0.08
		c-1.606,0-3.453,0.161-4.657,0.161c-0.883,0-1.285-0.161-1.285-0.642c0-0.241,0.16-0.482,0.642-0.482
		c0.723,0,1.686-0.16,2.409-0.321c1.606-0.321,2.008-2.088,2.328-4.416c0.402-3.372,0.402-9.715,0.402-17.423V24.409z"/>
	<path class="st0" d="M188.086,50.744h0.321c2.167-7.387,9.554-30.671,12.364-40.949c0.803-2.97,0.883-4.095,0.883-5.139
		c0-1.445-0.883-2.409-4.577-2.409c-0.402,0-0.722-0.241-0.722-0.562c0-0.402,0.401-0.562,1.365-0.562
		c4.094,0,7.467,0.241,8.189,0.241c0.562,0,4.015-0.241,6.504-0.241c0.723,0,1.124,0.161,1.124,0.482
		c0,0.402-0.24,0.642-0.722,0.642c-0.321,0-1.847,0.08-2.73,0.402c-2.409,0.883-3.693,4.255-5.219,8.671
		c-3.533,10.197-11.642,35.729-14.774,44.722c-2.087,5.942-2.489,6.905-3.372,6.905c-0.803,0-1.285-1.044-2.409-4.175
		l-15.737-44.642h-0.16c-2.89,7.708-13.891,37.094-16.781,44.562c-1.285,3.372-1.686,4.255-2.65,4.255
		c-0.803,0-1.204-0.883-2.81-6.343L131.883,8.993c-1.285-4.255-2.328-5.46-4.417-6.263c-1.044-0.402-3.051-0.482-3.613-0.482
		c-0.401,0-0.722-0.08-0.722-0.562c0-0.402,0.482-0.562,1.285-0.562c4.175,0,8.591,0.241,9.474,0.241
		c0.722,0,4.255-0.241,8.27-0.241c1.124,0,1.445,0.241,1.445,0.562c0,0.482-0.402,0.562-0.803,0.562c-0.642,0-2.168,0-3.132,0.482
		c-0.482,0.241-1.044,0.883-1.044,1.927c0,1.044,0.723,3.854,1.525,7.387c1.205,5.139,9.555,34.605,10.759,38.861h0.161
		l17.021-45.766c1.205-3.292,1.525-3.693,2.007-3.693c0.563,0,1.045,1.044,2.008,3.774L188.086,50.744z"/>
	<path class="st0" d="M310.52,50.744h0.321c2.167-7.387,9.554-30.671,12.364-40.949c0.803-2.97,0.883-4.095,0.883-5.139
		c0-1.445-0.883-2.409-4.577-2.409c-0.401,0-0.722-0.241-0.722-0.562c0-0.402,0.402-0.562,1.365-0.562
		c4.095,0,7.467,0.241,8.189,0.241c0.563,0,4.015-0.241,6.504-0.241c0.723,0,1.125,0.161,1.125,0.482
		c0,0.402-0.241,0.642-0.723,0.642c-0.321,0-1.847,0.08-2.73,0.402c-2.409,0.883-3.693,4.255-5.219,8.671
		c-3.532,10.197-11.642,35.729-14.774,44.722c-2.087,5.942-2.489,6.905-3.372,6.905c-0.802,0-1.285-1.044-2.409-4.175
		l-15.737-44.642h-0.16c-2.89,7.708-13.891,37.094-16.781,44.562c-1.285,3.372-1.686,4.255-2.65,4.255
		c-0.802,0-1.204-0.883-2.81-6.343L254.317,8.993c-1.285-4.255-2.328-5.46-4.416-6.263c-1.045-0.402-3.052-0.482-3.613-0.482
		c-0.402,0-0.723-0.08-0.723-0.562c0-0.402,0.482-0.562,1.285-0.562c4.175,0,8.591,0.241,9.474,0.241
		c0.723,0,4.255-0.241,8.27-0.241c1.124,0,1.445,0.241,1.445,0.562c0,0.482-0.402,0.562-0.803,0.562c-0.642,0-2.167,0-3.131,0.482
		c-0.483,0.241-1.045,0.883-1.045,1.927c0,1.044,0.723,3.854,1.526,7.387c1.204,5.139,9.554,34.605,10.759,38.861h0.16
		l17.021-45.766c1.205-3.292,1.526-3.693,2.008-3.693c0.562,0,1.044,1.044,2.007,3.774L310.52,50.744z"/>
	<path class="st0" d="M359.828,38.54c0,7.708,0,14.051,0.402,17.423c0.24,2.328,0.722,4.095,3.132,4.416
		c1.124,0.161,2.89,0.321,3.612,0.321c0.482,0,0.643,0.241,0.643,0.482c0,0.402-0.402,0.642-1.285,0.642
		c-4.416,0-9.474-0.241-9.876-0.241c-0.402,0-5.46,0.241-7.869,0.241c-0.883,0-1.285-0.161-1.285-0.642
		c0-0.241,0.161-0.482,0.643-0.482c0.722,0,1.685-0.16,2.409-0.321c1.605-0.321,2.007-2.088,2.328-4.416
		c0.402-3.372,0.402-9.715,0.402-17.423V24.409c0-12.526,0-14.773-0.161-17.343c-0.16-2.73-0.963-4.095-2.73-4.497
		c-0.882-0.241-1.927-0.321-2.489-0.321c-0.321,0-0.642-0.161-0.642-0.482c0-0.482,0.402-0.642,1.284-0.642
		c2.65,0,7.708,0.241,8.11,0.241c0.402,0,5.46-0.241,7.869-0.241c0.883,0,1.284,0.161,1.284,0.642c0,0.321-0.32,0.482-0.642,0.482
		c-0.562,0-1.044,0.08-2.007,0.241c-2.168,0.402-2.81,1.767-2.971,4.577c-0.16,2.569-0.16,4.817-0.16,17.343V38.54z"/>
	<path class="st0" d="M391.779,50.904c0.161,6.584,0.963,8.671,3.132,9.314c1.525,0.402,3.292,0.482,4.015,0.482
		c0.401,0,0.642,0.161,0.642,0.482c0,0.482-0.482,0.642-1.445,0.642c-4.577,0-7.789-0.241-8.511-0.241
		c-0.723,0-4.095,0.241-7.708,0.241c-0.803,0-1.285-0.08-1.285-0.642c0-0.321,0.241-0.482,0.643-0.482
		c0.642,0,2.087-0.08,3.292-0.482c2.007-0.562,2.409-2.89,2.409-10.197l0.08-46.007c0-3.132,0.241-4.015,0.883-4.015
		s2.007,1.767,2.81,2.569c1.205,1.365,13.168,14.292,25.533,27.54c7.949,8.511,16.7,18.307,19.27,20.956l-0.883-40.788
		c-0.08-5.219-0.642-6.985-3.132-7.627c-1.445-0.321-3.292-0.402-3.934-0.402c-0.562,0-0.642-0.241-0.642-0.562
		c0-0.482,0.642-0.562,1.605-0.562c3.613,0,7.467,0.241,8.35,0.241s3.532-0.241,6.824-0.241c0.883,0,1.446,0.08,1.446,0.562
		c0,0.321-0.321,0.562-0.883,0.562c-0.402,0-0.963,0-1.927,0.241c-2.65,0.562-2.971,2.328-2.971,7.146l-0.16,47.05
		c0,5.299-0.161,5.7-0.723,5.7c-0.642,0-1.605-0.883-5.861-5.139c-0.883-0.803-12.445-12.606-20.956-21.759
		c-9.314-10.036-18.387-20.153-20.956-23.043L391.779,50.904z"/>
	<path class="st0" d="M503.474,41.35c0-6.503-0.402-7.386-3.612-8.27c-0.643-0.161-2.008-0.241-2.73-0.241
		c-0.321,0-0.643-0.161-0.643-0.482c0-0.482,0.402-0.642,1.285-0.642c3.613,0,8.672,0.241,9.072,0.241
		c0.402,0,5.46-0.241,7.869-0.241c0.883,0,1.285,0.161,1.285,0.642c0,0.321-0.321,0.482-0.642,0.482
		c-0.563,0-1.044,0.08-2.008,0.241c-2.167,0.402-2.81,1.767-2.97,4.577c-0.16,2.569-0.16,4.978-0.16,8.35v8.993
		c0,3.613-0.08,3.774-1.045,4.335c-5.139,2.73-12.364,3.613-17.021,3.613c-6.102,0-17.503-0.803-26.416-8.591
		c-4.897-4.255-9.554-12.847-9.554-22.883c0-12.847,6.262-21.919,13.409-26.416C476.818,0.562,484.767,0,490.949,0
		c5.058,0,10.759,1.044,12.285,1.365c1.686,0.402,4.496,0.723,6.504,0.803c0.802,0.08,0.963,0.401,0.963,0.723
		c0,1.124-0.562,3.372-0.562,11.401c0,1.284-0.161,1.686-0.723,1.686c-0.402,0-0.482-0.482-0.562-1.204
		c-0.08-1.124-0.482-3.372-1.686-5.299c-2.007-3.051-8.511-6.504-18.868-6.504c-5.058,0-11.08,0.482-17.182,5.299
		c-4.657,3.693-7.949,11-7.949,20.394c0,11.321,5.7,19.511,8.511,22.24c6.343,6.183,13.649,8.591,21.036,8.591
		c2.89,0,7.065-0.482,9.154-1.686c1.044-0.562,1.605-1.445,1.605-2.81V41.35z"/>
	<path class="st0" d="M121.278,164.374c-1.124-0.562-1.204-0.883-1.204-3.051c0-4.014,0.32-7.226,0.402-8.511
		c0.08-0.883,0.24-1.284,0.642-1.284c0.482,0,0.562,0.241,0.562,0.883c0,0.723,0,1.847,0.241,2.971
		c1.204,5.941,6.504,8.19,11.883,8.19c7.708,0,11.482-5.54,11.482-10.679c0-5.54-2.328-8.751-9.234-14.452l-3.613-2.971
		c-8.511-6.985-10.437-11.963-10.437-17.423c0-8.591,6.424-14.452,16.62-14.452c3.132,0,5.46,0.321,7.467,0.803
		c1.526,0.321,2.168,0.401,2.81,0.401c0.643,0,0.803,0.161,0.803,0.562s-0.321,3.051-0.321,8.511c0,1.285-0.16,1.847-0.562,1.847
		c-0.482,0-0.562-0.401-0.642-1.044c-0.08-0.963-0.562-3.132-1.044-4.014c-0.482-0.883-2.65-4.256-10.037-4.256
		c-5.54,0-9.876,3.453-9.876,9.314c0,4.577,2.088,7.467,9.796,13.489l2.248,1.767c9.474,7.467,11.722,12.445,11.722,18.868
		c0,3.292-1.285,9.394-6.825,13.328c-3.452,2.409-7.788,3.372-12.124,3.372C128.263,166.542,124.57,165.98,121.278,164.374z"/>
	<path class="st0" d="M191.24,142.134c0,7.708,0,14.051,0.402,17.423c0.24,2.328,0.722,4.095,3.132,4.416
		c1.124,0.161,2.89,0.321,3.612,0.321c0.482,0,0.643,0.241,0.643,0.482c0,0.402-0.402,0.642-1.285,0.642
		c-4.417,0-9.474-0.241-9.876-0.241s-5.46,0.241-7.869,0.241c-0.883,0-1.285-0.161-1.285-0.642c0-0.241,0.16-0.482,0.643-0.482
		c0.722,0,1.686-0.16,2.409-0.321c1.605-0.321,2.007-2.088,2.328-4.416c0.402-3.372,0.402-9.715,0.402-17.423v-33.963l-11.884,0.161
		c-4.978,0.08-6.905,0.642-8.189,2.569c-0.883,1.365-1.125,1.927-1.365,2.489c-0.241,0.642-0.482,0.803-0.803,0.803
		c-0.241,0-0.402-0.241-0.402-0.723c0-0.803,1.605-7.708,1.767-8.35c0.16-0.482,0.482-1.526,0.803-1.526
		c0.562,0,1.364,0.803,3.532,0.963c2.328,0.241,5.38,0.402,6.343,0.402h30.109c2.57,0,4.417-0.161,5.7-0.402
		c1.205-0.16,1.927-0.401,2.248-0.401c0.402,0,0.402,0.482,0.402,0.963c0,2.409-0.241,7.949-0.241,8.832
		c0,0.723-0.24,1.044-0.562,1.044c-0.402,0-0.562-0.241-0.642-1.365l-0.08-0.883c-0.241-2.409-2.168-4.256-9.876-4.416
		l-10.117-0.161V142.134z"/>
	<path class="st0" d="M252.024,103.594c18.065,0,31.554,11.401,31.554,30.109c0,17.985-12.686,32.839-32.035,32.839
		c-22,0-31.153-17.102-31.153-31.554C220.389,121.981,229.864,103.594,252.024,103.594z M253.71,163.491
		c7.226,0,22.16-4.175,22.16-27.54c0-19.27-11.722-29.627-24.408-29.627c-13.409,0-23.445,8.832-23.445,26.416
		C228.017,151.447,239.258,163.491,253.71,163.491z"/>
	<path class="st0" d="M301.767,128.003c0-12.526,0-14.773-0.161-17.343c-0.16-2.73-0.802-4.015-3.452-4.577
		c-0.643-0.161-2.007-0.241-2.73-0.241c-0.321,0-0.642-0.161-0.642-0.482c0-0.482,0.402-0.642,1.284-0.642
		c3.613,0,8.672,0.241,9.073,0.241c0.883,0,6.985-0.241,9.474-0.241c5.058,0,10.437,0.482,14.694,3.533
		c2.007,1.445,5.539,5.379,5.539,10.92c0,5.941-2.489,11.883-9.714,18.547c6.584,8.431,12.043,15.577,16.7,20.554
		c4.336,4.577,7.789,5.46,9.796,5.781c1.526,0.241,2.65,0.241,3.132,0.241c0.402,0,0.723,0.241,0.723,0.482
		c0,0.482-0.482,0.642-1.928,0.642h-5.7c-4.496,0-6.504-0.402-8.591-1.525c-3.453-1.847-6.263-5.781-10.839-11.803
		c-3.373-4.416-7.147-9.796-8.752-11.883c-0.321-0.321-0.562-0.482-1.044-0.482l-9.876-0.161c-0.402,0-0.563,0.241-0.563,0.642
		v1.927c0,7.708,0,14.051,0.402,17.423c0.241,2.328,0.723,4.095,3.132,4.416c1.124,0.161,2.89,0.321,3.613,0.321
		c0.482,0,0.642,0.241,0.642,0.482c0,0.402-0.402,0.642-1.285,0.642c-4.416,0-9.474-0.241-9.876-0.241
		c-0.08,0-5.139,0.241-7.547,0.241c-0.883,0-1.285-0.161-1.285-0.642c0-0.241,0.161-0.482,0.643-0.482
		c0.722,0,1.686-0.16,2.409-0.321c1.605-0.321,2.007-2.088,2.328-4.416c0.402-3.372,0.402-9.715,0.402-17.423V128.003z
		 M308.19,134.988c0,0.401,0.161,0.723,0.563,0.963c1.204,0.723,4.897,1.284,8.431,1.284c1.927,0,4.175-0.241,6.021-1.525
		c2.811-1.927,4.898-6.263,4.898-12.365c0-10.036-5.299-16.058-13.891-16.058c-2.409,0-4.577,0.241-5.379,0.482
		c-0.402,0.161-0.643,0.482-0.643,0.963V134.988z"/>
	<path class="st0" d="M373.526,144.623c0-4.336-0.803-6.102-1.847-8.43c-0.562-1.285-11.322-18.949-14.132-23.124
		c-2.007-2.971-4.014-4.978-5.459-5.942c-1.205-0.803-2.73-1.284-3.453-1.284c-0.401,0-0.802-0.161-0.802-0.562
		c0-0.321,0.32-0.562,1.044-0.562c1.525,0,7.547,0.241,7.949,0.241c0.562,0,3.613-0.241,6.744-0.241
		c0.883,0,1.045,0.241,1.045,0.562c0,0.321-0.482,0.401-1.205,0.723c-0.642,0.321-1.044,0.803-1.044,1.445
		c0,0.963,0.402,1.927,1.044,3.131c1.285,2.328,13.329,23.044,14.774,25.372c1.525-3.372,11.722-20.956,13.328-23.605
		c1.044-1.686,1.365-3.051,1.365-4.095c0-1.124-0.321-2.007-1.285-2.248c-0.722-0.241-1.204-0.402-1.204-0.803
		c0-0.321,0.482-0.482,1.285-0.482c2.087,0,4.656,0.241,5.299,0.241c0.482,0,6.262-0.241,7.789-0.241
		c0.562,0,1.044,0.161,1.044,0.482c0,0.402-0.402,0.642-1.044,0.642c-0.883,0-2.41,0.321-3.693,1.124
		c-1.606,0.963-2.49,1.927-4.255,4.095c-2.65,3.212-13.891,22.08-15.336,25.533c-1.205,2.89-1.205,5.379-1.205,8.029v6.905
		c0,1.284,0,4.656,0.241,8.029c0.16,2.328,0.883,4.095,3.292,4.416c1.124,0.161,2.89,0.321,3.612,0.321
		c0.482,0,0.643,0.241,0.643,0.482c0,0.402-0.402,0.642-1.285,0.642c-4.416,0-9.474-0.241-9.876-0.241
		c-0.402,0-5.46,0.241-7.869,0.241c-0.883,0-1.285-0.161-1.285-0.642c0-0.241,0.161-0.482,0.643-0.482
		c0.722,0,1.686-0.16,2.409-0.321c1.605-0.321,2.328-2.088,2.489-4.416c0.241-3.372,0.241-6.744,0.241-8.029V144.623z"/>
</g>
</svg>
