<?xml version="1.0" encoding="utf-8"?>
<!-- Generator: Adobe Illustrator 26.2.1, SVG Export Plug-In . SVG Version: 6.00 Build 0)  -->
<svg version="1.1" id="レイヤー_1" xmlns="http://www.w3.org/2000/svg" xmlns:xlink="http://www.w3.org/1999/xlink" x="0px"
	 y="0px" viewBox="0 0 30 30" style="enable-background:new 0 0 30 30;" xml:space="preserve">
<style type="text/css">
	.st0{fill:#675952;}
</style>
<g>
	<path class="st0" d="M18.287,3.132c-4.178-4.175-10.976-4.175-15.154,0c-4.178,4.175-4.178,10.969,0,15.145
		c4.178,4.175,10.976,4.175,15.154,0S22.466,7.307,18.287,3.132z M16.8,16.789c-3.363,3.36-8.816,3.36-12.178-0.001
		s-3.363-8.81,0-12.17c3.363-3.36,8.815-3.36,12.178,0S20.162,13.428,16.8,16.789z"/>
	<path class="st0" d="M5.965,6.594c-1.721,2.21-1.865,5.252-0.429,7.6c0.11,0.181,0.346,0.237,0.526,0.128
		c0.18-0.111,0.237-0.346,0.127-0.526c-1.27-2.078-1.144-4.778,0.379-6.731c0.131-0.166,0.1-0.407-0.067-0.536
		C6.336,6.398,6.095,6.427,5.965,6.594z"/>
	<path class="st0" d="M29.221,26.234l-7.777-7.57c-0.425-0.414-1.105-0.409-1.525,0.01l-1.233,1.232
		c-0.42,0.419-0.424,1.098-0.009,1.523l7.575,7.772c0.841,1.015,2.084,1.075,3.044,0.115C30.257,28.357,30.236,27.074,29.221,26.234
		z"/>
</g>
</svg>
