<?xml version="1.0" encoding="utf-8"?>
<!-- Generator: Adobe Illustrator 26.2.1, SVG Export Plug-In . SVG Version: 6.00 Build 0)  -->
<svg version="1.1" id="レイヤー_2_00000049213694465452670760000007156655915211342485_"
	 xmlns="http://www.w3.org/2000/svg" xmlns:xlink="http://www.w3.org/1999/xlink" x="0px" y="0px" viewBox="0 0 171 42"
	 style="enable-background:new 0 0 171 42;" xml:space="preserve">
<style type="text/css">
	.st0{fill:#675952;}
</style>
<path class="st0" d="M170.97,5.754c-0.054-0.184-0.214-0.307-0.394-0.325c-0.103-0.047-0.278-0.14-0.521-0.266
	c-1.84-0.958-7.438-3.872-14.464-4.74c-9.858-1.49-20.844,0.985-30.94,6.964c-5.46,3.234-10.634,6.683-15.199,9.726
	c-4.687,3.124-8.733,5.821-12.311,7.81c-4.99,2.977-8.825,4.398-10.667,5.081c-0.431,0.159-0.745,0.277-0.973,0.385
	c-0.228-0.107-0.543-0.226-0.973-0.385c-1.842-0.683-5.677-2.104-10.68-5.088c-3.565-1.981-7.613-4.679-12.299-7.804
	c-4.565-3.043-9.738-6.492-15.198-9.725c-10.097-5.98-21.085-8.452-30.93-6.965C8.383,1.292,2.786,4.206,0.945,5.163
	C0.702,5.29,0.528,5.383,0.424,5.43c-0.18,0.017-0.34,0.141-0.394,0.325c-0.141,0.48,0.188,0.602,1.413,1.057
	c1.842,0.683,5.677,2.104,10.681,5.089c2.113,1.174,4.4,2.604,6.884,4.222c-0.161,0.044-0.326,0.082-0.486,0.128
	c-6.076,1.591-10.538,4.618-12.005,5.612c-0.189,0.128-0.325,0.222-0.408,0.273c-0.18,0.044-0.322,0.196-0.344,0.391
	c-0.055,0.486,0.266,0.542,1.46,0.75c1.741,0.304,5.365,0.937,10.282,2.656c2.257,0.72,4.748,1.655,7.489,2.732
	c-0.429,0.177-0.852,0.361-1.267,0.553c-5.045,2.193-8.397,5.266-9.498,6.275c-0.135,0.125-0.235,0.216-0.297,0.27
	c-0.164,0.071-0.273,0.234-0.273,0.416c0,0.017,0.001,0.035,0.003,0.052c0.054,0.458,0.352,0.455,1.462,0.432
	c1.586-0.031,4.893-0.095,9.546,0.497c3.27,0.335,7.114,0.981,11.566,1.73c4.338,0.73,9.255,1.557,14.323,2.188
	c2.405,0.3,4.784,0.447,7.112,0.447c6.742,0,13.043-1.242,18.217-3.637c3.093-1.345,5.547-3.019,7.239-4.346
	c0.931-0.565,1.638-1.043,2.074-1.339c0.125-0.085,0.218-0.148,0.297-0.2c0.078,0.053,0.172,0.115,0.296,0.2
	c0.442,0.299,1.159,0.786,2.107,1.359c1.689,1.324,4.131,2.987,7.204,4.322c5.181,2.399,11.485,3.641,18.228,3.641
	c2.327,0,4.707-0.148,7.11-0.447c5.068-0.631,9.985-1.459,14.323-2.188c4.452-0.749,8.297-1.396,11.576-1.731
	c4.64-0.589,7.945-0.526,9.535-0.496c1.11,0.02,1.41,0.027,1.462-0.433c0.002-0.017,0.003-0.035,0.003-0.051
	c0-0.183-0.11-0.346-0.273-0.416c-0.063-0.053-0.162-0.145-0.296-0.269c-1.101-1.009-4.452-4.083-9.489-6.272
	c-0.419-0.194-0.847-0.379-1.28-0.558c2.741-1.077,5.233-2.012,7.497-2.734c4.906-1.716,8.529-2.349,10.271-2.652
	c1.194-0.208,1.515-0.265,1.46-0.75c-0.022-0.195-0.164-0.347-0.344-0.391c-0.083-0.051-0.22-0.145-0.408-0.273
	c-1.467-0.995-5.93-4.021-11.994-5.61c-0.165-0.047-0.335-0.086-0.501-0.132c2.485-1.618,4.775-3.05,6.895-4.227
	c4.991-2.978,8.826-4.398,10.668-5.082C170.781,6.356,171.111,6.235,170.97,5.754z M48.948,26.93
	c5.291,0.659,10.414,1.786,14.935,2.781c4.216,0.927,7.857,1.728,10.99,2.048c3.293,0.418,5.917,0.293,7.755,0.075
	c-2.623,1.24-7.011,3.018-12.2,3.66c-9.648,1.459-20.424-0.973-30.341-6.847c-1.064-0.63-2.114-1.27-3.154-1.912
	C40.764,26.359,44.817,26.415,48.948,26.93z M35.68,25.957c-3.816-2.39-7.443-4.805-10.746-7.007
	c-1.269-0.847-2.488-1.658-3.667-2.436c7.739-1.633,16.661-0.901,25.439,2.141c5.341,1.85,10.475,3.911,15.005,5.729
	c4.678,1.877,8.718,3.498,12.218,4.615c2.884,1.008,5.313,1.64,7.204,2.06c-1.639,0.11-3.703,0.11-6.154-0.202
	c-3.093-0.316-6.71-1.112-10.899-2.032c-4.539-0.998-9.685-2.131-15.017-2.794C44.443,25.453,39.917,25.439,35.68,25.957z
	 M39.624,29.429c8.179,4.845,16.943,7.387,25.212,7.387c1.937,0,3.847-0.14,5.717-0.422c4.822-0.596,8.968-2.151,11.693-3.38
	c-2.159,1.274-5.379,2.903-9.284,3.926c-8.278,2.391-18.2,1.848-27.939-1.527c-5.34-1.85-10.474-3.911-15.004-5.729
	c-0.849-0.341-1.67-0.67-2.479-0.992c2.471-0.83,5.132-1.433,7.93-1.794C36.831,27.749,38.218,28.596,39.624,29.429z M88.78,33.025
	c2.724,1.227,6.856,2.775,11.656,3.368c1.873,0.283,3.786,0.423,5.726,0.423c8.273,0,17.036-2.542,25.214-7.386
	c1.407-0.833,2.793-1.68,4.156-2.532c2.799,0.361,5.462,0.964,7.936,1.794c-0.808,0.323-1.629,0.652-2.479,0.992
	c-4.529,1.819-9.663,3.878-15.005,5.729c-9.739,3.374-19.662,3.916-27.95,1.524C94.148,35.919,90.938,34.296,88.78,33.025z
	 M130.914,28.646c-9.915,5.872-20.691,8.304-30.353,6.845c-5.183-0.64-9.57-2.42-12.192-3.66c1.837,0.217,4.465,0.346,7.759-0.073
	c3.144-0.322,6.786-1.122,11.003-2.05c4.52-0.994,9.643-2.121,14.934-2.78c4.127-0.514,8.176-0.571,12.005-0.196
	C133.028,27.376,131.978,28.016,130.914,28.646z M121.951,26.028c-5.332,0.664-10.477,1.796-15.016,2.794
	c-4.189,0.921-7.806,1.717-10.911,2.034c-2.447,0.311-4.509,0.31-6.147,0.2c1.89-0.419,4.315-1.05,7.191-2.056
	c3.512-1.12,7.552-2.742,12.229-4.618c4.529-1.818,9.663-3.878,15.005-5.729c8.773-3.04,17.691-3.774,25.433-2.141
	c-1.179,0.778-2.399,1.59-3.668,2.437c-3.304,2.201-6.929,4.617-10.745,7.006C131.086,25.439,126.564,25.453,121.951,26.028z
	 M12.579,11.112C7.516,8.091,3.629,6.651,1.761,5.958C1.687,5.931,1.614,5.904,1.543,5.877c1.966-1.021,7.328-3.731,14.002-4.555
	c9.649-1.459,20.424,0.974,30.341,6.847c5.439,3.222,10.603,6.663,15.157,9.7c4.703,3.135,8.765,5.842,12.35,7.835
	c4.579,2.732,8.179,4.164,10.211,4.927c-1.946-0.356-5.189-1.028-9.39-2.497c-3.48-1.11-7.505-2.725-12.167-4.596
	c-4.539-1.821-9.684-3.885-15.045-5.744c-9.267-3.212-18.712-3.897-26.803-1.982C17.431,13.998,14.903,12.402,12.579,11.112z
	 M17.799,25.07c-4.976-1.74-8.649-2.381-10.414-2.69c-0.002,0-0.005-0.001-0.006-0.001c1.712-1.149,5.871-3.808,11.387-5.253
	c0.418-0.121,0.843-0.228,1.269-0.335c1.402,0.921,2.861,1.891,4.394,2.914c3.044,2.03,6.362,4.238,9.852,6.444
	c-2.843,0.433-5.543,1.11-8.034,2.029C23.129,26.943,20.321,25.874,17.799,25.07z M50.678,40.176
	c-5.048-0.628-9.955-1.454-14.284-2.182c-4.468-0.752-8.327-1.401-11.614-1.737c-3.466-0.44-6.196-0.522-8.037-0.522
	c-0.565,0-1.046,0.007-1.439,0.015c1.389-1.246,4.449-3.811,8.802-5.703c0.691-0.32,1.409-0.613,2.14-0.891
	c1.105,0.438,2.249,0.897,3.434,1.373c4.539,1.821,9.683,3.885,15.045,5.744c5.839,2.023,11.747,3.044,17.344,3.044
	c3.906,0,7.662-0.498,11.134-1.5c0.618-0.162,1.216-0.342,1.8-0.53C68.256,40.263,59.647,41.292,50.678,40.176z M146.917,30.05
	c4.344,1.889,7.403,4.453,8.791,5.7c-1.675-0.03-4.948-0.068-9.465,0.506c-3.298,0.337-7.157,0.987-11.625,1.739
	c-4.329,0.728-9.236,1.554-14.284,2.182c-8.959,1.116-17.554,0.09-24.302-2.881c0.572,0.184,1.156,0.359,1.761,0.518
	c3.479,1.004,7.237,1.502,11.148,1.502c5.597,0,11.505-1.022,17.341-3.043c5.362-1.858,10.507-3.923,15.046-5.744
	c1.187-0.476,2.331-0.935,3.436-1.374C145.501,29.433,146.222,29.728,146.917,30.05z M152.252,17.129
	c5.505,1.442,9.664,4.1,11.376,5.249c-0.002,0-0.005,0.001-0.006,0.001c-1.765,0.308-5.439,0.949-10.402,2.685
	c-2.53,0.807-5.339,1.877-8.458,3.113c-2.494-0.918-5.195-1.596-8.04-2.029c3.489-2.206,6.807-4.415,9.851-6.443
	c1.534-1.022,2.993-1.993,4.396-2.915C151.399,16.898,151.829,17.007,152.252,17.129z M169.24,5.958
	c-1.868,0.692-5.755,2.133-10.806,5.147c-2.331,1.295-4.862,2.892-7.632,4.706c-8.097-1.913-17.535-1.226-26.797,1.983
	c-5.361,1.858-10.506,3.923-15.045,5.744c-4.661,1.87-8.687,3.485-12.179,4.6c-4.197,1.468-7.445,2.141-9.39,2.495
	c2.03-0.762,5.632-2.194,10.205-4.922c3.597-1.999,7.658-4.706,12.361-7.841c4.556-3.036,9.719-6.479,15.158-9.701
	c9.916-5.873,20.692-8.304,30.353-6.845c6.663,0.823,12.025,3.533,13.991,4.554C169.387,5.904,169.314,5.931,169.24,5.958z"/>
</svg>
