<?xml version="1.0" encoding="utf-8"?>
<!-- Generator: Adobe Illustrator 26.2.1, SVG Export Plug-In . SVG Version: 6.00 Build 0)  -->
<svg version="1.1" id="レイヤー_7" xmlns="http://www.w3.org/2000/svg" xmlns:xlink="http://www.w3.org/1999/xlink" x="0px"
	 y="0px" viewBox="0 0 153 27" style="enable-background:new 0 0 153 27;" xml:space="preserve">
<style type="text/css">
	.st0{fill:#675952;}
</style>
<g>
	<path class="st0" d="M2.349,8.205c0-4.211,0-4.966-0.054-5.83C2.24,1.457,2.024,1.025,1.134,0.836
		c-0.216-0.054-0.675-0.08-0.918-0.08C0.108,0.756,0,0.701,0,0.594c0-0.162,0.136-0.216,0.433-0.216c1.214,0,2.915,0.081,3.05,0.081
		c0.647,0,1.7-0.081,2.942-0.081c4.427,0,5.398,2.699,5.398,4.049c0,2.213-1.269,3.536-2.537,4.858
		c1.997,0.621,4.67,2.537,4.67,5.695c0,2.889-2.268,5.885-6.884,5.885c-0.297,0-1.16-0.054-1.943-0.081
		c-0.783-0.054-1.538-0.081-1.646-0.081c-0.054,0-0.513,0-1.08,0.027c-0.54,0-1.16,0.054-1.565,0.054
		c-0.297,0-0.432-0.054-0.432-0.216c0-0.081,0.054-0.162,0.216-0.162c0.243,0,0.566-0.054,0.81-0.108
		c0.54-0.107,0.675-0.701,0.783-1.484c0.135-1.134,0.135-3.266,0.135-5.857V8.205z M4.508,8.799c0,0.189,0.055,0.243,0.189,0.298
		c0.162,0.026,0.647,0.107,1.646,0.107c1.512,0,1.89-0.054,2.456-0.702c0.567-0.647,0.972-1.619,0.972-2.726
		c0-2.24-0.999-4.643-3.644-4.643c-0.297,0-0.864,0.026-1.296,0.135C4.589,1.322,4.508,1.403,4.508,1.565V8.799z M4.508,11.66
		c0,2.079,0,5.426,0.027,5.831c0.081,1.322,0.081,1.7,0.918,2.105c0.729,0.351,1.89,0.404,2.375,0.404
		c1.458,0,3.806-0.782,3.806-3.833c0-1.619-0.539-3.968-2.618-5.398c-0.918-0.62-1.593-0.701-2.24-0.782
		c-0.351-0.055-1.7-0.055-2.105-0.055c-0.107,0-0.162,0.055-0.162,0.189V11.66z"/>
	<path class="st0" d="M26.348,1.053C26.672,0.161,26.78,0,26.941,0c0.162,0,0.271,0.135,0.594,0.972
		c0.405,1.025,4.644,12.174,6.29,16.276c0.972,2.402,1.754,2.834,2.321,2.996c0.404,0.135,0.81,0.162,1.079,0.162
		c0.162,0,0.271,0.027,0.271,0.162c0,0.162-0.243,0.216-0.54,0.216c-0.405,0-2.375,0-4.238-0.054
		c-0.513-0.027-0.81-0.027-0.81-0.189c0-0.107,0.081-0.162,0.189-0.188c0.162-0.055,0.323-0.297,0.162-0.729l-2.511-6.64
		c-0.054-0.108-0.108-0.162-0.243-0.162h-5.804c-0.135,0-0.216,0.081-0.27,0.216l-1.619,4.777c-0.243,0.675-0.378,1.323-0.378,1.809
		c0,0.54,0.566,0.783,1.025,0.783h0.27c0.189,0,0.271,0.054,0.271,0.162c0,0.162-0.162,0.216-0.405,0.216
		c-0.647,0-1.809-0.081-2.105-0.081s-1.781,0.081-3.05,0.081c-0.351,0-0.513-0.054-0.513-0.216c0-0.108,0.107-0.162,0.242-0.162
		c0.189,0,0.567-0.027,0.783-0.054c1.242-0.162,1.781-1.188,2.268-2.538L26.348,1.053z M29.155,11.85
		c0.135,0,0.135-0.081,0.107-0.189l-2.563-7.288c-0.136-0.404-0.271-0.404-0.405,0l-2.375,7.288c-0.055,0.136,0,0.189,0.081,0.189
		H29.155z"/>
	<path class="st0" d="M45.286,17.113c0.055,2.213,0.324,2.915,1.053,3.131c0.513,0.135,1.107,0.162,1.35,0.162
		c0.136,0,0.216,0.054,0.216,0.162c0,0.162-0.161,0.216-0.485,0.216c-1.539,0-2.618-0.081-2.861-0.081s-1.377,0.081-2.591,0.081
		c-0.271,0-0.433-0.027-0.433-0.216c0-0.108,0.081-0.162,0.216-0.162c0.217,0,0.702-0.027,1.107-0.162
		c0.675-0.188,0.81-0.972,0.81-3.428L43.694,1.35c0-1.053,0.08-1.35,0.297-1.35c0.216,0,0.675,0.594,0.944,0.863
		c0.405,0.459,4.427,4.805,8.584,9.259c2.672,2.861,5.614,6.154,6.478,7.045L59.7,3.455c-0.026-1.755-0.216-2.349-1.053-2.564
		c-0.485-0.108-1.106-0.135-1.322-0.135c-0.188,0-0.216-0.081-0.216-0.189c0-0.162,0.216-0.188,0.54-0.188
		c1.215,0,2.51,0.081,2.807,0.081s1.188-0.081,2.295-0.081c0.297,0,0.485,0.026,0.485,0.188c0,0.108-0.107,0.189-0.297,0.189
		c-0.135,0-0.323,0-0.647,0.08c-0.891,0.189-0.999,0.783-0.999,2.403l-0.054,15.817c0,1.781-0.054,1.916-0.243,1.916
		c-0.216,0-0.54-0.297-1.971-1.728c-0.297-0.27-4.184-4.237-7.045-7.314C48.85,8.557,45.8,5.155,44.936,4.184L45.286,17.113z"/>
	<path class="st0" d="M82.916,20.244c-0.972,0.513-2.808,0.918-4.238,0.918c-7.477,0-10.554-5.75-10.554-10.608
		C68.124,6.181,71.31,0,78.759,0c6.074,0,10.608,3.859,10.608,10.122c0,4.751-2.996,7.909-4.777,9.069l5.533,2.861
		c5.911,3.05,10.015,3.186,11.364,3.186s3.455-0.297,5.317-1.053c0.162-0.055,0.297-0.108,0.378-0.108
		c0.108,0,0.162,0.081,0.162,0.162c0,0.107-0.054,0.188-0.216,0.27c-1.539,0.702-4.562,1.863-8.557,1.863
		c-3.267,0-6.749-1.188-11.121-3.617L82.916,20.244z M79.326,20.137c2.43,0,7.45-1.404,7.45-9.259c0-6.479-3.941-9.961-8.206-9.961
		c-4.508,0-7.882,2.97-7.882,8.881C70.688,16.087,74.468,20.137,79.326,20.137z"/>
	<path class="st0" d="M95.847,8.205c0-4.211,0-4.966-0.054-5.83c-0.055-0.918-0.271-1.35-1.161-1.539
		c-0.216-0.054-0.675-0.08-0.918-0.08c-0.107,0-0.216-0.055-0.216-0.162c0-0.162,0.135-0.216,0.432-0.216
		c1.215,0,2.861,0.081,3.104,0.081s1.862-0.081,2.672-0.081c0.298,0,0.433,0.054,0.433,0.216c0,0.107-0.108,0.162-0.216,0.162
		c-0.189,0-0.352,0.026-0.675,0.08c-0.729,0.108-0.945,0.595-0.999,1.539c-0.054,0.864-0.054,1.619-0.054,5.83v3.779
		c0,3.887,0.863,5.561,2.024,6.667c1.322,1.242,2.537,1.485,4.075,1.485c1.646,0,3.267-0.783,4.238-1.944
		c1.241-1.538,1.565-3.833,1.565-6.613V8.205c0-4.211,0-4.966-0.054-5.83c-0.054-0.918-0.271-1.35-1.161-1.539
		c-0.216-0.054-0.675-0.08-0.917-0.08c-0.108,0-0.217-0.055-0.217-0.162c0-0.162,0.136-0.216,0.433-0.216
		c1.214,0,2.699,0.081,2.861,0.081c0.188,0,1.457-0.081,2.267-0.081c0.297,0,0.433,0.054,0.433,0.216
		c0,0.107-0.108,0.162-0.217,0.162c-0.188,0-0.351,0.026-0.675,0.08c-0.729,0.162-0.944,0.595-0.998,1.539
		c-0.055,0.864-0.055,1.619-0.055,5.83v2.889c0,2.915-0.323,6.154-2.482,8.07c-1.944,1.728-3.969,1.998-5.561,1.998
		c-0.918,0-3.645-0.108-5.561-1.917c-1.323-1.269-2.349-3.158-2.349-7.099V8.205z"/>
	<path class="st0" d="M121.536,8.205c0-4.211,0-4.966-0.054-5.83c-0.055-0.918-0.271-1.35-1.161-1.539
		c-0.216-0.054-0.675-0.08-0.918-0.08c-0.107,0-0.216-0.055-0.216-0.162c0-0.162,0.136-0.216,0.433-0.216c0.62,0,1.35,0,1.943,0.026
		l1.106,0.055c0.188,0,5.561,0,6.182-0.027c0.513-0.027,0.944-0.081,1.16-0.135c0.135-0.027,0.243-0.136,0.378-0.136
		c0.081,0,0.108,0.108,0.108,0.243c0,0.189-0.135,0.513-0.216,1.269c-0.027,0.271-0.081,1.458-0.136,1.782
		c-0.026,0.135-0.081,0.297-0.188,0.297c-0.162,0-0.216-0.136-0.216-0.352c0-0.188-0.027-0.647-0.162-0.972
		c-0.189-0.432-0.459-0.756-1.917-0.917c-0.458-0.055-3.4-0.081-3.697-0.081c-0.108,0-0.162,0.081-0.162,0.27v7.45
		c0,0.188,0.026,0.27,0.162,0.27c0.351,0,3.671,0,4.292-0.054c0.647-0.054,1.025-0.108,1.269-0.378
		c0.188-0.216,0.297-0.351,0.404-0.351c0.081,0,0.135,0.054,0.135,0.216s-0.135,0.621-0.216,1.512
		c-0.054,0.539-0.107,1.538-0.107,1.728c0,0.216,0,0.513-0.189,0.513c-0.135,0-0.188-0.108-0.188-0.243c0-0.27,0-0.54-0.108-0.891
		c-0.107-0.378-0.351-0.837-1.403-0.945c-0.729-0.08-3.401-0.135-3.86-0.135c-0.135,0-0.188,0.081-0.188,0.189v2.375
		c0,0.918-0.027,4.049,0,4.616c0.081,1.862,0.485,2.213,3.131,2.213c0.702,0,1.89,0,2.592-0.297
		c0.701-0.297,1.025-0.837,1.214-1.943c0.055-0.297,0.108-0.405,0.243-0.405c0.162,0,0.162,0.217,0.162,0.405
		c0,0.216-0.216,2.052-0.351,2.618c-0.189,0.702-0.405,0.702-1.458,0.702c-2.024,0-3.509-0.054-4.562-0.081
		c-1.053-0.054-1.7-0.081-2.105-0.081c-0.054,0-0.513,0-1.08,0.027c-0.54,0-1.16,0.054-1.565,0.054
		c-0.297,0-0.432-0.054-0.432-0.216c0-0.081,0.054-0.162,0.216-0.162c0.243,0,0.566-0.054,0.81-0.108
		c0.54-0.107,0.675-0.701,0.783-1.484c0.135-1.134,0.135-3.266,0.135-5.857V8.205z"/>
	<path class="st0" d="M145.47,12.956c0,2.592,0,4.724,0.136,5.857c0.081,0.783,0.242,1.377,1.053,1.484
		c0.378,0.055,0.972,0.108,1.214,0.108c0.162,0,0.217,0.081,0.217,0.162c0,0.135-0.136,0.216-0.433,0.216
		c-1.484,0-3.185-0.081-3.319-0.081c-0.136,0-1.836,0.081-2.646,0.081c-0.297,0-0.432-0.054-0.432-0.216
		c0-0.081,0.054-0.162,0.216-0.162c0.242,0,0.566-0.054,0.81-0.108c0.54-0.107,0.675-0.701,0.782-1.484
		c0.136-1.134,0.136-3.266,0.136-5.857V1.538l-3.995,0.054c-1.674,0.027-2.321,0.217-2.753,0.864
		c-0.298,0.459-0.378,0.647-0.459,0.837c-0.081,0.216-0.162,0.27-0.271,0.27c-0.081,0-0.135-0.081-0.135-0.243
		c0-0.27,0.54-2.591,0.594-2.807C136.238,0.351,136.347,0,136.455,0c0.188,0,0.458,0.27,1.188,0.323
		c0.782,0.081,1.809,0.136,2.132,0.136h10.123c0.863,0,1.484-0.055,1.916-0.136c0.405-0.054,0.647-0.135,0.756-0.135
		c0.135,0,0.135,0.162,0.135,0.324c0,0.81-0.081,2.672-0.081,2.969c0,0.243-0.081,0.352-0.188,0.352
		c-0.135,0-0.189-0.081-0.216-0.459l-0.027-0.297c-0.081-0.811-0.729-1.431-3.32-1.485l-3.401-0.054V12.956z"/>
</g>
</svg>
