<?xml version="1.0" encoding="utf-8"?>
<!-- Generator: Adobe Illustrator 26.2.1, SVG Export Plug-In . SVG Version: 6.00 Build 0)  -->
<svg version="1.1" id="レイヤー_7" xmlns="http://www.w3.org/2000/svg" xmlns:xlink="http://www.w3.org/1999/xlink" x="0px"
	 y="0px" viewBox="0 0 524 230" style="enable-background:new 0 0 524 230;" xml:space="preserve">
<style type="text/css">
	.st0{fill:#675952;}
</style>
<g>
	<path class="st0" d="M21.503,173.628c-1.3-0.78-2.86-2.08-3.38-2.08c-1.561,0-3.38,1.56-4.681,2.34
		c-3.899,2.08-4.939,2.86-9.1,4.42c-0.52,0.261-4.939,1.819-4.939,0.261c-0.26-0.521,3.38-1.82,4.16-2.08
		c3.38-1.82,4.68-2.601,7.8-4.42c0.779-0.521,3.38-1.82,3.64-2.34c0-0.781-5.46-5.201-5.98-5.98c-3.38-3.9-8.84-13.26-6.239-22.619
		c0.78-2.86,3.38-7.021,7.02-8.58c0.26-0.26,3.38-1.561,3.9-0.26c0.26,1.039-2.08,1.819-2.08,1.819c-4.94,3.12-8.58,7.54-6.76,16.64
		c0.779,5.2,4.42,10.66,8.06,14.04c1.04,1.04,3.38,3.38,3.899,3.38c1.561,0,5.98-4.939,7.8-6.5
		c17.16-16.379,29.64-36.399,42.899-56.679c7.28-11.44,15.34-22.88,22.62-34.319c9.619-15.34,19.499-29.899,33.279-39.26
		c1.819-1.039,5.199-3.379,8.319-3.639c2.08,0,3.12,0,3.12,0.779c0.26,0.779-4.94,2.6-5.98,3.12
		c-5.979,3.64-11.18,9.1-15.859,15.079c-4.42,5.98-9.1,11.7-12.739,17.939l-11.96,18.98c-12.479,19.239-23.14,37.699-37.439,55.379
		c-8.06,9.619-16.64,19.239-26.779,27.559c-1.56,1.041-4.16,3.381-4.16,3.381c0,0.52,2.86,2.08,3.641,2.6
		c8.579,4.939,20.539,8.58,33.799,8.32c13.779-0.521,27.3-5.721,36.399-11.7c9.359-6.5,16.64-15.079,22.1-25.739
		c3.899-7.28,8.06-23.66,3.12-34.32c0-0.52-1.561-3.639-2.08-3.899c-0.78-0.26-3.9,0.78-5.46,0.78c-4.68,0.26-9.1,0-12.479-1.82
		c-1.82-0.779-4.16-2.34-4.16-3.9c-0.26-4.159,8.58-4.42,12.999-3.379c3.381,0.779,5.98,2.08,8.84,3.64
		c1.301,0.521,2.08,1.3,2.86,1.3c2.08,0.26,5.46-1.82,7.8-3.119c12.479-5.98,22.1-15.34,28.079-27.561
		c3.38-6.5,5.721-16.119,4.16-25.479c-2.34-14.82-7.54-23.141-17.68-30.68c-9.619-7.02-24.699-12.48-40.819-12.48
		c-11.699,0-23.139,2.601-32.499,5.721c-19.76,6.76-34.839,16.379-45.239,33.02c-5.46,8.319-9.88,17.159-10.399,28.079
		c-0.78,8.579,2.08,19.759,8.319,22.359c0,0,2.601,0,2.341,1.04c-0.261,0.779-2.08,0.52-3.12,0.26c-6.24-1.3-9.1-10.66-9.62-17.16
		c-1.3-14.299,4.42-25.738,10.92-35.358c13-20.02,32.759-32.239,60.318-37.96c21.32-4.159,41.34-2.08,60.579,9.36
		c8.58,5.46,14.819,11.44,19.499,20.8c2.86,7.279,4.16,11.18,4.16,20.02c-0.26,6.76-1.819,14.56-4.939,19.76
		c-2.86,5.199-6.5,10.14-9.88,13.779c-5.98,7.02-14.56,13.26-24.96,16.64c-1.3,0.521-4.159,1.04-4.42,1.3
		c-0.26,0.78,2.601,4.16,3.38,5.98c2.341,5.199,3.12,10.92,2.601,17.68c-0.78,12.739-7.8,22.359-14.56,29.898
		c-6.76,7.801-14.82,14.04-25.22,18.721c-10.92,4.68-23.399,7.799-37.439,6.5C39.183,181.948,29.822,178.569,21.503,173.628z
		 M114.581,102.91c0.26,0-3.38-2.34-4.681-2.86c-2.859-1.56-6.239-2.08-8.84-1.819c-1.819,0.26-3.899,0.26-3.899,1.819
		c-0.521,2.34,5.72,3.9,8.58,4.16C108.081,104.209,114.581,103.95,114.581,102.91z"/>
	<path class="st0" d="M190.502,135.929c4.16-2.341,7.54-5.46,9.88-7.28c5.2-3.899,10.14-9.879,15.34-14.819
		c0.26,0,1.56-2.34,2.6-1.56c1.04,0.779-2.6,4.42-3.12,4.939c-3.64,4.16-9.1,8.84-12.999,12.22c-2.601,2.34-5.98,5.2-9.62,7.28
		c-5.46,3.119-18.979,8.06-20.279-2.34c0-1.561,0.26-4.42,0.779-6.24c0.261-0.52,1.04-1.561,0.78-1.82
		c-0.26-0.52-1.82,1.04-1.82,1.04c-3.64,2.86-9.1,7.8-14.299,9.101c-9.101,2.079-11.96-6.24-8.84-13.26
		c2.079-4.42,5.46-7.541,9.1-10.4c4.68-3.641,9.359-5.98,16.119-6.24c3.38,0,7.8,1.041,10.4,3.12c0.52,0.261,1.56,1.3,1.56,1.3
		c1.3,0,2.6-1.82,3.64-2.6c0.78-0.26,3.641-2.08,4.42-0.26c1.04,1.82-4.159,5.979-4.939,6.76c-3.38,3.9-7.28,8.06-9.88,13.52
		c-1.04,2.34-2.86,6.5-1.56,9.1C179.842,141.129,187.643,137.489,190.502,135.929z M162.423,132.549c3.12-2.08,5.46-4.16,7.54-5.98
		c4.159-3.379,7.279-5.719,10.659-9.619c0.78-0.78,3.12-2.86,2.86-3.9c-0.26-2.08-7.8-3.119-10.66-2.6
		c-4.939,0.779-9.1,4.16-11.96,7.279c-1.819,2.08-3.119,3.9-5.199,7.54c-1.04,2.08-4.42,7.021-2.86,9.36
		C154.623,136.969,160.603,133.849,162.423,132.549z"/>
	<path class="st0" d="M237.562,128.129c1.039-2.34,3.899-6.76,5.459-9.359c1.82-2.601,5.721-7.28,3.9-9.621
		c-2.08-2.6-9.62,1.301-12.74,3.121c-3.899,2.34-7.02,5.199-9.619,7.539c-4.68,4.42-8.84,7.54-12.479,13.26
		c-1.04,1.82-2.341,5.2-3.12,5.46c-0.521,0.261-5.2,0.261-5.2,0.261c-0.52-0.781,1.82-4.42,1.82-4.681
		c3.64-7.54,7.539-14.04,11.439-21.06c1.56-2.6,3.38-6.76,5.2-7.539c0.779-0.261,3.899-0.261,4.42,0c0.26,0,0.26,0.26,0.26,0.26
		c-0.26,1.56-1.56,5.459-3.9,9.1c-1.04,2.08-5.199,7.02-4.939,7.8c0.26,0.521,1.3-0.521,1.56-0.78c2.601-2.08,8.061-7.279,10.4-9.1
		c2.859-2.08,11.699-6.5,15.859-6.24c11.96,1.041,5.2,11.7,2.6,15.859l-2.859,5.461c-0.78,1.56-2.08,5.199-1.561,7.279
		c1.04,4.16,7.54,1.301,10.141,0c4.159-1.82,13.779-10.92,17.159-15.08c1.56-1.819,3.38-4.68,5.2-6.76c0.52-0.52,1.3-2.08,2.34-1.56
		c0.26,0,1.3-0.26-0.26,2.601c-1.561,2.34-3.12,4.159-5.2,6.5c-3.12,3.639-4.94,5.719-7.54,8.059
		c-4.42,4.16-11.439,10.92-20.279,10.66C239.902,139.569,234.962,134.629,237.562,128.129z"/>
	<path class="st0" d="M233.401,225.108c-1.04-5.201,1.301-11.181,3.38-15.601c1.561-4.159,4.16-8.84,6.24-12.739
		c9.36-17.939,18.199-30.939,29.64-46.799c4.68-6.76,9.619-13.78,15.079-20.54c0.261-0.521,1.82-2.34,0.261-0.78
		c-3.38,2.6-9.88,7.801-15.86,7.54c-3.38-0.26-5.979-2.601-6.5-5.979c-0.52-6.5,3.9-11.7,8.061-15.859
		c4.68-4.681,9.619-7.541,16.379-8.32c4.16-0.26,8.061,0.26,11.44,1.561c0.78,0.52,2.34,1.559,2.859,1.559
		c0.78,0,4.94-5.459,7.021-2.859c0.52,0.78-1.3,3.38-1.82,4.16c-5.979,8.32-13.26,17.16-19.239,25.219
		c-7.28,9.36-13.78,19.24-20.28,29.12c-1.56,2.079,2.86,0,5.2-1.04c11.96-5.72,22.1-15.34,30.68-23.66
		c8.06-7.799,13.52-13.52,21.579-22.1l3.12-3.379c0-0.26,3.12-3.9,4.68-2.34c0.78,0.779-2.34,3.64-2.6,4.42
		c-11.7,12.479-21.319,22.1-33.8,33.02c-7.279,6.239-13.52,11.699-23.399,16.119c-0.26,0-5.46,2.08-5.46,2.08
		c-0.52,1.039,1.301,1.56,1.82,2.08c1.56,2.08,2.6,5.719,2.34,10.92c-0.52,5.459-2.34,10.659-4.16,15.6
		c-3.64,9.619-7.539,18.459-14.299,25.219c-3.38,3.381-7.54,7.02-11.44,8.58C239.642,231.608,233.922,230.047,233.401,225.108z
		 M251.861,221.208c6.76-7.02,11.7-15.34,15.08-24.96c1.819-4.939,3.64-10.659,4.159-15.859c0.261-2.601-0.26-5.979-0.779-7.54
		c-0.521-1.04-2.601-3.64-3.38-3.38c-0.521,0.261-0.521,0.521-0.521,0.78c-5.46,8.32-10.92,16.379-16.38,26.779
		c-3.64,6.24-8.319,14.039-10.659,21.84c-0.78,3.119-1.82,7.539,0,8.84C242.762,230.307,249.262,223.547,251.861,221.208z
		 M281.501,130.469c6.239-3.641,10.14-7.54,14.819-12.22c0.78-0.78,6.5-5.2,5.98-7.021c-0.78-2.34-9.101-2.08-11.181-1.819
		c-5.199,1.04-9.879,5.2-12.999,9.36c-1.3,1.299-3.12,4.159-4.16,6.239c-1.3,2.601-2.86,6.76-1.56,8.319
		C273.961,135.149,279.94,131.509,281.501,130.469z"/>
	<path class="st0" d="M350.919,131.249l0.521-2.08c-11.439,6.761-13.78,8.58-18.979,8.061c-2.08,0-4.16-0.779-5.72-2.34
		c-5.2-4.939,0.26-14.56,3.119-18.72c4.681-6.5,6.761-9.1,9.101-9.62c0.52,0,5.199-0.779,5.72-0.26c0.52,1.04,0,1.04-4.42,5.721
		c-3.38,4.42-6.24,7.539-8.58,12.999c-1.56,3.12-3.38,9.36,1.561,10.14c4.159,0.78,8.319-2.6,11.439-4.42
		c4.16-2.859,8.58-5.979,9.1-6.76c1.04-1.04,9.88-15.859,13.26-16.64c0.26,0,4.68-0.26,5.2,0.261c0.26,0.52-2.601,3.899-2.86,4.159
		c-4.42,5.979-7.8,9.36-10.66,16.12c-1.039,2.08-2.859,6.5-1.3,8.319c2.34,2.86,9.36-0.78,12.48-2.601
		c8.579-4.68,14.56-10.919,22.359-18.199c0-0.26,3.64-4.68,4.939-3.899c0,0,1.3-0.521-0.78,2.6c-2.6,3.899-10.14,10.14-13.52,13
		c-6.239,5.2-13.52,11.7-22.359,12.22C354.299,139.569,350.399,137.229,350.919,131.249z"/>
	<path class="st0" d="M384.2,129.95c-0.261-4.16,1.819-9.36,4.68-12.74c4.16-4.939,11.18-9.1,18.979-9.88
		c3.38-0.26,7.28,0.261,7.54,2.86c0.52,2.6-1.82,6.24-3.64,7.799c-3.641,3.641-10.141,5.721-16.12,6.5c-0.52,0-2.08,0-2.86,0.261
		c-1.819,1.04-3.119,6.239-1.819,9.359c1.56,3.38,7.02,4.94,12.999,4.42c6.24-0.521,14.04-4.42,20.021-7.8
		c8.06-4.68,14.039-10.399,18.719-16.119c0.78-0.78,2.341-2.86,3.12-2.34c0.78,0.52,1.561-0.521-1.04,2.6
		c-3.64,4.68-12.479,12.74-17.939,15.859c-7.02,4.68-17.42,10.141-27.039,10.141C392,140.87,384.979,137.229,384.2,129.95z
		 M399.279,121.629c5.2-1.3,9.62-3.38,11.96-5.98c0.78-0.779,2.6-3.379,2.08-4.68c-0.26-1.3-1.82-1.039-2.86-1.039
		c-3.64,0.26-7.02,2.859-9.619,4.939c-1.04,1.04-3.9,3.64-5.2,5.199c0.26-0.26-1.56,2.08-1.3,2.34
		C394.859,122.929,397.72,121.889,399.279,121.629z"/>
	<path class="st0" d="M438.019,129.689c0.52-5.46,2.08-9.88,4.159-14.3c4.42-8.84,5.721-10.399,11.18-18.719
		c0-0.261,9.36-13.78,9.36-13.78c-0.26-0.26-4.42-0.78-5.46-0.78c-9.1-0.26-12.739,0.521-20.02,3.381
		c-1.82,0.779-7.02,4.159-6.76,5.459c0.26,0.26,2.6-0.26,1.819,1.301c-1.819,2.08-4.159,0.26-4.419-0.521
		c-0.78-2.601,4.939-5.979,6.499-6.76c7.54-3.64,11.7-5.2,23.14-4.681c2.34,0.261,5.2,0.781,6.24,0.521c1.3-0.26,1.04,0,2.6-2.079
		c8.84-11.961,19.76-24.96,25.739-29.9c0.78-0.779,5.2-1.56,5.721-0.779c0.52,0.52-7.021,8.84-8.061,9.879
		c-10.659,13-14.3,16.9-18.199,22.62c-1.04,1.56,0.78,1.3,4.16,1.819c11.18,1.041,31.459,3.9,40.299-2.08c0,0,3.64-2.859,4.16-4.939
		c1.04-0.26,2.6,0.52,2.6,0.52c2.08,1.82-4.159,5.461-5.979,6.24c-11.44,5.721-29.38,3.12-42.119,1.82
		c-1.04-0.26-3.9-0.52-4.681-0.26c-1.819,0.52-7.539,10.399-8.839,12.219c-5.98,8.58-10.92,16.121-14.82,25.221
		c-2.34,5.719-5.72,19.499,3.9,20.02c5.199,0.26,10.92-2.34,15.079-4.42c10.14-5.2,18.46-12.48,26.52-21.061
		c0.26-0.26,2.34-3.119,3.38-3.639c0.521-0.261,1.82-0.521,2.08-0.261c0.78,0.78-1.3,2.601-1.82,3.12
		c-2.34,2.6-4.939,5.72-7.279,8.06c-3.64,3.64-7.02,6.239-10.66,8.84c-3.38,2.601-7.54,5.46-11.96,7.54
		c-4.159,2.08-9.359,4.68-14.819,4.68C441.918,143.989,437.498,138.79,438.019,129.689z"/>
</g>
</svg>
