<?xml version="1.0" encoding="utf-8"?>
<!-- Generator: Adobe Illustrator 26.2.1, SVG Export Plug-In . SVG Version: 6.00 Build 0)  -->
<svg version="1.1" id="レイヤー_8" xmlns="http://www.w3.org/2000/svg" xmlns:xlink="http://www.w3.org/1999/xlink" x="0px"
	 y="0px" viewBox="0 0 716 230" style="enable-background:new 0 0 716 230;" xml:space="preserve">
<style type="text/css">
	.st0{fill:#948143;}
</style>
<g>
	<path class="st0" d="M22.097,193.41c-1.299-0.78-2.858-2.079-3.377-2.079c-1.559,0-3.377,1.558-4.676,2.338
		c-3.898,2.079-4.937,2.857-9.093,4.417c-0.52,0.26-4.937,1.818-4.937,0.26c-0.26-0.519,3.377-1.819,4.156-2.079
		c3.378-1.818,4.677-2.598,7.795-4.417c0.779-0.519,3.377-1.818,3.637-2.338c0-0.78-5.456-5.196-5.975-5.975
		c-3.378-3.898-8.833-13.25-6.236-22.604c0.779-2.857,3.377-7.014,7.014-8.573c0.26-0.261,3.378-1.559,3.898-0.261
		c0.26,1.039-2.079,1.819-2.079,1.819c-4.936,3.118-8.574,7.535-6.755,16.627c0.779,5.196,4.417,10.652,8.054,14.03
		c1.039,1.039,3.377,3.377,3.897,3.377c1.559,0,5.976-4.937,7.795-6.495c17.147-16.368,29.617-36.373,42.867-56.637
		c7.275-11.432,15.329-22.863,22.604-34.294c9.613-15.329,19.485-29.877,33.255-39.231c1.818-1.039,5.196-3.377,8.313-3.637
		c2.079,0,3.118,0,3.118,0.78c0.261,0.779-4.937,2.598-5.975,3.118c-5.976,3.637-11.171,9.093-15.848,15.068
		c-4.417,5.976-9.094,11.692-12.731,17.926l-11.951,18.966c-12.47,19.226-23.123,37.672-37.411,55.338
		c-8.055,9.613-16.628,19.226-26.76,27.539c-1.559,1.039-4.157,3.377-4.157,3.377c0,0.52,2.857,2.079,3.637,2.599
		c8.573,4.936,20.525,8.573,33.775,8.313c13.769-0.519,27.279-5.716,36.372-11.691c9.353-6.495,16.627-15.069,22.083-25.721
		c3.898-7.274,8.055-23.642,3.118-34.294c0-0.519-1.558-3.637-2.079-3.897c-0.78-0.26-3.897,0.78-5.456,0.78
		c-4.676,0.26-9.093,0-12.47-1.819c-1.819-0.78-4.157-2.338-4.157-3.898c-0.26-4.156,8.573-4.417,12.989-3.377
		c3.378,0.78,5.976,2.079,8.833,3.638c1.3,0.519,2.079,1.299,2.859,1.299c2.078,0.26,5.455-1.819,7.793-3.118
		c12.471-5.975,22.083-15.329,28.059-27.539c3.376-6.495,5.716-16.107,4.157-25.461c-2.338-14.808-7.535-23.123-17.667-30.656
		c-9.613-7.015-24.682-12.471-40.79-12.471c-11.691,0-23.122,2.599-32.474,5.717c-19.745,6.755-34.814,16.367-45.207,32.994
		c-5.455,8.314-9.872,17.148-10.392,28.059c-0.78,8.573,2.079,19.744,8.313,22.343c0,0,2.599,0,2.339,1.039
		c-0.261,0.779-2.079,0.519-3.118,0.26c-6.236-1.299-9.093-10.652-9.612-17.148c-1.3-14.288,4.417-25.72,10.911-35.332
		c12.99-20.005,32.735-32.216,60.275-37.932c21.303-4.156,41.309-2.079,60.534,9.353c8.574,5.456,14.809,11.431,19.486,20.785
		c2.857,7.274,4.157,11.171,4.157,20.005c-0.261,6.755-1.819,14.549-4.937,19.744c-2.858,5.196-6.495,10.133-9.873,13.77
		c-5.976,7.014-14.549,13.25-24.941,16.627c-1.3,0.519-4.157,1.039-4.417,1.299c-0.26,0.78,2.598,4.157,3.376,5.975
		c2.339,5.196,3.119,10.912,2.599,17.667c-0.78,12.731-7.794,22.343-14.549,29.877c-6.755,7.794-14.809,14.03-25.201,18.706
		c-10.911,4.676-23.382,7.794-37.411,6.495C39.763,201.723,30.41,198.345,22.097,193.41z M115.106,122.743
		c0.26,0-3.377-2.338-4.677-2.858c-2.857-1.558-6.235-2.079-8.833-1.818c-1.818,0.26-3.897,0.26-3.897,1.818
		c-0.52,2.338,5.716,3.898,8.574,4.157C108.611,124.042,115.106,123.782,115.106,122.743z"/>
	<path class="st0" d="M149.403,148.204c4.937-9.353,6.235-11.692,11.692-20.264c0.779-1.819,2.338-4.937,3.897-5.456
		c5.716-2.339,1.558,5.456,0.52,7.534l-2.858,5.717c-1.299,2.338,1.299-0.261,1.558-0.78l2.079-1.819
		c2.079-2.079,3.898-3.118,4.417-3.637c4.676-3.118,12.471-7.275,17.667-4.157c2.857,1.559,4.417,6.236,1.299,9.093
		c-1.818,1.559-6.235,2.858-7.014-1.039c0-1.039,0.26-2.078,0.78-2.857c0.519-1.039,1.818-1.299,1.558-2.079
		c-0.78-2.858-8.054,0.78-9.353,1.558c-6.235,3.118-10.131,7.015-14.029,11.432c-2.079,2.079-4.157,4.156-5.717,6.495
		c-3.117,4.417-2.598,4.676-5.715,9.612c-1.04,1.819-3.378,4.676-4.937,2.858C143.948,159.375,148.624,149.762,149.403,148.204z"/>
	<path class="st0" d="M194.09,147.683c0.519-4.936,8.054-17.147,12.73-18.445c1.299-0.52,3.637-0.52,4.417,0.779
		c0.78,1.559-6.235,8.314-7.015,9.613c-2.338,3.377-3.897,6.755-4.156,10.132c-0.78,4.937,0.52,8.574,7.794,8.314
		c3.898-0.261,9.873-2.338,13.51-4.677c6.495-4.156,13.769-9.352,21.824-18.186c0.26-0.519,2.857-3.637,4.157-3.118
		c0.519,0.52-1.3,2.599-1.3,2.599c-2.079,2.338-5.195,5.975-7.793,8.313c-3.638,3.377-5.197,4.417-8.314,6.755
		c-6.495,4.676-12.99,10.132-22.603,10.393C198.767,160.414,192.791,157.556,194.09,147.683z M214.614,114.429
		c1.819-0.26,3.638,0.52,4.417,2.079c0,4.937-8.314,6.755-7.794,1.299C211.237,116.767,211.757,114.949,214.614,114.429z"/>
	<path class="st0" d="M267.874,146.905c-1.299,5.716,0,10.392,6.755,9.353c7.535-1.039,18.446-11.691,29.618-22.603
		c0.52-0.52,2.858-3.898,4.156-2.599c0.261,0.261,1.04,0-1.038,2.338c-1.559,2.079-4.157,4.677-12.99,12.471
		c-5.456,5.195-12.731,10.651-18.445,12.211c-7.015,1.818-15.069-0.78-14.809-8.314c-0.26-1.299,0.779-3.897-1.039-2.338
		c-1.818,1.558-4.417,4.157-6.494,5.456c-2.599,1.819-5.976,3.898-9.874,3.637c-3.637-0.26-7.274-3.637-7.793-6.235
		c-1.3-5.976,2.078-12.731,6.235-16.627c3.897-3.638,10.392-6.495,16.108-6.236c3.117-0.26,5.975,0,8.313,0.52
		c0.52,0,2.338,0.779,2.599,0.779c0.519,0,2.598-3.118,3.376-4.417c7.275-10.132,20.785-28.318,28.059-36.892
		c6.236-7.014,14.288-17.148,22.603-23.642c2.857-2.338,5.716-4.937,10.132-5.717c10.652-1.818,0.78,9.873-1.039,12.211
		c-14.549,19.486-30.917,35.594-53,59.236c-1.298,1.299-2.857,2.598-4.157,4.157c-1.557,1.558-3.636,2.857-4.417,4.156
		C269.693,139.889,268.654,143.267,267.874,146.905z M267.355,131.576c-0.52-0.52-6.236-0.78-6.236-0.78
		c-6.236,0.26-10.912,3.898-14.809,7.794c-1.557,1.819-2.598,2.858-3.897,5.456c-1.039,1.819-2.598,4.676-2.078,7.535
		c1.557,5.975,11.95-0.78,14.029-2.338c3.118-2.338,6.495-4.417,7.794-6.755c0.78-1.3,2.599-5.196,3.637-7.275
		C266.315,134.433,267.874,132.095,267.355,131.576z M277.227,127.939c2.338-2.079,4.677-4.417,6.495-6.236
		c20.264-21.304,34.295-35.333,47.025-51.961c1.299-1.558,7.275-8.833,4.676-9.613h-0.52c-2.857,1.3-5.715,3.898-8.313,6.236
		c-2.338,2.338-4.676,5.196-6.755,7.535c-12.989,14.029-24.682,28.318-40.789,50.661C278.267,125.6,274.888,130.277,277.227,127.939
		z"/>
	<path class="st0" d="M337.502,155.738c4.156-2.339,7.534-5.456,9.873-7.275c5.195-3.897,10.132-9.873,15.329-14.808
		c0.26,0,1.557-2.338,2.598-1.559c1.038,0.78-2.598,4.417-3.118,4.937c-3.637,4.156-9.093,8.833-12.989,12.211
		c-2.599,2.338-5.976,5.195-9.614,7.274c-5.455,3.118-18.965,8.055-20.264-2.338c0-1.558,0.26-4.417,0.78-6.235
		c0.261-0.52,1.039-1.559,0.78-1.819c-0.26-0.52-1.819,1.039-1.819,1.039c-3.637,2.857-9.093,7.794-14.288,9.093
		c-9.094,2.079-11.952-6.236-8.833-13.25c2.078-4.417,5.455-7.535,9.093-10.392c4.676-3.638,9.353-5.976,16.107-6.236
		c3.377,0,7.794,1.039,10.393,3.118c0.519,0.26,1.558,1.299,1.558,1.299c1.299,0,2.598-1.819,3.637-2.598
		c0.78-0.26,3.638-2.079,4.417-0.26c1.039,1.818-4.157,5.975-4.936,6.755c-3.378,3.897-7.275,8.054-9.873,13.51
		c-1.039,2.338-2.858,6.495-1.558,9.093C326.849,160.934,334.643,157.297,337.502,155.738z M309.443,152.361
		c3.117-2.079,5.455-4.157,7.534-5.976c4.157-3.377,7.275-5.716,10.652-9.613c0.779-0.779,3.117-2.857,2.857-3.897
		c-0.26-2.079-7.793-3.118-10.651-2.598c-4.937,0.779-9.094,4.156-11.951,7.274c-1.819,2.079-3.117,3.898-5.195,7.535
		c-1.04,2.079-4.417,7.014-2.858,9.353C301.648,156.777,307.624,153.66,309.443,152.361z"/>
	<path class="st0" d="M357.767,149.243c0.519-4.937,2.857-10.393,4.936-14.809c6.495-13.51,15.069-24.941,23.124-35.593
		c9.872-13.25,16.107-21.563,27.538-31.436c3.378-3.118,8.833-7.535,13.51-8.054c7.795-0.78,3.378,8.833,1.04,12.73
		c-2.598,4.157-5.197,7.794-6.495,9.613c-4.936,6.755-10.393,12.47-14.809,17.406c-4.936,5.196-10.393,10.912-16.107,16.108
		c-4.157,3.637-8.574,7.275-13.25,10.912c-1.559,1.299-3.638,2.338-4.676,3.377c-1.3,1.299-2.598,4.157-3.638,6.495
		c-3.117,6.235-10.912,27.279,4.676,24.681c1.04-0.26,2.859-0.78,4.157-1.299c6.236-2.598,12.99-8.314,18.445-13.25
		c3.119-2.858,8.055-7.275,11.433-11.692c0.779-1.039,2.079-3.637,3.896-2.857c0.781,0.519,0,1.558-0.26,2.079
		c-1.557,2.598-3.898,5.195-5.974,7.534c-3.378,3.638-6.495,6.495-9.354,9.094c-4.936,4.417-15.069,12.47-23.9,13.25
		C362.962,164.311,356.988,159.375,357.767,149.243z M405.831,97.282c7.274-8.054,13.25-14.549,18.965-23.642
		c1.559-2.599,4.417-7.015,4.157-10.133c-0.26-1.818-1.038-1.558-1.038-1.558c-0.26,0-0.521,0.26-0.521,0.26
		c-5.974,3.118-10.391,8.314-15.067,13.25c-4.676,4.676-8.833,9.873-12.99,15.329c-7.014,9.613-13.769,18.966-20.524,28.838
		c-0.521,0.78-4.157,5.456-1.819,3.898C387.905,115.988,397.257,106.375,405.831,97.282z"/>
	<path class="st0" d="M486.627,123.262c-4.417-1.299-8.312-4.417-10.65-7.274c-5.716-5.716-11.171-14.289-11.431-25.461
		c-0.521-11.951,3.376-22.083,7.793-29.877c4.417-8.314,12.471-16.368,20.524-20.005c16.628-8.833,40.269-10.393,65.471-9.353
		c22.603,0.52,44.426,5.456,66.769,8.574c15.069,2.079,34.293,6.495,50.662,1.558c5.455-2.078,12.21-4.676,13.51-9.353
		c0.519-1.299-0.26-3.118,1.038-3.637c3.378-2.079,6.755,1.558,6.755,3.377c0.262,3.118-7.793,7.535-10.65,8.833
		c-5.197,1.818-11.433,3.897-15.329,4.676c-12.212,1.819-25.202,0-35.853-1.558c-23.383-3.118-45.467-8.055-68.588-9.353
		c-26.24-1.819-51.183-1.039-68.848,7.275c-9.354,3.897-16.369,11.691-21.564,20.264c-4.936,7.794-9.093,18.186-7.795,30.917
		c0.521,6.495,2.859,10.912,5.716,15.068c4.676,7.535,11.171,13.77,22.862,14.289c1.04,0.261,3.638-0.519,4.157,0.52
		c0.26,1.299-2.598,2.079-2.857,2.079C494.422,125.6,489.227,124.301,486.627,123.262z M468.441,207.179
		c0.521-0.78,1.819,0.519,3.378,0c1.559,0,4.676-1.819,7.274-3.118c6.495-3.118,12.471-8.054,17.407-12.99
		c10.652-10.651,18.705-21.304,27.798-33.514c7.795-11.171,15.85-21.823,23.383-34.813c1.3-2.079,0.519-1.819-2.338-2.079
		c-4.936,0.26-7.274,0.519-12.212,2.079c-2.857,1.039-7.014,2.338-7.014,3.637c0,0.78,1.3,1.559,1.04,1.819
		c-1.559,1.818-4.936-0.26-5.197-1.559c-0.519-3.117,5.457-5.195,8.574-6.495c3.898-1.038,8.833-2.078,12.731-2.078
		c1.3,0,5.716,0.779,6.755,0.26c1.04-0.26,4.676-7.275,5.716-8.833c5.455-8.833,11.691-19.225,17.407-26.5
		c5.715-7.535,12.469-16.627,21.303-22.603c2.857-2.079,5.717-4.417,9.612-5.196c1.819-0.52,8.055,0.26,3.378,1.558
		c-0.779,0-2.338,0-2.338,0.261c-2.857,1.038-5.976,3.377-8.314,5.716c-7.014,5.975-12.731,14.549-17.926,22.083
		c-6.755,9.353-11.691,19.485-17.667,29.617c-0.779,1.299-2.857,4.417-2.598,4.417c0.26,0.78,4.417,1.039,6.755,1.299
		c5.976,1.3,8.574,1.559,14.288,1.819c2.079,0.52,5.976,1.299,7.276,0.78c1.819-0.52,4.417-6.495,9.872-6.236
		c5.197,0.52,2.079,5.976-1.298,7.275c-1.559,0.779-3.638,0.26-5.197,1.039c-1.038,0.519-2.598,3.637-3.376,4.676
		c-0.781,1.039-1.819,4.417-3.638,3.637c-2.079-0.519-0.26-2.079,0.779-3.637c0.261-0.78,1.819-3.898,1.819-4.157
		c-0.26-0.26-5.195-0.519-7.274-1.039c-6.495-0.519-8.314-0.519-14.55-1.818c-2.338-0.261-5.715-1.039-7.014-0.78
		c-1.557,0.519-3.376,4.676-4.417,6.755c-7.793,11.431-15.588,22.083-23.381,32.475c-3.378,4.157-7.276,8.833-9.874,12.211
		c-7.014,8.055-14.548,16.368-22.083,23.123c-5.715,5.196-12.469,9.353-21.562,11.951l-4.417,1.299
		C471.301,209.517,467.403,208.737,468.441,207.179z M594.447,120.405c-0.519,0.26-1.559,1.039-1.298,1.039
		C593.408,121.963,594.966,120.405,594.447,120.405z"/>
	<path class="st0" d="M645.632,155.738c4.157-2.339,7.534-5.456,9.872-7.275c5.195-3.897,10.133-9.873,15.329-14.808
		c0.26,0,1.559-2.338,2.598-1.559c1.04,0.78-2.598,4.417-3.117,4.937c-3.638,4.156-9.093,8.833-12.99,12.211
		c-2.598,2.338-5.976,5.195-9.612,7.274c-5.457,3.118-18.966,8.055-20.266-2.338c0-1.558,0.262-4.417,0.781-6.235
		c0.26-0.52,1.038-1.559,0.779-1.819c-0.26-0.52-1.819,1.039-1.819,1.039c-3.636,2.857-9.093,7.794-14.288,9.093
		c-9.093,2.079-11.95-6.236-8.833-13.25c2.079-4.417,5.455-7.535,9.093-10.392c4.676-3.638,9.353-5.976,16.107-6.236
		c3.378,0,7.795,1.039,10.393,3.118c0.519,0.26,1.559,1.299,1.559,1.299c1.298,0,2.598-1.819,3.636-2.598
		c0.781-0.26,3.638-2.079,4.417-0.26c1.04,1.818-4.157,5.975-4.936,6.755c-3.376,3.897-7.274,8.054-9.872,13.51
		c-1.04,2.338-2.859,6.495-1.559,9.093C634.979,160.934,642.772,157.297,645.632,155.738z M617.572,152.361
		c3.117-2.079,5.455-4.157,7.534-5.976c4.157-3.377,7.276-5.716,10.652-9.613c0.781-0.779,3.119-2.857,2.859-3.897
		c-0.262-2.079-7.795-3.118-10.652-2.598c-4.938,0.779-9.093,4.156-11.952,7.274c-1.819,2.079-3.117,3.898-5.195,7.535
		c-1.038,2.079-4.417,7.014-2.857,9.353C609.779,156.777,615.753,153.66,617.572,152.361z"/>
	<path class="st0" d="M662.52,147.683c0.519-4.936,8.055-17.147,12.731-18.445c1.298-0.52,3.636-0.52,4.417,0.779
		c0.779,1.559-6.236,8.314-7.014,9.613c-2.338,3.377-3.898,6.755-4.157,10.132c-0.781,4.937,0.519,8.574,7.793,8.314
		c3.898-0.261,9.874-2.338,13.51-4.677c6.495-4.156,13.771-9.352,21.824-18.186c0.26-0.519,2.857-3.637,4.157-3.118
		c0.519,0.52-1.3,2.599-1.3,2.599c-2.077,2.338-5.195,5.975-7.793,8.313c-3.638,3.377-5.195,4.417-8.314,6.755
		c-6.495,4.676-12.99,10.132-22.603,10.393C667.196,160.414,661.22,157.556,662.52,147.683z M683.044,114.429
		c1.819-0.26,3.638,0.52,4.417,2.079c0,4.937-8.312,6.755-7.793,1.299C679.667,116.767,680.186,114.949,683.044,114.429z"/>
</g>
</svg>
