<?xml version="1.0" encoding="utf-8"?>
<!-- Generator: Adobe Illustrator 26.2.1, SVG Export Plug-In . SVG Version: 6.00 Build 0)  -->
<svg version="1.1" id="レイヤー_7" xmlns="http://www.w3.org/2000/svg" xmlns:xlink="http://www.w3.org/1999/xlink" x="0px"
	 y="0px" viewBox="0 0 204 27" style="enable-background:new 0 0 204 27;" xml:space="preserve">
<style type="text/css">
	.st0{fill:#675952;}
</style>
<g>
	<path class="st0" d="M2.349,8.205c0-4.211,0-4.966-0.054-5.83C2.24,1.457,2.024,1.025,1.134,0.836
		c-0.216-0.054-0.675-0.08-0.918-0.08C0.108,0.756,0,0.701,0,0.594c0-0.162,0.136-0.216,0.433-0.216c1.214,0,2.915,0.081,3.05,0.081
		c0.647,0,1.7-0.081,2.942-0.081c4.427,0,5.398,2.699,5.398,4.049c0,2.213-1.269,3.536-2.537,4.858
		c1.997,0.621,4.67,2.537,4.67,5.695c0,2.889-2.268,5.885-6.884,5.885c-0.297,0-1.16-0.054-1.943-0.081
		c-0.783-0.054-1.538-0.081-1.646-0.081c-0.054,0-0.513,0-1.08,0.027c-0.54,0-1.16,0.054-1.565,0.054
		c-0.297,0-0.432-0.054-0.432-0.216c0-0.081,0.054-0.162,0.216-0.162c0.243,0,0.566-0.054,0.81-0.108
		c0.54-0.107,0.675-0.701,0.783-1.484c0.135-1.134,0.135-3.266,0.135-5.857V8.205z M4.508,8.799c0,0.189,0.055,0.243,0.189,0.298
		c0.162,0.026,0.647,0.107,1.646,0.107c1.512,0,1.89-0.054,2.456-0.702c0.567-0.647,0.972-1.619,0.972-2.726
		c0-2.24-0.999-4.643-3.644-4.643c-0.297,0-0.864,0.026-1.296,0.135C4.589,1.322,4.508,1.403,4.508,1.565V8.799z M4.508,11.66
		c0,2.079,0,5.426,0.027,5.831c0.081,1.322,0.081,1.7,0.918,2.105c0.729,0.351,1.89,0.404,2.375,0.404
		c1.458,0,3.806-0.782,3.806-3.833c0-1.619-0.539-3.968-2.618-5.398c-0.918-0.62-1.593-0.701-2.24-0.782
		c-0.351-0.055-1.7-0.055-2.105-0.055c-0.107,0-0.162,0.055-0.162,0.189V11.66z"/>
	<path class="st0" d="M21.24,8.205c0-4.211,0-4.966-0.054-5.83c-0.055-0.918-0.271-1.35-1.161-1.539
		c-0.216-0.054-0.675-0.08-0.918-0.08c-0.107,0-0.216-0.055-0.216-0.162c0-0.162,0.135-0.216,0.433-0.216
		c1.214,0,2.915,0.081,3.05,0.081c0.297,0,2.349-0.081,3.186-0.081c1.7,0,3.509,0.161,4.939,1.188
		c0.675,0.485,1.862,1.809,1.862,3.671c0,1.997-0.837,3.995-3.267,6.235c2.214,2.834,4.05,5.236,5.615,6.91
		c1.457,1.538,2.618,1.835,3.293,1.943c0.513,0.081,0.891,0.081,1.053,0.081c0.135,0,0.243,0.081,0.243,0.162
		c0,0.162-0.162,0.216-0.648,0.216h-1.916c-1.512,0-2.187-0.135-2.889-0.513c-1.16-0.621-2.105-1.943-3.644-3.968
		c-1.134-1.485-2.402-3.294-2.942-3.995c-0.108-0.108-0.189-0.162-0.351-0.162l-3.32-0.054c-0.135,0-0.189,0.081-0.189,0.216v0.647
		c0,2.592,0,4.724,0.135,5.857c0.081,0.783,0.243,1.377,1.053,1.484c0.378,0.055,0.973,0.108,1.215,0.108
		c0.162,0,0.216,0.081,0.216,0.162c0,0.135-0.135,0.216-0.432,0.216c-1.484,0-3.185-0.081-3.32-0.081
		c-0.026,0-1.728,0.081-2.537,0.081c-0.297,0-0.432-0.054-0.432-0.216c0-0.081,0.054-0.162,0.216-0.162
		c0.243,0,0.566-0.054,0.81-0.108c0.54-0.107,0.675-0.701,0.783-1.484c0.135-1.134,0.135-3.266,0.135-5.857V8.205z M23.399,10.554
		c0,0.135,0.055,0.243,0.189,0.324c0.404,0.243,1.646,0.432,2.834,0.432c0.647,0,1.403-0.081,2.024-0.513
		c0.944-0.647,1.646-2.105,1.646-4.157c0-3.374-1.781-5.398-4.67-5.398c-0.81,0-1.538,0.081-1.809,0.162
		c-0.135,0.054-0.216,0.162-0.216,0.324V10.554z"/>
	<path class="st0" d="M47.312,12.956c0,2.592,0,4.724,0.135,5.857c0.081,0.783,0.243,1.377,1.053,1.484
		c0.378,0.055,0.972,0.108,1.215,0.108c0.162,0,0.216,0.081,0.216,0.162c0,0.135-0.135,0.216-0.432,0.216
		c-1.485,0-3.186-0.081-3.32-0.081s-1.836,0.081-2.646,0.081c-0.297,0-0.432-0.054-0.432-0.216c0-0.081,0.054-0.162,0.216-0.162
		c0.243,0,0.566-0.054,0.81-0.108c0.54-0.107,0.675-0.701,0.783-1.484c0.135-1.134,0.135-3.266,0.135-5.857V8.205
		c0-4.211,0-4.966-0.054-5.83c-0.055-0.918-0.324-1.377-0.918-1.512c-0.297-0.081-0.647-0.107-0.837-0.107
		c-0.107,0-0.216-0.055-0.216-0.162c0-0.162,0.135-0.216,0.432-0.216c0.891,0,2.592,0.081,2.727,0.081s1.835-0.081,2.646-0.081
		c0.297,0,0.432,0.054,0.432,0.216c0,0.107-0.108,0.162-0.216,0.162c-0.189,0-0.351,0.026-0.675,0.08
		c-0.729,0.136-0.945,0.595-0.999,1.539c-0.054,0.864-0.054,1.619-0.054,5.83V12.956z"/>
	<path class="st0" d="M57.92,8.205c0-4.211,0-4.966-0.054-5.83c-0.055-0.918-0.271-1.35-1.161-1.539
		c-0.216-0.054-0.675-0.08-0.918-0.08c-0.107,0-0.216-0.055-0.216-0.162c0-0.162,0.135-0.216,0.433-0.216
		c1.214,0,2.915,0.081,3.05,0.081c0.324,0,2.024-0.081,3.644-0.081c2.673,0,7.612-0.243,10.824,3.077
		c1.35,1.403,2.618,3.644,2.618,6.855c0,3.401-1.403,6.02-2.915,7.612c-1.16,1.215-3.59,3.104-8.179,3.104
		c-1.16,0-2.591-0.081-3.752-0.162c-1.188-0.081-2.105-0.162-2.24-0.162c-0.054,0-0.513,0-1.08,0.027
		c-0.539,0-1.16,0.054-1.565,0.054c-0.297,0-0.432-0.054-0.432-0.216c0-0.081,0.054-0.162,0.216-0.162
		c0.243,0,0.566-0.054,0.81-0.108c0.54-0.107,0.675-0.701,0.783-1.484c0.135-1.134,0.135-3.266,0.135-5.857V8.205z M60.188,11.121
		c0,2.86,0.026,5.344,0.054,5.857c0.027,0.675,0.081,1.754,0.297,2.051c0.352,0.513,1.403,1.08,4.589,1.08
		c2.511,0,4.832-0.918,6.425-2.511c1.403-1.376,2.159-3.968,2.159-6.451c0-3.428-1.484-5.642-2.592-6.802
		c-2.537-2.673-5.614-3.051-8.826-3.051c-0.54,0-1.539,0.081-1.755,0.189c-0.243,0.107-0.324,0.243-0.324,0.54
		c-0.026,0.917-0.026,3.671-0.026,5.749V11.121z"/>
	<path class="st0" d="M87.33,1.053C87.654,0.161,87.763,0,87.924,0c0.162,0,0.271,0.135,0.594,0.972
		c0.405,1.025,4.644,12.174,6.29,16.276c0.972,2.402,1.754,2.834,2.321,2.996c0.404,0.135,0.81,0.162,1.079,0.162
		c0.162,0,0.271,0.027,0.271,0.162c0,0.162-0.243,0.216-0.54,0.216c-0.405,0-2.375,0-4.238-0.054
		c-0.513-0.027-0.81-0.027-0.81-0.189c0-0.107,0.081-0.162,0.189-0.188c0.162-0.055,0.323-0.297,0.162-0.729l-2.511-6.64
		c-0.054-0.108-0.108-0.162-0.243-0.162h-5.804c-0.135,0-0.216,0.081-0.27,0.216l-1.619,4.777c-0.243,0.675-0.378,1.323-0.378,1.809
		c0,0.54,0.566,0.783,1.025,0.783h0.27c0.189,0,0.271,0.054,0.271,0.162c0,0.162-0.162,0.216-0.405,0.216
		c-0.647,0-1.809-0.081-2.105-0.081s-1.781,0.081-3.05,0.081c-0.351,0-0.513-0.054-0.513-0.216c0-0.108,0.107-0.162,0.242-0.162
		c0.189,0,0.567-0.027,0.783-0.054c1.242-0.162,1.781-1.188,2.268-2.538L87.33,1.053z M90.138,11.85
		c0.135,0,0.135-0.081,0.107-0.189l-2.563-7.288c-0.136-0.404-0.271-0.404-0.405,0l-2.375,7.288c-0.055,0.136,0,0.189,0.081,0.189
		H90.138z"/>
	<path class="st0" d="M107.252,13.01c0,3.969,0.107,5.696,0.594,6.182c0.432,0.432,1.134,0.621,3.239,0.621
		c1.431,0,2.618-0.027,3.266-0.81c0.352-0.433,0.621-1.107,0.702-1.62c0.027-0.216,0.081-0.351,0.243-0.351
		c0.135,0,0.162,0.107,0.162,0.404c0,0.298-0.189,1.917-0.405,2.7c-0.188,0.62-0.27,0.729-1.7,0.729
		c-1.943,0-3.348-0.054-4.481-0.081c-1.134-0.054-1.97-0.081-2.753-0.081c-0.108,0-0.567,0.027-1.106,0.027
		c-0.54,0.026-1.134,0.054-1.539,0.054c-0.297,0-0.432-0.054-0.432-0.216c0-0.081,0.054-0.162,0.216-0.162
		c0.243,0,0.566-0.054,0.81-0.108c0.54-0.107,0.675-0.701,0.783-1.484c0.135-1.134,0.135-3.266,0.135-5.857V8.205
		c0-4.211,0-4.966-0.054-5.83c-0.055-0.918-0.271-1.35-1.161-1.539c-0.216-0.054-0.675-0.08-0.918-0.08
		c-0.107,0-0.216-0.055-0.216-0.162c0-0.162,0.135-0.216,0.433-0.216c1.214,0,2.915,0.081,3.05,0.081s2.105-0.081,2.915-0.081
		c0.297,0,0.432,0.054,0.432,0.216c0,0.107-0.107,0.162-0.216,0.162c-0.188,0-0.566,0.026-0.891,0.08
		c-0.782,0.136-0.999,0.595-1.053,1.539c-0.054,0.864-0.054,1.619-0.054,5.83V13.01z"/>
	<path class="st0" d="M133.793,8.205c0-4.211,0-4.966-0.054-5.83c-0.055-0.918-0.271-1.35-1.161-1.539
		c-0.216-0.054-0.675-0.08-0.918-0.08c-0.107,0-0.216-0.055-0.216-0.162c0-0.162,0.135-0.216,0.433-0.216c0.62,0,1.35,0,1.943,0.026
		l1.106,0.055c0.54,0.026,6.02,0,6.641-0.027c0.513-0.027,0.944-0.027,1.188-0.108c0.162-0.054,0.27-0.162,0.378-0.162
		c0.107,0,0.162,0.108,0.162,0.243c0,0.189-0.136,0.513-0.217,1.269c-0.026,0.271-0.081,1.458-0.135,1.782
		c-0.026,0.135-0.081,0.297-0.216,0.297s-0.188-0.136-0.188-0.324c0-0.216-0.081-0.675-0.243-1.025
		c-0.162-0.352-0.783-0.837-1.836-0.864l-4.156-0.081c-0.162,0-0.243,0.081-0.243,0.297v7.45c0,0.162,0.026,0.243,0.188,0.243
		l3.455-0.027c0.459,0,0.837,0,1.215-0.026c0.648-0.055,0.999-0.136,1.242-0.486c0.107-0.135,0.188-0.27,0.297-0.27
		c0.107,0,0.135,0.081,0.135,0.216c0,0.162-0.135,0.621-0.216,1.512c-0.055,0.539-0.108,1.619-0.108,1.809
		c0,0.242,0,0.513-0.188,0.513c-0.136,0-0.189-0.108-0.189-0.243c-0.026-0.27-0.054-0.647-0.162-0.972
		c-0.135-0.378-0.566-0.864-1.403-0.972c-0.675-0.081-3.617-0.081-4.076-0.081c-0.135,0-0.188,0.054-0.188,0.243v2.294
		c0,2.592,0,4.724,0.135,5.857c0.081,0.783,0.243,1.377,1.053,1.484c0.378,0.055,0.972,0.108,1.215,0.108
		c0.162,0,0.216,0.081,0.216,0.162c0,0.135-0.135,0.216-0.432,0.216c-1.484,0-3.186-0.081-3.32-0.081s-1.836,0.081-2.646,0.081
		c-0.297,0-0.432-0.054-0.432-0.216c0-0.081,0.054-0.162,0.216-0.162c0.243,0,0.566-0.054,0.81-0.108
		c0.54-0.107,0.675-0.701,0.783-1.484c0.135-1.134,0.135-3.266,0.135-5.857V8.205z"/>
	<path class="st0" d="M154.411,1.053C154.735,0.161,154.844,0,155.005,0c0.162,0,0.271,0.135,0.594,0.972
		c0.405,1.025,4.644,12.174,6.29,16.276c0.972,2.402,1.754,2.834,2.321,2.996c0.404,0.135,0.81,0.162,1.079,0.162
		c0.162,0,0.271,0.027,0.271,0.162c0,0.162-0.243,0.216-0.54,0.216c-0.405,0-2.375,0-4.238-0.054
		c-0.513-0.027-0.81-0.027-0.81-0.189c0-0.107,0.081-0.162,0.189-0.188c0.162-0.055,0.323-0.297,0.162-0.729l-2.511-6.64
		c-0.054-0.108-0.108-0.162-0.243-0.162h-5.803c-0.136,0-0.217,0.081-0.271,0.216l-1.619,4.777
		c-0.243,0.675-0.378,1.323-0.378,1.809c0,0.54,0.566,0.783,1.025,0.783h0.27c0.189,0,0.271,0.054,0.271,0.162
		c0,0.162-0.162,0.216-0.405,0.216c-0.647,0-1.809-0.081-2.105-0.081s-1.781,0.081-3.05,0.081c-0.351,0-0.513-0.054-0.513-0.216
		c0-0.108,0.107-0.162,0.242-0.162c0.189,0,0.567-0.027,0.783-0.054c1.242-0.162,1.781-1.188,2.268-2.538L154.411,1.053z
		 M157.219,11.85c0.135,0,0.135-0.081,0.107-0.189l-2.563-7.288c-0.136-0.404-0.271-0.404-0.405,0l-2.375,7.288
		c-0.055,0.136,0,0.189,0.081,0.189H157.219z"/>
	<path class="st0" d="M174.335,12.956c0,2.592,0,4.724,0.135,5.857c0.081,0.783,0.243,1.377,1.053,1.484
		c0.378,0.055,0.972,0.108,1.215,0.108c0.162,0,0.216,0.081,0.216,0.162c0,0.135-0.135,0.216-0.432,0.216
		c-1.485,0-3.186-0.081-3.32-0.081s-1.836,0.081-2.646,0.081c-0.297,0-0.432-0.054-0.432-0.216c0-0.081,0.054-0.162,0.216-0.162
		c0.243,0,0.566-0.054,0.81-0.108c0.54-0.107,0.675-0.701,0.783-1.484c0.135-1.134,0.135-3.266,0.135-5.857V8.205
		c0-4.211,0-4.966-0.054-5.83c-0.055-0.918-0.324-1.377-0.918-1.512c-0.297-0.081-0.647-0.107-0.837-0.107
		c-0.107,0-0.216-0.055-0.216-0.162c0-0.162,0.135-0.216,0.432-0.216c0.891,0,2.592,0.081,2.727,0.081s1.835-0.081,2.646-0.081
		c0.297,0,0.432,0.054,0.432,0.216c0,0.107-0.108,0.162-0.216,0.162c-0.189,0-0.351,0.026-0.675,0.08
		c-0.729,0.136-0.945,0.595-0.999,1.539c-0.054,0.864-0.054,1.619-0.054,5.83V12.956z"/>
	<path class="st0" d="M184.944,8.205c0-4.211,0-4.966-0.054-5.83c-0.055-0.918-0.271-1.35-1.161-1.539
		c-0.216-0.054-0.675-0.08-0.918-0.08c-0.107,0-0.216-0.055-0.216-0.162c0-0.162,0.136-0.216,0.433-0.216
		c1.214,0,2.915,0.081,3.05,0.081c0.297,0,2.349-0.081,3.186-0.081c1.7,0,3.509,0.161,4.939,1.188
		c0.675,0.485,1.862,1.809,1.862,3.671c0,1.997-0.837,3.995-3.267,6.235c2.214,2.834,4.05,5.236,5.615,6.91
		c1.457,1.538,2.618,1.835,3.293,1.943c0.513,0.081,0.891,0.081,1.053,0.081c0.135,0,0.243,0.081,0.243,0.162
		c0,0.162-0.162,0.216-0.648,0.216h-1.916c-1.512,0-2.187-0.135-2.889-0.513c-1.16-0.621-2.105-1.943-3.644-3.968
		c-1.134-1.485-2.402-3.294-2.942-3.995c-0.108-0.108-0.189-0.162-0.351-0.162l-3.32-0.054c-0.135,0-0.189,0.081-0.189,0.216v0.647
		c0,2.592,0,4.724,0.135,5.857c0.081,0.783,0.243,1.377,1.053,1.484c0.378,0.055,0.973,0.108,1.215,0.108
		c0.162,0,0.216,0.081,0.216,0.162c0,0.135-0.135,0.216-0.432,0.216c-1.484,0-3.185-0.081-3.32-0.081
		c-0.026,0-1.728,0.081-2.537,0.081c-0.297,0-0.432-0.054-0.432-0.216c0-0.081,0.054-0.162,0.216-0.162
		c0.243,0,0.566-0.054,0.81-0.108c0.54-0.107,0.675-0.701,0.783-1.484c0.135-1.134,0.135-3.266,0.135-5.857V8.205z M187.104,10.554
		c0,0.135,0.055,0.243,0.189,0.324c0.404,0.243,1.646,0.432,2.834,0.432c0.647,0,1.403-0.081,2.024-0.513
		c0.945-0.647,1.646-2.105,1.646-4.157c0-3.374-1.781-5.398-4.67-5.398c-0.81,0-1.538,0.081-1.809,0.162
		c-0.135,0.054-0.216,0.162-0.216,0.324V10.554z"/>
</g>
</svg>
