<?xml version="1.0" encoding="utf-8"?>
<!-- Generator: Adobe Illustrator 26.2.1, SVG Export Plug-In . SVG Version: 6.00 Build 0)  -->
<svg version="1.1" id="レイヤー_7" xmlns="http://www.w3.org/2000/svg" xmlns:xlink="http://www.w3.org/1999/xlink" x="0px"
	 y="0px" viewBox="0 0 184 27" style="enable-background:new 0 0 184 27;" xml:space="preserve">
<style type="text/css">
	.st0{fill:#675952;}
</style>
<g>
	<path class="st0" d="M3.267,18.247C0.647,15.898,0,12.821,0,10.257C0,8.448,0.621,5.29,3.023,2.888C4.643,1.269,7.099,0,11.256,0
		c1.08,0,2.592,0.081,3.914,0.323c1.025,0.189,1.89,0.352,2.753,0.405c0.297,0.027,0.352,0.135,0.352,0.297
		c0,0.216-0.081,0.54-0.135,1.512c-0.055,0.891-0.055,2.375-0.081,2.78c-0.027,0.404-0.081,0.566-0.243,0.566
		c-0.189,0-0.216-0.188-0.216-0.566c0-1.053-0.433-2.159-1.134-2.753c-0.945-0.811-3.023-1.539-5.398-1.539
		c-3.591,0-5.264,1.053-6.209,1.971c-1.97,1.89-2.429,4.292-2.429,7.045c0,5.155,3.968,9.879,9.744,9.879
		c2.024,0,3.617-0.242,4.696-1.35c0.567-0.594,0.918-1.781,0.999-2.267c0.054-0.297,0.108-0.405,0.271-0.405
		c0.135,0,0.188,0.188,0.188,0.405c0,0.188-0.324,2.537-0.594,3.455c-0.162,0.513-0.216,0.566-0.702,0.782
		c-1.079,0.432-3.131,0.621-4.858,0.621C8.125,21.162,5.398,20.163,3.267,18.247z"/>
	<path class="st0" d="M26.291,8.205c0-4.211,0-4.966-0.054-5.83c-0.055-0.918-0.271-1.35-1.161-1.539
		c-0.216-0.054-0.675-0.08-0.918-0.08c-0.107,0-0.216-0.055-0.216-0.162c0-0.162,0.135-0.216,0.433-0.216c0.62,0,1.35,0,1.943,0.026
		l1.106,0.055c0.188,0,5.561,0,6.182-0.027c0.513-0.027,0.944-0.081,1.16-0.135c0.135-0.027,0.243-0.136,0.378-0.136
		c0.081,0,0.108,0.108,0.108,0.243c0,0.189-0.135,0.513-0.216,1.269c-0.027,0.271-0.081,1.458-0.136,1.782
		c-0.026,0.135-0.081,0.297-0.188,0.297c-0.162,0-0.216-0.136-0.216-0.352c0-0.188-0.027-0.647-0.162-0.972
		c-0.189-0.432-0.459-0.756-1.917-0.917c-0.458-0.055-3.4-0.081-3.697-0.081c-0.108,0-0.162,0.081-0.162,0.27v7.45
		c0,0.188,0.026,0.27,0.162,0.27c0.351,0,3.671,0,4.292-0.054c0.647-0.054,1.025-0.108,1.269-0.378
		c0.188-0.216,0.297-0.351,0.404-0.351c0.081,0,0.135,0.054,0.135,0.216s-0.135,0.621-0.216,1.512
		c-0.054,0.539-0.107,1.538-0.107,1.728c0,0.216,0,0.513-0.189,0.513c-0.135,0-0.188-0.108-0.188-0.243c0-0.27,0-0.54-0.108-0.891
		c-0.107-0.378-0.351-0.837-1.403-0.945c-0.729-0.08-3.401-0.135-3.86-0.135c-0.135,0-0.188,0.081-0.188,0.189v2.375
		c0,0.918-0.027,4.049,0,4.616c0.081,1.862,0.485,2.213,3.131,2.213c0.702,0,1.89,0,2.592-0.297
		c0.701-0.297,1.025-0.837,1.214-1.943c0.055-0.297,0.108-0.405,0.243-0.405c0.162,0,0.162,0.217,0.162,0.405
		c0,0.216-0.216,2.052-0.351,2.618c-0.189,0.702-0.405,0.702-1.458,0.702c-2.024,0-3.509-0.054-4.562-0.081
		c-1.053-0.054-1.7-0.081-2.105-0.081c-0.054,0-0.513,0-1.08,0.027c-0.539,0-1.16,0.054-1.565,0.054
		c-0.297,0-0.432-0.054-0.432-0.216c0-0.081,0.054-0.162,0.216-0.162c0.243,0,0.566-0.054,0.81-0.108
		c0.54-0.107,0.675-0.701,0.783-1.484c0.135-1.134,0.135-3.266,0.135-5.857V8.205z"/>
	<path class="st0" d="M43.714,8.205c0-4.211,0-4.966-0.054-5.83c-0.055-0.918-0.271-1.35-1.161-1.539
		c-0.216-0.054-0.675-0.08-0.918-0.08c-0.107,0-0.216-0.055-0.216-0.162c0-0.162,0.136-0.216,0.433-0.216
		c1.214,0,2.915,0.081,3.05,0.081c0.297,0,2.349-0.081,3.186-0.081c1.7,0,3.509,0.161,4.939,1.188
		c0.675,0.485,1.862,1.809,1.862,3.671c0,1.997-0.837,3.995-3.267,6.235c2.214,2.834,4.05,5.236,5.615,6.91
		c1.457,1.538,2.618,1.835,3.293,1.943c0.513,0.081,0.891,0.081,1.053,0.081c0.135,0,0.243,0.081,0.243,0.162
		c0,0.162-0.162,0.216-0.648,0.216h-1.916c-1.512,0-2.187-0.135-2.889-0.513c-1.16-0.621-2.105-1.943-3.644-3.968
		c-1.134-1.485-2.402-3.294-2.942-3.995c-0.108-0.108-0.189-0.162-0.351-0.162l-3.32-0.054c-0.135,0-0.189,0.081-0.189,0.216v0.647
		c0,2.592,0,4.724,0.135,5.857c0.081,0.783,0.243,1.377,1.053,1.484c0.378,0.055,0.973,0.108,1.215,0.108
		c0.162,0,0.216,0.081,0.216,0.162c0,0.135-0.135,0.216-0.432,0.216c-1.484,0-3.185-0.081-3.32-0.081
		c-0.026,0-1.728,0.081-2.537,0.081c-0.297,0-0.432-0.054-0.432-0.216c0-0.081,0.054-0.162,0.216-0.162
		c0.243,0,0.566-0.054,0.81-0.108c0.54-0.107,0.675-0.701,0.783-1.484c0.135-1.134,0.135-3.266,0.135-5.857V8.205z M45.873,10.554
		c0,0.135,0.055,0.243,0.189,0.324c0.404,0.243,1.646,0.432,2.834,0.432c0.647,0,1.403-0.081,2.024-0.513
		c0.945-0.647,1.646-2.105,1.646-4.157c0-3.374-1.781-5.398-4.67-5.398c-0.81,0-1.538,0.081-1.809,0.162
		c-0.135,0.054-0.216,0.162-0.216,0.324V10.554z"/>
	<path class="st0" d="M67.518,8.205c0-4.211,0-4.966-0.054-5.83c-0.055-0.918-0.271-1.35-1.161-1.539
		c-0.216-0.054-0.675-0.08-0.918-0.08c-0.107,0-0.216-0.055-0.216-0.162c0-0.162,0.135-0.216,0.433-0.216c0.62,0,1.35,0,1.943,0.026
		l1.106,0.055c0.188,0,5.561,0,6.182-0.027c0.513-0.027,0.944-0.081,1.16-0.135c0.135-0.027,0.243-0.136,0.378-0.136
		c0.081,0,0.108,0.108,0.108,0.243c0,0.189-0.135,0.513-0.216,1.269c-0.027,0.271-0.081,1.458-0.136,1.782
		c-0.026,0.135-0.081,0.297-0.188,0.297c-0.162,0-0.216-0.136-0.216-0.352c0-0.188-0.027-0.647-0.162-0.972
		c-0.189-0.432-0.459-0.756-1.917-0.917c-0.458-0.055-3.4-0.081-3.697-0.081c-0.108,0-0.162,0.081-0.162,0.27v7.45
		c0,0.188,0.026,0.27,0.162,0.27c0.351,0,3.671,0,4.292-0.054c0.647-0.054,1.025-0.108,1.269-0.378
		c0.188-0.216,0.297-0.351,0.404-0.351c0.081,0,0.135,0.054,0.135,0.216s-0.135,0.621-0.216,1.512
		c-0.054,0.539-0.107,1.538-0.107,1.728c0,0.216,0,0.513-0.189,0.513c-0.135,0-0.188-0.108-0.188-0.243c0-0.27,0-0.54-0.108-0.891
		c-0.107-0.378-0.351-0.837-1.403-0.945c-0.729-0.08-3.401-0.135-3.86-0.135c-0.135,0-0.188,0.081-0.188,0.189v2.375
		c0,0.918-0.027,4.049,0,4.616c0.081,1.862,0.485,2.213,3.131,2.213c0.702,0,1.89,0,2.592-0.297
		c0.701-0.297,1.025-0.837,1.214-1.943c0.055-0.297,0.108-0.405,0.243-0.405c0.162,0,0.162,0.217,0.162,0.405
		c0,0.216-0.216,2.052-0.351,2.618c-0.189,0.702-0.405,0.702-1.458,0.702c-2.024,0-3.509-0.054-4.562-0.081
		c-1.053-0.054-1.7-0.081-2.105-0.081c-0.054,0-0.513,0-1.08,0.027c-0.539,0-1.16,0.054-1.565,0.054
		c-0.297,0-0.432-0.054-0.432-0.216c0-0.081,0.054-0.162,0.216-0.162c0.243,0,0.566-0.054,0.81-0.108
		c0.54-0.107,0.675-0.701,0.783-1.484c0.135-1.134,0.135-3.266,0.135-5.857V8.205z"/>
	<path class="st0" d="M105.741,17.302c0.107,0.972,0.297,2.483,1.457,2.861c0.783,0.243,1.484,0.243,1.755,0.243
		c0.135,0,0.216,0.027,0.216,0.135c0,0.162-0.243,0.243-0.566,0.243c-0.595,0-3.51-0.081-4.508-0.162
		c-0.621-0.054-0.756-0.135-0.756-0.27c0-0.108,0.054-0.162,0.188-0.189c0.135-0.026,0.162-0.485,0.108-0.972L102.34,5.264h-0.081
		L95.646,19.3c-0.566,1.188-0.647,1.431-0.891,1.431c-0.189,0-0.324-0.271-0.837-1.242c-0.702-1.322-3.023-5.992-3.158-6.262
		c-0.243-0.486-3.266-6.965-3.562-7.693h-0.108l-1.08,12.524c-0.026,0.432-0.026,0.918-0.026,1.377c0,0.405,0.297,0.756,0.701,0.837
		c0.459,0.107,0.864,0.135,1.026,0.135c0.107,0,0.216,0.054,0.216,0.135c0,0.189-0.162,0.243-0.486,0.243
		c-0.998,0-2.294-0.081-2.51-0.081c-0.243,0-1.539,0.081-2.268,0.081c-0.27,0-0.459-0.054-0.459-0.243
		c0-0.081,0.135-0.135,0.27-0.135c0.217,0,0.405,0,0.811-0.081c0.891-0.162,0.972-1.215,1.079-2.24l1.943-17.6
		C86.333,0.188,86.441,0,86.603,0c0.162,0,0.271,0.107,0.405,0.404l8.26,16.979l7.936-16.951C103.312,0.188,103.42,0,103.608,0
		c0.189,0,0.27,0.216,0.324,0.729L105.741,17.302z"/>
	<path class="st0" d="M122.724,0c6.074,0,10.608,3.833,10.608,10.122c0,6.046-4.265,11.04-10.77,11.04
		c-7.396,0-10.474-5.75-10.474-10.608C112.089,6.181,115.274,0,122.724,0z M123.291,20.137c2.43,0,7.45-1.404,7.45-9.259
		c0-6.479-3.941-9.961-8.206-9.961c-4.508,0-7.882,2.97-7.882,8.881C114.653,16.087,118.433,20.137,123.291,20.137z"/>
	<path class="st0" d="M141.826,17.113c0.055,2.213,0.324,2.915,1.053,3.131c0.513,0.135,1.107,0.162,1.35,0.162
		c0.136,0,0.216,0.054,0.216,0.162c0,0.162-0.161,0.216-0.485,0.216c-1.539,0-2.618-0.081-2.861-0.081s-1.377,0.081-2.591,0.081
		c-0.271,0-0.433-0.027-0.433-0.216c0-0.108,0.081-0.162,0.216-0.162c0.217,0,0.702-0.027,1.107-0.162
		c0.675-0.188,0.81-0.972,0.81-3.428l0.027-15.467c0-1.053,0.08-1.35,0.297-1.35c0.216,0,0.675,0.594,0.944,0.863
		c0.405,0.459,4.427,4.805,8.584,9.259c2.672,2.861,5.614,6.154,6.478,7.045L156.24,3.455c-0.026-1.755-0.216-2.349-1.053-2.564
		c-0.485-0.108-1.106-0.135-1.322-0.135c-0.188,0-0.216-0.081-0.216-0.189c0-0.162,0.216-0.188,0.54-0.188
		c1.215,0,2.51,0.081,2.807,0.081s1.188-0.081,2.295-0.081c0.297,0,0.485,0.026,0.485,0.188c0,0.108-0.107,0.189-0.297,0.189
		c-0.135,0-0.323,0-0.647,0.08c-0.891,0.189-0.999,0.783-0.999,2.403l-0.054,15.817c0,1.781-0.054,1.916-0.243,1.916
		c-0.216,0-0.54-0.297-1.971-1.728c-0.297-0.27-4.184-4.237-7.045-7.314c-3.131-3.374-6.182-6.775-7.045-7.747L141.826,17.113z"/>
	<path class="st0" d="M172.678,13.793c0-1.458-0.27-2.052-0.621-2.834c-0.188-0.433-3.806-6.37-4.75-7.774
		c-0.675-0.998-1.35-1.673-1.836-1.997c-0.405-0.271-0.918-0.432-1.16-0.432c-0.136,0-0.271-0.055-0.271-0.189
		c0-0.107,0.108-0.188,0.351-0.188c0.514,0,2.538,0.081,2.673,0.081c0.188,0,1.215-0.081,2.268-0.081
		c0.297,0,0.351,0.081,0.351,0.188c0,0.108-0.162,0.135-0.405,0.243c-0.216,0.107-0.351,0.27-0.351,0.485
		c0,0.324,0.135,0.648,0.351,1.053c0.433,0.783,4.481,7.747,4.967,8.53c0.513-1.134,3.941-7.045,4.481-7.937
		c0.351-0.566,0.459-1.025,0.459-1.376c0-0.378-0.108-0.675-0.433-0.756c-0.242-0.081-0.404-0.135-0.404-0.271
		c0-0.107,0.162-0.161,0.432-0.161c0.702,0,1.565,0.081,1.781,0.081c0.162,0,2.105-0.081,2.618-0.081
		c0.189,0,0.352,0.054,0.352,0.161c0,0.136-0.136,0.217-0.352,0.217c-0.297,0-0.81,0.107-1.241,0.378
		c-0.54,0.323-0.837,0.647-1.431,1.376c-0.891,1.08-4.67,7.423-5.155,8.584c-0.405,0.972-0.405,1.809-0.405,2.699v2.321
		c0,0.432,0,1.565,0.081,2.699c0.054,0.783,0.297,1.377,1.106,1.484c0.378,0.055,0.972,0.108,1.215,0.108
		c0.162,0,0.216,0.081,0.216,0.162c0,0.135-0.135,0.216-0.432,0.216c-1.484,0-3.186-0.081-3.32-0.081s-1.836,0.081-2.646,0.081
		c-0.297,0-0.432-0.054-0.432-0.216c0-0.081,0.054-0.162,0.216-0.162c0.243,0,0.567-0.054,0.81-0.108
		c0.54-0.107,0.783-0.701,0.837-1.484c0.081-1.134,0.081-2.268,0.081-2.699V13.793z"/>
</g>
</svg>
