<?xml version="1.0" encoding="utf-8"?>
<!-- Generator: Adobe Illustrator 26.2.1, SVG Export Plug-In . SVG Version: 6.00 Build 0)  -->
<svg version="1.1" id="レイヤー_7" xmlns="http://www.w3.org/2000/svg" xmlns:xlink="http://www.w3.org/1999/xlink" x="0px"
	 y="0px" viewBox="0 0 157 27" style="enable-background:new 0 0 157 27;" xml:space="preserve">
<style type="text/css">
	.st0{fill:#675952;}
</style>
<g>
	<path class="st0" d="M3.267,18.247C0.647,15.898,0,12.821,0,10.257C0,8.448,0.621,5.29,3.023,2.888C4.643,1.269,7.099,0,11.256,0
		c1.08,0,2.592,0.081,3.914,0.323c1.025,0.189,1.89,0.352,2.753,0.405c0.297,0.027,0.352,0.135,0.352,0.297
		c0,0.216-0.081,0.54-0.135,1.512c-0.055,0.891-0.055,2.375-0.081,2.78c-0.027,0.404-0.081,0.566-0.243,0.566
		c-0.189,0-0.216-0.188-0.216-0.566c0-1.053-0.433-2.159-1.134-2.753c-0.945-0.811-3.023-1.539-5.398-1.539
		c-3.591,0-5.264,1.053-6.209,1.971c-1.97,1.89-2.429,4.292-2.429,7.045c0,5.155,3.968,9.879,9.744,9.879
		c2.024,0,3.617-0.242,4.696-1.35c0.567-0.594,0.918-1.781,0.999-2.267c0.054-0.297,0.108-0.405,0.271-0.405
		c0.135,0,0.188,0.188,0.188,0.405c0,0.188-0.324,2.537-0.594,3.455c-0.162,0.513-0.216,0.566-0.702,0.782
		c-1.079,0.432-3.131,0.621-4.858,0.621C8.125,21.162,5.398,20.163,3.267,18.247z"/>
	<path class="st0" d="M33.916,0c6.074,0,10.608,3.833,10.608,10.122c0,6.046-4.265,11.04-10.77,11.04
		c-7.396,0-10.474-5.75-10.474-10.608C23.281,6.181,26.467,0,33.916,0z M34.483,20.137c2.43,0,7.45-1.404,7.45-9.259
		c0-6.479-3.941-9.961-8.206-9.961c-4.508,0-7.882,2.97-7.882,8.881C25.846,16.087,29.625,20.137,34.483,20.137z"/>
	<path class="st0" d="M53.018,17.113c0.055,2.213,0.324,2.915,1.053,3.131c0.513,0.135,1.107,0.162,1.35,0.162
		c0.136,0,0.216,0.054,0.216,0.162c0,0.162-0.161,0.216-0.485,0.216c-1.539,0-2.618-0.081-2.861-0.081s-1.377,0.081-2.591,0.081
		c-0.271,0-0.433-0.027-0.433-0.216c0-0.108,0.081-0.162,0.216-0.162c0.217,0,0.702-0.027,1.107-0.162
		c0.675-0.188,0.81-0.972,0.81-3.428L51.426,1.35c0-1.053,0.08-1.35,0.297-1.35c0.216,0,0.675,0.594,0.944,0.863
		c0.405,0.459,4.427,4.805,8.584,9.259c2.672,2.861,5.614,6.154,6.478,7.045L67.432,3.455c-0.026-1.755-0.216-2.349-1.053-2.564
		c-0.485-0.108-1.106-0.135-1.322-0.135c-0.188,0-0.216-0.081-0.216-0.189c0-0.162,0.216-0.188,0.54-0.188
		c1.215,0,2.51,0.081,2.807,0.081s1.188-0.081,2.295-0.081c0.297,0,0.485,0.026,0.485,0.188c0,0.108-0.107,0.189-0.297,0.189
		c-0.135,0-0.323,0-0.647,0.08c-0.891,0.189-0.999,0.783-0.999,2.403l-0.054,15.817c0,1.781-0.054,1.916-0.243,1.916
		c-0.216,0-0.54-0.297-1.971-1.728c-0.297-0.27-4.184-4.237-7.045-7.314c-3.131-3.374-6.182-6.775-7.045-7.747L53.018,17.113z"/>
	<path class="st0" d="M85.613,12.956c0,2.592,0,4.724,0.136,5.857c0.081,0.783,0.242,1.377,1.053,1.484
		c0.378,0.055,0.972,0.108,1.215,0.108c0.161,0,0.216,0.081,0.216,0.162c0,0.135-0.136,0.216-0.433,0.216
		c-1.484,0-3.185-0.081-3.319-0.081c-0.136,0-1.836,0.081-2.646,0.081c-0.297,0-0.432-0.054-0.432-0.216
		c0-0.081,0.054-0.162,0.216-0.162c0.242,0,0.566-0.054,0.81-0.108c0.54-0.107,0.675-0.701,0.782-1.484
		c0.136-1.134,0.136-3.266,0.136-5.857V1.538l-3.995,0.054c-1.674,0.027-2.321,0.217-2.753,0.864
		c-0.298,0.459-0.378,0.647-0.459,0.837c-0.081,0.216-0.162,0.27-0.271,0.27c-0.081,0-0.135-0.081-0.135-0.243
		c0-0.27,0.54-2.591,0.594-2.807C76.382,0.351,76.49,0,76.599,0c0.188,0,0.458,0.27,1.188,0.323
		c0.782,0.081,1.809,0.136,2.132,0.136h10.123c0.863,0,1.484-0.055,1.916-0.136c0.405-0.054,0.647-0.135,0.756-0.135
		c0.135,0,0.135,0.162,0.135,0.324c0,0.81-0.081,2.672-0.081,2.969c0,0.243-0.081,0.352-0.188,0.352
		c-0.135,0-0.189-0.081-0.216-0.459l-0.027-0.297c-0.081-0.811-0.729-1.431-3.32-1.485l-3.401-0.054v11.418H85.613z"/>
	<path class="st0" d="M103.585,1.053C103.909,0.161,104.018,0,104.179,0c0.162,0,0.271,0.135,0.594,0.972
		c0.405,1.025,4.644,12.174,6.29,16.276c0.972,2.402,1.754,2.834,2.321,2.996c0.404,0.135,0.81,0.162,1.079,0.162
		c0.162,0,0.271,0.027,0.271,0.162c0,0.162-0.243,0.216-0.54,0.216c-0.405,0-2.375,0-4.238-0.054
		c-0.513-0.027-0.81-0.027-0.81-0.189c0-0.107,0.081-0.162,0.189-0.188c0.162-0.055,0.323-0.297,0.162-0.729l-2.511-6.64
		c-0.054-0.108-0.108-0.162-0.243-0.162h-5.803c-0.136,0-0.217,0.081-0.271,0.216l-1.619,4.777
		c-0.243,0.675-0.378,1.323-0.378,1.809c0,0.54,0.566,0.783,1.025,0.783h0.27c0.189,0,0.271,0.054,0.271,0.162
		c0,0.162-0.162,0.216-0.405,0.216c-0.647,0-1.809-0.081-2.105-0.081s-1.781,0.081-3.05,0.081c-0.351,0-0.513-0.054-0.513-0.216
		c0-0.108,0.107-0.162,0.242-0.162c0.189,0,0.567-0.027,0.783-0.054c1.242-0.162,1.781-1.188,2.268-2.538L103.585,1.053z
		 M106.393,11.85c0.135,0,0.135-0.081,0.107-0.189l-2.563-7.288c-0.136-0.404-0.271-0.404-0.405,0l-2.375,7.288
		c-0.055,0.136,0,0.189,0.081,0.189H106.393z"/>
	<path class="st0" d="M119.55,18.247c-2.619-2.349-3.267-5.426-3.267-7.99c0-1.809,0.621-4.967,3.023-7.369
		C120.926,1.269,123.382,0,127.539,0c1.08,0,2.592,0.081,3.914,0.323c1.025,0.189,1.89,0.352,2.753,0.405
		c0.297,0.027,0.352,0.135,0.352,0.297c0,0.216-0.081,0.54-0.135,1.512c-0.055,0.891-0.055,2.375-0.081,2.78
		c-0.027,0.404-0.081,0.566-0.243,0.566c-0.189,0-0.216-0.188-0.216-0.566c0-1.053-0.433-2.159-1.134-2.753
		c-0.945-0.811-3.023-1.539-5.398-1.539c-3.591,0-5.264,1.053-6.209,1.971c-1.97,1.89-2.429,4.292-2.429,7.045
		c0,5.155,3.968,9.879,9.744,9.879c2.024,0,3.617-0.242,4.696-1.35c0.567-0.594,0.918-1.781,0.999-2.267
		c0.054-0.297,0.108-0.405,0.271-0.405c0.135,0,0.188,0.188,0.188,0.405c0,0.188-0.324,2.537-0.594,3.455
		c-0.162,0.513-0.216,0.566-0.702,0.782c-1.079,0.432-3.131,0.621-4.858,0.621C124.408,21.162,121.682,20.163,119.55,18.247z"/>
	<path class="st0" d="M149.154,12.956c0,2.592,0,4.724,0.136,5.857c0.081,0.783,0.242,1.377,1.053,1.484
		c0.378,0.055,0.972,0.108,1.215,0.108c0.161,0,0.216,0.081,0.216,0.162c0,0.135-0.136,0.216-0.433,0.216
		c-1.484,0-3.185-0.081-3.319-0.081c-0.136,0-1.836,0.081-2.646,0.081c-0.297,0-0.432-0.054-0.432-0.216
		c0-0.081,0.054-0.162,0.216-0.162c0.242,0,0.566-0.054,0.81-0.108c0.54-0.107,0.675-0.701,0.782-1.484
		c0.136-1.134,0.136-3.266,0.136-5.857V1.538l-3.995,0.054c-1.674,0.027-2.321,0.217-2.753,0.864
		c-0.298,0.459-0.378,0.647-0.459,0.837c-0.081,0.216-0.162,0.27-0.271,0.27c-0.081,0-0.135-0.081-0.135-0.243
		c0-0.27,0.54-2.591,0.594-2.807C139.923,0.351,140.031,0,140.14,0c0.188,0,0.458,0.27,1.188,0.323
		c0.782,0.081,1.809,0.136,2.132,0.136h10.123c0.863,0,1.484-0.055,1.916-0.136c0.405-0.054,0.647-0.135,0.756-0.135
		c0.135,0,0.135,0.162,0.135,0.324c0,0.81-0.081,2.672-0.081,2.969c0,0.243-0.081,0.352-0.188,0.352
		c-0.135,0-0.189-0.081-0.216-0.459l-0.027-0.297c-0.081-0.811-0.729-1.431-3.32-1.485l-3.401-0.054v11.418H149.154z"/>
</g>
</svg>
