<?xml version="1.0" encoding="utf-8"?>
<!-- Generator: Adobe Illustrator 26.2.1, SVG Export Plug-In . SVG Version: 6.00 Build 0)  -->
<svg version="1.1" id="レイヤー_1" xmlns="http://www.w3.org/2000/svg" xmlns:xlink="http://www.w3.org/1999/xlink" x="0px"
	 y="0px" viewBox="0 0 28 22" style="enable-background:new 0 0 28 22;" xml:space="preserve">
<style type="text/css">
	.st0{fill:#675952;}
</style>
<g>
	<path class="st0" d="M27.931,2.982C27.815,2.39,27.553,1.831,27.17,1.36c-0.078-0.099-0.159-0.187-0.248-0.276
		C26.241,0.395,25.293,0,24.322,0H3.677c-0.982,0-1.905,0.385-2.6,1.085C0.99,1.173,0.908,1.262,0.827,1.364
		c-0.381,0.468-0.642,1.027-0.756,1.62C0.024,3.217,0,3.458,0,3.702v14.596c0,0.508,0.102,1.002,0.306,1.472
		c0.176,0.417,0.443,0.813,0.772,1.144c0.083,0.083,0.165,0.16,0.253,0.234C1.989,21.698,2.822,22,3.677,22h20.645
		c0.861,0,1.693-0.303,2.35-0.857c0.088-0.071,0.169-0.146,0.25-0.228c0.318-0.32,0.571-0.688,0.753-1.093l0.024-0.058
		C27.899,19.303,28,18.81,28,18.298V3.702C28,3.461,27.977,3.218,27.931,2.982z M1.904,2.363c0.052-0.077,0.118-0.155,0.203-0.241
		c0.42-0.423,0.978-0.656,1.57-0.656h20.645c0.597,0,1.155,0.233,1.571,0.657c0.072,0.073,0.14,0.154,0.2,0.235l0.158,0.214
		l-11.02,9.668c-0.34,0.3-0.777,0.465-1.232,0.465c-0.45,0-0.887-0.165-1.231-0.464L1.76,2.574L1.904,2.363z M1.463,18.427
		c-0.006-0.04-0.007-0.084-0.007-0.129V4.004l8.551,7.51l-8.465,7.43L1.463,18.427z M25.424,20.24
		c-0.331,0.192-0.712,0.294-1.102,0.294H3.677c-0.39,0-0.771-0.102-1.102-0.294L2.23,20.038l8.747-7.673l0.959,0.839
		c0.575,0.503,1.308,0.78,2.065,0.78c0.76,0,1.494-0.277,2.069-0.78l0.958-0.84l8.743,7.674L25.424,20.24z M26.544,18.298
		c0,0.044-0.001,0.088-0.006,0.127l-0.076,0.521l-8.469-7.429l8.551-7.51V18.298z"/>
</g>
</svg>
