<?xml version="1.0" encoding="utf-8"?>
<!-- Generator: Adobe Illustrator 26.2.1, SVG Export Plug-In . SVG Version: 6.00 Build 0)  -->
<svg version="1.1" id="レイヤー_1" xmlns="http://www.w3.org/2000/svg" xmlns:xlink="http://www.w3.org/1999/xlink" x="0px"
	 y="0px" viewBox="0 0 23 30" style="enable-background:new 0 0 23 30;" xml:space="preserve">
<style type="text/css">
	.st0{fill:#675952;}
</style>
<g>
	<path class="st0" d="M2.056,1.271c-2.061,1.337-2.466,5.516-1.688,8.922c0.606,2.652,1.894,6.21,4.067,9.56
		c2.044,3.152,4.895,5.978,7.07,7.613c2.792,2.1,6.772,3.434,8.833,2.097c1.042-0.676,2.591-2.523,2.661-2.854
		c0,0-0.908-1.4-1.107-1.707l-3.045-4.695c-0.226-0.349-1.645-0.03-2.366,0.378c-0.972,0.551-1.868,2.029-1.868,2.029
		c-0.667,0.385-1.225,0.001-2.392-0.536c-1.434-0.66-3.046-2.71-4.33-4.567c-1.172-1.929-2.386-4.238-2.404-5.816
		C5.474,10.41,5.351,9.744,5.975,9.292c0,0,1.715-0.215,2.615-0.878c0.667-0.492,1.537-1.657,1.31-2.006L6.855,1.713
		C6.656,1.405,5.748,0.005,5.748,0.005C5.416-0.065,3.099,0.595,2.056,1.271z"/>
</g>
</svg>
