<?xml version="1.0" encoding="utf-8"?>
<!-- Generator: Adobe Illustrator 26.2.1, SVG Export Plug-In . SVG Version: 6.00 Build 0)  -->
<svg version="1.1" id="レイヤー_7" xmlns="http://www.w3.org/2000/svg" xmlns:xlink="http://www.w3.org/1999/xlink" x="0px"
	 y="0px" viewBox="0 0 388 27" style="enable-background:new 0 0 388 27;" xml:space="preserve">
<style type="text/css">
	.st0{fill:#675952;}
</style>
<g>
	<path class="st0" d="M2.61,9.119c0-4.68,0-5.52-0.06-6.479c-0.06-1.02-0.3-1.5-1.29-1.71C1.02,0.87,0.51,0.84,0.24,0.84
		C0.12,0.84,0,0.779,0,0.66c0-0.181,0.15-0.24,0.48-0.24c1.35,0,3.24,0.09,3.39,0.09c0.33,0,2.61-0.09,3.54-0.09
		c1.89,0,3.9,0.18,5.49,1.319c0.75,0.54,2.07,2.011,2.07,4.08c0,2.22-0.93,4.44-3.63,6.93c2.46,3.15,4.5,5.82,6.24,7.68
		c1.62,1.71,2.91,2.04,3.66,2.16c0.57,0.09,0.99,0.09,1.17,0.09c0.15,0,0.27,0.09,0.27,0.18c0,0.181-0.18,0.24-0.72,0.24h-2.13
		c-1.68,0-2.43-0.149-3.21-0.57c-1.29-0.689-2.34-2.159-4.05-4.409c-1.26-1.65-2.67-3.66-3.27-4.44c-0.12-0.119-0.21-0.18-0.39-0.18
		l-3.69-0.06c-0.15,0-0.21,0.09-0.21,0.239v0.721c0,2.88,0,5.25,0.15,6.51c0.09,0.87,0.27,1.529,1.17,1.649
		c0.42,0.061,1.08,0.12,1.35,0.12c0.18,0,0.24,0.09,0.24,0.18c0,0.15-0.15,0.24-0.48,0.24c-1.65,0-3.54-0.09-3.69-0.09
		c-0.03,0-1.92,0.09-2.82,0.09c-0.33,0-0.48-0.06-0.48-0.24c0-0.09,0.06-0.18,0.24-0.18c0.27,0,0.63-0.06,0.9-0.12
		c0.6-0.12,0.75-0.779,0.87-1.649c0.15-1.26,0.15-3.63,0.15-6.51V9.119z M5.01,11.729c0,0.149,0.06,0.27,0.21,0.359
		c0.45,0.271,1.83,0.48,3.15,0.48c0.72,0,1.56-0.09,2.25-0.57c1.05-0.72,1.83-2.34,1.83-4.619c0-3.75-1.98-6-5.189-6
		c-0.9,0-1.71,0.09-2.01,0.18C5.1,1.62,5.01,1.739,5.01,1.92V11.729z"/>
	<path class="st0" d="M29.034,9.119c0-4.68,0-5.52-0.06-6.479c-0.06-1.02-0.3-1.5-1.29-1.71c-0.24-0.06-0.75-0.09-1.02-0.09
		c-0.12,0-0.24-0.061-0.24-0.18c0-0.181,0.15-0.24,0.48-0.24c0.69,0,1.5,0,2.16,0.03l1.23,0.06c0.21,0,6.18,0,6.87-0.03
		c0.57-0.029,1.05-0.09,1.29-0.149c0.15-0.03,0.27-0.15,0.42-0.15c0.09,0,0.12,0.12,0.12,0.271c0,0.21-0.15,0.569-0.24,1.409
		c-0.03,0.3-0.09,1.62-0.15,1.98c-0.03,0.149-0.09,0.33-0.21,0.33c-0.18,0-0.24-0.15-0.24-0.391c0-0.21-0.03-0.72-0.18-1.08
		c-0.21-0.479-0.51-0.84-2.13-1.02c-0.51-0.06-3.78-0.09-4.11-0.09c-0.12,0-0.18,0.09-0.18,0.3v8.279c0,0.21,0.03,0.301,0.18,0.301
		c0.39,0,4.08,0,4.77-0.061c0.72-0.06,1.14-0.12,1.41-0.42c0.21-0.24,0.33-0.39,0.45-0.39c0.09,0,0.15,0.06,0.15,0.239
		c0,0.181-0.15,0.69-0.24,1.681c-0.06,0.6-0.12,1.71-0.12,1.92c0,0.239,0,0.569-0.21,0.569c-0.15,0-0.21-0.119-0.21-0.27
		c0-0.3,0-0.6-0.12-0.99c-0.12-0.42-0.39-0.93-1.56-1.05c-0.81-0.09-3.78-0.15-4.29-0.15c-0.15,0-0.21,0.091-0.21,0.21v2.641
		c0,1.02-0.03,4.5,0,5.13c0.09,2.069,0.54,2.46,3.479,2.46c0.78,0,2.1,0,2.88-0.33c0.78-0.33,1.14-0.931,1.35-2.16
		c0.06-0.33,0.12-0.45,0.27-0.45c0.18,0,0.18,0.24,0.18,0.45c0,0.24-0.24,2.28-0.39,2.91c-0.21,0.779-0.45,0.779-1.62,0.779
		c-2.25,0-3.9-0.06-5.07-0.09c-1.17-0.06-1.89-0.09-2.34-0.09c-0.06,0-0.57,0-1.2,0.03c-0.6,0-1.29,0.06-1.74,0.06
		c-0.33,0-0.48-0.06-0.48-0.24c0-0.09,0.06-0.18,0.24-0.18c0.27,0,0.63-0.06,0.9-0.12c0.6-0.12,0.75-0.779,0.87-1.649
		c0.15-1.26,0.15-3.63,0.15-6.51V9.119z"/>
	<path class="st0" d="M48.981,20.279c-2.91-2.61-3.63-6.03-3.63-8.88c0-2.01,0.69-5.52,3.36-8.189C50.511,1.409,53.241,0,57.86,0
		c1.2,0,2.88,0.09,4.35,0.359c1.14,0.21,2.1,0.391,3.06,0.45c0.33,0.03,0.39,0.15,0.39,0.33c0,0.24-0.09,0.6-0.15,1.68
		c-0.06,0.99-0.06,2.641-0.09,3.09c-0.03,0.45-0.09,0.63-0.27,0.63c-0.21,0-0.24-0.21-0.24-0.63c0-1.17-0.48-2.399-1.26-3.06
		c-1.05-0.9-3.36-1.71-6-1.71c-3.99,0-5.85,1.17-6.899,2.189c-2.19,2.101-2.7,4.771-2.7,7.83c0,5.729,4.41,10.979,10.83,10.979
		c2.25,0,4.02-0.27,5.22-1.5c0.63-0.66,1.02-1.979,1.11-2.52c0.06-0.33,0.12-0.45,0.3-0.45c0.15,0,0.21,0.21,0.21,0.45
		c0,0.21-0.36,2.819-0.66,3.84c-0.18,0.569-0.24,0.63-0.78,0.87c-1.2,0.479-3.48,0.689-5.4,0.689
		C54.381,23.519,51.351,22.409,48.981,20.279z"/>
	<path class="st0" d="M83.006,0c6.75,0,11.79,4.26,11.79,11.249c0,6.72-4.74,12.27-11.969,12.27c-8.22,0-11.64-6.39-11.64-11.789
		C71.187,6.869,74.727,0,83.006,0z M83.637,22.379c2.7,0,8.279-1.56,8.279-10.29c0-7.199-4.38-11.069-9.12-11.069
		c-5.01,0-8.759,3.3-8.759,9.87C74.037,17.879,78.237,22.379,83.637,22.379z"/>
	<path class="st0" d="M125.494,19.229c0.12,1.08,0.33,2.761,1.62,3.181c0.87,0.27,1.65,0.27,1.95,0.27c0.15,0,0.24,0.03,0.24,0.15
		c0,0.18-0.27,0.27-0.63,0.27c-0.66,0-3.9-0.09-5.01-0.18c-0.69-0.061-0.84-0.15-0.84-0.3c0-0.12,0.06-0.181,0.21-0.21
		c0.15-0.03,0.18-0.54,0.12-1.08l-1.44-15.479h-0.09l-7.35,15.6c-0.63,1.319-0.72,1.59-0.99,1.59c-0.21,0-0.36-0.3-0.93-1.38
		c-0.78-1.471-3.36-6.66-3.51-6.96c-0.27-0.54-3.63-7.74-3.96-8.55h-0.12l-1.2,13.92c-0.03,0.479-0.03,1.02-0.03,1.529
		c0,0.45,0.33,0.84,0.78,0.93c0.51,0.12,0.96,0.15,1.14,0.15c0.12,0,0.24,0.061,0.24,0.15c0,0.21-0.18,0.27-0.54,0.27
		c-1.11,0-2.55-0.09-2.79-0.09c-0.27,0-1.71,0.09-2.52,0.09c-0.3,0-0.51-0.06-0.51-0.27c0-0.09,0.15-0.15,0.3-0.15
		c0.24,0,0.45,0,0.9-0.09c0.99-0.18,1.08-1.35,1.2-2.49l2.16-19.559c0.03-0.33,0.15-0.54,0.33-0.54c0.18,0,0.3,0.12,0.45,0.45
		l9.18,18.869l8.819-18.84c0.12-0.27,0.24-0.479,0.45-0.479s0.3,0.239,0.36,0.81L125.494,19.229z"/>
	<path class="st0" d="M160.24,19.229c0.12,1.08,0.33,2.761,1.62,3.181c0.87,0.27,1.65,0.27,1.95,0.27c0.15,0,0.24,0.03,0.24,0.15
		c0,0.18-0.27,0.27-0.63,0.27c-0.66,0-3.9-0.09-5.01-0.18c-0.69-0.061-0.84-0.15-0.84-0.3c0-0.12,0.06-0.181,0.21-0.21
		c0.15-0.03,0.18-0.54,0.12-1.08L156.46,5.85h-0.09l-7.35,15.6c-0.63,1.319-0.72,1.59-0.99,1.59c-0.21,0-0.36-0.3-0.93-1.38
		c-0.78-1.471-3.36-6.66-3.51-6.96c-0.27-0.54-3.63-7.74-3.96-8.55h-0.12l-1.2,13.92c-0.03,0.479-0.03,1.02-0.03,1.529
		c0,0.45,0.33,0.84,0.78,0.93c0.51,0.12,0.96,0.15,1.14,0.15c0.12,0,0.24,0.061,0.24,0.15c0,0.21-0.18,0.27-0.54,0.27
		c-1.11,0-2.55-0.09-2.79-0.09c-0.27,0-1.71,0.09-2.52,0.09c-0.3,0-0.51-0.06-0.51-0.27c0-0.09,0.15-0.15,0.3-0.15
		c0.24,0,0.45,0,0.9-0.09c0.99-0.18,1.08-1.35,1.2-2.49l2.16-19.559c0.03-0.33,0.15-0.54,0.33-0.54c0.18,0,0.3,0.12,0.45,0.45
		l9.18,18.869l8.819-18.84C157.54,0.21,157.66,0,157.87,0s0.3,0.239,0.36,0.81L160.24,19.229z"/>
	<path class="st0" d="M171.802,9.119c0-4.68,0-5.52-0.06-6.479c-0.06-1.02-0.3-1.5-1.29-1.71c-0.24-0.06-0.75-0.09-1.02-0.09
		c-0.12,0-0.24-0.061-0.24-0.18c0-0.181,0.15-0.24,0.48-0.24c0.69,0,1.5,0,2.16,0.03l1.23,0.06c0.21,0,6.18,0,6.87-0.03
		c0.57-0.029,1.05-0.09,1.29-0.149c0.15-0.03,0.27-0.15,0.42-0.15c0.09,0,0.12,0.12,0.12,0.271c0,0.21-0.15,0.569-0.24,1.409
		c-0.03,0.3-0.09,1.62-0.15,1.98c-0.03,0.149-0.09,0.33-0.21,0.33c-0.18,0-0.24-0.15-0.24-0.391c0-0.21-0.03-0.72-0.18-1.08
		c-0.21-0.479-0.51-0.84-2.13-1.02c-0.51-0.06-3.78-0.09-4.11-0.09c-0.12,0-0.18,0.09-0.18,0.3v8.279c0,0.21,0.03,0.301,0.18,0.301
		c0.39,0,4.08,0,4.77-0.061c0.72-0.06,1.14-0.12,1.41-0.42c0.21-0.24,0.33-0.39,0.45-0.39c0.09,0,0.15,0.06,0.15,0.239
		c0,0.181-0.15,0.69-0.24,1.681c-0.06,0.6-0.12,1.71-0.12,1.92c0,0.239,0,0.569-0.21,0.569c-0.15,0-0.21-0.119-0.21-0.27
		c0-0.3,0-0.6-0.12-0.99c-0.12-0.42-0.39-0.93-1.56-1.05c-0.81-0.09-3.78-0.15-4.29-0.15c-0.15,0-0.21,0.091-0.21,0.21v2.641
		c0,1.02-0.03,4.5,0,5.13c0.09,2.069,0.54,2.46,3.479,2.46c0.78,0,2.1,0,2.88-0.33c0.78-0.33,1.14-0.931,1.35-2.16
		c0.06-0.33,0.12-0.45,0.27-0.45c0.18,0,0.18,0.24,0.18,0.45c0,0.24-0.24,2.28-0.39,2.91c-0.21,0.779-0.45,0.779-1.62,0.779
		c-2.25,0-3.9-0.06-5.07-0.09c-1.17-0.06-1.89-0.09-2.34-0.09c-0.06,0-0.57,0-1.2,0.03c-0.6,0-1.29,0.06-1.74,0.06
		c-0.33,0-0.48-0.06-0.48-0.24c0-0.09,0.06-0.18,0.24-0.18c0.27,0,0.63-0.06,0.9-0.12c0.6-0.12,0.75-0.779,0.87-1.649
		c0.15-1.26,0.15-3.63,0.15-6.51V9.119z"/>
	<path class="st0" d="M192.49,19.019c0.06,2.46,0.36,3.24,1.17,3.48c0.57,0.149,1.23,0.18,1.5,0.18c0.15,0,0.24,0.061,0.24,0.18
		c0,0.181-0.18,0.24-0.54,0.24c-1.71,0-2.91-0.09-3.18-0.09s-1.53,0.09-2.88,0.09c-0.3,0-0.48-0.03-0.48-0.24
		c0-0.119,0.09-0.18,0.24-0.18c0.24,0,0.78-0.03,1.23-0.18c0.75-0.21,0.9-1.08,0.9-3.811L190.72,1.5c0-1.17,0.09-1.5,0.33-1.5
		c0.24,0,0.75,0.66,1.05,0.96c0.45,0.51,4.92,5.34,9.54,10.289c2.97,3.18,6.24,6.84,7.2,7.83l-0.33-15.239
		c-0.03-1.95-0.24-2.61-1.17-2.851c-0.54-0.119-1.23-0.149-1.47-0.149c-0.21,0-0.24-0.09-0.24-0.21c0-0.18,0.24-0.21,0.6-0.21
		c1.35,0,2.79,0.09,3.12,0.09c0.33,0,1.32-0.09,2.55-0.09c0.33,0,0.54,0.03,0.54,0.21c0,0.12-0.12,0.21-0.33,0.21
		c-0.15,0-0.36,0-0.72,0.09c-0.99,0.21-1.11,0.87-1.11,2.67l-0.06,17.579c0,1.98-0.06,2.13-0.27,2.13c-0.24,0-0.6-0.33-2.19-1.92
		c-0.33-0.3-4.649-4.71-7.83-8.13c-3.48-3.749-6.87-7.529-7.83-8.609L192.49,19.019z"/>
	<path class="st0" d="M221.515,9.119c0-4.68,0-5.52-0.06-6.479c-0.06-1.02-0.3-1.5-1.29-1.71c-0.24-0.06-0.75-0.09-1.02-0.09
		c-0.12,0-0.24-0.061-0.24-0.18c0-0.181,0.15-0.24,0.48-0.24c1.35,0,3.24,0.09,3.39,0.09c0.36,0,2.25-0.09,4.05-0.09
		c2.97,0,8.46-0.271,12.03,3.42c1.5,1.56,2.91,4.05,2.91,7.619c0,3.78-1.56,6.69-3.24,8.46c-1.29,1.35-3.99,3.45-9.09,3.45
		c-1.29,0-2.88-0.091-4.169-0.181c-1.32-0.09-2.34-0.18-2.49-0.18c-0.06,0-0.57,0-1.2,0.03c-0.6,0-1.29,0.06-1.74,0.06
		c-0.33,0-0.48-0.06-0.48-0.24c0-0.09,0.06-0.18,0.24-0.18c0.27,0,0.63-0.06,0.9-0.12c0.6-0.12,0.75-0.779,0.87-1.649
		c0.15-1.26,0.15-3.63,0.15-6.51V9.119z M224.035,12.359c0,3.18,0.03,5.939,0.06,6.51c0.03,0.75,0.09,1.95,0.33,2.279
		c0.39,0.57,1.56,1.2,5.1,1.2c2.79,0,5.37-1.02,7.14-2.79c1.56-1.529,2.4-4.409,2.4-7.169c0-3.811-1.65-6.271-2.88-7.561
		c-2.82-2.97-6.24-3.39-9.81-3.39c-0.6,0-1.71,0.09-1.95,0.21c-0.27,0.12-0.36,0.271-0.36,0.601c-0.03,1.02-0.03,4.079-0.03,6.39
		V12.359z"/>
	<path class="st0" d="M249.742,9.119c0-4.68,0-5.52-0.06-6.479c-0.06-1.02-0.3-1.5-1.29-1.71c-0.24-0.06-0.75-0.09-1.02-0.09
		c-0.12,0-0.24-0.061-0.24-0.18c0-0.181,0.15-0.24,0.48-0.24c0.69,0,1.5,0,2.16,0.03l1.23,0.06c0.21,0,6.18,0,6.87-0.03
		c0.57-0.029,1.05-0.09,1.29-0.149c0.15-0.03,0.27-0.15,0.42-0.15c0.09,0,0.12,0.12,0.12,0.271c0,0.21-0.15,0.569-0.24,1.409
		c-0.03,0.3-0.09,1.62-0.15,1.98c-0.03,0.149-0.09,0.33-0.21,0.33c-0.18,0-0.24-0.15-0.24-0.391c0-0.21-0.03-0.72-0.18-1.08
		c-0.21-0.479-0.51-0.84-2.13-1.02c-0.51-0.06-3.78-0.09-4.11-0.09c-0.12,0-0.18,0.09-0.18,0.3v8.279c0,0.21,0.03,0.301,0.18,0.301
		c0.39,0,4.08,0,4.77-0.061c0.72-0.06,1.14-0.12,1.41-0.42c0.21-0.24,0.33-0.39,0.45-0.39c0.09,0,0.15,0.06,0.15,0.239
		c0,0.181-0.15,0.69-0.24,1.681c-0.06,0.6-0.12,1.71-0.12,1.92c0,0.239,0,0.569-0.21,0.569c-0.15,0-0.21-0.119-0.21-0.27
		c0-0.3,0-0.6-0.12-0.99c-0.12-0.42-0.39-0.93-1.56-1.05c-0.81-0.09-3.78-0.15-4.29-0.15c-0.15,0-0.21,0.091-0.21,0.21v2.641
		c0,1.02-0.03,4.5,0,5.13c0.09,2.069,0.54,2.46,3.479,2.46c0.78,0,2.1,0,2.88-0.33c0.78-0.33,1.14-0.931,1.35-2.16
		c0.06-0.33,0.12-0.45,0.27-0.45c0.18,0,0.18,0.24,0.18,0.45c0,0.24-0.24,2.28-0.39,2.91c-0.21,0.779-0.45,0.779-1.62,0.779
		c-2.25,0-3.9-0.06-5.07-0.09c-1.17-0.06-1.89-0.09-2.34-0.09c-0.06,0-0.57,0-1.2,0.03c-0.6,0-1.29,0.06-1.74,0.06
		c-0.33,0-0.48-0.06-0.48-0.24c0-0.09,0.06-0.18,0.24-0.18c0.27,0,0.63-0.06,0.9-0.12c0.6-0.12,0.75-0.779,0.87-1.649
		c0.15-1.26,0.15-3.63,0.15-6.51V9.119z"/>
	<path class="st0" d="M269.061,9.119c0-4.68,0-5.52-0.06-6.479c-0.06-1.02-0.3-1.5-1.29-1.71c-0.24-0.06-0.75-0.09-1.02-0.09
		c-0.12,0-0.24-0.061-0.24-0.18c0-0.181,0.15-0.24,0.48-0.24c1.35,0,3.24,0.09,3.39,0.09c0.36,0,2.25-0.09,4.05-0.09
		c2.97,0,8.46-0.271,12.03,3.42c1.5,1.56,2.91,4.05,2.91,7.619c0,3.78-1.56,6.69-3.24,8.46c-1.29,1.35-3.99,3.45-9.09,3.45
		c-1.29,0-2.88-0.091-4.169-0.181c-1.32-0.09-2.34-0.18-2.49-0.18c-0.06,0-0.57,0-1.2,0.03c-0.6,0-1.29,0.06-1.74,0.06
		c-0.33,0-0.48-0.06-0.48-0.24c0-0.09,0.06-0.18,0.24-0.18c0.27,0,0.63-0.06,0.9-0.12c0.6-0.12,0.75-0.779,0.87-1.649
		c0.15-1.26,0.15-3.63,0.15-6.51V9.119z M271.581,12.359c0,3.18,0.03,5.939,0.06,6.51c0.03,0.75,0.09,1.95,0.33,2.279
		c0.39,0.57,1.56,1.2,5.1,1.2c2.79,0,5.37-1.02,7.14-2.79c1.56-1.529,2.4-4.409,2.4-7.169c0-3.811-1.65-6.271-2.88-7.561
		c-2.82-2.97-6.24-3.39-9.81-3.39c-0.6,0-1.71,0.09-1.95,0.21c-0.27,0.12-0.36,0.271-0.36,0.601c-0.03,1.02-0.03,4.079-0.03,6.39
		V12.359z"/>
	<path class="st0" d="M310.821,9.119c0-4.68,0-5.52-0.06-6.479c-0.06-1.02-0.3-1.5-1.29-1.71c-0.24-0.06-0.75-0.09-1.02-0.09
		c-0.12,0-0.24-0.061-0.24-0.18c0-0.181,0.15-0.24,0.48-0.24c0.69,0,1.5,0,2.16,0.03l1.23,0.06c0.6,0.03,6.69,0,7.38-0.03
		c0.57-0.029,1.05-0.029,1.32-0.12c0.18-0.06,0.3-0.18,0.42-0.18c0.12,0,0.18,0.12,0.18,0.271c0,0.21-0.15,0.569-0.24,1.409
		c-0.03,0.3-0.09,1.62-0.15,1.98c-0.03,0.149-0.09,0.33-0.24,0.33c-0.15,0-0.21-0.15-0.21-0.36c0-0.24-0.09-0.75-0.27-1.14
		c-0.18-0.391-0.87-0.931-2.04-0.96l-4.62-0.09c-0.18,0-0.27,0.09-0.27,0.329v8.28c0,0.18,0.03,0.27,0.21,0.27l3.84-0.029
		c0.51,0,0.93,0,1.35-0.03c0.72-0.061,1.11-0.15,1.38-0.54c0.12-0.15,0.21-0.3,0.33-0.3c0.12,0,0.15,0.09,0.15,0.239
		c0,0.181-0.15,0.69-0.24,1.681c-0.06,0.6-0.12,1.8-0.12,2.01c0,0.27,0,0.57-0.21,0.57c-0.15,0-0.21-0.12-0.21-0.271
		c-0.03-0.3-0.06-0.72-0.18-1.08c-0.15-0.42-0.63-0.96-1.56-1.08c-0.75-0.09-4.02-0.09-4.53-0.09c-0.15,0-0.21,0.061-0.21,0.271
		v2.55c0,2.88,0,5.25,0.15,6.51c0.09,0.87,0.27,1.529,1.17,1.649c0.42,0.061,1.08,0.12,1.35,0.12c0.18,0,0.24,0.09,0.24,0.18
		c0,0.15-0.15,0.24-0.48,0.24c-1.65,0-3.54-0.09-3.69-0.09s-2.04,0.09-2.94,0.09c-0.33,0-0.48-0.06-0.48-0.24
		c0-0.09,0.06-0.18,0.24-0.18c0.27,0,0.63-0.06,0.9-0.12c0.6-0.12,0.75-0.779,0.87-1.649c0.15-1.26,0.15-3.63,0.15-6.51V9.119z"/>
	<path class="st0" d="M333.689,1.17c0.36-0.99,0.48-1.17,0.66-1.17c0.18,0,0.3,0.149,0.66,1.08c0.45,1.14,5.16,13.529,6.99,18.089
		c1.08,2.67,1.95,3.149,2.58,3.33c0.45,0.149,0.9,0.18,1.2,0.18c0.18,0,0.3,0.03,0.3,0.18c0,0.181-0.27,0.24-0.6,0.24
		c-0.45,0-2.64,0-4.71-0.06c-0.57-0.03-0.9-0.03-0.9-0.21c0-0.12,0.09-0.181,0.21-0.21c0.18-0.061,0.36-0.33,0.18-0.811l-2.79-7.38
		c-0.06-0.119-0.12-0.18-0.27-0.18h-6.45c-0.15,0-0.24,0.09-0.3,0.24l-1.8,5.31c-0.27,0.75-0.42,1.47-0.42,2.01
		c0,0.601,0.63,0.87,1.14,0.87h0.3c0.21,0,0.3,0.061,0.3,0.18c0,0.181-0.18,0.24-0.45,0.24c-0.72,0-2.01-0.09-2.34-0.09
		s-1.98,0.09-3.39,0.09c-0.39,0-0.57-0.06-0.57-0.24c0-0.119,0.12-0.18,0.27-0.18c0.21,0,0.63-0.03,0.87-0.06
		c1.38-0.181,1.98-1.32,2.52-2.82L333.689,1.17z M336.809,13.169c0.15,0,0.15-0.09,0.12-0.21l-2.85-8.1c-0.15-0.45-0.3-0.45-0.45,0
		l-2.64,8.1c-0.06,0.15,0,0.21,0.09,0.21H336.809z"/>
	<path class="st0" d="M355.796,14.399c0,2.88,0,5.25,0.15,6.51c0.09,0.87,0.27,1.529,1.17,1.649c0.42,0.061,1.08,0.12,1.35,0.12
		c0.18,0,0.24,0.09,0.24,0.18c0,0.15-0.15,0.24-0.48,0.24c-1.65,0-3.54-0.09-3.69-0.09s-2.04,0.09-2.94,0.09
		c-0.33,0-0.48-0.06-0.48-0.24c0-0.09,0.06-0.18,0.24-0.18c0.27,0,0.63-0.06,0.9-0.12c0.6-0.12,0.75-0.779,0.87-1.649
		c0.15-1.26,0.15-3.63,0.15-6.51v-5.28c0-4.68,0-5.52-0.06-6.479c-0.06-1.02-0.36-1.53-1.02-1.68c-0.33-0.09-0.72-0.12-0.93-0.12
		c-0.12,0-0.24-0.061-0.24-0.18c0-0.181,0.15-0.24,0.48-0.24c0.99,0,2.88,0.09,3.03,0.09s2.04-0.09,2.94-0.09
		c0.33,0,0.48,0.06,0.48,0.24c0,0.119-0.12,0.18-0.24,0.18c-0.21,0-0.39,0.03-0.75,0.09c-0.81,0.15-1.05,0.66-1.11,1.71
		c-0.06,0.96-0.06,1.8-0.06,6.479V14.399z"/>
	<path class="st0" d="M367.544,9.119c0-4.68,0-5.52-0.06-6.479c-0.06-1.02-0.3-1.5-1.29-1.71c-0.24-0.06-0.75-0.09-1.02-0.09
		c-0.12,0-0.24-0.061-0.24-0.18c0-0.181,0.15-0.24,0.48-0.24c1.35,0,3.24,0.09,3.39,0.09c0.33,0,2.61-0.09,3.54-0.09
		c1.89,0,3.9,0.18,5.49,1.319c0.75,0.54,2.07,2.011,2.07,4.08c0,2.22-0.93,4.44-3.63,6.93c2.46,3.15,4.5,5.82,6.24,7.68
		c1.62,1.71,2.91,2.04,3.66,2.16c0.57,0.09,0.99,0.09,1.17,0.09c0.15,0,0.27,0.09,0.27,0.18c0,0.181-0.18,0.24-0.72,0.24h-2.13
		c-1.68,0-2.43-0.149-3.21-0.57c-1.29-0.689-2.34-2.159-4.05-4.409c-1.26-1.65-2.67-3.66-3.27-4.44c-0.12-0.119-0.21-0.18-0.39-0.18
		l-3.69-0.06c-0.15,0-0.21,0.09-0.21,0.239v0.721c0,2.88,0,5.25,0.15,6.51c0.09,0.87,0.27,1.529,1.17,1.649
		c0.42,0.061,1.08,0.12,1.35,0.12c0.18,0,0.24,0.09,0.24,0.18c0,0.15-0.15,0.24-0.48,0.24c-1.65,0-3.54-0.09-3.69-0.09
		c-0.03,0-1.92,0.09-2.82,0.09c-0.33,0-0.48-0.06-0.48-0.24c0-0.09,0.06-0.18,0.24-0.18c0.27,0,0.63-0.06,0.9-0.12
		c0.6-0.12,0.75-0.779,0.87-1.649c0.15-1.26,0.15-3.63,0.15-6.51V9.119z M369.944,11.729c0,0.149,0.06,0.27,0.21,0.359
		c0.45,0.271,1.83,0.48,3.15,0.48c0.72,0,1.56-0.09,2.25-0.57c1.05-0.72,1.83-2.34,1.83-4.619c0-3.75-1.98-6-5.189-6
		c-0.9,0-1.71,0.09-2.01,0.18c-0.15,0.061-0.24,0.18-0.24,0.36V11.729z"/>
</g>
</svg>
