<?xml version="1.0" encoding="utf-8"?>
<!-- Generator: Adobe Illustrator 26.2.1, SVG Export Plug-In . SVG Version: 6.00 Build 0)  -->
<svg version="1.1" id="レイヤー_6" xmlns="http://www.w3.org/2000/svg" xmlns:xlink="http://www.w3.org/1999/xlink" x="0px"
	 y="0px" viewBox="0 0 456 230" style="enable-background:new 0 0 456 230;" xml:space="preserve">
<style type="text/css">
	.st0{fill:#675952;}
</style>
<g>
	<path class="st0" d="M137.977,190.072c-14.289-7.275-24.681-20.005-32.475-33.255c-4.417-7.014-6.756-15.069-10.652-22.083
		c-2.338-4.157-6.236-8.313-10.912-11.431c-0.519-0.52-2.858-1.559-3.377-1.559c-0.78,0.261-3.377,4.417-4.157,5.716
		c-8.833,14.029-17.926,27.019-28.838,39.23c-5.456,5.975-13.51,13.769-20.264,18.706c-5.975,4.157-11.951,7.014-19.745,9.612
		c-2.857,0.78-2.598,0.78-3.897,1.039c-2.079,0.261-3.637,0-3.377-0.779c0-0.52,2.857-0.78,3.637-1.039
		c17.667-4.937,29.357-18.446,39.491-30.657c2.857-3.377,5.195-7.014,7.794-10.912c2.338-3.637,5.195-7.274,7.794-10.912
		c4.936-7.534,9.612-15.068,14.288-22.862c4.417-7.275,9.613-14.809,14.809-22.604c4.936-7.534,9.873-15.328,15.329-22.083
		c7.794-9.612,15.848-21.304,27.019-29.098c2.338-1.558,2.598-2.079,5.975-3.377c0.261,0,6.495-2.857,6.756-0.26
		c0,0.78-5.716,2.598-6.236,2.858c-6.236,3.377-11.692,9.872-16.108,15.848c-4.676,6.235-9.612,11.951-13.769,17.926
		c-15.588,22.603-26.24,38.97-21.824,41.568c4.417,1.819,7.535,3.378,8.833,4.157c3.898,0.52,6.755,1.559,10.132,1.039
		c8.055-1.039,15.849-3.897,22.604-7.274c6.495-3.118,12.73-7.275,17.926-11.692c11.171-9.613,21.044-20.005,23.901-36.632
		c3.378-19.225-5.455-32.475-17.406-40.269c-12.731-8.055-27.02-12.211-46.764-12.211c-11.951,0-22.863,2.338-31.956,5.195
		C53.022,28.213,39.513,37.046,29.9,53.673c-6.495,11.171-11.431,31.436-3.118,43.647c1.039,1.819,2.339,2.599,4.677,4.157
		c-0.261-0.26,1.818,0.78,1.299,1.558c-1.299,1.819-5.716-1.558-5.976-1.818c-4.156-3.377-6.754-11.171-7.274-17.667
		c-0.78-11.171,2.599-22.603,7.014-30.398C37.953,33.15,57.178,21.719,83.158,16.263c5.196-1.039,10.912-1.818,16.888-2.338
		c18.705-1.299,36.892,2.598,50.401,9.353c14.03,7.014,27.28,18.705,25.72,41.049c-0.779,10.392-4.676,19.225-9.353,26.24
		c-9.353,13.77-24.162,23.902-40.53,30.657c-5.716,2.338-12.47,4.936-20.524,5.975c-2.079,0.261-7.535,0-8.314,0.52
		c-0.26,0.26,1.039,1.818,1.819,2.598c1.819,2.338,4.417,6.236,5.716,9.093c2.338,5.196,3.898,9.613,5.716,13.77
		c3.898,9.093,9.873,16.887,15.588,23.382c5.976,7.014,14.03,12.211,23.902,15.329c4.936,1.558,10.651,2.857,16.627,2.338
		c5.196-0.52,11.171-1.819,14.289-5.196c0.779-1.039,1.299-4.417,2.857-5.196c1.299-0.519,4.417-0.519,5.196,1.039
		c0.78,1.819-2.598,4.157-3.898,5.196c-4.936,3.898-13.769,7.014-21.304,7.014C154.085,197.086,145.251,193.97,137.977,190.072z"/>
	<path class="st0" d="M162.921,132.655c-0.26-4.157,1.819-9.353,4.677-12.73c4.156-4.937,11.171-9.093,18.966-9.873
		c3.377-0.26,7.274,0.26,7.535,2.857c0.519,2.599-1.819,6.236-3.638,7.794c-3.637,3.638-10.132,5.716-16.107,6.495
		c-0.52,0-2.079,0-2.858,0.261c-1.819,1.038-3.118,6.235-1.819,9.353c1.559,3.377,7.015,4.936,12.99,4.417
		c6.236-0.52,14.03-4.417,20.005-7.794c8.055-4.676,14.03-10.392,18.706-16.108c0.78-0.779,2.338-2.857,3.118-2.338
		c0.78,0.52,1.558-0.519-1.039,2.599c-3.637,4.676-12.47,12.73-17.926,15.848c-7.014,4.676-17.407,10.132-27.02,10.132
		C170.715,143.567,163.701,139.93,162.921,132.655z M177.99,124.342c5.196-1.299,9.613-3.377,11.951-5.976
		c0.779-0.779,2.598-3.377,2.079-4.676c-0.261-1.299-1.819-1.039-2.858-1.039c-3.637,0.26-7.014,2.858-9.613,4.937
		c-1.039,1.039-3.897,3.637-5.195,5.195c0.26-0.26-1.559,2.079-1.299,2.338C173.573,125.641,176.431,124.602,177.99,124.342z"/>
	<path class="st0" d="M271.778,120.965c-3.637,3.117-21.824,15.068-28.058,17.667c-3.118,1.299-8.314,2.857-12.731,3.117
		c-4.417,1.559-9.093,1.559-13.51-0.779c0,0-3.377-3.118-3.118-3.118c-0.779,0-2.598,3.637-3.118,4.936l-9.093,14.03
		c-4.156,6.755-7.535,13.51-11.171,19.486c-5.975,9.872-11.691,18.966-18.966,27.279c-3.637,4.417-6.495,8.054-11.431,11.431
		c-0.78,0.52-4.417,2.339-5.196,0.52c-0.26-1.039,2.598-2.338,3.118-2.858c7.794-5.975,16.368-20.005,26.76-37.151
		c20.785-33.255,16.627-33.514,40.269-63.652c1.039-1.299,4.157-6.755,5.717-7.794c0,0,3.377,0.261,3.637,0.78
		c0.519,1.039-2.858,5.196-3.637,6.236l-2.858,4.417c-1.299,1.558,2.598-1.299,2.598-1.299c2.858-1.819,8.055-4.417,11.432-4.937
		c5.716-0.519,11.171,3.377,9.612,10.132c-1.039,5.716-5.195,10.652-9.873,15.069c-2.079,1.818-4.417,3.897-7.014,5.196
		c2.338-0.52,4.936-1.559,6.236-2.079c6.755-2.599,24.941-14.289,34.034-22.344c1.039-0.519,2.079-2.078,3.118-1.299
		C279.832,114.729,275.156,118.106,271.778,120.965z M231.25,138.631c5.975-2.858,13.51-12.471,15.328-19.226
		c1.559-5.456-0.26-8.573-5.195-7.794c-3.898,0.52-6.495,2.338-9.353,4.157c-2.598,1.819-5.975,4.157-7.794,5.975
		c-0.78,1.039-7.794,11.692-7.794,12.471c0,1.039,1.559,3.377,2.338,4.156C221.896,140.969,227.871,140.19,231.25,138.631z"/>
	<path class="st0" d="M265.544,132.655c-0.261-5.716,3.637-11.431,6.755-14.808c3.377-3.637,8.054-6.236,14.289-7.014
		c5.716-0.52,12.211,1.038,13.25,4.156c0-0.26,0.779,2.599-0.261,5.716c-0.26,1.559-1.299,2.858-1.039,3.638
		c0.52,1.299,6.236,2.079,8.055,2.338c8.573,0.78,19.225-7.794,25.72-11.692c0.78-0.519,1.819-1.818,2.598-1.299
		c1.039,0.78-2.079,3.377-2.338,3.637c-7.014,4.677-18.966,13.511-30.397,11.171c-1.559-0.26-3.118-1.299-4.417-1.038
		c-1.299,1.038-2.338,2.598-3.638,4.156c-3.377,3.638-7.014,6.495-11.431,8.314C275.935,142.787,265.803,142.268,265.544,132.655z
		 M292.044,130.577c1.038-1.299,3.897-4.156,3.897-5.456c-0.26-1.558-3.377-1.558-2.598-5.975c0.26-2.079,2.598-3.377,2.338-3.898
		c-0.52-0.779-6.495-1.038-6.755-1.038c-9.353,0.779-16.108,9.872-17.926,18.186c-2.339,8.833,5.455,8.574,10.651,6.236
		C286.068,136.553,288.926,133.954,292.044,130.577z M296.98,123.042c0.519-0.26,1.299-5.716-0.26-5.455
		C294.382,118.106,295.681,123.562,296.98,123.042L296.98,123.042z"/>
	<path class="st0" d="M322.7,131.097c4.937-9.353,6.236-11.692,11.692-20.264c0.78-1.819,2.338-4.937,3.897-5.456
		c5.716-2.339,1.559,5.456,0.52,7.534l-2.858,5.717c-1.299,2.338,1.299-0.261,1.559-0.78l2.079-1.819
		c2.078-2.079,3.897-3.118,4.417-3.637c4.676-3.118,12.47-7.275,17.667-4.157c2.857,1.559,4.416,6.236,1.299,9.093
		c-1.819,1.559-6.236,2.858-7.015-1.039c0-1.039,0.261-2.078,0.78-2.857c0.52-1.039,1.819-1.299,1.558-2.079
		c-0.779-2.858-8.054,0.78-9.353,1.558c-6.236,3.118-10.132,7.015-14.03,11.432c-2.079,2.079-4.156,4.156-5.716,6.495
		c-3.118,4.417-2.598,4.676-5.716,9.612c-1.039,1.819-3.377,4.676-4.936,2.858C317.244,142.268,321.921,132.655,322.7,131.097z"/>
	<path class="st0" d="M370.504,132.396c0.52-5.456,2.079-9.873,4.157-14.289c4.417-8.833,5.716-10.392,11.171-18.706
		c0-0.26,9.353-13.769,9.353-13.769c-0.261-0.26-4.417-0.78-5.456-0.78c-9.093-0.26-12.731,0.52-20.005,3.377
		c-1.819,0.78-7.015,4.157-6.755,5.456c0.26,0.26,2.598-0.26,1.818,1.299c-1.818,2.079-4.157,0.26-4.417-0.519
		c-0.779-2.599,4.937-5.976,6.495-6.755c7.534-3.638,11.692-5.196,23.123-4.677c2.338,0.261,5.196,0.78,6.236,0.52
		c1.299-0.26,1.039,0,2.598-2.079c8.833-11.951,19.745-24.941,25.72-29.877c0.78-0.78,5.196-1.558,5.716-0.78
		c0.52,0.52-7.014,8.833-8.054,9.873c-10.652,12.99-14.289,16.888-18.186,22.604c-1.039,1.558,0.779,1.299,4.156,1.818
		c11.171,1.039,31.437,3.898,40.27-2.079c0,0,3.637-2.857,4.156-4.936c1.039-0.26,2.599,0.519,2.599,0.519
		c2.079,1.819-4.157,5.456-5.976,6.236c-11.431,5.716-29.357,3.118-42.088,1.819c-1.038-0.261-3.897-0.52-4.676-0.261
		c-1.818,0.52-7.535,10.393-8.833,12.211c-5.975,8.574-10.912,16.108-14.808,25.201c-2.338,5.716-5.716,19.486,3.897,20.005
		c5.196,0.261,10.912-2.338,15.069-4.417c10.132-5.195,18.446-12.47,26.5-21.044c0.26-0.26,2.338-3.118,3.377-3.637
		c0.519-0.26,1.819-0.519,2.079-0.26c0.78,0.779-1.299,2.598-1.819,3.118c-2.338,2.598-4.936,5.716-7.274,8.054
		c-3.638,3.637-7.015,6.235-10.652,8.833c-3.377,2.598-7.534,5.456-11.951,7.535c-4.157,2.079-9.353,4.676-14.808,4.676
		C374.401,146.685,369.984,141.489,370.504,132.396z"/>
</g>
</svg>
