<?xml version="1.0" encoding="utf-8"?>
<!-- Generator: Adobe Illustrator 26.2.1, SVG Export Plug-In . SVG Version: 6.00 Build 0)  -->
<svg version="1.1" id="レイヤー_7" xmlns="http://www.w3.org/2000/svg" xmlns:xlink="http://www.w3.org/1999/xlink" x="0px"
	 y="0px" viewBox="0 0 123 27" style="enable-background:new 0 0 123 27;" xml:space="preserve">
<style type="text/css">
	.st0{fill:#675952;}
</style>
<g>
	<path class="st0" d="M2.349,8.205c0-4.211,0-4.966-0.054-5.83C2.24,1.457,2.024,1.025,1.134,0.836
		c-0.216-0.054-0.675-0.08-0.918-0.08C0.108,0.756,0,0.701,0,0.594c0-0.162,0.136-0.216,0.433-0.216c1.214,0,2.915,0.081,3.05,0.081
		c0.297,0,2.349-0.081,3.186-0.081c1.7,0,3.509,0.161,4.939,1.188c0.675,0.485,1.862,1.809,1.862,3.671
		c0,1.997-0.837,3.995-3.267,6.235c2.214,2.834,4.05,5.236,5.615,6.91c1.457,1.538,2.618,1.835,3.293,1.943
		c0.513,0.081,0.891,0.081,1.053,0.081c0.135,0,0.243,0.081,0.243,0.162c0,0.162-0.162,0.216-0.648,0.216h-1.916
		c-1.512,0-2.187-0.135-2.889-0.513c-1.16-0.621-2.105-1.943-3.644-3.968c-1.134-1.485-2.402-3.294-2.942-3.995
		c-0.108-0.108-0.189-0.162-0.35-0.162l-3.32-0.054c-0.135,0-0.189,0.081-0.189,0.216v0.647c0,2.592,0,4.724,0.135,5.857
		c0.081,0.783,0.243,1.377,1.053,1.484c0.378,0.055,0.973,0.108,1.215,0.108c0.162,0,0.216,0.081,0.216,0.162
		c0,0.135-0.135,0.216-0.432,0.216c-1.484,0-3.185-0.081-3.32-0.081c-0.026,0-1.728,0.081-2.537,0.081
		c-0.297,0-0.432-0.054-0.432-0.216c0-0.081,0.054-0.162,0.216-0.162c0.243,0,0.566-0.054,0.81-0.108
		c0.54-0.107,0.675-0.701,0.783-1.484c0.135-1.134,0.135-3.266,0.135-5.857v-4.75H2.349z M4.508,10.554
		c0,0.135,0.055,0.243,0.189,0.324c0.404,0.243,1.646,0.432,2.834,0.432c0.647,0,1.403-0.081,2.024-0.513
		c0.945-0.647,1.646-2.105,1.646-4.157c0-3.374-1.781-5.398-4.67-5.398c-0.81,0-1.538,0.081-1.809,0.162
		C4.589,1.457,4.508,1.565,4.508,1.728V10.554z"/>
	<path class="st0" d="M26.152,8.205c0-4.211,0-4.966-0.054-5.83c-0.055-0.918-0.271-1.35-1.161-1.539
		c-0.216-0.054-0.675-0.08-0.918-0.08c-0.107,0-0.216-0.055-0.216-0.162c0-0.162,0.135-0.216,0.433-0.216c0.62,0,1.35,0,1.943,0.026
		l1.106,0.055c0.188,0,5.561,0,6.182-0.027c0.513-0.027,0.944-0.081,1.16-0.135c0.135-0.027,0.243-0.136,0.378-0.136
		c0.081,0,0.108,0.108,0.108,0.243c0,0.189-0.135,0.513-0.216,1.269c-0.027,0.271-0.081,1.458-0.136,1.782
		c-0.026,0.135-0.081,0.297-0.188,0.297c-0.162,0-0.216-0.136-0.216-0.352c0-0.188-0.027-0.647-0.162-0.972
		c-0.189-0.432-0.459-0.756-1.917-0.917c-0.458-0.055-3.4-0.081-3.697-0.081c-0.108,0-0.162,0.081-0.162,0.27v7.45
		c0,0.188,0.026,0.27,0.162,0.27c0.351,0,3.671,0,4.292-0.054c0.647-0.054,1.025-0.108,1.269-0.378
		c0.188-0.216,0.297-0.351,0.404-0.351c0.081,0,0.135,0.054,0.135,0.216s-0.135,0.621-0.216,1.512
		c-0.054,0.539-0.107,1.538-0.107,1.728c0,0.216,0,0.513-0.189,0.513c-0.135,0-0.188-0.108-0.188-0.243c0-0.27,0-0.54-0.108-0.891
		c-0.107-0.378-0.351-0.837-1.403-0.945c-0.729-0.08-3.401-0.135-3.86-0.135c-0.135,0-0.188,0.081-0.188,0.189v2.375
		c0,0.918-0.027,4.049,0,4.616c0.081,1.862,0.485,2.213,3.131,2.213c0.702,0,1.89,0,2.592-0.297
		c0.701-0.297,1.025-0.837,1.214-1.943c0.055-0.297,0.108-0.405,0.243-0.405c0.162,0,0.162,0.217,0.162,0.405
		c0,0.216-0.216,2.052-0.351,2.618c-0.189,0.702-0.405,0.702-1.458,0.702c-2.024,0-3.509-0.054-4.562-0.081
		c-1.053-0.054-1.7-0.081-2.105-0.081c-0.054,0-0.513,0-1.08,0.027c-0.539,0-1.16,0.054-1.565,0.054
		c-0.297,0-0.432-0.054-0.432-0.216c0-0.081,0.054-0.162,0.216-0.162c0.243,0,0.566-0.054,0.81-0.108
		c0.54-0.107,0.675-0.701,0.783-1.484c0.135-1.134,0.135-3.266,0.135-5.857V8.205H26.152z"/>
	<path class="st0" d="M43.575,8.205c0-4.211,0-4.966-0.054-5.83c-0.055-0.918-0.271-1.35-1.161-1.539
		c-0.216-0.054-0.675-0.08-0.918-0.08c-0.107,0-0.216-0.055-0.216-0.162c0-0.162,0.136-0.216,0.433-0.216
		c1.214,0,2.834,0.081,3.05,0.081c0.594,0,2.159-0.081,3.401-0.081c3.374,0,4.589,1.134,5.021,1.538
		c0.594,0.567,1.35,1.781,1.35,3.212c0,3.833-2.808,6.425-6.641,6.425c-0.135,0-0.432,0-0.566-0.027
		c-0.135,0-0.297-0.054-0.297-0.188c0-0.216,0.162-0.243,0.729-0.243c2.618,0,4.67-1.917,4.67-4.399c0-0.892-0.081-2.7-1.512-4.157
		c-1.431-1.458-3.077-1.35-3.698-1.35c-0.459,0-0.918,0.054-1.16,0.162c-0.162,0.054-0.216,0.242-0.216,0.513v11.094
		c0,2.592,0,4.724,0.135,5.857c0.081,0.783,0.243,1.377,1.053,1.484c0.378,0.055,0.972,0.108,1.215,0.108
		c0.161,0,0.216,0.081,0.216,0.162c0,0.135-0.135,0.216-0.433,0.216c-1.484,0-3.185-0.081-3.319-0.081
		c-0.081,0-1.782,0.081-2.592,0.081c-0.297,0-0.432-0.054-0.432-0.216c0-0.081,0.054-0.162,0.216-0.162
		c0.243,0,0.566-0.054,0.81-0.108c0.54-0.107,0.675-0.701,0.783-1.484c0.135-1.134,0.135-3.266,0.135-5.857V8.205H43.575z"/>
	<path class="st0" d="M69.989,0c6.074,0,10.608,3.833,10.608,10.122c0,6.046-4.265,11.04-10.77,11.04
		c-7.396,0-10.474-5.75-10.474-10.608C59.354,6.181,62.54,0,69.989,0z M70.557,20.137c2.43,0,7.45-1.404,7.45-9.259
		c0-6.479-3.941-9.961-8.206-9.961c-4.508,0-7.882,2.97-7.882,8.881C61.919,16.087,65.698,20.137,70.557,20.137z"/>
	<path class="st0" d="M87.92,8.205c0-4.211,0-4.966-0.054-5.83c-0.055-0.918-0.271-1.35-1.161-1.539
		c-0.216-0.054-0.675-0.08-0.918-0.08c-0.107,0-0.216-0.055-0.216-0.162c0-0.162,0.135-0.216,0.433-0.216
		c1.214,0,2.915,0.081,3.05,0.081c0.297,0,2.349-0.081,3.186-0.081c1.7,0,3.509,0.161,4.939,1.188
		c0.675,0.485,1.862,1.809,1.862,3.671c0,1.997-0.837,3.995-3.267,6.235c2.214,2.834,4.05,5.236,5.615,6.91
		c1.457,1.538,2.618,1.835,3.293,1.943c0.513,0.081,0.891,0.081,1.053,0.081c0.135,0,0.243,0.081,0.243,0.162
		c0,0.162-0.162,0.216-0.648,0.216h-1.916c-1.512,0-2.187-0.135-2.889-0.513c-1.16-0.621-2.105-1.943-3.644-3.968
		c-1.134-1.485-2.402-3.294-2.942-3.995c-0.108-0.108-0.189-0.162-0.351-0.162l-3.32-0.054c-0.135,0-0.189,0.081-0.189,0.216v0.647
		c0,2.592,0,4.724,0.135,5.857c0.081,0.783,0.243,1.377,1.053,1.484c0.378,0.055,0.973,0.108,1.215,0.108
		c0.162,0,0.216,0.081,0.216,0.162c0,0.135-0.135,0.216-0.432,0.216c-1.484,0-3.185-0.081-3.32-0.081
		c-0.026,0-1.728,0.081-2.537,0.081c-0.297,0-0.432-0.054-0.432-0.216c0-0.081,0.054-0.162,0.216-0.162
		c0.243,0,0.566-0.054,0.81-0.108c0.54-0.107,0.675-0.701,0.783-1.484c0.135-1.134,0.135-3.266,0.135-5.857L87.92,8.205L87.92,8.205
		z M90.079,10.554c0,0.135,0.055,0.243,0.189,0.324c0.404,0.243,1.646,0.432,2.834,0.432c0.647,0,1.403-0.081,2.024-0.513
		c0.944-0.647,1.646-2.105,1.646-4.157c0-3.374-1.781-5.398-4.67-5.398c-0.81,0-1.538,0.081-1.809,0.162
		c-0.135,0.054-0.216,0.162-0.216,0.324v8.826H90.079z"/>
	<path class="st0" d="M115.675,12.956c0,2.592,0,4.724,0.136,5.857c0.081,0.783,0.242,1.377,1.053,1.484
		c0.378,0.055,0.972,0.108,1.214,0.108c0.162,0,0.217,0.081,0.217,0.162c0,0.135-0.136,0.216-0.433,0.216
		c-1.484,0-3.185-0.081-3.319-0.081c-0.136,0-1.836,0.081-2.646,0.081c-0.297,0-0.432-0.054-0.432-0.216
		c0-0.081,0.054-0.162,0.216-0.162c0.242,0,0.566-0.054,0.81-0.108c0.54-0.107,0.675-0.701,0.782-1.484
		c0.136-1.134,0.136-3.266,0.136-5.857V1.538l-3.995,0.054c-1.674,0.027-2.321,0.217-2.753,0.864
		c-0.298,0.459-0.378,0.647-0.459,0.837c-0.081,0.216-0.162,0.27-0.271,0.27c-0.081,0-0.135-0.081-0.135-0.243
		c0-0.27,0.54-2.591,0.594-2.807C106.443,0.351,106.552,0,106.66,0c0.188,0,0.458,0.27,1.188,0.323
		c0.782,0.081,1.809,0.136,2.132,0.136h10.123c0.863,0,1.484-0.055,1.916-0.136c0.405-0.054,0.647-0.135,0.756-0.135
		c0.135,0,0.135,0.162,0.135,0.324c0,0.81-0.081,2.672-0.081,2.969c0,0.243-0.081,0.352-0.188,0.352
		c-0.135,0-0.189-0.081-0.216-0.459l-0.027-0.297c-0.081-0.811-0.729-1.431-3.32-1.485l-3.401-0.054v11.418H115.675z"/>
</g>
</svg>
