<?xml version="1.0" encoding="utf-8"?>
<!-- Generator: Adobe Illustrator 26.2.1, SVG Export Plug-In . SVG Version: 6.00 Build 0)  -->
<svg version="1.1" id="レイヤー_2" xmlns="http://www.w3.org/2000/svg" xmlns:xlink="http://www.w3.org/1999/xlink" x="0px"
	 y="0px" viewBox="0 0 348 270" style="enable-background:new 0 0 348 270;" xml:space="preserve">
<style type="text/css">
	.st0{fill:#FFFFFF;}
</style>
<path class="st0" d="M267.034,6.329c-0.059-0.202-0.235-0.338-0.433-0.357c-0.113-0.052-0.306-0.154-0.573-0.293
	c-2.023-1.053-8.18-4.258-15.907-5.213c-10.841-1.639-22.923,1.083-34.026,7.659c-6.005,3.557-11.695,7.35-16.715,10.696
	c-5.154,3.436-9.604,6.402-13.539,8.589c-5.488,3.274-9.705,4.837-11.731,5.588c-0.474,0.175-0.819,0.305-1.07,0.423
	c-0.251-0.118-0.597-0.248-1.07-0.423c-2.026-0.751-6.243-2.314-11.745-5.596c-3.921-2.179-8.372-5.146-13.526-8.582
	c-5.02-3.346-10.709-7.139-16.714-10.695c-11.103-6.577-23.187-9.296-34.013-7.66c-7.74,0.956-13.896,4.161-15.92,5.214
	c-0.267,0.139-0.459,0.242-0.573,0.293c-0.198,0.019-0.374,0.155-0.433,0.357c-0.155,0.528,0.207,0.662,1.554,1.162
	c2.026,0.751,6.243,2.314,11.746,5.597c2.324,1.291,4.839,2.864,7.571,4.643c-0.177,0.048-0.358,0.09-0.534,0.141
	c-6.682,1.75-11.589,5.079-13.202,6.172c-0.208,0.141-0.357,0.244-0.449,0.3c-0.198,0.048-0.354,0.216-0.378,0.43
	c-0.06,0.534,0.293,0.596,1.606,0.825c1.915,0.334,5.9,1.03,11.308,2.921c2.482,0.792,5.221,1.82,8.236,3.004
	c-0.472,0.195-0.937,0.397-1.393,0.608c-5.548,2.412-9.234,5.791-10.445,6.901c-0.149,0.137-0.258,0.238-0.327,0.297
	c-0.18,0.078-0.3,0.257-0.3,0.458c0,0.019,0.001,0.038,0.003,0.057c0.059,0.504,0.387,0.5,1.608,0.475
	c1.744-0.034,5.381-0.104,10.498,0.547c3.596,0.368,7.824,1.079,12.72,1.903c4.771,0.803,10.178,1.712,15.751,2.406
	c2.645,0.33,5.261,0.492,7.821,0.492c7.414,0,14.344-1.366,20.034-4c3.402-1.479,6.1-3.32,7.961-4.78
	c1.024-0.621,1.801-1.147,2.281-1.472c0.138-0.093,0.24-0.163,0.327-0.22c0.086,0.058,0.189,0.127,0.326,0.22
	c0.486,0.329,1.275,0.864,2.317,1.494c1.858,1.456,4.543,3.285,7.922,4.753c5.698,2.638,12.63,4.004,20.046,4.004
	c2.559,0,5.176-0.163,7.819-0.492c5.573-0.694,10.981-1.604,15.751-2.406c4.896-0.824,9.124-1.535,12.731-1.904
	c5.103-0.648,8.737-0.578,10.486-0.546c1.221,0.022,1.551,0.03,1.608-0.476c0.002-0.019,0.003-0.038,0.003-0.056
	c0-0.201-0.121-0.38-0.3-0.458c-0.069-0.058-0.178-0.16-0.326-0.296c-1.211-1.11-4.896-4.49-10.435-6.897
	c-0.461-0.213-0.931-0.417-1.408-0.614c3.014-1.184,5.755-2.213,8.245-3.007c5.395-1.887,9.38-2.583,11.295-2.917
	c1.313-0.229,1.666-0.291,1.606-0.825c-0.024-0.214-0.18-0.382-0.378-0.43c-0.091-0.056-0.242-0.16-0.449-0.3
	c-1.613-1.094-6.521-4.422-13.19-6.169c-0.181-0.052-0.368-0.095-0.551-0.145c2.733-1.779,5.251-3.354,7.583-4.649
	c5.489-3.275,9.706-4.837,11.732-5.589C266.827,6.991,267.189,6.857,267.034,6.329z M132.842,29.616
	c5.819,0.725,11.453,1.964,16.425,3.058c4.636,1.02,8.641,1.9,12.086,2.252c3.621,0.46,6.507,0.322,8.528,0.083
	c-2.885,1.364-7.71,3.319-13.417,4.025c-10.61,1.604-22.461-1.07-33.367-7.53c-1.17-0.693-2.325-1.397-3.469-2.103
	C123.842,28.988,128.299,29.05,132.842,29.616z M118.251,28.546c-4.197-2.628-8.185-5.284-11.818-7.706
	c-1.396-0.931-2.736-1.823-4.033-2.679c8.511-1.796,18.323-0.991,27.976,2.354c5.874,2.035,11.52,4.301,16.501,6.3
	c5.145,2.064,9.587,3.847,13.437,5.075c3.172,1.109,5.843,1.804,7.923,2.266c-1.803,0.121-4.072,0.121-6.768-0.222
	c-3.401-0.348-7.379-1.223-11.986-2.235c-4.992-1.098-10.651-2.343-16.515-3.073C127.888,27.992,122.911,27.977,118.251,28.546z
	 M122.588,32.365c8.995,5.328,18.633,8.124,27.726,8.124c2.13,0,4.231-0.154,6.287-0.464c5.303-0.655,9.862-2.366,12.859-3.717
	c-2.374,1.401-5.915,3.193-10.21,4.318c-9.104,2.629-20.015,2.032-30.726-1.679c-5.873-2.035-11.519-4.301-16.5-6.3
	c-0.934-0.375-1.837-0.737-2.726-1.091c2.717-0.913,5.644-1.576,8.721-1.973C119.517,30.517,121.042,31.449,122.588,32.365z
	 M176.647,36.319c2.996,1.349,7.54,3.052,12.819,3.704c2.06,0.311,4.164,0.465,6.297,0.465c9.098,0,18.735-2.796,27.729-8.123
	c1.547-0.916,3.072-1.848,4.571-2.784c3.078,0.397,6.007,1.06,8.728,1.973c-0.889,0.355-1.792,0.717-2.726,1.091
	c-4.981,2-10.627,4.265-16.501,6.3c-10.71,3.711-21.623,4.307-30.738,1.676C182.551,39.502,179.02,37.717,176.647,36.319z
	 M222.983,31.504c-10.904,6.458-22.755,9.132-33.38,7.528c-5.7-0.704-10.525-2.661-13.408-4.025c2.02,0.239,4.91,0.38,8.533-0.08
	c3.458-0.354,7.463-1.234,12.1-2.254c4.971-1.093,10.605-2.332,16.423-3.057c4.539-0.565,8.991-0.628,13.202-0.216
	C225.308,30.107,224.154,30.811,222.983,31.504z M213.127,28.624c-5.864,0.73-11.522,1.975-16.514,3.073
	c-4.607,1.013-8.585,1.888-11.999,2.237c-2.691,0.342-4.959,0.341-6.76,0.22c2.078-0.461,4.745-1.155,7.908-2.261
	c3.862-1.232,8.305-3.015,13.449-5.079c4.981-1.999,10.627-4.265,16.501-6.3c9.648-3.343,19.455-4.15,27.97-2.355
	c-1.297,0.856-2.638,1.749-4.034,2.68c-3.633,2.421-7.62,5.077-11.817,7.705C223.173,27.977,218.2,27.992,213.127,28.624z
	 M92.846,12.221c-5.568-3.322-9.843-4.906-11.897-5.668c-0.081-0.03-0.162-0.06-0.24-0.089c2.162-1.123,8.059-4.103,15.399-5.009
	c10.611-1.605,22.461,1.071,33.367,7.53c5.982,3.543,11.66,7.328,16.669,10.667c5.172,3.448,9.639,6.425,13.582,8.616
	c5.036,3.004,8.995,4.579,11.229,5.418c-2.14-0.391-5.707-1.131-10.326-2.746c-3.827-1.221-8.254-2.997-13.381-5.054
	c-4.992-2.003-10.65-4.273-16.546-6.317c-10.191-3.532-20.578-4.286-29.476-2.18C98.182,15.395,95.402,13.64,92.846,12.221z
	 M98.587,27.571c-5.472-1.913-9.512-2.619-11.453-2.958c-0.002,0-0.005-0.001-0.007-0.001c1.883-1.264,6.457-4.188,12.523-5.777
	c0.46-0.133,0.927-0.251,1.396-0.368c1.542,1.013,3.146,2.08,4.832,3.205c3.348,2.232,6.997,4.661,10.835,7.087
	c-3.127,0.476-6.096,1.221-8.835,2.231C104.448,29.631,101.36,28.455,98.587,27.571z M134.745,44.184
	c-5.552-0.691-10.948-1.599-15.709-2.4c-4.914-0.827-9.157-1.541-12.772-1.91c-3.812-0.484-6.814-0.574-8.839-0.574
	c-0.621,0-1.15,0.008-1.582,0.016c1.527-1.37,4.893-4.191,9.68-6.272c0.76-0.352,1.549-0.674,2.353-0.98
	c1.215,0.482,2.473,0.987,3.777,1.51c4.992,2.003,10.649,4.273,16.545,6.317c6.421,2.225,12.919,3.348,19.074,3.348
	c4.296,0,8.426-0.548,12.244-1.65c0.68-0.178,1.337-0.376,1.979-0.583C154.076,44.279,144.608,45.411,134.745,44.184z
	 M240.583,33.048c4.777,2.077,8.141,4.897,9.668,6.268c-1.842-0.033-5.442-0.075-10.409,0.556
	c-3.627,0.371-7.871,1.085-12.784,1.912c-4.761,0.801-10.157,1.709-15.709,2.4c-9.853,1.227-19.305,0.099-26.726-3.168
	c0.629,0.202,1.271,0.395,1.937,0.57c3.826,1.104,7.959,1.652,12.26,1.652c6.155,0,12.652-1.124,19.07-3.347
	c5.897-2.043,11.555-4.314,16.547-6.317c1.305-0.523,2.563-1.028,3.779-1.511C239.025,32.369,239.818,32.694,240.583,33.048z
	 M246.45,18.838c6.054,1.586,10.628,4.509,12.511,5.773c-0.002,0-0.005,0.001-0.007,0.001c-1.941,0.339-5.981,1.044-11.44,2.953
	c-2.782,0.888-5.872,2.064-9.302,3.423c-2.743-1.01-5.713-1.755-8.842-2.231c3.837-2.426,7.486-4.855,10.833-7.086
	c1.687-1.124,3.291-2.192,4.834-3.206C245.511,18.584,245.984,18.704,246.45,18.838z M265.132,6.553
	c-2.054,0.761-6.329,2.346-11.884,5.66c-2.564,1.424-5.347,3.18-8.393,5.175c-8.905-2.104-19.284-1.348-29.47,2.181
	c-5.896,2.043-11.554,4.314-16.546,6.317c-5.126,2.057-9.553,3.833-13.394,5.059c-4.616,1.614-8.188,2.354-10.327,2.744
	c2.233-0.838,6.194-2.413,11.223-5.413c3.956-2.198,8.422-5.175,13.594-8.623c5.01-3.339,10.688-7.125,16.67-10.668
	c10.905-6.459,22.756-9.132,33.38-7.528c7.328,0.905,13.224,3.885,15.386,5.008C265.293,6.493,265.213,6.523,265.132,6.553z"/>
<g>
	<path class="st0" d="M48.864,127.49c0.08,3.278,0.48,4.318,1.559,4.638c0.76,0.2,1.639,0.24,1.999,0.24c0.2,0,0.32,0.08,0.32,0.239
		c0,0.24-0.24,0.32-0.719,0.32c-2.279,0-3.878-0.12-4.238-0.12s-2.039,0.12-3.838,0.12c-0.4,0-0.64-0.04-0.64-0.32
		c0-0.159,0.12-0.239,0.32-0.239c0.32,0,1.039-0.04,1.639-0.24c1-0.28,1.199-1.439,1.199-5.077l0.04-22.907
		c0-1.56,0.12-1.999,0.439-1.999s1,0.88,1.399,1.279c0.6,0.68,6.556,7.116,12.713,13.713c3.958,4.237,8.315,9.114,9.595,10.434
		l-0.439-20.309c-0.04-2.599-0.32-3.479-1.559-3.798c-0.72-0.16-1.639-0.2-1.959-0.2c-0.28,0-0.32-0.12-0.32-0.279
		c0-0.24,0.32-0.28,0.799-0.28c1.799,0,3.718,0.12,4.158,0.12s1.759-0.12,3.398-0.12c0.44,0,0.72,0.04,0.72,0.28
		c0,0.159-0.16,0.279-0.439,0.279c-0.2,0-0.48,0-0.959,0.12c-1.319,0.28-1.479,1.159-1.479,3.558l-0.08,23.428
		c0,2.639-0.08,2.838-0.36,2.838c-0.32,0-0.8-0.439-2.918-2.559c-0.44-0.399-6.197-6.276-10.435-10.834
		c-4.637-4.997-9.155-10.034-10.434-11.474L48.864,127.49z"/>
	<path class="st0" d="M86.383,114.298c0-6.236,0-7.356-0.08-8.636c-0.08-1.358-0.4-1.998-1.719-2.278c-0.32-0.08-1-0.12-1.359-0.12
		c-0.16,0-0.32-0.08-0.32-0.239c0-0.24,0.2-0.32,0.64-0.32c0.919,0,1.999,0,2.878,0.04l1.639,0.08c0.28,0,8.236,0,9.155-0.04
		c0.76-0.04,1.399-0.12,1.719-0.2c0.2-0.04,0.36-0.199,0.56-0.199c0.12,0,0.16,0.159,0.16,0.359c0,0.28-0.2,0.76-0.32,1.879
		c-0.04,0.399-0.12,2.159-0.2,2.639c-0.04,0.2-0.12,0.439-0.28,0.439c-0.24,0-0.32-0.199-0.32-0.52c0-0.279-0.04-0.959-0.24-1.439
		c-0.28-0.64-0.679-1.119-2.838-1.359c-0.679-0.079-5.037-0.119-5.477-0.119c-0.16,0-0.24,0.119-0.24,0.399v11.034
		c0,0.279,0.04,0.399,0.24,0.399c0.52,0,5.438,0,6.357-0.08c0.959-0.08,1.519-0.159,1.879-0.56c0.28-0.319,0.439-0.52,0.6-0.52
		c0.12,0,0.2,0.08,0.2,0.319c0,0.24-0.2,0.92-0.32,2.239c-0.08,0.8-0.16,2.278-0.16,2.559c0,0.319,0,0.76-0.28,0.76
		c-0.2,0-0.28-0.16-0.28-0.36c0-0.399,0-0.799-0.16-1.319c-0.16-0.56-0.52-1.239-2.079-1.398c-1.079-0.12-5.037-0.2-5.717-0.2
		c-0.2,0-0.28,0.12-0.28,0.279v3.519c0,1.359-0.04,5.997,0,6.836c0.12,2.759,0.72,3.278,4.638,3.278c1.04,0,2.798,0,3.838-0.439
		c1.04-0.44,1.519-1.239,1.799-2.879c0.08-0.439,0.16-0.6,0.36-0.6c0.24,0,0.24,0.32,0.24,0.6c0,0.32-0.32,3.039-0.52,3.878
		c-0.28,1.04-0.6,1.04-2.159,1.04c-2.999,0-5.197-0.08-6.756-0.12c-1.559-0.08-2.519-0.12-3.119-0.12c-0.08,0-0.759,0-1.599,0.04
		c-0.8,0-1.719,0.08-2.319,0.08c-0.44,0-0.64-0.08-0.64-0.32c0-0.119,0.08-0.239,0.32-0.239c0.36,0,0.839-0.08,1.199-0.16
		c0.8-0.16,1-1.039,1.159-2.199c0.2-1.679,0.2-4.837,0.2-8.675V114.298z"/>
	<path class="st0" d="M137.903,127.41h0.16c1.079-3.678,4.757-15.271,6.156-20.389c0.4-1.479,0.44-2.039,0.44-2.559
		c0-0.72-0.44-1.199-2.279-1.199c-0.2,0-0.36-0.12-0.36-0.279c0-0.2,0.2-0.28,0.68-0.28c2.039,0,3.718,0.12,4.078,0.12
		c0.28,0,1.999-0.12,3.238-0.12c0.36,0,0.56,0.08,0.56,0.24c0,0.199-0.12,0.319-0.36,0.319c-0.16,0-0.919,0.04-1.359,0.2
		c-1.199,0.439-1.839,2.119-2.599,4.317c-1.759,5.077-5.797,17.79-7.356,22.268c-1.04,2.959-1.239,3.438-1.679,3.438
		c-0.399,0-0.64-0.52-1.199-2.079l-7.835-22.228h-0.08c-1.439,3.838-6.917,18.47-8.355,22.188c-0.64,1.68-0.839,2.119-1.319,2.119
		c-0.4,0-0.6-0.439-1.399-3.158l-7.116-23.707c-0.64-2.119-1.16-2.719-2.199-3.118c-0.52-0.2-1.52-0.24-1.799-0.24
		c-0.2,0-0.36-0.04-0.36-0.279c0-0.2,0.24-0.28,0.64-0.28c2.079,0,4.278,0.12,4.718,0.12c0.36,0,2.119-0.12,4.118-0.12
		c0.56,0,0.72,0.12,0.72,0.28c0,0.239-0.2,0.279-0.4,0.279c-0.32,0-1.08,0-1.559,0.24c-0.24,0.12-0.52,0.439-0.52,0.959
		s0.36,1.919,0.76,3.679c0.6,2.559,4.757,17.23,5.357,19.349h0.08l8.475-22.787c0.6-1.639,0.76-1.839,1-1.839
		c0.28,0,0.52,0.52,1,1.879L137.903,127.41z"/>
	<path class="st0" d="M198.88,127.41h0.16c1.079-3.678,4.757-15.271,6.156-20.389c0.4-1.479,0.44-2.039,0.44-2.559
		c0-0.72-0.44-1.199-2.279-1.199c-0.2,0-0.36-0.12-0.36-0.279c0-0.2,0.2-0.28,0.68-0.28c2.039,0,3.718,0.12,4.078,0.12
		c0.28,0,1.999-0.12,3.238-0.12c0.36,0,0.56,0.08,0.56,0.24c0,0.199-0.12,0.319-0.36,0.319c-0.16,0-0.919,0.04-1.359,0.2
		c-1.199,0.439-1.839,2.119-2.599,4.317c-1.759,5.077-5.797,17.79-7.356,22.268c-1.04,2.959-1.239,3.438-1.679,3.438
		c-0.399,0-0.64-0.52-1.199-2.079l-7.835-22.228h-0.08c-1.439,3.838-6.917,18.47-8.355,22.188c-0.64,1.68-0.839,2.119-1.319,2.119
		c-0.4,0-0.6-0.439-1.399-3.158l-7.116-23.707c-0.64-2.119-1.16-2.719-2.199-3.118c-0.52-0.2-1.52-0.24-1.799-0.24
		c-0.2,0-0.36-0.04-0.36-0.279c0-0.2,0.24-0.28,0.64-0.28c2.079,0,4.278,0.12,4.718,0.12c0.36,0,2.119-0.12,4.118-0.12
		c0.56,0,0.72,0.12,0.72,0.28c0,0.239-0.2,0.279-0.4,0.279c-0.32,0-1.08,0-1.559,0.24c-0.24,0.12-0.52,0.439-0.52,0.959
		s0.36,1.919,0.76,3.679c0.6,2.559,4.757,17.23,5.357,19.349h0.08l8.475-22.787c0.6-1.639,0.76-1.839,1-1.839
		c0.28,0,0.52,0.52,1,1.879L198.88,127.41z"/>
	<path class="st0" d="M223.863,121.334c0,3.838,0,6.996,0.2,8.675c0.12,1.16,0.36,2.039,1.559,2.199
		c0.56,0.08,1.439,0.16,1.799,0.16c0.24,0,0.32,0.12,0.32,0.239c0,0.2-0.2,0.32-0.64,0.32c-2.199,0-4.717-0.12-4.917-0.12
		c-0.2,0-2.718,0.12-3.917,0.12c-0.44,0-0.64-0.08-0.64-0.32c0-0.119,0.08-0.239,0.32-0.239c0.36,0,0.839-0.08,1.199-0.16
		c0.8-0.16,1-1.039,1.159-2.199c0.2-1.679,0.2-4.837,0.2-8.675v-7.036c0-6.236,0-7.356-0.08-8.636
		c-0.08-1.358-0.479-2.038-1.359-2.238c-0.439-0.12-0.959-0.16-1.239-0.16c-0.16,0-0.32-0.08-0.32-0.239c0-0.24,0.2-0.32,0.64-0.32
		c1.319,0,3.838,0.12,4.038,0.12c0.2,0,2.719-0.12,3.918-0.12c0.44,0,0.64,0.08,0.64,0.32c0,0.159-0.16,0.239-0.32,0.239
		c-0.28,0-0.52,0.04-1,0.12c-1.079,0.2-1.399,0.88-1.479,2.278c-0.08,1.279-0.08,2.399-0.08,8.636V121.334z"/>
	<path class="st0" d="M240.266,127.49c0.08,3.278,0.48,4.318,1.559,4.638c0.76,0.2,1.639,0.24,1.999,0.24
		c0.2,0,0.32,0.08,0.32,0.239c0,0.24-0.24,0.32-0.719,0.32c-2.279,0-3.878-0.12-4.238-0.12s-2.039,0.12-3.838,0.12
		c-0.4,0-0.64-0.04-0.64-0.32c0-0.159,0.12-0.239,0.32-0.239c0.32,0,1.039-0.04,1.639-0.24c1-0.28,1.199-1.439,1.199-5.077
		l0.04-22.907c0-1.56,0.12-1.999,0.439-1.999s1,0.88,1.399,1.279c0.6,0.68,6.556,7.116,12.713,13.713
		c3.958,4.237,8.315,9.114,9.595,10.434l-0.439-20.309c-0.04-2.599-0.32-3.479-1.559-3.798c-0.72-0.16-1.639-0.2-1.959-0.2
		c-0.28,0-0.32-0.12-0.32-0.279c0-0.24,0.32-0.28,0.799-0.28c1.799,0,3.718,0.12,4.158,0.12s1.759-0.12,3.398-0.12
		c0.44,0,0.72,0.04,0.72,0.28c0,0.159-0.16,0.279-0.439,0.279c-0.2,0-0.48,0-0.959,0.12c-1.319,0.28-1.479,1.159-1.479,3.558
		l-0.08,23.428c0,2.639-0.08,2.838-0.36,2.838c-0.32,0-0.8-0.439-2.918-2.559c-0.44-0.399-6.197-6.276-10.435-10.834
		c-4.637-4.997-9.155-10.034-10.434-11.474L240.266,127.49z"/>
	<path class="st0" d="M296.417,122.733c0-3.238-0.2-3.679-1.799-4.118c-0.32-0.08-1-0.12-1.359-0.12c-0.16,0-0.32-0.079-0.32-0.239
		c0-0.24,0.2-0.32,0.64-0.32c1.799,0,4.318,0.12,4.518,0.12s2.719-0.12,3.918-0.12c0.44,0,0.64,0.08,0.64,0.32
		c0,0.16-0.16,0.239-0.32,0.239c-0.28,0-0.52,0.04-1,0.12c-1.08,0.2-1.399,0.88-1.479,2.279c-0.08,1.279-0.08,2.479-0.08,4.157
		v4.478c0,1.799-0.04,1.879-0.52,2.159c-2.559,1.359-6.157,1.799-8.476,1.799c-3.038,0-8.715-0.399-13.153-4.277
		c-2.438-2.119-4.757-6.396-4.757-11.395c0-6.396,3.118-10.913,6.676-13.152c3.598-2.239,7.556-2.519,10.634-2.519
		c2.519,0,5.357,0.52,6.117,0.68c0.839,0.2,2.239,0.359,3.238,0.399c0.399,0.04,0.479,0.2,0.479,0.36c0,0.56-0.28,1.679-0.28,5.677
		c0,0.64-0.08,0.839-0.36,0.839c-0.2,0-0.24-0.239-0.28-0.6c-0.04-0.56-0.24-1.679-0.839-2.638c-1-1.52-4.238-3.238-9.395-3.238
		c-2.519,0-5.517,0.239-8.555,2.638c-2.319,1.84-3.958,5.478-3.958,10.155c0,5.637,2.838,9.714,4.238,11.073
		c3.158,3.078,6.796,4.278,10.474,4.278c1.439,0,3.518-0.24,4.558-0.84c0.52-0.28,0.799-0.72,0.799-1.399V122.733z"/>
	<path class="st0" d="M103.893,184.003c-0.56-0.28-0.6-0.44-0.6-1.52c0-1.999,0.16-3.598,0.2-4.237c0.04-0.44,0.12-0.64,0.32-0.64
		c0.24,0,0.28,0.119,0.28,0.439c0,0.359,0,0.919,0.12,1.479c0.6,2.958,3.238,4.077,5.917,4.077c3.838,0,5.717-2.758,5.717-5.316
		c0-2.759-1.159-4.358-4.597-7.196l-1.799-1.479c-4.237-3.478-5.197-5.957-5.197-8.675c0-4.278,3.198-7.196,8.275-7.196
		c1.559,0,2.718,0.16,3.718,0.399c0.76,0.16,1.08,0.2,1.399,0.2s0.399,0.08,0.399,0.28c0,0.199-0.16,1.519-0.16,4.237
		c0,0.64-0.08,0.919-0.28,0.919c-0.24,0-0.28-0.199-0.32-0.52c-0.04-0.479-0.28-1.559-0.52-1.999
		c-0.24-0.439-1.319-2.118-4.997-2.118c-2.758,0-4.917,1.719-4.917,4.637c0,2.279,1.039,3.719,4.877,6.717l1.12,0.88
		c4.717,3.718,5.836,6.196,5.836,9.395c0,1.639-0.64,4.678-3.398,6.637c-1.719,1.199-3.878,1.679-6.037,1.679
		C107.371,185.082,105.532,184.802,103.893,184.003z"/>
	<path class="st0" d="M139.201,172.929c0,3.838,0,6.996,0.2,8.675c0.12,1.16,0.36,2.039,1.56,2.199c0.56,0.08,1.439,0.16,1.799,0.16
		c0.24,0,0.32,0.119,0.32,0.239c0,0.2-0.2,0.32-0.64,0.32c-2.199,0-4.717-0.12-4.917-0.12c-0.2,0-2.718,0.12-3.917,0.12
		c-0.44,0-0.64-0.08-0.64-0.32c0-0.12,0.08-0.239,0.32-0.239c0.359,0,0.839-0.08,1.199-0.16c0.799-0.16,1-1.039,1.159-2.199
		c0.2-1.679,0.2-4.837,0.2-8.675v-16.911l-5.917,0.08c-2.479,0.04-3.438,0.32-4.078,1.279c-0.44,0.68-0.56,0.96-0.68,1.239
		c-0.12,0.32-0.24,0.4-0.4,0.4c-0.12,0-0.2-0.12-0.2-0.36c0-0.399,0.799-3.838,0.879-4.157c0.08-0.24,0.24-0.76,0.4-0.76
		c0.28,0,0.68,0.399,1.759,0.479c1.16,0.12,2.679,0.2,3.159,0.2h14.992c1.279,0,2.199-0.08,2.838-0.2
		c0.6-0.08,0.959-0.199,1.119-0.199c0.2,0,0.2,0.239,0.2,0.479c0,1.199-0.12,3.958-0.12,4.397c0,0.359-0.12,0.52-0.28,0.52
		c-0.2,0-0.28-0.12-0.32-0.68l-0.04-0.439c-0.12-1.199-1.08-2.119-4.917-2.199l-5.037-0.08V172.929z"/>
	<path class="st0" d="M169.994,153.739c8.995,0,15.711,5.677,15.711,14.991c0,8.955-6.317,16.352-15.952,16.352
		c-10.954,0-15.511-8.516-15.511-15.711C154.242,162.894,158.959,153.739,169.994,153.739z M170.833,183.562
		c3.598,0,11.034-2.078,11.034-13.712c0-9.595-5.837-14.752-12.153-14.752c-6.676,0-11.674,4.397-11.674,13.152
		C158.04,177.566,163.637,183.562,170.833,183.562z"/>
	<path class="st0" d="M195.318,165.893c0-6.236,0-7.356-0.08-8.636c-0.08-1.358-0.4-1.998-1.719-2.278
		c-0.32-0.08-0.999-0.12-1.359-0.12c-0.16,0-0.32-0.08-0.32-0.239c0-0.24,0.2-0.32,0.64-0.32c1.799,0,4.317,0.12,4.518,0.12
		c0.439,0,3.478-0.12,4.717-0.12c2.519,0,5.197,0.24,7.316,1.759c1,0.72,2.758,2.679,2.758,5.438c0,2.958-1.239,5.917-4.837,9.234
		c3.278,4.198,5.997,7.756,8.315,10.234c2.159,2.279,3.878,2.719,4.877,2.879c0.76,0.12,1.319,0.12,1.559,0.12
		c0.2,0,0.36,0.119,0.36,0.239c0,0.24-0.24,0.32-0.959,0.32h-2.838c-2.239,0-3.238-0.2-4.278-0.76
		c-1.719-0.92-3.118-2.878-5.397-5.877c-1.679-2.198-3.558-4.877-4.357-5.917c-0.16-0.159-0.28-0.239-0.52-0.239l-4.917-0.08
		c-0.2,0-0.28,0.12-0.28,0.319v0.96c0,3.838,0,6.996,0.2,8.675c0.12,1.16,0.36,2.039,1.559,2.199c0.56,0.08,1.439,0.16,1.799,0.16
		c0.24,0,0.32,0.119,0.32,0.239c0,0.2-0.2,0.32-0.64,0.32c-2.199,0-4.718-0.12-4.917-0.12c-0.04,0-2.559,0.12-3.758,0.12
		c-0.44,0-0.64-0.08-0.64-0.32c0-0.12,0.08-0.239,0.32-0.239c0.36,0,0.839-0.08,1.199-0.16c0.799-0.16,1-1.039,1.159-2.199
		c0.2-1.679,0.2-4.837,0.2-8.675V165.893z M198.517,169.371c0,0.199,0.08,0.359,0.28,0.479c0.6,0.359,2.438,0.64,4.198,0.64
		c0.959,0,2.079-0.12,2.998-0.76c1.399-0.96,2.439-3.118,2.439-6.156c0-4.998-2.639-7.996-6.917-7.996
		c-1.199,0-2.279,0.12-2.678,0.24c-0.2,0.08-0.32,0.239-0.32,0.479V169.371z"/>
	<path class="st0" d="M231.516,174.168c0-2.159-0.4-3.038-0.919-4.197c-0.28-0.64-5.637-9.436-7.036-11.514
		c-1-1.479-1.999-2.479-2.719-2.959c-0.6-0.399-1.359-0.64-1.719-0.64c-0.2,0-0.4-0.08-0.4-0.279c0-0.16,0.16-0.28,0.52-0.28
		c0.76,0,3.758,0.12,3.958,0.12c0.28,0,1.799-0.12,3.358-0.12c0.44,0,0.52,0.12,0.52,0.28c0,0.159-0.24,0.199-0.6,0.359
		c-0.32,0.16-0.52,0.399-0.52,0.72c0,0.479,0.2,0.959,0.52,1.559c0.64,1.16,6.636,11.475,7.356,12.634
		c0.759-1.68,5.836-10.435,6.636-11.754c0.52-0.84,0.68-1.519,0.68-2.039c0-0.56-0.16-0.999-0.64-1.119
		c-0.36-0.12-0.6-0.2-0.6-0.399c0-0.16,0.24-0.24,0.64-0.24c1.039,0,2.318,0.12,2.638,0.12c0.24,0,3.119-0.12,3.878-0.12
		c0.28,0,0.52,0.08,0.52,0.24c0,0.199-0.2,0.319-0.52,0.319c-0.439,0-1.199,0.16-1.839,0.56c-0.799,0.48-1.239,0.96-2.119,2.039
		c-1.319,1.6-6.917,10.994-7.636,12.713c-0.6,1.439-0.6,2.679-0.6,3.998v3.438c0,0.64,0,2.318,0.12,3.997
		c0.08,1.16,0.44,2.039,1.639,2.199c0.56,0.08,1.439,0.16,1.799,0.16c0.24,0,0.32,0.119,0.32,0.239c0,0.2-0.2,0.32-0.64,0.32
		c-2.199,0-4.717-0.12-4.917-0.12c-0.2,0-2.719,0.12-3.918,0.12c-0.44,0-0.64-0.08-0.64-0.32c0-0.12,0.08-0.239,0.32-0.239
		c0.36,0,0.839-0.08,1.199-0.16c0.8-0.16,1.159-1.039,1.239-2.199c0.12-1.679,0.12-3.357,0.12-3.997V174.168z"/>
	<path class="st0" d="M12.474,241.296c0,1.732,0,3.159,0.09,3.917c0.054,0.523,0.163,0.921,0.704,0.993
		c0.253,0.036,0.65,0.072,0.812,0.072c0.108,0,0.145,0.054,0.145,0.108c0,0.09-0.09,0.144-0.289,0.144
		c-0.993,0-2.13-0.054-2.22-0.054s-1.228,0.054-1.769,0.054c-0.199,0-0.289-0.036-0.289-0.144c0-0.055,0.036-0.108,0.145-0.108
		c0.163,0,0.379-0.036,0.542-0.072c0.361-0.072,0.451-0.47,0.523-0.993c0.09-0.758,0.09-2.185,0.09-3.917V239.4
		c0-0.072-0.054-0.108-0.108-0.108H3.195c-0.054,0-0.108,0.019-0.108,0.108v1.896c0,1.732,0,3.159,0.09,3.917
		c0.054,0.523,0.162,0.921,0.704,0.993c0.253,0.036,0.65,0.072,0.812,0.072c0.108,0,0.145,0.054,0.145,0.108
		c0,0.09-0.09,0.144-0.289,0.144c-0.993,0-2.13-0.054-2.22-0.054s-1.228,0.054-1.769,0.054c-0.198,0-0.289-0.036-0.289-0.144
		c0-0.055,0.036-0.108,0.144-0.108c0.163,0,0.379-0.036,0.542-0.072c0.361-0.072,0.452-0.47,0.524-0.993
		c0.09-0.758,0.09-2.185,0.09-3.917v-3.177c0-2.816,0-3.321-0.036-3.899c-0.036-0.613-0.181-0.902-0.776-1.028
		c-0.145-0.036-0.451-0.055-0.614-0.055c-0.072,0-0.145-0.036-0.145-0.108c0-0.108,0.09-0.145,0.289-0.145
		c0.812,0,1.949,0.055,2.04,0.055s1.228-0.055,1.769-0.055c0.199,0,0.289,0.036,0.289,0.145c0,0.072-0.072,0.108-0.145,0.108
		c-0.126,0-0.235,0.019-0.451,0.055c-0.488,0.09-0.632,0.396-0.668,1.028c-0.036,0.578-0.036,1.083-0.036,3.899v0.379
		c0,0.09,0.054,0.108,0.108,0.108h7.653c0.054,0,0.108-0.019,0.108-0.108v-0.379c0-2.816,0-3.321-0.036-3.899
		c-0.036-0.613-0.18-0.902-0.776-1.028c-0.145-0.036-0.452-0.055-0.614-0.055c-0.072,0-0.145-0.036-0.145-0.108
		c0-0.108,0.09-0.145,0.289-0.145c0.812,0,1.95,0.055,2.04,0.055s1.228-0.055,1.769-0.055c0.198,0,0.289,0.036,0.289,0.145
		c0,0.072-0.072,0.108-0.144,0.108c-0.126,0-0.235,0.019-0.452,0.055c-0.487,0.09-0.632,0.396-0.668,1.028
		c-0.036,0.578-0.036,1.083-0.036,3.899V241.296z"/>
	<path class="st0" d="M23.612,232.631c4.062,0,7.094,2.563,7.094,6.77c0,4.044-2.852,7.383-7.202,7.383
		c-4.946,0-7.004-3.845-7.004-7.094C16.5,236.765,18.629,232.631,23.612,232.631z M23.991,246.098c1.625,0,4.982-0.938,4.982-6.191
		c0-4.333-2.635-6.661-5.487-6.661c-3.015,0-5.271,1.985-5.271,5.938C18.214,243.39,20.742,246.098,23.991,246.098z"/>
	<path class="st0" d="M39.041,241.296c0,1.732,0,3.159,0.09,3.917c0.054,0.523,0.162,0.921,0.704,0.993
		c0.253,0.036,0.65,0.072,0.812,0.072c0.108,0,0.145,0.054,0.145,0.108c0,0.09-0.09,0.144-0.289,0.144
		c-0.993,0-2.13-0.054-2.22-0.054s-1.228,0.054-1.769,0.054c-0.199,0-0.289-0.036-0.289-0.144c0-0.055,0.036-0.108,0.144-0.108
		c0.163,0,0.379-0.036,0.542-0.072c0.361-0.072,0.452-0.47,0.524-0.993c0.09-0.758,0.09-2.185,0.09-3.917v-7.636l-2.671,0.036
		c-1.119,0.019-1.552,0.145-1.841,0.578c-0.198,0.307-0.252,0.433-0.307,0.56c-0.054,0.144-0.108,0.18-0.181,0.18
		c-0.054,0-0.09-0.054-0.09-0.162c0-0.181,0.361-1.732,0.397-1.877c0.036-0.108,0.108-0.344,0.18-0.344
		c0.126,0,0.307,0.181,0.794,0.217c0.523,0.055,1.209,0.091,1.426,0.091h6.77c0.578,0,0.993-0.036,1.281-0.091
		c0.271-0.036,0.434-0.09,0.506-0.09c0.09,0,0.09,0.108,0.09,0.217c0,0.541-0.054,1.787-0.054,1.985
		c0,0.162-0.054,0.234-0.126,0.234c-0.09,0-0.126-0.054-0.145-0.307l-0.018-0.198c-0.054-0.542-0.487-0.957-2.22-0.993l-2.274-0.036
		V241.296z"/>
	<path class="st0" d="M48.111,238.119c0-2.816,0-3.321-0.036-3.899c-0.036-0.613-0.18-0.902-0.776-1.028
		c-0.145-0.036-0.451-0.055-0.614-0.055c-0.072,0-0.145-0.036-0.145-0.108c0-0.108,0.09-0.145,0.289-0.145
		c0.415,0,0.902,0,1.299,0.019l0.74,0.036c0.126,0,3.719,0,4.134-0.019c0.343-0.018,0.632-0.054,0.776-0.09
		c0.09-0.019,0.162-0.091,0.252-0.091c0.054,0,0.072,0.072,0.072,0.163c0,0.126-0.09,0.343-0.145,0.849
		c-0.018,0.18-0.054,0.975-0.09,1.19c-0.018,0.091-0.054,0.199-0.126,0.199c-0.108,0-0.145-0.091-0.145-0.234
		c0-0.127-0.018-0.434-0.108-0.65c-0.126-0.289-0.307-0.505-1.282-0.613c-0.307-0.036-2.274-0.055-2.473-0.055
		c-0.072,0-0.108,0.055-0.108,0.181v4.982c0,0.126,0.018,0.181,0.108,0.181c0.234,0,2.455,0,2.87-0.036
		c0.433-0.036,0.686-0.072,0.848-0.253c0.126-0.145,0.199-0.235,0.271-0.235c0.054,0,0.09,0.036,0.09,0.145s-0.09,0.415-0.145,1.011
		c-0.036,0.361-0.072,1.029-0.072,1.155c0,0.145,0,0.344-0.126,0.344c-0.09,0-0.126-0.072-0.126-0.163c0-0.181,0-0.36-0.072-0.596
		c-0.072-0.252-0.235-0.56-0.939-0.632c-0.487-0.054-2.274-0.09-2.581-0.09c-0.09,0-0.126,0.054-0.126,0.126v1.589
		c0,0.613-0.018,2.708,0,3.087c0.054,1.245,0.325,1.48,2.094,1.48c0.469,0,1.264,0,1.733-0.199c0.469-0.198,0.686-0.56,0.812-1.3
		c0.036-0.198,0.072-0.271,0.163-0.271c0.108,0,0.108,0.145,0.108,0.271c0,0.145-0.144,1.372-0.234,1.751
		c-0.126,0.47-0.271,0.47-0.975,0.47c-1.354,0-2.347-0.036-3.05-0.055c-0.704-0.036-1.137-0.054-1.408-0.054
		c-0.036,0-0.343,0-0.722,0.018c-0.361,0-0.776,0.036-1.047,0.036c-0.198,0-0.289-0.036-0.289-0.144
		c0-0.055,0.036-0.108,0.144-0.108c0.163,0,0.379-0.036,0.542-0.072c0.361-0.072,0.451-0.47,0.523-0.993
		c0.09-0.758,0.09-2.185,0.09-3.917V238.119z"/>
	<path class="st0" d="M60.449,241.332c0,2.653,0.072,3.809,0.397,4.134c0.289,0.289,0.758,0.415,2.166,0.415
		c0.957,0,1.751-0.018,2.185-0.542c0.234-0.288,0.415-0.739,0.469-1.083c0.018-0.144,0.054-0.234,0.163-0.234
		c0.09,0,0.108,0.072,0.108,0.271c0,0.199-0.126,1.282-0.271,1.806c-0.126,0.415-0.181,0.487-1.137,0.487
		c-1.3,0-2.238-0.036-2.997-0.055c-0.758-0.036-1.318-0.054-1.841-0.054c-0.072,0-0.379,0.018-0.74,0.018
		c-0.361,0.019-0.758,0.036-1.029,0.036c-0.198,0-0.289-0.036-0.289-0.144c0-0.055,0.036-0.108,0.144-0.108
		c0.163,0,0.379-0.036,0.542-0.072c0.361-0.072,0.452-0.47,0.524-0.993c0.09-0.758,0.09-2.185,0.09-3.917v-3.177
		c0-2.816,0-3.321-0.036-3.899c-0.036-0.613-0.181-0.902-0.776-1.028c-0.145-0.036-0.451-0.055-0.614-0.055
		c-0.072,0-0.145-0.036-0.145-0.108c0-0.108,0.09-0.145,0.289-0.145c0.812,0,1.949,0.055,2.04,0.055s1.408-0.055,1.95-0.055
		c0.198,0,0.289,0.036,0.289,0.145c0,0.072-0.072,0.108-0.145,0.108c-0.126,0-0.379,0.019-0.595,0.055
		c-0.524,0.09-0.668,0.396-0.704,1.028c-0.036,0.578-0.036,1.083-0.036,3.899V241.332z"/>
	<path class="st0" d="M89.825,244.202c0.072,0.649,0.199,1.661,0.975,1.913c0.524,0.163,0.993,0.163,1.173,0.163
		c0.09,0,0.145,0.018,0.145,0.09c0,0.108-0.163,0.162-0.379,0.162c-0.397,0-2.347-0.054-3.015-0.107
		c-0.415-0.036-0.505-0.091-0.505-0.181c0-0.072,0.036-0.108,0.126-0.127c0.09-0.018,0.108-0.324,0.072-0.649l-0.867-9.314h-0.054
		l-4.422,9.387c-0.379,0.794-0.433,0.956-0.596,0.956c-0.126,0-0.217-0.18-0.56-0.83c-0.469-0.885-2.022-4.007-2.112-4.188
		c-0.163-0.325-2.185-4.657-2.383-5.145h-0.072l-0.722,8.376c-0.018,0.288-0.018,0.613-0.018,0.92c0,0.271,0.199,0.506,0.469,0.56
		c0.307,0.072,0.578,0.091,0.686,0.091c0.072,0,0.145,0.036,0.145,0.09c0,0.126-0.108,0.162-0.325,0.162
		c-0.667,0-1.534-0.054-1.679-0.054c-0.162,0-1.029,0.054-1.516,0.054c-0.181,0-0.307-0.036-0.307-0.162
		c0-0.054,0.09-0.09,0.181-0.09c0.145,0,0.271,0,0.542-0.055c0.596-0.108,0.65-0.812,0.722-1.498l1.3-11.77
		c0.018-0.198,0.09-0.325,0.198-0.325c0.108,0,0.181,0.072,0.271,0.271l5.523,11.354l5.307-11.336
		c0.072-0.162,0.145-0.289,0.271-0.289c0.126,0,0.18,0.145,0.216,0.488L89.825,244.202z"/>
	<path class="st0" d="M95.964,238.119c0-2.816,0-3.321-0.036-3.899c-0.036-0.613-0.18-0.902-0.776-1.028
		c-0.145-0.036-0.451-0.055-0.614-0.055c-0.072,0-0.145-0.036-0.145-0.108c0-0.108,0.09-0.145,0.289-0.145
		c0.415,0,0.902,0,1.299,0.019l0.74,0.036c0.126,0,3.719,0,4.134-0.019c0.343-0.018,0.632-0.054,0.776-0.09
		c0.09-0.019,0.162-0.091,0.252-0.091c0.054,0,0.072,0.072,0.072,0.163c0,0.126-0.09,0.343-0.145,0.849
		c-0.018,0.18-0.054,0.975-0.09,1.19c-0.018,0.091-0.054,0.199-0.126,0.199c-0.108,0-0.145-0.091-0.145-0.234
		c0-0.127-0.018-0.434-0.108-0.65c-0.126-0.289-0.307-0.505-1.282-0.613c-0.307-0.036-2.274-0.055-2.473-0.055
		c-0.072,0-0.108,0.055-0.108,0.181v4.982c0,0.126,0.018,0.181,0.108,0.181c0.234,0,2.455,0,2.87-0.036
		c0.433-0.036,0.686-0.072,0.848-0.253c0.126-0.145,0.199-0.235,0.271-0.235c0.054,0,0.09,0.036,0.09,0.145s-0.09,0.415-0.145,1.011
		c-0.036,0.361-0.072,1.029-0.072,1.155c0,0.145,0,0.344-0.126,0.344c-0.09,0-0.126-0.072-0.126-0.163c0-0.181,0-0.36-0.072-0.596
		c-0.072-0.252-0.235-0.56-0.939-0.632c-0.487-0.054-2.274-0.09-2.581-0.09c-0.09,0-0.126,0.054-0.126,0.126v1.589
		c0,0.613-0.018,2.708,0,3.087c0.054,1.245,0.325,1.48,2.094,1.48c0.469,0,1.264,0,1.733-0.199c0.469-0.198,0.686-0.56,0.812-1.3
		c0.036-0.198,0.072-0.271,0.163-0.271c0.108,0,0.108,0.145,0.108,0.271c0,0.145-0.144,1.372-0.234,1.751
		c-0.126,0.47-0.271,0.47-0.975,0.47c-1.354,0-2.347-0.036-3.05-0.055c-0.704-0.036-1.137-0.054-1.408-0.054
		c-0.036,0-0.343,0-0.722,0.018c-0.361,0-0.776,0.036-1.047,0.036c-0.198,0-0.289-0.036-0.289-0.144
		c0-0.055,0.036-0.108,0.144-0.108c0.163,0,0.379-0.036,0.542-0.072c0.361-0.072,0.451-0.47,0.523-0.993
		c0.09-0.758,0.09-2.185,0.09-3.917V238.119z"/>
	<path class="st0" d="M111.133,241.296c0,1.732,0,3.159,0.09,3.917c0.054,0.523,0.162,0.921,0.704,0.993
		c0.253,0.036,0.65,0.072,0.812,0.072c0.108,0,0.145,0.054,0.145,0.108c0,0.09-0.09,0.144-0.289,0.144
		c-0.993,0-2.13-0.054-2.22-0.054s-1.228,0.054-1.769,0.054c-0.198,0-0.289-0.036-0.289-0.144c0-0.055,0.036-0.108,0.144-0.108
		c0.163,0,0.379-0.036,0.542-0.072c0.361-0.072,0.452-0.47,0.524-0.993c0.09-0.758,0.09-2.185,0.09-3.917v-7.636l-2.671,0.036
		c-1.119,0.019-1.552,0.145-1.841,0.578c-0.198,0.307-0.252,0.433-0.307,0.56c-0.054,0.144-0.108,0.18-0.181,0.18
		c-0.054,0-0.09-0.054-0.09-0.162c0-0.181,0.361-1.732,0.397-1.877c0.036-0.108,0.108-0.344,0.18-0.344
		c0.126,0,0.307,0.181,0.794,0.217c0.523,0.055,1.209,0.091,1.426,0.091h6.77c0.578,0,0.993-0.036,1.281-0.091
		c0.271-0.036,0.434-0.09,0.506-0.09c0.09,0,0.09,0.108,0.09,0.217c0,0.541-0.054,1.787-0.054,1.985
		c0,0.162-0.054,0.234-0.126,0.234c-0.09,0-0.126-0.054-0.145-0.307l-0.018-0.198c-0.054-0.542-0.487-0.957-2.22-0.993l-2.274-0.036
		V241.296z"/>
	<path class="st0" d="M120.203,238.119c0-2.816,0-3.321-0.036-3.899c-0.036-0.613-0.181-0.902-0.776-1.028
		c-0.145-0.036-0.451-0.055-0.614-0.055c-0.072,0-0.145-0.036-0.145-0.108c0-0.108,0.09-0.145,0.289-0.145
		c0.812,0,1.949,0.055,2.04,0.055c0.199,0,1.57-0.055,2.13-0.055c1.137,0,2.347,0.108,3.304,0.795
		c0.451,0.324,1.246,1.209,1.246,2.454c0,1.336-0.56,2.672-2.185,4.17c1.48,1.896,2.708,3.502,3.755,4.621
		c0.975,1.029,1.751,1.228,2.202,1.3c0.343,0.055,0.596,0.055,0.704,0.055c0.09,0,0.163,0.054,0.163,0.108
		c0,0.107-0.108,0.144-0.434,0.144h-1.281c-1.011,0-1.462-0.09-1.932-0.343c-0.776-0.415-1.408-1.3-2.437-2.653
		c-0.758-0.993-1.606-2.202-1.968-2.672c-0.072-0.072-0.126-0.108-0.234-0.108l-2.22-0.036c-0.09,0-0.126,0.055-0.126,0.145v0.434
		c0,1.732,0,3.159,0.09,3.917c0.054,0.523,0.162,0.921,0.704,0.993c0.252,0.036,0.649,0.072,0.812,0.072
		c0.108,0,0.145,0.054,0.145,0.108c0,0.09-0.09,0.144-0.289,0.144c-0.993,0-2.13-0.054-2.22-0.054c-0.018,0-1.155,0.054-1.697,0.054
		c-0.198,0-0.289-0.036-0.289-0.144c0-0.055,0.036-0.108,0.144-0.108c0.163,0,0.379-0.036,0.542-0.072
		c0.361-0.072,0.452-0.47,0.524-0.993c0.09-0.758,0.09-2.185,0.09-3.917V238.119z M121.647,239.689c0,0.09,0.036,0.162,0.126,0.217
		c0.271,0.162,1.101,0.288,1.895,0.288c0.434,0,0.939-0.054,1.354-0.343c0.632-0.433,1.101-1.408,1.101-2.779
		c0-2.257-1.191-3.61-3.123-3.61c-0.542,0-1.029,0.054-1.209,0.108c-0.09,0.036-0.145,0.108-0.145,0.216V239.689z"/>
	<path class="st0" d="M139.153,232.631c4.062,0,7.094,2.563,7.094,6.77c0,4.044-2.852,7.383-7.202,7.383
		c-4.946,0-7.004-3.845-7.004-7.094C132.041,236.765,134.171,232.631,139.153,232.631z M139.532,246.098
		c1.625,0,4.982-0.938,4.982-6.191c0-4.333-2.635-6.661-5.487-6.661c-3.015,0-5.271,1.985-5.271,5.938
		C133.756,243.39,136.283,246.098,139.532,246.098z"/>
	<path class="st0" d="M150.316,238.119c0-2.816,0-3.321-0.036-3.899c-0.036-0.613-0.181-0.902-0.776-1.028
		c-0.145-0.036-0.451-0.055-0.614-0.055c-0.072,0-0.145-0.036-0.145-0.108c0-0.108,0.09-0.145,0.289-0.145
		c0.812,0,1.895,0.055,2.04,0.055c0.397,0,1.444-0.055,2.274-0.055c2.256,0,3.069,0.759,3.357,1.029
		c0.397,0.379,0.903,1.191,0.903,2.148c0,2.562-1.877,4.296-4.441,4.296c-0.09,0-0.289,0-0.379-0.019
		c-0.09,0-0.198-0.036-0.198-0.126c0-0.145,0.108-0.162,0.487-0.162c1.751,0,3.123-1.282,3.123-2.942
		c0-0.596-0.054-1.806-1.011-2.78s-2.058-0.902-2.473-0.902c-0.307,0-0.614,0.036-0.776,0.108c-0.108,0.036-0.145,0.162-0.145,0.343
		v7.419c0,1.732,0,3.159,0.09,3.917c0.054,0.523,0.162,0.921,0.704,0.993c0.252,0.036,0.649,0.072,0.812,0.072
		c0.108,0,0.145,0.054,0.145,0.108c0,0.09-0.09,0.144-0.289,0.144c-0.993,0-2.13-0.054-2.22-0.054c-0.054,0-1.191,0.054-1.733,0.054
		c-0.198,0-0.289-0.036-0.289-0.144c0-0.055,0.036-0.108,0.144-0.108c0.163,0,0.379-0.036,0.542-0.072
		c0.361-0.072,0.452-0.47,0.524-0.993c0.09-0.758,0.09-2.185,0.09-3.917V238.119z"/>
	<path class="st0" d="M167.147,232.631c4.062,0,7.094,2.563,7.094,6.77c0,4.044-2.852,7.383-7.202,7.383
		c-4.946,0-7.004-3.845-7.004-7.094C160.035,236.765,162.165,232.631,167.147,232.631z M167.526,246.098
		c1.625,0,4.982-0.938,4.982-6.191c0-4.333-2.635-6.661-5.487-6.661c-3.015,0-5.271,1.985-5.271,5.938
		C161.75,243.39,164.277,246.098,167.526,246.098z"/>
	<path class="st0" d="M179.827,241.332c0,2.653,0.072,3.809,0.397,4.134c0.289,0.289,0.758,0.415,2.166,0.415
		c0.957,0,1.751-0.018,2.185-0.542c0.234-0.288,0.415-0.739,0.469-1.083c0.018-0.144,0.054-0.234,0.162-0.234
		c0.09,0,0.108,0.072,0.108,0.271c0,0.199-0.126,1.282-0.271,1.806c-0.126,0.415-0.181,0.487-1.137,0.487
		c-1.3,0-2.238-0.036-2.997-0.055c-0.758-0.036-1.318-0.054-1.841-0.054c-0.072,0-0.379,0.018-0.74,0.018
		c-0.361,0.019-0.758,0.036-1.029,0.036c-0.198,0-0.289-0.036-0.289-0.144c0-0.055,0.036-0.108,0.144-0.108
		c0.163,0,0.379-0.036,0.542-0.072c0.361-0.072,0.451-0.47,0.523-0.993c0.09-0.758,0.09-2.185,0.09-3.917v-3.177
		c0-2.816,0-3.321-0.036-3.899c-0.036-0.613-0.18-0.902-0.776-1.028c-0.145-0.036-0.451-0.055-0.614-0.055
		c-0.072,0-0.145-0.036-0.145-0.108c0-0.108,0.09-0.145,0.289-0.145c0.812,0,1.949,0.055,2.04,0.055s1.408-0.055,1.95-0.055
		c0.198,0,0.289,0.036,0.289,0.145c0,0.072-0.072,0.108-0.144,0.108c-0.126,0-0.379,0.019-0.596,0.055
		c-0.524,0.09-0.668,0.396-0.704,1.028c-0.036,0.578-0.036,1.083-0.036,3.899V241.332z"/>
	<path class="st0" d="M190.725,241.296c0,1.732,0,3.159,0.09,3.917c0.054,0.523,0.162,0.921,0.704,0.993
		c0.253,0.036,0.65,0.072,0.812,0.072c0.108,0,0.145,0.054,0.145,0.108c0,0.09-0.09,0.144-0.289,0.144
		c-0.993,0-2.13-0.054-2.22-0.054s-1.228,0.054-1.769,0.054c-0.198,0-0.289-0.036-0.289-0.144c0-0.055,0.036-0.108,0.144-0.108
		c0.163,0,0.379-0.036,0.542-0.072c0.361-0.072,0.452-0.47,0.524-0.993c0.09-0.758,0.09-2.185,0.09-3.917v-3.177
		c0-2.816,0-3.321-0.036-3.899c-0.036-0.613-0.217-0.921-0.614-1.011c-0.199-0.054-0.434-0.072-0.56-0.072
		c-0.072,0-0.145-0.036-0.145-0.108c0-0.108,0.09-0.145,0.289-0.145c0.596,0,1.733,0.055,1.823,0.055s1.228-0.055,1.769-0.055
		c0.199,0,0.289,0.036,0.289,0.145c0,0.072-0.072,0.108-0.145,0.108c-0.126,0-0.235,0.019-0.451,0.055
		c-0.488,0.09-0.632,0.396-0.668,1.028c-0.036,0.578-0.036,1.083-0.036,3.899V241.296z"/>
	<path class="st0" d="M201.197,241.296c0,1.732,0,3.159,0.09,3.917c0.054,0.523,0.162,0.921,0.704,0.993
		c0.253,0.036,0.65,0.072,0.812,0.072c0.108,0,0.145,0.054,0.145,0.108c0,0.09-0.09,0.144-0.289,0.144
		c-0.993,0-2.13-0.054-2.22-0.054s-1.228,0.054-1.769,0.054c-0.199,0-0.289-0.036-0.289-0.144c0-0.055,0.036-0.108,0.144-0.108
		c0.163,0,0.379-0.036,0.542-0.072c0.361-0.072,0.452-0.47,0.524-0.993c0.09-0.758,0.09-2.185,0.09-3.917v-7.636l-2.671,0.036
		c-1.119,0.019-1.552,0.145-1.841,0.578c-0.198,0.307-0.252,0.433-0.307,0.56c-0.054,0.144-0.108,0.18-0.181,0.18
		c-0.054,0-0.09-0.054-0.09-0.162c0-0.181,0.361-1.732,0.397-1.877c0.036-0.108,0.108-0.344,0.18-0.344
		c0.126,0,0.307,0.181,0.794,0.217c0.523,0.055,1.209,0.091,1.426,0.091h6.77c0.578,0,0.993-0.036,1.281-0.091
		c0.271-0.036,0.434-0.09,0.506-0.09c0.09,0,0.09,0.108,0.09,0.217c0,0.541-0.054,1.787-0.054,1.985
		c0,0.162-0.054,0.234-0.126,0.234c-0.09,0-0.126-0.054-0.145-0.307l-0.018-0.198c-0.054-0.542-0.487-0.957-2.22-0.993l-2.274-0.036
		V241.296z"/>
	<path class="st0" d="M212.383,233.335c0.217-0.596,0.289-0.704,0.397-0.704s0.181,0.091,0.397,0.65
		c0.271,0.686,3.104,8.141,4.206,10.885c0.65,1.606,1.173,1.896,1.553,2.004c0.271,0.09,0.542,0.108,0.722,0.108
		c0.108,0,0.181,0.018,0.181,0.108c0,0.107-0.163,0.144-0.361,0.144c-0.271,0-1.589,0-2.834-0.036
		c-0.343-0.018-0.542-0.018-0.542-0.126c0-0.072,0.054-0.108,0.126-0.126c0.108-0.036,0.217-0.199,0.108-0.487l-1.679-4.441
		c-0.036-0.071-0.072-0.107-0.163-0.107h-3.881c-0.09,0-0.145,0.054-0.181,0.144l-1.083,3.195c-0.163,0.451-0.252,0.885-0.252,1.21
		c0,0.36,0.379,0.523,0.686,0.523h0.181c0.126,0,0.181,0.036,0.181,0.108c0,0.107-0.108,0.144-0.271,0.144
		c-0.433,0-1.209-0.054-1.408-0.054c-0.199,0-1.191,0.054-2.04,0.054c-0.234,0-0.343-0.036-0.343-0.144
		c0-0.072,0.072-0.108,0.163-0.108c0.126,0,0.379-0.019,0.523-0.036c0.83-0.108,1.191-0.795,1.516-1.697L212.383,233.335z
		 M214.26,240.556c0.09,0,0.09-0.054,0.072-0.126l-1.715-4.874c-0.09-0.271-0.181-0.271-0.271,0l-1.588,4.874
		c-0.036,0.09,0,0.126,0.054,0.126H214.26z"/>
	<path class="st0" d="M224.195,244.076c0.036,1.479,0.216,1.949,0.704,2.094c0.343,0.09,0.74,0.108,0.903,0.108
		c0.09,0,0.145,0.036,0.145,0.108c0,0.107-0.108,0.144-0.325,0.144c-1.029,0-1.751-0.054-1.914-0.054
		c-0.162,0-0.92,0.054-1.733,0.054c-0.18,0-0.289-0.018-0.289-0.144c0-0.072,0.054-0.108,0.145-0.108
		c0.144,0,0.469-0.019,0.74-0.108c0.452-0.127,0.542-0.65,0.542-2.293l0.018-10.343c0-0.704,0.054-0.903,0.199-0.903
		s0.451,0.397,0.632,0.578c0.271,0.307,2.96,3.213,5.74,6.191c1.787,1.913,3.755,4.116,4.333,4.712l-0.199-9.171
		c-0.018-1.173-0.145-1.57-0.704-1.715c-0.325-0.071-0.74-0.09-0.884-0.09c-0.126,0-0.145-0.054-0.145-0.126
		c0-0.108,0.145-0.127,0.361-0.127c0.812,0,1.679,0.055,1.877,0.055s0.794-0.055,1.534-0.055c0.199,0,0.325,0.019,0.325,0.127
		c0,0.072-0.072,0.126-0.199,0.126c-0.09,0-0.216,0-0.433,0.055c-0.596,0.126-0.668,0.523-0.668,1.606l-0.036,10.577
		c0,1.191-0.036,1.282-0.163,1.282c-0.144,0-0.361-0.198-1.317-1.155c-0.199-0.181-2.798-2.834-4.711-4.892
		c-2.094-2.257-4.134-4.531-4.711-5.181L224.195,244.076z"/>
	<path class="st0" d="M261.01,244.202c0.072,0.649,0.199,1.661,0.975,1.913c0.523,0.163,0.993,0.163,1.173,0.163
		c0.09,0,0.145,0.018,0.145,0.09c0,0.108-0.162,0.162-0.379,0.162c-0.397,0-2.347-0.054-3.015-0.107
		c-0.415-0.036-0.505-0.091-0.505-0.181c0-0.072,0.036-0.108,0.126-0.127c0.09-0.018,0.108-0.324,0.072-0.649l-0.867-9.314h-0.054
		l-4.422,9.387c-0.379,0.794-0.433,0.956-0.596,0.956c-0.126,0-0.217-0.18-0.56-0.83c-0.469-0.885-2.022-4.007-2.112-4.188
		c-0.163-0.325-2.185-4.657-2.383-5.145h-0.072l-0.722,8.376c-0.018,0.288-0.018,0.613-0.018,0.92c0,0.271,0.199,0.506,0.469,0.56
		c0.307,0.072,0.578,0.091,0.686,0.091c0.072,0,0.145,0.036,0.145,0.09c0,0.126-0.108,0.162-0.325,0.162
		c-0.667,0-1.534-0.054-1.679-0.054c-0.162,0-1.029,0.054-1.516,0.054c-0.181,0-0.307-0.036-0.307-0.162
		c0-0.054,0.09-0.09,0.181-0.09c0.145,0,0.271,0,0.542-0.055c0.596-0.108,0.65-0.812,0.722-1.498l1.3-11.77
		c0.018-0.198,0.09-0.325,0.198-0.325c0.108,0,0.181,0.072,0.271,0.271l5.523,11.354l5.307-11.336
		c0.072-0.162,0.145-0.289,0.271-0.289c0.126,0,0.18,0.145,0.216,0.488L261.01,244.202z"/>
	<path class="st0" d="M271.538,232.631c4.062,0,7.094,2.563,7.094,6.77c0,4.044-2.852,7.383-7.202,7.383
		c-4.946,0-7.004-3.845-7.004-7.094C264.425,236.765,266.555,232.631,271.538,232.631z M271.917,246.098
		c1.625,0,4.982-0.938,4.982-6.191c0-4.333-2.635-6.661-5.487-6.661c-3.015,0-5.271,1.985-5.271,5.938
		C266.14,243.39,268.667,246.098,271.917,246.098z"/>
	<path class="st0" d="M282.701,238.119c0-2.816,0-3.321-0.036-3.899c-0.036-0.613-0.18-0.902-0.776-1.028
		c-0.145-0.036-0.451-0.055-0.614-0.055c-0.072,0-0.145-0.036-0.145-0.108c0-0.108,0.09-0.145,0.289-0.145
		c0.812,0,1.949,0.055,2.04,0.055c0.199,0,1.57-0.055,2.13-0.055c1.137,0,2.347,0.108,3.304,0.795
		c0.451,0.324,1.246,1.209,1.246,2.454c0,1.336-0.56,2.672-2.185,4.17c1.48,1.896,2.708,3.502,3.755,4.621
		c0.975,1.029,1.751,1.228,2.202,1.3c0.343,0.055,0.596,0.055,0.704,0.055c0.09,0,0.163,0.054,0.163,0.108
		c0,0.107-0.108,0.144-0.434,0.144h-1.282c-1.011,0-1.462-0.09-1.931-0.343c-0.776-0.415-1.408-1.3-2.437-2.653
		c-0.758-0.993-1.606-2.202-1.968-2.672c-0.072-0.072-0.126-0.108-0.234-0.108l-2.22-0.036c-0.09,0-0.126,0.055-0.126,0.145v0.434
		c0,1.732,0,3.159,0.09,3.917c0.054,0.523,0.163,0.921,0.704,0.993c0.252,0.036,0.649,0.072,0.812,0.072
		c0.108,0,0.145,0.054,0.145,0.108c0,0.09-0.09,0.144-0.289,0.144c-0.993,0-2.13-0.054-2.22-0.054c-0.018,0-1.155,0.054-1.697,0.054
		c-0.198,0-0.289-0.036-0.289-0.144c0-0.055,0.036-0.108,0.144-0.108c0.163,0,0.379-0.036,0.542-0.072
		c0.361-0.072,0.451-0.47,0.523-0.993c0.09-0.758,0.09-2.185,0.09-3.917V238.119z M284.145,239.689c0,0.09,0.036,0.162,0.126,0.217
		c0.271,0.162,1.101,0.288,1.895,0.288c0.434,0,0.939-0.054,1.354-0.343c0.632-0.433,1.101-1.408,1.101-2.779
		c0-2.257-1.191-3.61-3.123-3.61c-0.542,0-1.029,0.054-1.209,0.108c-0.09,0.036-0.145,0.108-0.145,0.216V239.689z"/>
	<path class="st0" d="M299.281,241.296c0,1.732,0,3.159,0.09,3.917c0.054,0.523,0.162,0.921,0.704,0.993
		c0.253,0.036,0.65,0.072,0.812,0.072c0.108,0,0.145,0.054,0.145,0.108c0,0.09-0.09,0.144-0.289,0.144
		c-0.993,0-2.13-0.054-2.22-0.054s-1.228,0.054-1.769,0.054c-0.198,0-0.289-0.036-0.289-0.144c0-0.055,0.036-0.108,0.144-0.108
		c0.163,0,0.379-0.036,0.542-0.072c0.361-0.072,0.452-0.47,0.524-0.993c0.09-0.758,0.09-2.185,0.09-3.917v-3.177
		c0-2.816,0-3.321-0.036-3.899c-0.036-0.613-0.217-0.921-0.614-1.011c-0.199-0.054-0.434-0.072-0.56-0.072
		c-0.072,0-0.145-0.036-0.145-0.108c0-0.108,0.09-0.145,0.289-0.145c0.596,0,1.733,0.055,1.823,0.055s1.228-0.055,1.769-0.055
		c0.199,0,0.289,0.036,0.289,0.145c0,0.072-0.072,0.108-0.145,0.108c-0.126,0-0.235,0.019-0.451,0.055
		c-0.488,0.09-0.632,0.396-0.668,1.028c-0.036,0.578-0.036,1.083-0.036,3.899V241.296z"/>
	<path class="st0" d="M310.378,232.631c4.062,0,7.094,2.563,7.094,6.77c0,4.044-2.852,7.383-7.202,7.383
		c-4.946,0-7.004-3.845-7.004-7.094C303.266,236.765,305.396,232.631,310.378,232.631z M310.757,246.098
		c1.625,0,4.982-0.938,4.982-6.191c0-4.333-2.635-6.661-5.487-6.661c-3.015,0-5.271,1.985-5.271,5.938
		C304.981,243.39,307.508,246.098,310.757,246.098z"/>
	<path class="st0" d="M321.542,238.119c0-2.816,0-3.321-0.036-3.899c-0.036-0.613-0.18-0.902-0.776-1.028
		c-0.145-0.036-0.451-0.055-0.614-0.055c-0.072,0-0.145-0.036-0.145-0.108c0-0.108,0.09-0.145,0.289-0.145
		c0.812,0,1.877,0.055,1.985,0.055c0.163,0,1.209-0.055,1.751-0.055c0.199,0,0.289,0.036,0.289,0.145
		c0,0.072-0.072,0.108-0.145,0.108c-0.126,0-0.235,0.019-0.451,0.055c-0.487,0.09-0.632,0.396-0.668,1.028
		c-0.036,0.578-0.036,1.083-0.036,3.899v1.083h0.072c0.307-0.343,3.574-3.665,4.224-4.368c0.506-0.523,0.975-0.993,0.975-1.3
		c0-0.217-0.09-0.325-0.235-0.379c-0.09-0.036-0.162-0.072-0.162-0.145c0-0.091,0.09-0.127,0.216-0.127
		c0.361,0,0.921,0.055,1.354,0.055c0.09,0,1.282-0.055,1.733-0.055c0.198,0,0.271,0.036,0.271,0.127c0,0.09-0.036,0.126-0.18,0.126
		c-0.271,0-0.65,0.09-1.011,0.253c-0.74,0.325-1.137,0.776-1.949,1.552c-0.451,0.434-3.592,3.502-3.971,3.954
		c0.469,0.523,4.224,4.404,4.964,5.09c1.516,1.408,1.823,1.697,2.689,2.058c0.47,0.199,0.993,0.235,1.119,0.235
		c0.126,0,0.235,0.036,0.235,0.108c0,0.09-0.09,0.144-0.397,0.144h-0.921c-0.505,0-0.848,0-1.246-0.036
		c-0.957-0.09-1.408-0.487-2.184-1.101c-0.812-0.668-4.639-4.802-5.505-5.866h-0.09v1.769c0,1.732,0,3.159,0.09,3.917
		c0.054,0.523,0.163,0.921,0.704,0.993c0.252,0.036,0.542,0.072,0.704,0.072c0.108,0,0.145,0.054,0.145,0.108
		c0,0.09-0.09,0.144-0.289,0.144c-0.885,0-1.932-0.054-2.076-0.054s-1.191,0.054-1.733,0.054c-0.198,0-0.289-0.036-0.289-0.144
		c0-0.055,0.036-0.108,0.144-0.108c0.163,0,0.379-0.036,0.542-0.072c0.361-0.072,0.451-0.47,0.523-0.993
		c0.09-0.758,0.09-2.185,0.09-3.917V238.119z"/>
	<path class="st0" d="M340.263,233.335c0.217-0.596,0.289-0.704,0.397-0.704s0.181,0.091,0.397,0.65
		c0.271,0.686,3.104,8.141,4.206,10.885c0.65,1.606,1.173,1.896,1.553,2.004c0.271,0.09,0.542,0.108,0.722,0.108
		c0.108,0,0.181,0.018,0.181,0.108c0,0.107-0.163,0.144-0.361,0.144c-0.271,0-1.589,0-2.834-0.036
		c-0.343-0.018-0.542-0.018-0.542-0.126c0-0.072,0.054-0.108,0.126-0.126c0.108-0.036,0.217-0.199,0.108-0.487l-1.679-4.441
		c-0.036-0.071-0.072-0.107-0.163-0.107h-3.881c-0.09,0-0.145,0.054-0.181,0.144l-1.083,3.195c-0.163,0.451-0.252,0.885-0.252,1.21
		c0,0.36,0.379,0.523,0.686,0.523h0.181c0.126,0,0.181,0.036,0.181,0.108c0,0.107-0.108,0.144-0.271,0.144
		c-0.433,0-1.209-0.054-1.408-0.054c-0.199,0-1.191,0.054-2.04,0.054c-0.234,0-0.343-0.036-0.343-0.144
		c0-0.072,0.072-0.108,0.163-0.108c0.126,0,0.379-0.019,0.523-0.036c0.83-0.108,1.191-0.795,1.516-1.697L340.263,233.335z
		 M342.141,240.556c0.09,0,0.09-0.054,0.072-0.126l-1.715-4.874c-0.09-0.271-0.181-0.271-0.271,0l-1.588,4.874
		c-0.036,0.09,0,0.126,0.054,0.126H342.141z"/>
	<path class="st0" d="M134.793,267.257h0.072c0.487-1.661,2.148-6.896,2.78-9.206c0.181-0.668,0.199-0.921,0.199-1.155
		c0-0.325-0.199-0.542-1.029-0.542c-0.09,0-0.163-0.054-0.163-0.126c0-0.091,0.09-0.127,0.307-0.127
		c0.921,0,1.679,0.055,1.841,0.055c0.126,0,0.903-0.055,1.462-0.055c0.162,0,0.252,0.036,0.252,0.108
		c0,0.091-0.054,0.145-0.163,0.145c-0.072,0-0.415,0.019-0.614,0.09c-0.542,0.199-0.83,0.957-1.173,1.95
		c-0.794,2.292-2.618,8.032-3.322,10.055c-0.469,1.335-0.56,1.552-0.758,1.552c-0.181,0-0.289-0.234-0.542-0.938l-3.538-10.036
		h-0.036c-0.65,1.732-3.123,8.34-3.773,10.019c-0.289,0.758-0.379,0.956-0.596,0.956c-0.18,0-0.271-0.198-0.632-1.426l-3.213-10.704
		c-0.289-0.957-0.523-1.228-0.993-1.408c-0.235-0.09-0.686-0.108-0.812-0.108c-0.09,0-0.163-0.018-0.163-0.126
		c0-0.091,0.108-0.127,0.289-0.127c0.938,0,1.931,0.055,2.13,0.055c0.163,0,0.957-0.055,1.859-0.055
		c0.252,0,0.325,0.055,0.325,0.127c0,0.108-0.09,0.126-0.18,0.126c-0.145,0-0.487,0-0.704,0.108
		c-0.108,0.054-0.235,0.198-0.235,0.434c0,0.234,0.163,0.866,0.343,1.66c0.271,1.155,2.148,7.78,2.419,8.737h0.036l3.827-10.29
		c0.271-0.739,0.343-0.83,0.451-0.83c0.126,0,0.235,0.235,0.451,0.849L134.793,267.257z"/>
	<path class="st0" d="M144.357,261.336c0-2.816,0-3.321-0.036-3.899c-0.036-0.613-0.18-0.902-0.776-1.028
		c-0.145-0.036-0.451-0.055-0.614-0.055c-0.072,0-0.145-0.036-0.145-0.108c0-0.108,0.09-0.145,0.289-0.145
		c0.415,0,0.902,0,1.299,0.019l0.74,0.036c0.126,0,3.719,0,4.134-0.019c0.343-0.018,0.632-0.054,0.776-0.09
		c0.09-0.019,0.162-0.091,0.252-0.091c0.054,0,0.072,0.072,0.072,0.163c0,0.126-0.09,0.343-0.145,0.849
		c-0.018,0.18-0.054,0.975-0.09,1.19c-0.018,0.091-0.054,0.199-0.126,0.199c-0.108,0-0.145-0.091-0.145-0.234
		c0-0.127-0.018-0.434-0.108-0.65c-0.126-0.289-0.307-0.505-1.282-0.613c-0.307-0.036-2.274-0.055-2.473-0.055
		c-0.072,0-0.108,0.055-0.108,0.181v4.982c0,0.126,0.018,0.181,0.108,0.181c0.234,0,2.455,0,2.87-0.036
		c0.433-0.036,0.686-0.072,0.848-0.253c0.126-0.145,0.199-0.235,0.271-0.235c0.054,0,0.09,0.036,0.09,0.145s-0.09,0.415-0.145,1.011
		c-0.036,0.361-0.072,1.029-0.072,1.155c0,0.145,0,0.344-0.126,0.344c-0.09,0-0.126-0.072-0.126-0.163c0-0.181,0-0.36-0.072-0.596
		c-0.072-0.252-0.235-0.56-0.939-0.632c-0.487-0.054-2.274-0.09-2.581-0.09c-0.09,0-0.126,0.054-0.126,0.126v1.589
		c0,0.613-0.018,2.708,0,3.087c0.054,1.245,0.325,1.48,2.094,1.48c0.469,0,1.264,0,1.733-0.199c0.469-0.198,0.686-0.56,0.812-1.3
		c0.036-0.198,0.072-0.271,0.163-0.271c0.108,0,0.108,0.145,0.108,0.271c0,0.145-0.144,1.372-0.234,1.751
		c-0.126,0.47-0.271,0.47-0.975,0.47c-1.354,0-2.347-0.036-3.05-0.055c-0.704-0.036-1.137-0.054-1.408-0.054
		c-0.036,0-0.343,0-0.722,0.018c-0.361,0-0.776,0.036-1.047,0.036c-0.198,0-0.289-0.036-0.289-0.144
		c0-0.055,0.036-0.108,0.144-0.108c0.163,0,0.379-0.036,0.542-0.072c0.361-0.072,0.451-0.47,0.523-0.993
		c0.09-0.758,0.09-2.185,0.09-3.917V261.336z"/>
	<path class="st0" d="M155.179,261.336c0-2.816,0-3.321-0.036-3.899c-0.036-0.613-0.181-0.902-0.776-1.028
		c-0.145-0.036-0.451-0.055-0.614-0.055c-0.072,0-0.145-0.036-0.145-0.108c0-0.108,0.09-0.145,0.289-0.145
		c0.812,0,1.949,0.055,2.04,0.055c0.217,0,1.354-0.055,2.437-0.055c1.787,0,5.09-0.162,7.238,2.058
		c0.903,0.939,1.751,2.438,1.751,4.586c0,2.274-0.938,4.025-1.949,5.09c-0.776,0.812-2.401,2.076-5.47,2.076
		c-0.776,0-1.733-0.055-2.509-0.108c-0.794-0.055-1.408-0.108-1.499-0.108c-0.036,0-0.343,0-0.722,0.018
		c-0.361,0-0.776,0.036-1.047,0.036c-0.198,0-0.289-0.036-0.289-0.144c0-0.055,0.036-0.108,0.144-0.108
		c0.163,0,0.379-0.036,0.542-0.072c0.361-0.072,0.452-0.47,0.524-0.993c0.09-0.758,0.09-2.185,0.09-3.917V261.336z M156.695,263.285
		c0,1.913,0.018,3.574,0.036,3.917c0.018,0.451,0.054,1.174,0.198,1.372c0.235,0.343,0.939,0.722,3.069,0.722
		c1.679,0,3.231-0.613,4.296-1.679c0.938-0.92,1.444-2.653,1.444-4.313c0-2.293-0.993-3.773-1.733-4.55
		c-1.697-1.786-3.754-2.039-5.903-2.039c-0.361,0-1.029,0.054-1.173,0.126c-0.162,0.072-0.216,0.162-0.216,0.361
		c-0.018,0.613-0.018,2.455-0.018,3.845V263.285z"/>
	<path class="st0" d="M171.366,261.336c0-2.816,0-3.321-0.036-3.899c-0.036-0.613-0.18-0.902-0.776-1.028
		c-0.145-0.036-0.451-0.055-0.614-0.055c-0.072,0-0.145-0.036-0.145-0.108c0-0.108,0.09-0.145,0.289-0.145
		c0.812,0,1.949,0.055,2.04,0.055c0.217,0,1.354-0.055,2.437-0.055c1.787,0,5.09-0.162,7.238,2.058
		c0.903,0.939,1.751,2.438,1.751,4.586c0,2.274-0.938,4.025-1.949,5.09c-0.776,0.812-2.401,2.076-5.47,2.076
		c-0.776,0-1.733-0.055-2.509-0.108c-0.794-0.055-1.408-0.108-1.499-0.108c-0.036,0-0.343,0-0.722,0.018
		c-0.361,0-0.776,0.036-1.047,0.036c-0.198,0-0.289-0.036-0.289-0.144c0-0.055,0.036-0.108,0.144-0.108
		c0.163,0,0.379-0.036,0.542-0.072c0.361-0.072,0.451-0.47,0.523-0.993c0.09-0.758,0.09-2.185,0.09-3.917V261.336z M172.882,263.285
		c0,1.913,0.018,3.574,0.036,3.917c0.018,0.451,0.054,1.174,0.198,1.372c0.235,0.343,0.939,0.722,3.069,0.722
		c1.679,0,3.231-0.613,4.296-1.679c0.938-0.92,1.444-2.653,1.444-4.313c0-2.293-0.993-3.773-1.733-4.55
		c-1.697-1.786-3.754-2.039-5.903-2.039c-0.361,0-1.029,0.054-1.173,0.126c-0.162,0.072-0.216,0.162-0.216,0.361
		c-0.018,0.613-0.018,2.455-0.018,3.845V263.285z"/>
	<path class="st0" d="M189.091,264.513c0,1.732,0,3.159,0.09,3.917c0.054,0.523,0.162,0.921,0.704,0.993
		c0.253,0.036,0.65,0.072,0.812,0.072c0.108,0,0.145,0.054,0.145,0.108c0,0.09-0.09,0.144-0.289,0.144
		c-0.993,0-2.13-0.054-2.22-0.054s-1.228,0.054-1.769,0.054c-0.198,0-0.289-0.036-0.289-0.144c0-0.055,0.036-0.108,0.144-0.108
		c0.163,0,0.379-0.036,0.542-0.072c0.361-0.072,0.451-0.47,0.523-0.993c0.09-0.758,0.09-2.185,0.09-3.917v-3.177
		c0-2.816,0-3.321-0.036-3.899c-0.036-0.613-0.216-0.921-0.613-1.011c-0.199-0.054-0.434-0.072-0.56-0.072
		c-0.072,0-0.145-0.036-0.145-0.108c0-0.108,0.09-0.145,0.289-0.145c0.596,0,1.733,0.055,1.823,0.055s1.228-0.055,1.769-0.055
		c0.199,0,0.289,0.036,0.289,0.145c0,0.072-0.072,0.108-0.145,0.108c-0.126,0-0.235,0.019-0.451,0.055
		c-0.488,0.09-0.632,0.396-0.668,1.028c-0.036,0.578-0.036,1.083-0.036,3.899V264.513z"/>
	<path class="st0" d="M196.207,267.293c0.036,1.479,0.216,1.949,0.704,2.094c0.343,0.09,0.74,0.108,0.903,0.108
		c0.09,0,0.145,0.036,0.145,0.108c0,0.107-0.108,0.144-0.325,0.144c-1.029,0-1.751-0.054-1.914-0.054
		c-0.162,0-0.92,0.054-1.733,0.054c-0.18,0-0.289-0.018-0.289-0.144c0-0.072,0.054-0.108,0.145-0.108
		c0.144,0,0.469-0.019,0.74-0.108c0.452-0.127,0.542-0.65,0.542-2.293l0.018-10.343c0-0.704,0.054-0.903,0.199-0.903
		s0.451,0.397,0.632,0.578c0.271,0.307,2.96,3.213,5.74,6.191c1.787,1.913,3.755,4.116,4.333,4.712l-0.199-9.171
		c-0.018-1.173-0.145-1.57-0.704-1.715c-0.325-0.071-0.74-0.09-0.884-0.09c-0.126,0-0.145-0.054-0.145-0.126
		c0-0.108,0.145-0.127,0.361-0.127c0.812,0,1.679,0.055,1.877,0.055s0.794-0.055,1.534-0.055c0.199,0,0.325,0.019,0.325,0.127
		c0,0.072-0.072,0.126-0.199,0.126c-0.09,0-0.216,0-0.433,0.055c-0.596,0.126-0.668,0.523-0.668,1.606l-0.036,10.577
		c0,1.191-0.036,1.282-0.163,1.282c-0.144,0-0.361-0.198-1.317-1.155c-0.199-0.181-2.798-2.834-4.711-4.892
		c-2.094-2.257-4.134-4.531-4.711-5.181L196.207,267.293z"/>
	<path class="st0" d="M221.282,265.144c0-1.462-0.09-1.661-0.812-1.859c-0.145-0.036-0.451-0.054-0.614-0.054
		c-0.072,0-0.145-0.036-0.145-0.108c0-0.108,0.09-0.145,0.289-0.145c0.812,0,1.949,0.054,2.04,0.054s1.228-0.054,1.769-0.054
		c0.199,0,0.289,0.036,0.289,0.145c0,0.072-0.072,0.108-0.145,0.108c-0.126,0-0.235,0.018-0.451,0.054
		c-0.487,0.09-0.632,0.397-0.668,1.029c-0.036,0.577-0.036,1.119-0.036,1.877v2.021c0,0.812-0.018,0.849-0.235,0.975
		c-1.155,0.614-2.78,0.812-3.827,0.812c-1.372,0-3.935-0.181-5.939-1.932c-1.101-0.956-2.148-2.888-2.148-5.145
		c0-2.888,1.408-4.928,3.015-5.938c1.625-1.011,3.412-1.138,4.801-1.138c1.138,0,2.419,0.235,2.762,0.308
		c0.379,0.09,1.011,0.162,1.462,0.181c0.181,0.018,0.217,0.09,0.217,0.162c0,0.253-0.126,0.758-0.126,2.563
		c0,0.288-0.036,0.379-0.163,0.379c-0.09,0-0.108-0.108-0.126-0.271c-0.018-0.253-0.108-0.759-0.379-1.191
		c-0.451-0.687-1.914-1.463-4.242-1.463c-1.137,0-2.491,0.108-3.863,1.191c-1.047,0.831-1.787,2.474-1.787,4.585
		c0,2.546,1.282,4.387,1.914,5.001c1.426,1.39,3.069,1.931,4.729,1.931c0.65,0,1.588-0.108,2.058-0.379
		c0.235-0.126,0.361-0.324,0.361-0.632V265.144z"/>
</g>
<path class="st0" d="M250.432,209.983H95.649c-0.276,0-0.5-0.224-0.5-0.5s0.224-0.5,0.5-0.5h154.783c0.276,0,0.5,0.224,0.5,0.5
	S250.708,209.983,250.432,209.983z"/>
</svg>
