<?xml version="1.0" encoding="utf-8"?>
<!-- Generator: Adobe Illustrator 26.2.1, SVG Export Plug-In . SVG Version: 6.00 Build 0)  -->
<svg version="1.1" id="レイヤー_7" xmlns="http://www.w3.org/2000/svg" xmlns:xlink="http://www.w3.org/1999/xlink" x="0px"
	 y="0px" viewBox="0 0 61 27" style="enable-background:new 0 0 61 27;" xml:space="preserve">
<style type="text/css">
	.st0{fill:#675952;}
</style>
<g>
	<path class="st0" d="M9.879,12.956c0,2.592,0,4.724,0.136,5.857c0.081,0.783,0.242,1.377,1.053,1.484
		c0.378,0.055,0.972,0.108,1.215,0.108c0.161,0,0.216,0.081,0.216,0.162c0,0.135-0.136,0.216-0.433,0.216
		c-1.484,0-3.185-0.081-3.319-0.081c-0.136,0-1.836,0.081-2.646,0.081c-0.297,0-0.432-0.054-0.432-0.216
		c0-0.081,0.054-0.162,0.216-0.162c0.242,0,0.566-0.054,0.81-0.108c0.54-0.107,0.675-0.701,0.782-1.484
		c0.136-1.134,0.136-3.266,0.136-5.857V1.538L3.617,1.592C1.943,1.619,1.296,1.809,0.864,2.456C0.566,2.915,0.486,3.104,0.405,3.293
		c-0.081,0.216-0.162,0.27-0.271,0.27C0.054,3.562,0,3.481,0,3.319c0-0.27,0.54-2.591,0.594-2.807C0.647,0.351,0.756,0,0.864,0
		c0.188,0,0.458,0.27,1.188,0.323C2.834,0.404,3.86,0.459,4.184,0.459h10.123c0.863,0,1.484-0.055,1.916-0.136
		c0.405-0.054,0.647-0.135,0.756-0.135c0.135,0,0.135,0.162,0.135,0.324c0,0.81-0.081,2.672-0.081,2.969
		c0,0.243-0.081,0.352-0.188,0.352c-0.135,0-0.189-0.081-0.216-0.459l-0.027-0.297c-0.081-0.811-0.729-1.431-3.32-1.485L9.879,1.538
		V12.956z"/>
	<path class="st0" d="M31.492,0c6.074,0,10.608,3.833,10.608,10.122c0,6.046-4.265,11.04-10.77,11.04
		c-7.396,0-10.474-5.75-10.474-10.608C20.857,6.181,24.043,0,31.492,0z M32.06,20.137c2.43,0,7.45-1.404,7.45-9.259
		c0-6.479-3.941-9.961-8.206-9.961c-4.508,0-7.882,2.97-7.882,8.881C23.422,16.087,27.201,20.137,32.06,20.137z"/>
	<path class="st0" d="M49.423,8.205c0-4.211,0-4.966-0.054-5.83c-0.055-0.918-0.271-1.35-1.161-1.539
		c-0.216-0.054-0.675-0.08-0.918-0.08c-0.107,0-0.216-0.055-0.216-0.162c0-0.162,0.136-0.216,0.433-0.216
		c1.214,0,2.834,0.081,3.05,0.081c0.594,0,2.159-0.081,3.401-0.081c3.374,0,4.589,1.134,5.021,1.538
		c0.594,0.567,1.35,1.781,1.35,3.212c0,3.833-2.808,6.425-6.641,6.425c-0.135,0-0.432,0-0.566-0.027
		c-0.135,0-0.297-0.054-0.297-0.188c0-0.216,0.162-0.243,0.729-0.243c2.618,0,4.67-1.917,4.67-4.399c0-0.892-0.081-2.7-1.512-4.157
		c-1.431-1.458-3.077-1.35-3.698-1.35c-0.459,0-0.918,0.054-1.16,0.162c-0.162,0.054-0.216,0.242-0.216,0.513v11.094
		c0,2.592,0,4.724,0.135,5.857c0.081,0.783,0.243,1.377,1.053,1.484c0.378,0.055,0.972,0.108,1.215,0.108
		c0.161,0,0.216,0.081,0.216,0.162c0,0.135-0.135,0.216-0.433,0.216c-1.484,0-3.185-0.081-3.319-0.081
		c-0.081,0-1.782,0.081-2.592,0.081c-0.297,0-0.432-0.054-0.432-0.216c0-0.081,0.054-0.162,0.216-0.162
		c0.243,0,0.566-0.054,0.81-0.108c0.54-0.107,0.675-0.701,0.783-1.484c0.135-1.134,0.135-3.266,0.135-5.857V8.205z"/>
</g>
</svg>
